solid CATIA STL
  facet normal  0.000000e+000  0.000000e+000  1.000000e+000
    outer loop
      vertex  7.500000e+001  4.888000e+001  1.000000e+001
      vertex  7.500000e+001  7.888000e+001  1.000000e+001
      vertex  7.452000e+001  7.840000e+001  1.000000e+001
    endloop
  endfacet
  facet normal  0.000000e+000  0.000000e+000  1.000000e+000
    outer loop
      vertex  7.500000e+001  4.888000e+001  1.000000e+001
      vertex  7.452000e+001  7.840000e+001  1.000000e+001
      vertex  7.452000e+001  4.936000e+001  1.000000e+001
    endloop
  endfacet
  facet normal  0.000000e+000  0.000000e+000  1.000000e+000
    outer loop
      vertex  7.500000e+001  4.888000e+001  1.000000e+001
      vertex  7.452000e+001  4.936000e+001  1.000000e+001
      vertex -7.500000e+001  4.936000e+001  1.000000e+001
    endloop
  endfacet
  facet normal  0.000000e+000  0.000000e+000  9.999999e-001
    outer loop
      vertex  7.500000e+001  4.888000e+001  1.000000e+001
      vertex -7.500000e+001  4.936000e+001  1.000000e+001
      vertex -7.500000e+001  4.920000e+001  1.000000e+001
    endloop
  endfacet
  facet normal  0.000000e+000  0.000000e+000  1.000000e+000
    outer loop
      vertex  7.500000e+001  4.888000e+001  1.000000e+001
      vertex -7.500000e+001  4.920000e+001  1.000000e+001
      vertex -7.452000e+001  4.888000e+001  1.000000e+001
    endloop
  endfacet
  facet normal  0.000000e+000  0.000000e+000  9.999999e-001
    outer loop
      vertex  7.500000e+001 -3.200000e-001  1.000000e+001
      vertex  7.500000e+001  2.968000e+001  1.000000e+001
      vertex  7.452000e+001  2.920000e+001  1.000000e+001
    endloop
  endfacet
  facet normal  0.000000e+000  0.000000e+000  1.000000e+000
    outer loop
      vertex  7.500000e+001 -3.200000e-001  1.000000e+001
      vertex  7.452000e+001  2.920000e+001  1.000000e+001
      vertex  7.452000e+001  1.600000e-001  1.000000e+001
    endloop
  endfacet
  facet normal  0.000000e+000  0.000000e+000  1.000000e+000
    outer loop
      vertex  7.500000e+001 -3.200000e-001  1.000000e+001
      vertex  7.452000e+001  1.600000e-001  1.000000e+001
      vertex -7.500000e+001  1.600000e-001  1.000000e+001
    endloop
  endfacet
  facet normal  0.000000e+000  0.000000e+000  1.000000e+000
    outer loop
      vertex  7.500000e+001 -3.200000e-001  1.000000e+001
      vertex -7.500000e+001  1.600000e-001  1.000000e+001
      vertex -7.500000e+001  7.105427e-015  1.000000e+001
    endloop
  endfacet
  facet normal  0.000000e+000  0.000000e+000  1.000000e+000
    outer loop
      vertex  7.500000e+001 -3.200000e-001  1.000000e+001
      vertex -7.500000e+001  7.105427e-015  1.000000e+001
      vertex -7.452000e+001 -3.200000e-001  1.000000e+001
    endloop
  endfacet
  facet normal  0.000000e+000  0.000000e+000  9.999999e-001
    outer loop
      vertex  7.500000e+001 -4.952000e+001  1.000000e+001
      vertex  7.500000e+001 -1.952000e+001  1.000000e+001
      vertex  7.452000e+001 -2.000000e+001  1.000000e+001
    endloop
  endfacet
  facet normal  0.000000e+000  0.000000e+000  1.000000e+000
    outer loop
      vertex  7.500000e+001 -4.952000e+001  1.000000e+001
      vertex  7.452000e+001 -2.000000e+001  1.000000e+001
      vertex  7.452000e+001 -4.904000e+001  1.000000e+001
    endloop
  endfacet
  facet normal  0.000000e+000  0.000000e+000  1.000000e+000
    outer loop
      vertex  7.500000e+001 -4.952000e+001  1.000000e+001
      vertex  7.452000e+001 -4.904000e+001  1.000000e+001
      vertex -7.500000e+001 -4.904000e+001  1.000000e+001
    endloop
  endfacet
  facet normal  0.000000e+000  0.000000e+000  1.000000e+000
    outer loop
      vertex  7.500000e+001 -4.952000e+001  1.000000e+001
      vertex -7.500000e+001 -4.904000e+001  1.000000e+001
      vertex -7.500000e+001 -4.952000e+001  1.000000e+001
    endloop
  endfacet
  facet normal  -0.000000e+000  0.000000e+000  1.000000e+000
    outer loop
      vertex -7.452000e+001  9.840000e+001  1.000000e+001
      vertex -7.500000e+001  9.840000e+001  1.000000e+001
      vertex -7.452000e+001  7.888000e+001  1.000000e+001
    endloop
  endfacet
  facet normal  0.000000e+000  0.000000e+000  1.000000e+000
    outer loop
      vertex -7.452000e+001  7.888000e+001  1.000000e+001
      vertex -7.500000e+001  9.840000e+001  1.000000e+001
      vertex -7.500000e+001  7.840000e+001  1.000000e+001
    endloop
  endfacet
  facet normal  0.000000e+000  0.000000e+000  1.000000e+000
    outer loop
      vertex -7.452000e+001  7.888000e+001  1.000000e+001
      vertex -7.500000e+001  7.840000e+001  1.000000e+001
      vertex  7.500000e+001  7.888000e+001  1.000000e+001
    endloop
  endfacet
  facet normal  0.000000e+000  0.000000e+000  1.000000e+000
    outer loop
      vertex  7.500000e+001  7.888000e+001  1.000000e+001
      vertex -7.500000e+001  7.840000e+001  1.000000e+001
      vertex  7.452000e+001  7.840000e+001  1.000000e+001
    endloop
  endfacet
  facet normal  0.000000e+000  0.000000e+000  1.000000e+000
    outer loop
      vertex -7.452000e+001  4.888000e+001  1.000000e+001
      vertex -7.500000e+001  4.920000e+001  1.000000e+001
      vertex -7.452000e+001  2.968000e+001  1.000000e+001
    endloop
  endfacet
  facet normal  0.000000e+000  0.000000e+000  1.000000e+000
    outer loop
      vertex -7.452000e+001  2.968000e+001  1.000000e+001
      vertex -7.500000e+001  4.920000e+001  1.000000e+001
      vertex -7.500000e+001  2.920000e+001  1.000000e+001
    endloop
  endfacet
  facet normal  0.000000e+000  0.000000e+000  1.000000e+000
    outer loop
      vertex -7.452000e+001  2.968000e+001  1.000000e+001
      vertex -7.500000e+001  2.920000e+001  1.000000e+001
      vertex  7.500000e+001  2.968000e+001  1.000000e+001
    endloop
  endfacet
  facet normal  0.000000e+000  0.000000e+000  1.000000e+000
    outer loop
      vertex  7.500000e+001  2.968000e+001  1.000000e+001
      vertex -7.500000e+001  2.920000e+001  1.000000e+001
      vertex  7.452000e+001  2.920000e+001  1.000000e+001
    endloop
  endfacet
  facet normal  0.000000e+000  0.000000e+000  1.000000e+000
    outer loop
      vertex -7.452000e+001 -3.200000e-001  1.000000e+001
      vertex -7.500000e+001  7.105427e-015  1.000000e+001
      vertex -7.452000e+001 -1.952000e+001  1.000000e+001
    endloop
  endfacet
  facet normal  0.000000e+000  0.000000e+000  1.000000e+000
    outer loop
      vertex -7.452000e+001 -1.952000e+001  1.000000e+001
      vertex -7.500000e+001  7.105427e-015  1.000000e+001
      vertex -7.500000e+001 -2.000000e+001  1.000000e+001
    endloop
  endfacet
  facet normal  0.000000e+000  0.000000e+000  1.000000e+000
    outer loop
      vertex -7.452000e+001 -1.952000e+001  1.000000e+001
      vertex -7.500000e+001 -2.000000e+001  1.000000e+001
      vertex  7.500000e+001 -1.952000e+001  1.000000e+001
    endloop
  endfacet
  facet normal  0.000000e+000  0.000000e+000  1.000000e+000
    outer loop
      vertex  7.500000e+001 -1.952000e+001  1.000000e+001
      vertex -7.500000e+001 -2.000000e+001  1.000000e+001
      vertex  7.452000e+001 -2.000000e+001  1.000000e+001
    endloop
  endfacet
  facet normal -1.000000e+000  0.000000e+000  0.000000e+000
    outer loop
      vertex -7.500000e+001  2.920000e+001  0.000000e+000
      vertex -7.500000e+001  2.920000e+001  1.000000e+001
      vertex -7.500000e+001  4.920000e+001  0.000000e+000
    endloop
  endfacet
  facet normal -1.000000e+000  0.000000e+000  0.000000e+000
    outer loop
      vertex -7.500000e+001  4.920000e+001  0.000000e+000
      vertex -7.500000e+001  2.920000e+001  1.000000e+001
      vertex -7.500000e+001  4.920000e+001  1.000000e+001
    endloop
  endfacet
  facet normal -1.000000e+000  0.000000e+000  0.000000e+000
    outer loop
      vertex -7.500000e+001  4.920000e+001  0.000000e+000
      vertex -7.500000e+001  4.920000e+001  1.000000e+001
      vertex -7.500000e+001  4.936000e+001  0.000000e+000
    endloop
  endfacet
  facet normal -1.000000e+000  0.000000e+000  0.000000e+000
    outer loop
      vertex -7.500000e+001  4.936000e+001  0.000000e+000
      vertex -7.500000e+001  4.920000e+001  1.000000e+001
      vertex -7.500000e+001  4.936000e+001  1.000000e+001
    endloop
  endfacet
  facet normal  0.000000e+000  0.000000e+000 -1.000000e+000
    outer loop
      vertex  7.500000e+001  4.888000e+001  0.000000e+000
      vertex -7.452000e+001  4.888000e+001  0.000000e+000
      vertex -7.500000e+001  4.920000e+001  0.000000e+000
    endloop
  endfacet
  facet normal  0.000000e+000  0.000000e+000 -9.999999e-001
    outer loop
      vertex  7.500000e+001  4.888000e+001  0.000000e+000
      vertex -7.500000e+001  4.920000e+001  0.000000e+000
      vertex -7.500000e+001  4.936000e+001  0.000000e+000
    endloop
  endfacet
  facet normal  0.000000e+000  0.000000e+000 -1.000000e+000
    outer loop
      vertex  7.500000e+001  4.888000e+001  0.000000e+000
      vertex -7.500000e+001  4.936000e+001  0.000000e+000
      vertex  7.452000e+001  4.936000e+001  0.000000e+000
    endloop
  endfacet
  facet normal  0.000000e+000  0.000000e+000 -1.000000e+000
    outer loop
      vertex  7.500000e+001  4.888000e+001  0.000000e+000
      vertex  7.452000e+001  4.936000e+001  0.000000e+000
      vertex  7.452000e+001  7.840000e+001  0.000000e+000
    endloop
  endfacet
  facet normal  0.000000e+000  0.000000e+000 -1.000000e+000
    outer loop
      vertex  7.500000e+001  4.888000e+001  0.000000e+000
      vertex  7.452000e+001  7.840000e+001  0.000000e+000
      vertex  7.500000e+001  7.888000e+001  0.000000e+000
    endloop
  endfacet
  facet normal  0.000000e+000  0.000000e+000 -9.999999e-001
    outer loop
      vertex  7.500000e+001 -3.200000e-001  0.000000e+000
      vertex -7.452000e+001 -3.200000e-001  0.000000e+000
      vertex -7.500000e+001  0.000000e+000  0.000000e+000
    endloop
  endfacet
  facet normal  0.000000e+000  0.000000e+000 -1.000000e+000
    outer loop
      vertex  7.500000e+001 -3.200000e-001  0.000000e+000
      vertex -7.500000e+001  0.000000e+000  0.000000e+000
      vertex -7.500000e+001  1.600000e-001  0.000000e+000
    endloop
  endfacet
  facet normal  0.000000e+000  0.000000e+000 -1.000000e+000
    outer loop
      vertex  7.500000e+001 -3.200000e-001  0.000000e+000
      vertex -7.500000e+001  1.600000e-001  0.000000e+000
      vertex  7.452000e+001  1.600000e-001  0.000000e+000
    endloop
  endfacet
  facet normal  0.000000e+000  0.000000e+000 -1.000000e+000
    outer loop
      vertex  7.500000e+001 -3.200000e-001  0.000000e+000
      vertex  7.452000e+001  1.600000e-001  0.000000e+000
      vertex  7.452000e+001  2.920000e+001  0.000000e+000
    endloop
  endfacet
  facet normal  0.000000e+000  0.000000e+000 -9.999999e-001
    outer loop
      vertex  7.500000e+001 -3.200000e-001  0.000000e+000
      vertex  7.452000e+001  2.920000e+001  0.000000e+000
      vertex  7.500000e+001  2.968000e+001  0.000000e+000
    endloop
  endfacet
  facet normal  0.000000e+000  0.000000e+000 -1.000000e+000
    outer loop
      vertex  7.500000e+001 -4.952000e+001  0.000000e+000
      vertex -7.500000e+001 -4.952000e+001  0.000000e+000
      vertex -7.500000e+001 -4.904000e+001  0.000000e+000
    endloop
  endfacet
  facet normal  0.000000e+000  0.000000e+000 -1.000000e+000
    outer loop
      vertex  7.500000e+001 -4.952000e+001  0.000000e+000
      vertex -7.500000e+001 -4.904000e+001  0.000000e+000
      vertex  7.452000e+001 -4.904000e+001  0.000000e+000
    endloop
  endfacet
  facet normal  0.000000e+000  0.000000e+000 -1.000000e+000
    outer loop
      vertex  7.500000e+001 -4.952000e+001  0.000000e+000
      vertex  7.452000e+001 -4.904000e+001  0.000000e+000
      vertex  7.452000e+001 -2.000000e+001  0.000000e+000
    endloop
  endfacet
  facet normal  0.000000e+000  0.000000e+000 -9.999999e-001
    outer loop
      vertex  7.500000e+001 -4.952000e+001  0.000000e+000
      vertex  7.452000e+001 -2.000000e+001  0.000000e+000
      vertex  7.500000e+001 -1.952000e+001  0.000000e+000
    endloop
  endfacet
  facet normal  0.000000e+000  0.000000e+000 -1.000000e+000
    outer loop
      vertex -7.452000e+001  9.840000e+001  0.000000e+000
      vertex -7.452000e+001  7.888000e+001  0.000000e+000
      vertex -7.500000e+001  9.840000e+001  0.000000e+000
    endloop
  endfacet
  facet normal  0.000000e+000  0.000000e+000 -1.000000e+000
    outer loop
      vertex -7.500000e+001  9.840000e+001  0.000000e+000
      vertex -7.452000e+001  7.888000e+001  0.000000e+000
      vertex -7.500000e+001  7.840000e+001  0.000000e+000
    endloop
  endfacet
  facet normal  -0.000000e+000  0.000000e+000 -1.000000e+000
    outer loop
      vertex -7.452000e+001  7.888000e+001  0.000000e+000
      vertex  7.500000e+001  7.888000e+001  0.000000e+000
      vertex -7.500000e+001  7.840000e+001  0.000000e+000
    endloop
  endfacet
  facet normal  0.000000e+000  0.000000e+000 -1.000000e+000
    outer loop
      vertex -7.500000e+001  7.840000e+001  0.000000e+000
      vertex  7.500000e+001  7.888000e+001  0.000000e+000
      vertex  7.452000e+001  7.840000e+001  0.000000e+000
    endloop
  endfacet
  facet normal  0.000000e+000  0.000000e+000 -1.000000e+000
    outer loop
      vertex -7.452000e+001  4.888000e+001  0.000000e+000
      vertex -7.452000e+001  2.968000e+001  0.000000e+000
      vertex -7.500000e+001  4.920000e+001  0.000000e+000
    endloop
  endfacet
  facet normal  0.000000e+000  0.000000e+000 -1.000000e+000
    outer loop
      vertex -7.500000e+001  4.920000e+001  0.000000e+000
      vertex -7.452000e+001  2.968000e+001  0.000000e+000
      vertex -7.500000e+001  2.920000e+001  0.000000e+000
    endloop
  endfacet
  facet normal  -0.000000e+000  0.000000e+000 -1.000000e+000
    outer loop
      vertex -7.452000e+001  2.968000e+001  0.000000e+000
      vertex  7.500000e+001  2.968000e+001  0.000000e+000
      vertex -7.500000e+001  2.920000e+001  0.000000e+000
    endloop
  endfacet
  facet normal  0.000000e+000  0.000000e+000 -1.000000e+000
    outer loop
      vertex -7.500000e+001  2.920000e+001  0.000000e+000
      vertex  7.500000e+001  2.968000e+001  0.000000e+000
      vertex  7.452000e+001  2.920000e+001  0.000000e+000
    endloop
  endfacet
  facet normal  0.000000e+000  0.000000e+000 -1.000000e+000
    outer loop
      vertex -7.452000e+001 -3.200000e-001  0.000000e+000
      vertex -7.452000e+001 -1.952000e+001  0.000000e+000
      vertex -7.500000e+001  0.000000e+000  0.000000e+000
    endloop
  endfacet
  facet normal  0.000000e+000  0.000000e+000 -1.000000e+000
    outer loop
      vertex -7.500000e+001  0.000000e+000  0.000000e+000
      vertex -7.452000e+001 -1.952000e+001  0.000000e+000
      vertex -7.500000e+001 -2.000000e+001  0.000000e+000
    endloop
  endfacet
  facet normal  -0.000000e+000  0.000000e+000 -1.000000e+000
    outer loop
      vertex -7.452000e+001 -1.952000e+001  0.000000e+000
      vertex  7.500000e+001 -1.952000e+001  0.000000e+000
      vertex -7.500000e+001 -2.000000e+001  0.000000e+000
    endloop
  endfacet
  facet normal  0.000000e+000  0.000000e+000 -1.000000e+000
    outer loop
      vertex -7.500000e+001 -2.000000e+001  0.000000e+000
      vertex  7.500000e+001 -1.952000e+001  0.000000e+000
      vertex  7.452000e+001 -2.000000e+001  0.000000e+000
    endloop
  endfacet
  facet normal  0.000000e+000 -1.000000e+000  0.000000e+000
    outer loop
      vertex -7.452000e+001  4.888000e+001  1.000000e+001
      vertex -7.452000e+001  4.888000e+001  0.000000e+000
      vertex  7.500000e+001  4.888000e+001  1.000000e+001
    endloop
  endfacet
  facet normal  0.000000e+000 -1.000000e+000  -0.000000e+000
    outer loop
      vertex  7.500000e+001  4.888000e+001  1.000000e+001
      vertex -7.452000e+001  4.888000e+001  0.000000e+000
      vertex  7.500000e+001  4.888000e+001  0.000000e+000
    endloop
  endfacet
  facet normal  1.000000e+000  0.000000e+000  0.000000e+000
    outer loop
      vertex -7.452000e+001  2.968000e+001  1.000000e+001
      vertex -7.452000e+001  2.968000e+001  0.000000e+000
      vertex -7.452000e+001  4.888000e+001  1.000000e+001
    endloop
  endfacet
  facet normal  1.000000e+000  0.000000e+000  0.000000e+000
    outer loop
      vertex -7.452000e+001  4.888000e+001  1.000000e+001
      vertex -7.452000e+001  2.968000e+001  0.000000e+000
      vertex -7.452000e+001  4.888000e+001  0.000000e+000
    endloop
  endfacet
  facet normal -1.000000e+000  0.000000e+000  0.000000e+000
    outer loop
      vertex -7.500000e+001 -2.000000e+001  0.000000e+000
      vertex -7.500000e+001 -2.000000e+001  1.000000e+001
      vertex -7.500000e+001  0.000000e+000  0.000000e+000
    endloop
  endfacet
  facet normal -1.000000e+000  0.000000e+000  0.000000e+000
    outer loop
      vertex -7.500000e+001  0.000000e+000  0.000000e+000
      vertex -7.500000e+001 -2.000000e+001  1.000000e+001
      vertex -7.500000e+001  7.105427e-015  1.000000e+001
    endloop
  endfacet
  facet normal -1.000000e+000  0.000000e+000  -0.000000e+000
    outer loop
      vertex -7.500000e+001  0.000000e+000  0.000000e+000
      vertex -7.500000e+001  7.105427e-015  1.000000e+001
      vertex -7.500000e+001  1.600000e-001  0.000000e+000
    endloop
  endfacet
  facet normal -1.000000e+000  0.000000e+000  0.000000e+000
    outer loop
      vertex -7.500000e+001  1.600000e-001  0.000000e+000
      vertex -7.500000e+001  7.105427e-015  1.000000e+001
      vertex -7.500000e+001  1.600000e-001  1.000000e+001
    endloop
  endfacet
  facet normal  0.000000e+000 -1.000000e+000  0.000000e+000
    outer loop
      vertex -7.452000e+001 -3.200000e-001  1.000000e+001
      vertex -7.452000e+001 -3.200000e-001  0.000000e+000
      vertex  7.500000e+001 -3.200000e-001  1.000000e+001
    endloop
  endfacet
  facet normal  0.000000e+000 -1.000000e+000  -0.000000e+000
    outer loop
      vertex  7.500000e+001 -3.200000e-001  1.000000e+001
      vertex -7.452000e+001 -3.200000e-001  0.000000e+000
      vertex  7.500000e+001 -3.200000e-001  0.000000e+000
    endloop
  endfacet
  facet normal  1.000000e+000  0.000000e+000  0.000000e+000
    outer loop
      vertex -7.452000e+001 -1.952000e+001  1.000000e+001
      vertex -7.452000e+001 -1.952000e+001  0.000000e+000
      vertex -7.452000e+001 -3.200000e-001  1.000000e+001
    endloop
  endfacet
  facet normal  1.000000e+000  0.000000e+000  0.000000e+000
    outer loop
      vertex -7.452000e+001 -3.200000e-001  1.000000e+001
      vertex -7.452000e+001 -1.952000e+001  0.000000e+000
      vertex -7.452000e+001 -3.200000e-001  0.000000e+000
    endloop
  endfacet
  facet normal  0.000000e+000  1.000000e+000  -0.000000e+000
    outer loop
      vertex  7.452000e+001  4.936000e+001  1.000000e+001
      vertex  7.452000e+001  4.936000e+001  0.000000e+000
      vertex -7.500000e+001  4.936000e+001  1.000000e+001
    endloop
  endfacet
  facet normal  0.000000e+000  1.000000e+000  0.000000e+000
    outer loop
      vertex -7.500000e+001  4.936000e+001  1.000000e+001
      vertex  7.452000e+001  4.936000e+001  0.000000e+000
      vertex -7.500000e+001  4.936000e+001  0.000000e+000
    endloop
  endfacet
  facet normal -1.000000e+000  0.000000e+000  0.000000e+000
    outer loop
      vertex  7.452000e+001  7.840000e+001  1.000000e+001
      vertex  7.452000e+001  7.840000e+001  0.000000e+000
      vertex  7.452000e+001  4.936000e+001  1.000000e+001
    endloop
  endfacet
  facet normal -1.000000e+000  0.000000e+000  0.000000e+000
    outer loop
      vertex  7.452000e+001  4.936000e+001  1.000000e+001
      vertex  7.452000e+001  7.840000e+001  0.000000e+000
      vertex  7.452000e+001  4.936000e+001  0.000000e+000
    endloop
  endfacet
  facet normal  0.000000e+000 -1.000000e+000  0.000000e+000
    outer loop
      vertex -7.500000e+001  7.840000e+001  1.000000e+001
      vertex -7.500000e+001  7.840000e+001  0.000000e+000
      vertex  7.452000e+001  7.840000e+001  1.000000e+001
    endloop
  endfacet
  facet normal  0.000000e+000 -1.000000e+000  -0.000000e+000
    outer loop
      vertex  7.452000e+001  7.840000e+001  1.000000e+001
      vertex -7.500000e+001  7.840000e+001  0.000000e+000
      vertex  7.452000e+001  7.840000e+001  0.000000e+000
    endloop
  endfacet
  facet normal -1.000000e+000  0.000000e+000  0.000000e+000
    outer loop
      vertex -7.500000e+001  9.840000e+001  1.000000e+001
      vertex -7.500000e+001  9.840000e+001  0.000000e+000
      vertex -7.500000e+001  7.840000e+001  1.000000e+001
    endloop
  endfacet
  facet normal -1.000000e+000  0.000000e+000  0.000000e+000
    outer loop
      vertex -7.500000e+001  7.840000e+001  1.000000e+001
      vertex -7.500000e+001  9.840000e+001  0.000000e+000
      vertex -7.500000e+001  7.840000e+001  0.000000e+000
    endloop
  endfacet
  facet normal  0.000000e+000  1.000000e+000  0.000000e+000
    outer loop
      vertex -7.452000e+001  9.840000e+001  0.000000e+000
      vertex -7.500000e+001  9.840000e+001  0.000000e+000
      vertex -7.452000e+001  9.840000e+001  1.000000e+001
    endloop
  endfacet
  facet normal  0.000000e+000  1.000000e+000  0.000000e+000
    outer loop
      vertex -7.452000e+001  9.840000e+001  1.000000e+001
      vertex -7.500000e+001  9.840000e+001  0.000000e+000
      vertex -7.500000e+001  9.840000e+001  1.000000e+001
    endloop
  endfacet
  facet normal  1.000000e+000  0.000000e+000  0.000000e+000
    outer loop
      vertex -7.452000e+001  7.888000e+001  1.000000e+001
      vertex -7.452000e+001  7.888000e+001  0.000000e+000
      vertex -7.452000e+001  9.840000e+001  1.000000e+001
    endloop
  endfacet
  facet normal  1.000000e+000  0.000000e+000  0.000000e+000
    outer loop
      vertex -7.452000e+001  9.840000e+001  1.000000e+001
      vertex -7.452000e+001  7.888000e+001  0.000000e+000
      vertex -7.452000e+001  9.840000e+001  0.000000e+000
    endloop
  endfacet
  facet normal  0.000000e+000  1.000000e+000  -0.000000e+000
    outer loop
      vertex  7.500000e+001  7.888000e+001  1.000000e+001
      vertex  7.500000e+001  7.888000e+001  0.000000e+000
      vertex -7.452000e+001  7.888000e+001  1.000000e+001
    endloop
  endfacet
  facet normal  0.000000e+000  1.000000e+000  0.000000e+000
    outer loop
      vertex -7.452000e+001  7.888000e+001  1.000000e+001
      vertex  7.500000e+001  7.888000e+001  0.000000e+000
      vertex -7.452000e+001  7.888000e+001  0.000000e+000
    endloop
  endfacet
  facet normal  1.000000e+000  0.000000e+000  0.000000e+000
    outer loop
      vertex  7.500000e+001  4.888000e+001  1.000000e+001
      vertex  7.500000e+001  4.888000e+001  0.000000e+000
      vertex  7.500000e+001  7.888000e+001  1.000000e+001
    endloop
  endfacet
  facet normal  1.000000e+000  0.000000e+000  0.000000e+000
    outer loop
      vertex  7.500000e+001  7.888000e+001  1.000000e+001
      vertex  7.500000e+001  4.888000e+001  0.000000e+000
      vertex  7.500000e+001  7.888000e+001  0.000000e+000
    endloop
  endfacet
  facet normal  0.000000e+000  1.000000e+000  -0.000000e+000
    outer loop
      vertex  7.452000e+001  1.600000e-001  1.000000e+001
      vertex  7.452000e+001  1.600000e-001  0.000000e+000
      vertex -7.500000e+001  1.600000e-001  1.000000e+001
    endloop
  endfacet
  facet normal  0.000000e+000  1.000000e+000  0.000000e+000
    outer loop
      vertex -7.500000e+001  1.600000e-001  1.000000e+001
      vertex  7.452000e+001  1.600000e-001  0.000000e+000
      vertex -7.500000e+001  1.600000e-001  0.000000e+000
    endloop
  endfacet
  facet normal -1.000000e+000  0.000000e+000  0.000000e+000
    outer loop
      vertex  7.452000e+001  2.920000e+001  1.000000e+001
      vertex  7.452000e+001  2.920000e+001  0.000000e+000
      vertex  7.452000e+001  1.600000e-001  1.000000e+001
    endloop
  endfacet
  facet normal -1.000000e+000  0.000000e+000  0.000000e+000
    outer loop
      vertex  7.452000e+001  1.600000e-001  1.000000e+001
      vertex  7.452000e+001  2.920000e+001  0.000000e+000
      vertex  7.452000e+001  1.600000e-001  0.000000e+000
    endloop
  endfacet
  facet normal  0.000000e+000 -1.000000e+000  0.000000e+000
    outer loop
      vertex -7.500000e+001  2.920000e+001  1.000000e+001
      vertex -7.500000e+001  2.920000e+001  0.000000e+000
      vertex  7.452000e+001  2.920000e+001  1.000000e+001
    endloop
  endfacet
  facet normal  0.000000e+000 -1.000000e+000  -0.000000e+000
    outer loop
      vertex  7.452000e+001  2.920000e+001  1.000000e+001
      vertex -7.500000e+001  2.920000e+001  0.000000e+000
      vertex  7.452000e+001  2.920000e+001  0.000000e+000
    endloop
  endfacet
  facet normal  0.000000e+000  1.000000e+000  -0.000000e+000
    outer loop
      vertex  7.500000e+001  2.968000e+001  1.000000e+001
      vertex  7.500000e+001  2.968000e+001  0.000000e+000
      vertex -7.452000e+001  2.968000e+001  1.000000e+001
    endloop
  endfacet
  facet normal  0.000000e+000  1.000000e+000  0.000000e+000
    outer loop
      vertex -7.452000e+001  2.968000e+001  1.000000e+001
      vertex  7.500000e+001  2.968000e+001  0.000000e+000
      vertex -7.452000e+001  2.968000e+001  0.000000e+000
    endloop
  endfacet
  facet normal  1.000000e+000  0.000000e+000  0.000000e+000
    outer loop
      vertex  7.500000e+001 -3.200000e-001  1.000000e+001
      vertex  7.500000e+001 -3.200000e-001  0.000000e+000
      vertex  7.500000e+001  2.968000e+001  1.000000e+001
    endloop
  endfacet
  facet normal  1.000000e+000  0.000000e+000  0.000000e+000
    outer loop
      vertex  7.500000e+001  2.968000e+001  1.000000e+001
      vertex  7.500000e+001 -3.200000e-001  0.000000e+000
      vertex  7.500000e+001  2.968000e+001  0.000000e+000
    endloop
  endfacet
  facet normal -1.000000e+000  0.000000e+000  0.000000e+000
    outer loop
      vertex -7.500000e+001 -4.904000e+001  1.000000e+001
      vertex -7.500000e+001 -4.904000e+001  0.000000e+000
      vertex -7.500000e+001 -4.952000e+001  1.000000e+001
    endloop
  endfacet
  facet normal -1.000000e+000  0.000000e+000  0.000000e+000
    outer loop
      vertex -7.500000e+001 -4.952000e+001  1.000000e+001
      vertex -7.500000e+001 -4.904000e+001  0.000000e+000
      vertex -7.500000e+001 -4.952000e+001  0.000000e+000
    endloop
  endfacet
  facet normal  0.000000e+000  1.000000e+000  -0.000000e+000
    outer loop
      vertex  7.452000e+001 -4.904000e+001  1.000000e+001
      vertex  7.452000e+001 -4.904000e+001  0.000000e+000
      vertex -7.500000e+001 -4.904000e+001  1.000000e+001
    endloop
  endfacet
  facet normal  0.000000e+000  1.000000e+000  0.000000e+000
    outer loop
      vertex -7.500000e+001 -4.904000e+001  1.000000e+001
      vertex  7.452000e+001 -4.904000e+001  0.000000e+000
      vertex -7.500000e+001 -4.904000e+001  0.000000e+000
    endloop
  endfacet
  facet normal -1.000000e+000  0.000000e+000  0.000000e+000
    outer loop
      vertex  7.452000e+001 -2.000000e+001  1.000000e+001
      vertex  7.452000e+001 -2.000000e+001  0.000000e+000
      vertex  7.452000e+001 -4.904000e+001  1.000000e+001
    endloop
  endfacet
  facet normal -1.000000e+000  0.000000e+000  0.000000e+000
    outer loop
      vertex  7.452000e+001 -4.904000e+001  1.000000e+001
      vertex  7.452000e+001 -2.000000e+001  0.000000e+000
      vertex  7.452000e+001 -4.904000e+001  0.000000e+000
    endloop
  endfacet
  facet normal  0.000000e+000 -1.000000e+000  0.000000e+000
    outer loop
      vertex -7.500000e+001 -2.000000e+001  1.000000e+001
      vertex -7.500000e+001 -2.000000e+001  0.000000e+000
      vertex  7.452000e+001 -2.000000e+001  1.000000e+001
    endloop
  endfacet
  facet normal  0.000000e+000 -1.000000e+000  -0.000000e+000
    outer loop
      vertex  7.452000e+001 -2.000000e+001  1.000000e+001
      vertex -7.500000e+001 -2.000000e+001  0.000000e+000
      vertex  7.452000e+001 -2.000000e+001  0.000000e+000
    endloop
  endfacet
  facet normal  0.000000e+000  1.000000e+000  -0.000000e+000
    outer loop
      vertex  7.500000e+001 -1.952000e+001  1.000000e+001
      vertex  7.500000e+001 -1.952000e+001  0.000000e+000
      vertex -7.452000e+001 -1.952000e+001  1.000000e+001
    endloop
  endfacet
  facet normal  0.000000e+000  1.000000e+000  0.000000e+000
    outer loop
      vertex -7.452000e+001 -1.952000e+001  1.000000e+001
      vertex  7.500000e+001 -1.952000e+001  0.000000e+000
      vertex -7.452000e+001 -1.952000e+001  0.000000e+000
    endloop
  endfacet
  facet normal  1.000000e+000  0.000000e+000  0.000000e+000
    outer loop
      vertex  7.500000e+001 -4.952000e+001  1.000000e+001
      vertex  7.500000e+001 -4.952000e+001  0.000000e+000
      vertex  7.500000e+001 -1.952000e+001  1.000000e+001
    endloop
  endfacet
  facet normal  1.000000e+000  0.000000e+000  0.000000e+000
    outer loop
      vertex  7.500000e+001 -1.952000e+001  1.000000e+001
      vertex  7.500000e+001 -4.952000e+001  0.000000e+000
      vertex  7.500000e+001 -1.952000e+001  0.000000e+000
    endloop
  endfacet
  facet normal  0.000000e+000 -1.000000e+000  0.000000e+000
    outer loop
      vertex -7.500000e+001 -4.952000e+001  1.000000e+001
      vertex -7.500000e+001 -4.952000e+001  0.000000e+000
      vertex  7.500000e+001 -4.952000e+001  1.000000e+001
    endloop
  endfacet
  facet normal  0.000000e+000 -1.000000e+000  -0.000000e+000
    outer loop
      vertex  7.500000e+001 -4.952000e+001  1.000000e+001
      vertex -7.500000e+001 -4.952000e+001  0.000000e+000
      vertex  7.500000e+001 -4.952000e+001  0.000000e+000
    endloop
  endfacet
endsolid CATIA STL
