solid CATIA STL
  facet normal  0.000000e+000  0.000000e+000  1.000000e+000
    outer loop
      vertex -1.808000e+001  9.808000e+001  1.000000e+002
      vertex -1.999269e+001  9.824734e+001  1.000000e+002
      vertex -2.000000e+001  9.808000e+001  1.000000e+002
    endloop
  endfacet
  facet normal  0.000000e+000  0.000000e+000  1.000000e+000
    outer loop
      vertex  1.808000e+001  9.808000e+001  1.000000e+002
      vertex  1.808000e+001 -9.808000e+001  1.000000e+002
      vertex  2.000000e+001 -9.808000e+001  1.000000e+002
    endloop
  endfacet
  facet normal  0.000000e+000  -0.000000e+000  1.000000e+000
    outer loop
      vertex  1.808000e+001  9.808000e+001  1.000000e+002
      vertex  2.000000e+001 -9.808000e+001  1.000000e+002
      vertex  2.000000e+001  9.808000e+001  1.000000e+002
    endloop
  endfacet
  facet normal  0.000000e+000  0.000000e+000  1.000000e+000
    outer loop
      vertex  1.808000e+001  9.808000e+001  1.000000e+002
      vertex  2.000000e+001  9.808000e+001  1.000000e+002
      vertex  1.999269e+001  9.824734e+001  1.000000e+002
    endloop
  endfacet
  facet normal  0.000000e+000  0.000000e+000  1.000000e+000
    outer loop
      vertex  1.808000e+001  9.808000e+001  1.000000e+002
      vertex  1.999269e+001  9.824734e+001  1.000000e+002
      vertex  1.997083e+001  9.841341e+001  1.000000e+002
    endloop
  endfacet
  facet normal  0.000000e+000  0.000000e+000  1.000000e+000
    outer loop
      vertex  1.808000e+001  9.808000e+001  1.000000e+002
      vertex  1.997083e+001  9.841341e+001  1.000000e+002
      vertex  1.993458e+001  9.857693e+001  1.000000e+002
    endloop
  endfacet
  facet normal  0.000000e+000  0.000000e+000  1.000000e+000
    outer loop
      vertex  1.808000e+001  9.808000e+001  1.000000e+002
      vertex  1.993458e+001  9.857693e+001  1.000000e+002
      vertex  1.988421e+001  9.873668e+001  1.000000e+002
    endloop
  endfacet
  facet normal  0.000000e+000  0.000000e+000  1.000000e+000
    outer loop
      vertex  1.808000e+001  9.808000e+001  1.000000e+002
      vertex  1.988421e+001  9.873668e+001  1.000000e+002
      vertex  1.982011e+001  9.889143e+001  1.000000e+002
    endloop
  endfacet
  facet normal  0.000000e+000  0.000000e+000  1.000000e+000
    outer loop
      vertex  1.808000e+001  9.808000e+001  1.000000e+002
      vertex  1.982011e+001  9.889143e+001  1.000000e+002
      vertex  1.974277e+001  9.904000e+001  1.000000e+002
    endloop
  endfacet
  facet normal  0.000000e+000  0.000000e+000  1.000000e+000
    outer loop
      vertex  1.808000e+001  9.808000e+001  1.000000e+002
      vertex  1.974277e+001  9.904000e+001  1.000000e+002
      vertex  1.965277e+001  9.918127e+001  1.000000e+002
    endloop
  endfacet
  facet normal  0.000000e+000  0.000000e+000  9.999999e-001
    outer loop
      vertex  1.808000e+001  9.808000e+001  1.000000e+002
      vertex  1.965277e+001  9.918127e+001  1.000000e+002
      vertex  1.955081e+001  9.931416e+001  1.000000e+002
    endloop
  endfacet
  facet normal  0.000000e+000  0.000000e+000  1.000000e+000
    outer loop
      vertex  1.808000e+001  9.808000e+001  1.000000e+002
      vertex  1.955081e+001  9.931416e+001  1.000000e+002
      vertex  1.943764e+001  9.943764e+001  1.000000e+002
    endloop
  endfacet
  facet normal  0.000000e+000  0.000000e+000  9.999999e-001
    outer loop
      vertex  1.808000e+001  9.808000e+001  1.000000e+002
      vertex  1.943764e+001  9.943764e+001  1.000000e+002
      vertex  1.931415e+001  9.955080e+001  1.000000e+002
    endloop
  endfacet
  facet normal  0.000000e+000  0.000000e+000  9.999999e-001
    outer loop
      vertex  1.808000e+001  9.808000e+001  1.000000e+002
      vertex  1.931415e+001  9.955080e+001  1.000000e+002
      vertex  1.918127e+001  9.965277e+001  1.000000e+002
    endloop
  endfacet
  facet normal  0.000000e+000  0.000000e+000  1.000000e+000
    outer loop
      vertex  1.808000e+001  9.808000e+001  1.000000e+002
      vertex  1.918127e+001  9.965277e+001  1.000000e+002
      vertex  1.904000e+001  9.974277e+001  1.000000e+002
    endloop
  endfacet
  facet normal  0.000000e+000  0.000000e+000  1.000000e+000
    outer loop
      vertex  1.808000e+001  9.808000e+001  1.000000e+002
      vertex  1.904000e+001  9.974277e+001  1.000000e+002
      vertex  1.889143e+001  9.982011e+001  1.000000e+002
    endloop
  endfacet
  facet normal  0.000000e+000  0.000000e+000  1.000000e+000
    outer loop
      vertex  1.808000e+001  9.808000e+001  1.000000e+002
      vertex  1.889143e+001  9.982011e+001  1.000000e+002
      vertex  1.873668e+001  9.988421e+001  1.000000e+002
    endloop
  endfacet
  facet normal  0.000000e+000  0.000000e+000  1.000000e+000
    outer loop
      vertex  1.808000e+001  9.808000e+001  1.000000e+002
      vertex  1.873668e+001  9.988421e+001  1.000000e+002
      vertex  1.857693e+001  9.993458e+001  1.000000e+002
    endloop
  endfacet
  facet normal  0.000000e+000  0.000000e+000  1.000000e+000
    outer loop
      vertex  1.808000e+001  9.808000e+001  1.000000e+002
      vertex  1.857693e+001  9.993458e+001  1.000000e+002
      vertex  1.841340e+001  9.997083e+001  1.000000e+002
    endloop
  endfacet
  facet normal  0.000000e+000  0.000000e+000  1.000000e+000
    outer loop
      vertex  1.808000e+001  9.808000e+001  1.000000e+002
      vertex  1.841340e+001  9.997083e+001  1.000000e+002
      vertex  1.824734e+001  9.999269e+001  1.000000e+002
    endloop
  endfacet
  facet normal  0.000000e+000  0.000000e+000  1.000000e+000
    outer loop
      vertex  1.808000e+001  9.808000e+001  1.000000e+002
      vertex  1.824734e+001  9.999269e+001  1.000000e+002
      vertex  1.808000e+001  1.000000e+002  1.000000e+002
    endloop
  endfacet
  facet normal  0.000000e+000  0.000000e+000  1.000000e+000
    outer loop
      vertex -1.808000e+001 -9.808000e+001  1.000000e+002
      vertex -1.808000e+001  9.808000e+001  1.000000e+002
      vertex -2.000000e+001  9.808000e+001  1.000000e+002
    endloop
  endfacet
  facet normal  0.000000e+000  0.000000e+000  1.000000e+000
    outer loop
      vertex -1.808000e+001 -9.808000e+001  1.000000e+002
      vertex -2.000000e+001  9.808000e+001  1.000000e+002
      vertex -2.000000e+001 -9.808000e+001  1.000000e+002
    endloop
  endfacet
  facet normal  -0.000000e+000  0.000000e+000  1.000000e+000
    outer loop
      vertex -1.808000e+001 -9.808000e+001  1.000000e+002
      vertex -2.000000e+001 -9.808000e+001  1.000000e+002
      vertex -1.999269e+001 -9.824734e+001  1.000000e+002
    endloop
  endfacet
  facet normal  -0.000000e+000  0.000000e+000  1.000000e+000
    outer loop
      vertex -1.808000e+001 -9.808000e+001  1.000000e+002
      vertex -1.999269e+001 -9.824734e+001  1.000000e+002
      vertex -1.824734e+001 -9.999269e+001  1.000000e+002
    endloop
  endfacet
  facet normal  -0.000000e+000  0.000000e+000  1.000000e+000
    outer loop
      vertex -1.808000e+001 -9.808000e+001  1.000000e+002
      vertex -1.824734e+001 -9.999269e+001  1.000000e+002
      vertex -1.808000e+001 -1.000000e+002  1.000000e+002
    endloop
  endfacet
  facet normal  0.000000e+000  0.000000e+000  1.000000e+000
    outer loop
      vertex -1.808000e+001 -9.808000e+001  1.000000e+002
      vertex -1.808000e+001 -1.000000e+002  1.000000e+002
      vertex  1.808000e+001 -1.000000e+002  1.000000e+002
    endloop
  endfacet
  facet normal  0.000000e+000  -0.000000e+000  1.000000e+000
    outer loop
      vertex -1.808000e+001 -9.808000e+001  1.000000e+002
      vertex  1.808000e+001 -1.000000e+002  1.000000e+002
      vertex  1.808000e+001 -9.808000e+001  1.000000e+002
    endloop
  endfacet
  facet normal  -0.000000e+000  -0.000000e+000  1.000000e+000
    outer loop
      vertex -1.999269e+001 -9.824734e+001  1.000000e+002
      vertex -1.997083e+001 -9.841341e+001  1.000000e+002
      vertex -1.993458e+001 -9.857693e+001  1.000000e+002
    endloop
  endfacet
  facet normal  -0.000000e+000  -0.000000e+000  1.000000e+000
    outer loop
      vertex -1.999269e+001 -9.824734e+001  1.000000e+002
      vertex -1.993458e+001 -9.857693e+001  1.000000e+002
      vertex -1.988421e+001 -9.873668e+001  1.000000e+002
    endloop
  endfacet
  facet normal  -0.000000e+000  -0.000000e+000  1.000000e+000
    outer loop
      vertex -1.999269e+001 -9.824734e+001  1.000000e+002
      vertex -1.988421e+001 -9.873668e+001  1.000000e+002
      vertex -1.982011e+001 -9.889143e+001  1.000000e+002
    endloop
  endfacet
  facet normal  -0.000000e+000  -0.000000e+000  1.000000e+000
    outer loop
      vertex -1.999269e+001 -9.824734e+001  1.000000e+002
      vertex -1.982011e+001 -9.889143e+001  1.000000e+002
      vertex -1.974277e+001 -9.904000e+001  1.000000e+002
    endloop
  endfacet
  facet normal  -0.000000e+000  -0.000000e+000  9.999999e-001
    outer loop
      vertex -1.999269e+001 -9.824734e+001  1.000000e+002
      vertex -1.974277e+001 -9.904000e+001  1.000000e+002
      vertex -1.965277e+001 -9.918127e+001  1.000000e+002
    endloop
  endfacet
  facet normal  -0.000000e+000  -0.000000e+000  1.000000e+000
    outer loop
      vertex -1.999269e+001 -9.824734e+001  1.000000e+002
      vertex -1.965277e+001 -9.918127e+001  1.000000e+002
      vertex -1.955081e+001 -9.931416e+001  1.000000e+002
    endloop
  endfacet
  facet normal  -0.000000e+000  -0.000000e+000  1.000000e+000
    outer loop
      vertex -1.999269e+001 -9.824734e+001  1.000000e+002
      vertex -1.955081e+001 -9.931416e+001  1.000000e+002
      vertex -1.943764e+001 -9.943764e+001  1.000000e+002
    endloop
  endfacet
  facet normal  -0.000000e+000  -0.000000e+000  1.000000e+000
    outer loop
      vertex -1.999269e+001 -9.824734e+001  1.000000e+002
      vertex -1.943764e+001 -9.943764e+001  1.000000e+002
      vertex -1.931415e+001 -9.955080e+001  1.000000e+002
    endloop
  endfacet
  facet normal  -0.000000e+000  -0.000000e+000  1.000000e+000
    outer loop
      vertex -1.999269e+001 -9.824734e+001  1.000000e+002
      vertex -1.931415e+001 -9.955080e+001  1.000000e+002
      vertex -1.918127e+001 -9.965277e+001  1.000000e+002
    endloop
  endfacet
  facet normal  -0.000000e+000  -0.000000e+000  1.000000e+000
    outer loop
      vertex -1.999269e+001 -9.824734e+001  1.000000e+002
      vertex -1.918127e+001 -9.965277e+001  1.000000e+002
      vertex -1.904000e+001 -9.974277e+001  1.000000e+002
    endloop
  endfacet
  facet normal  -0.000000e+000  -0.000000e+000  1.000000e+000
    outer loop
      vertex -1.999269e+001 -9.824734e+001  1.000000e+002
      vertex -1.904000e+001 -9.974277e+001  1.000000e+002
      vertex -1.889143e+001 -9.982011e+001  1.000000e+002
    endloop
  endfacet
  facet normal  -0.000000e+000  -0.000000e+000  1.000000e+000
    outer loop
      vertex -1.999269e+001 -9.824734e+001  1.000000e+002
      vertex -1.889143e+001 -9.982011e+001  1.000000e+002
      vertex -1.873668e+001 -9.988421e+001  1.000000e+002
    endloop
  endfacet
  facet normal  -0.000000e+000  -0.000000e+000  1.000000e+000
    outer loop
      vertex -1.999269e+001 -9.824734e+001  1.000000e+002
      vertex -1.873668e+001 -9.988421e+001  1.000000e+002
      vertex -1.857693e+001 -9.993458e+001  1.000000e+002
    endloop
  endfacet
  facet normal  -0.000000e+000  -0.000000e+000  1.000000e+000
    outer loop
      vertex -1.999269e+001 -9.824734e+001  1.000000e+002
      vertex -1.857693e+001 -9.993458e+001  1.000000e+002
      vertex -1.841340e+001 -9.997083e+001  1.000000e+002
    endloop
  endfacet
  facet normal  -0.000000e+000  -0.000000e+000  1.000000e+000
    outer loop
      vertex -1.999269e+001 -9.824734e+001  1.000000e+002
      vertex -1.841340e+001 -9.997083e+001  1.000000e+002
      vertex -1.824734e+001 -9.999269e+001  1.000000e+002
    endloop
  endfacet
  facet normal  0.000000e+000  0.000000e+000  1.000000e+000
    outer loop
      vertex  1.808000e+001 -9.808000e+001  1.000000e+002
      vertex  1.808000e+001 -1.000000e+002  1.000000e+002
      vertex  1.824734e+001 -9.999269e+001  1.000000e+002
    endloop
  endfacet
  facet normal  0.000000e+000  -0.000000e+000  1.000000e+000
    outer loop
      vertex  1.808000e+001 -9.808000e+001  1.000000e+002
      vertex  1.824734e+001 -9.999269e+001  1.000000e+002
      vertex  1.841340e+001 -9.997083e+001  1.000000e+002
    endloop
  endfacet
  facet normal  0.000000e+000  -0.000000e+000  1.000000e+000
    outer loop
      vertex  1.808000e+001 -9.808000e+001  1.000000e+002
      vertex  1.841340e+001 -9.997083e+001  1.000000e+002
      vertex  1.857693e+001 -9.993458e+001  1.000000e+002
    endloop
  endfacet
  facet normal  0.000000e+000  -0.000000e+000  1.000000e+000
    outer loop
      vertex  1.808000e+001 -9.808000e+001  1.000000e+002
      vertex  1.857693e+001 -9.993458e+001  1.000000e+002
      vertex  1.873668e+001 -9.988421e+001  1.000000e+002
    endloop
  endfacet
  facet normal  0.000000e+000  -0.000000e+000  1.000000e+000
    outer loop
      vertex  1.808000e+001 -9.808000e+001  1.000000e+002
      vertex  1.873668e+001 -9.988421e+001  1.000000e+002
      vertex  1.889143e+001 -9.982011e+001  1.000000e+002
    endloop
  endfacet
  facet normal  0.000000e+000  -0.000000e+000  1.000000e+000
    outer loop
      vertex  1.808000e+001 -9.808000e+001  1.000000e+002
      vertex  1.889143e+001 -9.982011e+001  1.000000e+002
      vertex  1.904000e+001 -9.974277e+001  1.000000e+002
    endloop
  endfacet
  facet normal  0.000000e+000  -0.000000e+000  1.000000e+000
    outer loop
      vertex  1.808000e+001 -9.808000e+001  1.000000e+002
      vertex  1.904000e+001 -9.974277e+001  1.000000e+002
      vertex  1.918127e+001 -9.965277e+001  1.000000e+002
    endloop
  endfacet
  facet normal  0.000000e+000  -0.000000e+000  9.999999e-001
    outer loop
      vertex  1.808000e+001 -9.808000e+001  1.000000e+002
      vertex  1.918127e+001 -9.965277e+001  1.000000e+002
      vertex  1.931415e+001 -9.955080e+001  1.000000e+002
    endloop
  endfacet
  facet normal  0.000000e+000  -0.000000e+000  9.999999e-001
    outer loop
      vertex  1.808000e+001 -9.808000e+001  1.000000e+002
      vertex  1.931415e+001 -9.955080e+001  1.000000e+002
      vertex  1.943764e+001 -9.943764e+001  1.000000e+002
    endloop
  endfacet
  facet normal  0.000000e+000  -0.000000e+000  1.000000e+000
    outer loop
      vertex  1.808000e+001 -9.808000e+001  1.000000e+002
      vertex  1.943764e+001 -9.943764e+001  1.000000e+002
      vertex  1.955081e+001 -9.931416e+001  1.000000e+002
    endloop
  endfacet
  facet normal  0.000000e+000  -0.000000e+000  9.999999e-001
    outer loop
      vertex  1.808000e+001 -9.808000e+001  1.000000e+002
      vertex  1.955081e+001 -9.931416e+001  1.000000e+002
      vertex  1.965277e+001 -9.918127e+001  1.000000e+002
    endloop
  endfacet
  facet normal  0.000000e+000  -0.000000e+000  1.000000e+000
    outer loop
      vertex  1.808000e+001 -9.808000e+001  1.000000e+002
      vertex  1.965277e+001 -9.918127e+001  1.000000e+002
      vertex  1.974277e+001 -9.904000e+001  1.000000e+002
    endloop
  endfacet
  facet normal  0.000000e+000  -0.000000e+000  1.000000e+000
    outer loop
      vertex  1.808000e+001 -9.808000e+001  1.000000e+002
      vertex  1.974277e+001 -9.904000e+001  1.000000e+002
      vertex  1.982011e+001 -9.889143e+001  1.000000e+002
    endloop
  endfacet
  facet normal  0.000000e+000  -0.000000e+000  1.000000e+000
    outer loop
      vertex  1.808000e+001 -9.808000e+001  1.000000e+002
      vertex  1.982011e+001 -9.889143e+001  1.000000e+002
      vertex  1.988421e+001 -9.873668e+001  1.000000e+002
    endloop
  endfacet
  facet normal  0.000000e+000  -0.000000e+000  1.000000e+000
    outer loop
      vertex  1.808000e+001 -9.808000e+001  1.000000e+002
      vertex  1.988421e+001 -9.873668e+001  1.000000e+002
      vertex  1.993458e+001 -9.857693e+001  1.000000e+002
    endloop
  endfacet
  facet normal  0.000000e+000  -0.000000e+000  1.000000e+000
    outer loop
      vertex  1.808000e+001 -9.808000e+001  1.000000e+002
      vertex  1.993458e+001 -9.857693e+001  1.000000e+002
      vertex  1.997083e+001 -9.841341e+001  1.000000e+002
    endloop
  endfacet
  facet normal  0.000000e+000  -0.000000e+000  1.000000e+000
    outer loop
      vertex  1.808000e+001 -9.808000e+001  1.000000e+002
      vertex  1.997083e+001 -9.841341e+001  1.000000e+002
      vertex  1.999269e+001 -9.824734e+001  1.000000e+002
    endloop
  endfacet
  facet normal  0.000000e+000  -0.000000e+000  1.000000e+000
    outer loop
      vertex  1.808000e+001 -9.808000e+001  1.000000e+002
      vertex  1.999269e+001 -9.824734e+001  1.000000e+002
      vertex  2.000000e+001 -9.808000e+001  1.000000e+002
    endloop
  endfacet
  facet normal  0.000000e+000  0.000000e+000  1.000000e+000
    outer loop
      vertex -1.999269e+001  9.824734e+001  1.000000e+002
      vertex -1.824734e+001  9.999269e+001  1.000000e+002
      vertex -1.841340e+001  9.997083e+001  1.000000e+002
    endloop
  endfacet
  facet normal  0.000000e+000  0.000000e+000  1.000000e+000
    outer loop
      vertex -1.999269e+001  9.824734e+001  1.000000e+002
      vertex -1.841340e+001  9.997083e+001  1.000000e+002
      vertex -1.857693e+001  9.993458e+001  1.000000e+002
    endloop
  endfacet
  facet normal  0.000000e+000  0.000000e+000  1.000000e+000
    outer loop
      vertex -1.999269e+001  9.824734e+001  1.000000e+002
      vertex -1.857693e+001  9.993458e+001  1.000000e+002
      vertex -1.873668e+001  9.988421e+001  1.000000e+002
    endloop
  endfacet
  facet normal  0.000000e+000  0.000000e+000  1.000000e+000
    outer loop
      vertex -1.999269e+001  9.824734e+001  1.000000e+002
      vertex -1.873668e+001  9.988421e+001  1.000000e+002
      vertex -1.889143e+001  9.982011e+001  1.000000e+002
    endloop
  endfacet
  facet normal  0.000000e+000  0.000000e+000  1.000000e+000
    outer loop
      vertex -1.999269e+001  9.824734e+001  1.000000e+002
      vertex -1.889143e+001  9.982011e+001  1.000000e+002
      vertex -1.904000e+001  9.974277e+001  1.000000e+002
    endloop
  endfacet
  facet normal  0.000000e+000  0.000000e+000  1.000000e+000
    outer loop
      vertex -1.999269e+001  9.824734e+001  1.000000e+002
      vertex -1.904000e+001  9.974277e+001  1.000000e+002
      vertex -1.918127e+001  9.965277e+001  1.000000e+002
    endloop
  endfacet
  facet normal  0.000000e+000  0.000000e+000  1.000000e+000
    outer loop
      vertex -1.999269e+001  9.824734e+001  1.000000e+002
      vertex -1.918127e+001  9.965277e+001  1.000000e+002
      vertex -1.931415e+001  9.955080e+001  1.000000e+002
    endloop
  endfacet
  facet normal  0.000000e+000  0.000000e+000  1.000000e+000
    outer loop
      vertex -1.999269e+001  9.824734e+001  1.000000e+002
      vertex -1.931415e+001  9.955080e+001  1.000000e+002
      vertex -1.943764e+001  9.943764e+001  1.000000e+002
    endloop
  endfacet
  facet normal  0.000000e+000  0.000000e+000  1.000000e+000
    outer loop
      vertex -1.999269e+001  9.824734e+001  1.000000e+002
      vertex -1.943764e+001  9.943764e+001  1.000000e+002
      vertex -1.955081e+001  9.931416e+001  1.000000e+002
    endloop
  endfacet
  facet normal  0.000000e+000  0.000000e+000  1.000000e+000
    outer loop
      vertex -1.999269e+001  9.824734e+001  1.000000e+002
      vertex -1.955081e+001  9.931416e+001  1.000000e+002
      vertex -1.965277e+001  9.918127e+001  1.000000e+002
    endloop
  endfacet
  facet normal  0.000000e+000  0.000000e+000  9.999999e-001
    outer loop
      vertex -1.999269e+001  9.824734e+001  1.000000e+002
      vertex -1.965277e+001  9.918127e+001  1.000000e+002
      vertex -1.974277e+001  9.904000e+001  1.000000e+002
    endloop
  endfacet
  facet normal  0.000000e+000  0.000000e+000  1.000000e+000
    outer loop
      vertex -1.999269e+001  9.824734e+001  1.000000e+002
      vertex -1.974277e+001  9.904000e+001  1.000000e+002
      vertex -1.982011e+001  9.889143e+001  1.000000e+002
    endloop
  endfacet
  facet normal  0.000000e+000  0.000000e+000  1.000000e+000
    outer loop
      vertex -1.999269e+001  9.824734e+001  1.000000e+002
      vertex -1.982011e+001  9.889143e+001  1.000000e+002
      vertex -1.988421e+001  9.873668e+001  1.000000e+002
    endloop
  endfacet
  facet normal  0.000000e+000  0.000000e+000  1.000000e+000
    outer loop
      vertex -1.999269e+001  9.824734e+001  1.000000e+002
      vertex -1.988421e+001  9.873668e+001  1.000000e+002
      vertex -1.993458e+001  9.857693e+001  1.000000e+002
    endloop
  endfacet
  facet normal  0.000000e+000  0.000000e+000  1.000000e+000
    outer loop
      vertex -1.999269e+001  9.824734e+001  1.000000e+002
      vertex -1.993458e+001  9.857693e+001  1.000000e+002
      vertex -1.997083e+001  9.841341e+001  1.000000e+002
    endloop
  endfacet
  facet normal  0.000000e+000  0.000000e+000  1.000000e+000
    outer loop
      vertex  1.808000e+001  9.808000e+001  1.000000e+002
      vertex  1.808000e+001  1.000000e+002  1.000000e+002
      vertex -1.808000e+001  9.808000e+001  1.000000e+002
    endloop
  endfacet
  facet normal  0.000000e+000  0.000000e+000  1.000000e+000
    outer loop
      vertex -1.808000e+001  9.808000e+001  1.000000e+002
      vertex  1.808000e+001  1.000000e+002  1.000000e+002
      vertex -1.808000e+001  1.000000e+002  1.000000e+002
    endloop
  endfacet
  facet normal  0.000000e+000  0.000000e+000  1.000000e+000
    outer loop
      vertex -1.808000e+001  9.808000e+001  1.000000e+002
      vertex -1.808000e+001  1.000000e+002  1.000000e+002
      vertex -1.999269e+001  9.824734e+001  1.000000e+002
    endloop
  endfacet
  facet normal  0.000000e+000  0.000000e+000  1.000000e+000
    outer loop
      vertex -1.999269e+001  9.824734e+001  1.000000e+002
      vertex -1.808000e+001  1.000000e+002  1.000000e+002
      vertex -1.824734e+001  9.999269e+001  1.000000e+002
    endloop
  endfacet
  facet normal  0.000000e+000  -0.000000e+000 -1.000000e+000
    outer loop
      vertex -2.000000e+001  9.808000e+001  0.000000e+000
      vertex -1.999269e+001  9.824734e+001  0.000000e+000
      vertex -1.808000e+001  9.808000e+001  0.000000e+000
    endloop
  endfacet
  facet normal  0.000000e+000  0.000000e+000 -1.000000e+000
    outer loop
      vertex  1.808000e+001  9.808000e+001  0.000000e+000
      vertex  1.808000e+001  1.000000e+002  0.000000e+000
      vertex  1.824734e+001  9.999269e+001  0.000000e+000
    endloop
  endfacet
  facet normal  0.000000e+000  -0.000000e+000 -1.000000e+000
    outer loop
      vertex  1.808000e+001  9.808000e+001  0.000000e+000
      vertex  1.824734e+001  9.999269e+001  0.000000e+000
      vertex  1.841340e+001  9.997083e+001  0.000000e+000
    endloop
  endfacet
  facet normal  0.000000e+000  -0.000000e+000 -1.000000e+000
    outer loop
      vertex  1.808000e+001  9.808000e+001  0.000000e+000
      vertex  1.841340e+001  9.997083e+001  0.000000e+000
      vertex  1.857693e+001  9.993458e+001  0.000000e+000
    endloop
  endfacet
  facet normal  0.000000e+000  -0.000000e+000 -1.000000e+000
    outer loop
      vertex  1.808000e+001  9.808000e+001  0.000000e+000
      vertex  1.857693e+001  9.993458e+001  0.000000e+000
      vertex  1.873668e+001  9.988421e+001  0.000000e+000
    endloop
  endfacet
  facet normal  0.000000e+000  -0.000000e+000 -1.000000e+000
    outer loop
      vertex  1.808000e+001  9.808000e+001  0.000000e+000
      vertex  1.873668e+001  9.988421e+001  0.000000e+000
      vertex  1.889143e+001  9.982011e+001  0.000000e+000
    endloop
  endfacet
  facet normal  0.000000e+000  -0.000000e+000 -1.000000e+000
    outer loop
      vertex  1.808000e+001  9.808000e+001  0.000000e+000
      vertex  1.889143e+001  9.982011e+001  0.000000e+000
      vertex  1.904000e+001  9.974277e+001  0.000000e+000
    endloop
  endfacet
  facet normal  0.000000e+000  -0.000000e+000 -1.000000e+000
    outer loop
      vertex  1.808000e+001  9.808000e+001  0.000000e+000
      vertex  1.904000e+001  9.974277e+001  0.000000e+000
      vertex  1.918127e+001  9.965277e+001  0.000000e+000
    endloop
  endfacet
  facet normal  0.000000e+000  -0.000000e+000 -9.999999e-001
    outer loop
      vertex  1.808000e+001  9.808000e+001  0.000000e+000
      vertex  1.918127e+001  9.965277e+001  0.000000e+000
      vertex  1.931415e+001  9.955080e+001  0.000000e+000
    endloop
  endfacet
  facet normal  0.000000e+000  -0.000000e+000 -9.999999e-001
    outer loop
      vertex  1.808000e+001  9.808000e+001  0.000000e+000
      vertex  1.931415e+001  9.955080e+001  0.000000e+000
      vertex  1.943764e+001  9.943764e+001  0.000000e+000
    endloop
  endfacet
  facet normal  0.000000e+000  -0.000000e+000 -1.000000e+000
    outer loop
      vertex  1.808000e+001  9.808000e+001  0.000000e+000
      vertex  1.943764e+001  9.943764e+001  0.000000e+000
      vertex  1.955081e+001  9.931416e+001  0.000000e+000
    endloop
  endfacet
  facet normal  0.000000e+000  -0.000000e+000 -9.999999e-001
    outer loop
      vertex  1.808000e+001  9.808000e+001  0.000000e+000
      vertex  1.955081e+001  9.931416e+001  0.000000e+000
      vertex  1.965277e+001  9.918127e+001  0.000000e+000
    endloop
  endfacet
  facet normal  0.000000e+000  -0.000000e+000 -1.000000e+000
    outer loop
      vertex  1.808000e+001  9.808000e+001  0.000000e+000
      vertex  1.965277e+001  9.918127e+001  0.000000e+000
      vertex  1.974277e+001  9.904000e+001  0.000000e+000
    endloop
  endfacet
  facet normal  0.000000e+000  -0.000000e+000 -1.000000e+000
    outer loop
      vertex  1.808000e+001  9.808000e+001  0.000000e+000
      vertex  1.974277e+001  9.904000e+001  0.000000e+000
      vertex  1.982011e+001  9.889143e+001  0.000000e+000
    endloop
  endfacet
  facet normal  0.000000e+000  -0.000000e+000 -1.000000e+000
    outer loop
      vertex  1.808000e+001  9.808000e+001  0.000000e+000
      vertex  1.982011e+001  9.889143e+001  0.000000e+000
      vertex  1.988421e+001  9.873668e+001  0.000000e+000
    endloop
  endfacet
  facet normal  0.000000e+000  -0.000000e+000 -1.000000e+000
    outer loop
      vertex  1.808000e+001  9.808000e+001  0.000000e+000
      vertex  1.988421e+001  9.873668e+001  0.000000e+000
      vertex  1.993458e+001  9.857693e+001  0.000000e+000
    endloop
  endfacet
  facet normal  0.000000e+000  -0.000000e+000 -1.000000e+000
    outer loop
      vertex  1.808000e+001  9.808000e+001  0.000000e+000
      vertex  1.993458e+001  9.857693e+001  0.000000e+000
      vertex  1.997083e+001  9.841341e+001  0.000000e+000
    endloop
  endfacet
  facet normal  0.000000e+000  -0.000000e+000 -1.000000e+000
    outer loop
      vertex  1.808000e+001  9.808000e+001  0.000000e+000
      vertex  1.997083e+001  9.841341e+001  0.000000e+000
      vertex  1.999269e+001  9.824734e+001  0.000000e+000
    endloop
  endfacet
  facet normal  0.000000e+000  -0.000000e+000 -1.000000e+000
    outer loop
      vertex  1.808000e+001  9.808000e+001  0.000000e+000
      vertex  1.999269e+001  9.824734e+001  0.000000e+000
      vertex  2.000000e+001  9.808000e+001  0.000000e+000
    endloop
  endfacet
  facet normal  -0.000000e+000  -0.000000e+000 -1.000000e+000
    outer loop
      vertex  1.808000e+001  9.808000e+001  0.000000e+000
      vertex  2.000000e+001  9.808000e+001  0.000000e+000
      vertex  2.000000e+001 -9.808000e+001  0.000000e+000
    endloop
  endfacet
  facet normal  0.000000e+000  0.000000e+000 -1.000000e+000
    outer loop
      vertex  1.808000e+001  9.808000e+001  0.000000e+000
      vertex  2.000000e+001 -9.808000e+001  0.000000e+000
      vertex  1.808000e+001 -9.808000e+001  0.000000e+000
    endloop
  endfacet
  facet normal  -0.000000e+000  -0.000000e+000 -1.000000e+000
    outer loop
      vertex -1.808000e+001 -9.808000e+001  0.000000e+000
      vertex  1.808000e+001 -9.808000e+001  0.000000e+000
      vertex  1.808000e+001 -1.000000e+002  0.000000e+000
    endloop
  endfacet
  facet normal  0.000000e+000  0.000000e+000 -1.000000e+000
    outer loop
      vertex -1.808000e+001 -9.808000e+001  0.000000e+000
      vertex  1.808000e+001 -1.000000e+002  0.000000e+000
      vertex -1.808000e+001 -1.000000e+002  0.000000e+000
    endloop
  endfacet
  facet normal  0.000000e+000  0.000000e+000 -1.000000e+000
    outer loop
      vertex -1.808000e+001 -9.808000e+001  0.000000e+000
      vertex -1.808000e+001 -1.000000e+002  0.000000e+000
      vertex -1.824734e+001 -9.999269e+001  0.000000e+000
    endloop
  endfacet
  facet normal  0.000000e+000  0.000000e+000 -1.000000e+000
    outer loop
      vertex -1.808000e+001 -9.808000e+001  0.000000e+000
      vertex -1.824734e+001 -9.999269e+001  0.000000e+000
      vertex -1.999269e+001 -9.824734e+001  0.000000e+000
    endloop
  endfacet
  facet normal  0.000000e+000  0.000000e+000 -1.000000e+000
    outer loop
      vertex -1.808000e+001 -9.808000e+001  0.000000e+000
      vertex -1.999269e+001 -9.824734e+001  0.000000e+000
      vertex -2.000000e+001 -9.808000e+001  0.000000e+000
    endloop
  endfacet
  facet normal  0.000000e+000  0.000000e+000 -1.000000e+000
    outer loop
      vertex -1.808000e+001 -9.808000e+001  0.000000e+000
      vertex -2.000000e+001 -9.808000e+001  0.000000e+000
      vertex -2.000000e+001  9.808000e+001  0.000000e+000
    endloop
  endfacet
  facet normal  0.000000e+000  0.000000e+000 -1.000000e+000
    outer loop
      vertex -1.808000e+001 -9.808000e+001  0.000000e+000
      vertex -2.000000e+001  9.808000e+001  0.000000e+000
      vertex -1.808000e+001  9.808000e+001  0.000000e+000
    endloop
  endfacet
  facet normal  0.000000e+000  0.000000e+000 -1.000000e+000
    outer loop
      vertex -1.999269e+001 -9.824734e+001  0.000000e+000
      vertex -1.824734e+001 -9.999269e+001  0.000000e+000
      vertex -1.841340e+001 -9.997083e+001  0.000000e+000
    endloop
  endfacet
  facet normal  0.000000e+000  0.000000e+000 -1.000000e+000
    outer loop
      vertex -1.999269e+001 -9.824734e+001  0.000000e+000
      vertex -1.841340e+001 -9.997083e+001  0.000000e+000
      vertex -1.857693e+001 -9.993458e+001  0.000000e+000
    endloop
  endfacet
  facet normal  0.000000e+000  0.000000e+000 -1.000000e+000
    outer loop
      vertex -1.999269e+001 -9.824734e+001  0.000000e+000
      vertex -1.857693e+001 -9.993458e+001  0.000000e+000
      vertex -1.873668e+001 -9.988421e+001  0.000000e+000
    endloop
  endfacet
  facet normal  0.000000e+000  0.000000e+000 -1.000000e+000
    outer loop
      vertex -1.999269e+001 -9.824734e+001  0.000000e+000
      vertex -1.873668e+001 -9.988421e+001  0.000000e+000
      vertex -1.889143e+001 -9.982011e+001  0.000000e+000
    endloop
  endfacet
  facet normal  0.000000e+000  0.000000e+000 -1.000000e+000
    outer loop
      vertex -1.999269e+001 -9.824734e+001  0.000000e+000
      vertex -1.889143e+001 -9.982011e+001  0.000000e+000
      vertex -1.904000e+001 -9.974277e+001  0.000000e+000
    endloop
  endfacet
  facet normal  0.000000e+000  0.000000e+000 -1.000000e+000
    outer loop
      vertex -1.999269e+001 -9.824734e+001  0.000000e+000
      vertex -1.904000e+001 -9.974277e+001  0.000000e+000
      vertex -1.918127e+001 -9.965277e+001  0.000000e+000
    endloop
  endfacet
  facet normal  0.000000e+000  0.000000e+000 -1.000000e+000
    outer loop
      vertex -1.999269e+001 -9.824734e+001  0.000000e+000
      vertex -1.918127e+001 -9.965277e+001  0.000000e+000
      vertex -1.931415e+001 -9.955080e+001  0.000000e+000
    endloop
  endfacet
  facet normal  0.000000e+000  0.000000e+000 -1.000000e+000
    outer loop
      vertex -1.999269e+001 -9.824734e+001  0.000000e+000
      vertex -1.931415e+001 -9.955080e+001  0.000000e+000
      vertex -1.943764e+001 -9.943764e+001  0.000000e+000
    endloop
  endfacet
  facet normal  0.000000e+000  0.000000e+000 -1.000000e+000
    outer loop
      vertex -1.999269e+001 -9.824734e+001  0.000000e+000
      vertex -1.943764e+001 -9.943764e+001  0.000000e+000
      vertex -1.955081e+001 -9.931416e+001  0.000000e+000
    endloop
  endfacet
  facet normal  0.000000e+000  0.000000e+000 -1.000000e+000
    outer loop
      vertex -1.999269e+001 -9.824734e+001  0.000000e+000
      vertex -1.955081e+001 -9.931416e+001  0.000000e+000
      vertex -1.965277e+001 -9.918127e+001  0.000000e+000
    endloop
  endfacet
  facet normal  0.000000e+000  0.000000e+000 -9.999999e-001
    outer loop
      vertex -1.999269e+001 -9.824734e+001  0.000000e+000
      vertex -1.965277e+001 -9.918127e+001  0.000000e+000
      vertex -1.974277e+001 -9.904000e+001  0.000000e+000
    endloop
  endfacet
  facet normal  0.000000e+000  0.000000e+000 -1.000000e+000
    outer loop
      vertex -1.999269e+001 -9.824734e+001  0.000000e+000
      vertex -1.974277e+001 -9.904000e+001  0.000000e+000
      vertex -1.982011e+001 -9.889143e+001  0.000000e+000
    endloop
  endfacet
  facet normal  0.000000e+000  0.000000e+000 -1.000000e+000
    outer loop
      vertex -1.999269e+001 -9.824734e+001  0.000000e+000
      vertex -1.982011e+001 -9.889143e+001  0.000000e+000
      vertex -1.988421e+001 -9.873668e+001  0.000000e+000
    endloop
  endfacet
  facet normal  0.000000e+000  0.000000e+000 -1.000000e+000
    outer loop
      vertex -1.999269e+001 -9.824734e+001  0.000000e+000
      vertex -1.988421e+001 -9.873668e+001  0.000000e+000
      vertex -1.993458e+001 -9.857693e+001  0.000000e+000
    endloop
  endfacet
  facet normal  0.000000e+000  0.000000e+000 -1.000000e+000
    outer loop
      vertex -1.999269e+001 -9.824734e+001  0.000000e+000
      vertex -1.993458e+001 -9.857693e+001  0.000000e+000
      vertex -1.997083e+001 -9.841341e+001  0.000000e+000
    endloop
  endfacet
  facet normal  -0.000000e+000  0.000000e+000 -1.000000e+000
    outer loop
      vertex  1.808000e+001 -9.808000e+001  0.000000e+000
      vertex  2.000000e+001 -9.808000e+001  0.000000e+000
      vertex  1.999269e+001 -9.824734e+001  0.000000e+000
    endloop
  endfacet
  facet normal  -0.000000e+000  0.000000e+000 -1.000000e+000
    outer loop
      vertex  1.808000e+001 -9.808000e+001  0.000000e+000
      vertex  1.999269e+001 -9.824734e+001  0.000000e+000
      vertex  1.997083e+001 -9.841341e+001  0.000000e+000
    endloop
  endfacet
  facet normal  -0.000000e+000  0.000000e+000 -1.000000e+000
    outer loop
      vertex  1.808000e+001 -9.808000e+001  0.000000e+000
      vertex  1.997083e+001 -9.841341e+001  0.000000e+000
      vertex  1.993458e+001 -9.857693e+001  0.000000e+000
    endloop
  endfacet
  facet normal  -0.000000e+000  0.000000e+000 -1.000000e+000
    outer loop
      vertex  1.808000e+001 -9.808000e+001  0.000000e+000
      vertex  1.993458e+001 -9.857693e+001  0.000000e+000
      vertex  1.988421e+001 -9.873668e+001  0.000000e+000
    endloop
  endfacet
  facet normal  -0.000000e+000  0.000000e+000 -1.000000e+000
    outer loop
      vertex  1.808000e+001 -9.808000e+001  0.000000e+000
      vertex  1.988421e+001 -9.873668e+001  0.000000e+000
      vertex  1.982011e+001 -9.889143e+001  0.000000e+000
    endloop
  endfacet
  facet normal  -0.000000e+000  0.000000e+000 -1.000000e+000
    outer loop
      vertex  1.808000e+001 -9.808000e+001  0.000000e+000
      vertex  1.982011e+001 -9.889143e+001  0.000000e+000
      vertex  1.974277e+001 -9.904000e+001  0.000000e+000
    endloop
  endfacet
  facet normal  -0.000000e+000  0.000000e+000 -1.000000e+000
    outer loop
      vertex  1.808000e+001 -9.808000e+001  0.000000e+000
      vertex  1.974277e+001 -9.904000e+001  0.000000e+000
      vertex  1.965277e+001 -9.918127e+001  0.000000e+000
    endloop
  endfacet
  facet normal  -0.000000e+000  0.000000e+000 -9.999999e-001
    outer loop
      vertex  1.808000e+001 -9.808000e+001  0.000000e+000
      vertex  1.965277e+001 -9.918127e+001  0.000000e+000
      vertex  1.955081e+001 -9.931416e+001  0.000000e+000
    endloop
  endfacet
  facet normal  -0.000000e+000  0.000000e+000 -1.000000e+000
    outer loop
      vertex  1.808000e+001 -9.808000e+001  0.000000e+000
      vertex  1.955081e+001 -9.931416e+001  0.000000e+000
      vertex  1.943764e+001 -9.943764e+001  0.000000e+000
    endloop
  endfacet
  facet normal  -0.000000e+000  0.000000e+000 -9.999999e-001
    outer loop
      vertex  1.808000e+001 -9.808000e+001  0.000000e+000
      vertex  1.943764e+001 -9.943764e+001  0.000000e+000
      vertex  1.931415e+001 -9.955080e+001  0.000000e+000
    endloop
  endfacet
  facet normal  -0.000000e+000  0.000000e+000 -9.999999e-001
    outer loop
      vertex  1.808000e+001 -9.808000e+001  0.000000e+000
      vertex  1.931415e+001 -9.955080e+001  0.000000e+000
      vertex  1.918127e+001 -9.965277e+001  0.000000e+000
    endloop
  endfacet
  facet normal  -0.000000e+000  0.000000e+000 -1.000000e+000
    outer loop
      vertex  1.808000e+001 -9.808000e+001  0.000000e+000
      vertex  1.918127e+001 -9.965277e+001  0.000000e+000
      vertex  1.904000e+001 -9.974277e+001  0.000000e+000
    endloop
  endfacet
  facet normal  -0.000000e+000  0.000000e+000 -1.000000e+000
    outer loop
      vertex  1.808000e+001 -9.808000e+001  0.000000e+000
      vertex  1.904000e+001 -9.974277e+001  0.000000e+000
      vertex  1.889143e+001 -9.982011e+001  0.000000e+000
    endloop
  endfacet
  facet normal  -0.000000e+000  0.000000e+000 -1.000000e+000
    outer loop
      vertex  1.808000e+001 -9.808000e+001  0.000000e+000
      vertex  1.889143e+001 -9.982011e+001  0.000000e+000
      vertex  1.873668e+001 -9.988421e+001  0.000000e+000
    endloop
  endfacet
  facet normal  -0.000000e+000  0.000000e+000 -1.000000e+000
    outer loop
      vertex  1.808000e+001 -9.808000e+001  0.000000e+000
      vertex  1.873668e+001 -9.988421e+001  0.000000e+000
      vertex  1.857693e+001 -9.993458e+001  0.000000e+000
    endloop
  endfacet
  facet normal  -0.000000e+000  0.000000e+000 -1.000000e+000
    outer loop
      vertex  1.808000e+001 -9.808000e+001  0.000000e+000
      vertex  1.857693e+001 -9.993458e+001  0.000000e+000
      vertex  1.841340e+001 -9.997083e+001  0.000000e+000
    endloop
  endfacet
  facet normal  -0.000000e+000  0.000000e+000 -1.000000e+000
    outer loop
      vertex  1.808000e+001 -9.808000e+001  0.000000e+000
      vertex  1.841340e+001 -9.997083e+001  0.000000e+000
      vertex  1.824734e+001 -9.999269e+001  0.000000e+000
    endloop
  endfacet
  facet normal  -0.000000e+000  0.000000e+000 -1.000000e+000
    outer loop
      vertex  1.808000e+001 -9.808000e+001  0.000000e+000
      vertex  1.824734e+001 -9.999269e+001  0.000000e+000
      vertex  1.808000e+001 -1.000000e+002  0.000000e+000
    endloop
  endfacet
  facet normal  0.000000e+000  -0.000000e+000 -1.000000e+000
    outer loop
      vertex -1.999269e+001  9.824734e+001  0.000000e+000
      vertex -1.997083e+001  9.841341e+001  0.000000e+000
      vertex -1.993458e+001  9.857693e+001  0.000000e+000
    endloop
  endfacet
  facet normal  0.000000e+000  -0.000000e+000 -1.000000e+000
    outer loop
      vertex -1.999269e+001  9.824734e+001  0.000000e+000
      vertex -1.993458e+001  9.857693e+001  0.000000e+000
      vertex -1.988421e+001  9.873668e+001  0.000000e+000
    endloop
  endfacet
  facet normal  0.000000e+000  -0.000000e+000 -1.000000e+000
    outer loop
      vertex -1.999269e+001  9.824734e+001  0.000000e+000
      vertex -1.988421e+001  9.873668e+001  0.000000e+000
      vertex -1.982011e+001  9.889143e+001  0.000000e+000
    endloop
  endfacet
  facet normal  0.000000e+000  -0.000000e+000 -1.000000e+000
    outer loop
      vertex -1.999269e+001  9.824734e+001  0.000000e+000
      vertex -1.982011e+001  9.889143e+001  0.000000e+000
      vertex -1.974277e+001  9.904000e+001  0.000000e+000
    endloop
  endfacet
  facet normal  0.000000e+000  -0.000000e+000 -9.999999e-001
    outer loop
      vertex -1.999269e+001  9.824734e+001  0.000000e+000
      vertex -1.974277e+001  9.904000e+001  0.000000e+000
      vertex -1.965277e+001  9.918127e+001  0.000000e+000
    endloop
  endfacet
  facet normal  0.000000e+000  -0.000000e+000 -1.000000e+000
    outer loop
      vertex -1.999269e+001  9.824734e+001  0.000000e+000
      vertex -1.965277e+001  9.918127e+001  0.000000e+000
      vertex -1.955081e+001  9.931416e+001  0.000000e+000
    endloop
  endfacet
  facet normal  0.000000e+000  -0.000000e+000 -1.000000e+000
    outer loop
      vertex -1.999269e+001  9.824734e+001  0.000000e+000
      vertex -1.955081e+001  9.931416e+001  0.000000e+000
      vertex -1.943764e+001  9.943764e+001  0.000000e+000
    endloop
  endfacet
  facet normal  0.000000e+000  -0.000000e+000 -1.000000e+000
    outer loop
      vertex -1.999269e+001  9.824734e+001  0.000000e+000
      vertex -1.943764e+001  9.943764e+001  0.000000e+000
      vertex -1.931415e+001  9.955080e+001  0.000000e+000
    endloop
  endfacet
  facet normal  0.000000e+000  -0.000000e+000 -1.000000e+000
    outer loop
      vertex -1.999269e+001  9.824734e+001  0.000000e+000
      vertex -1.931415e+001  9.955080e+001  0.000000e+000
      vertex -1.918127e+001  9.965277e+001  0.000000e+000
    endloop
  endfacet
  facet normal  0.000000e+000  -0.000000e+000 -1.000000e+000
    outer loop
      vertex -1.999269e+001  9.824734e+001  0.000000e+000
      vertex -1.918127e+001  9.965277e+001  0.000000e+000
      vertex -1.904000e+001  9.974277e+001  0.000000e+000
    endloop
  endfacet
  facet normal  0.000000e+000  -0.000000e+000 -1.000000e+000
    outer loop
      vertex -1.999269e+001  9.824734e+001  0.000000e+000
      vertex -1.904000e+001  9.974277e+001  0.000000e+000
      vertex -1.889143e+001  9.982011e+001  0.000000e+000
    endloop
  endfacet
  facet normal  0.000000e+000  -0.000000e+000 -1.000000e+000
    outer loop
      vertex -1.999269e+001  9.824734e+001  0.000000e+000
      vertex -1.889143e+001  9.982011e+001  0.000000e+000
      vertex -1.873668e+001  9.988421e+001  0.000000e+000
    endloop
  endfacet
  facet normal  0.000000e+000  -0.000000e+000 -1.000000e+000
    outer loop
      vertex -1.999269e+001  9.824734e+001  0.000000e+000
      vertex -1.873668e+001  9.988421e+001  0.000000e+000
      vertex -1.857693e+001  9.993458e+001  0.000000e+000
    endloop
  endfacet
  facet normal  0.000000e+000  -0.000000e+000 -1.000000e+000
    outer loop
      vertex -1.999269e+001  9.824734e+001  0.000000e+000
      vertex -1.857693e+001  9.993458e+001  0.000000e+000
      vertex -1.841340e+001  9.997083e+001  0.000000e+000
    endloop
  endfacet
  facet normal  0.000000e+000  -0.000000e+000 -1.000000e+000
    outer loop
      vertex -1.999269e+001  9.824734e+001  0.000000e+000
      vertex -1.841340e+001  9.997083e+001  0.000000e+000
      vertex -1.824734e+001  9.999269e+001  0.000000e+000
    endloop
  endfacet
  facet normal  0.000000e+000  0.000000e+000 -1.000000e+000
    outer loop
      vertex  1.808000e+001  9.808000e+001  0.000000e+000
      vertex -1.808000e+001  9.808000e+001  0.000000e+000
      vertex  1.808000e+001  1.000000e+002  0.000000e+000
    endloop
  endfacet
  facet normal  -0.000000e+000  0.000000e+000 -1.000000e+000
    outer loop
      vertex  1.808000e+001  1.000000e+002  0.000000e+000
      vertex -1.808000e+001  9.808000e+001  0.000000e+000
      vertex -1.808000e+001  1.000000e+002  0.000000e+000
    endloop
  endfacet
  facet normal  0.000000e+000  0.000000e+000 -1.000000e+000
    outer loop
      vertex -1.808000e+001  9.808000e+001  0.000000e+000
      vertex -1.999269e+001  9.824734e+001  0.000000e+000
      vertex -1.808000e+001  1.000000e+002  0.000000e+000
    endloop
  endfacet
  facet normal  0.000000e+000  0.000000e+000 -1.000000e+000
    outer loop
      vertex -1.808000e+001  1.000000e+002  0.000000e+000
      vertex -1.999269e+001  9.824734e+001  0.000000e+000
      vertex -1.824734e+001  9.999269e+001  0.000000e+000
    endloop
  endfacet
  facet normal  0.000000e+000 -1.000000e+000  -0.000000e+000
    outer loop
      vertex  1.808000e+001 -1.000000e+002  0.000000e+000
      vertex  1.808000e+001 -1.000000e+002  1.000000e+002
      vertex -1.808000e+001 -1.000000e+002  0.000000e+000
    endloop
  endfacet
  facet normal  0.000000e+000 -1.000000e+000  0.000000e+000
    outer loop
      vertex -1.808000e+001 -1.000000e+002  0.000000e+000
      vertex  1.808000e+001 -1.000000e+002  1.000000e+002
      vertex -1.808000e+001 -1.000000e+002  1.000000e+002
    endloop
  endfacet
  facet normal -1.000000e+000  -0.000000e+000  0.000000e+000
    outer loop
      vertex -2.000000e+001 -9.808000e+001  1.000000e+002
      vertex -2.000000e+001  9.808000e+001  1.000000e+002
      vertex -2.000000e+001 -9.808000e+001  0.000000e+000
    endloop
  endfacet
  facet normal -1.000000e+000  0.000000e+000  0.000000e+000
    outer loop
      vertex -2.000000e+001 -9.808000e+001  0.000000e+000
      vertex -2.000000e+001  9.808000e+001  1.000000e+002
      vertex -2.000000e+001  9.808000e+001  0.000000e+000
    endloop
  endfacet
  facet normal -4.363587e-002 -9.990475e-001  -0.000000e+000
    outer loop
      vertex -1.808000e+001 -1.000000e+002  0.000000e+000
      vertex -1.808000e+001 -1.000000e+002  1.000000e+002
      vertex -1.824734e+001 -9.999269e+001  0.000000e+000
    endloop
  endfacet
  facet normal -4.363587e-002 -9.990475e-001  0.000000e+000
    outer loop
      vertex -1.824734e+001 -9.999269e+001  0.000000e+000
      vertex -1.808000e+001 -1.000000e+002  1.000000e+002
      vertex -1.824734e+001 -9.999269e+001  1.000000e+002
    endloop
  endfacet
  facet normal -1.304987e-001 -9.914485e-001  -0.000000e+000
    outer loop
      vertex -1.824734e+001 -9.999269e+001  0.000000e+000
      vertex -1.824734e+001 -9.999269e+001  1.000000e+002
      vertex -1.841340e+001 -9.997083e+001  0.000000e+000
    endloop
  endfacet
  facet normal -1.304987e-001 -9.914485e-001  0.000000e+000
    outer loop
      vertex -1.841340e+001 -9.997083e+001  0.000000e+000
      vertex -1.824734e+001 -9.999269e+001  1.000000e+002
      vertex -1.841340e+001 -9.997083e+001  1.000000e+002
    endloop
  endfacet
  facet normal -2.164481e-001 -9.762941e-001  -0.000000e+000
    outer loop
      vertex -1.841340e+001 -9.997083e+001  0.000000e+000
      vertex -1.841340e+001 -9.997083e+001  1.000000e+002
      vertex -1.857693e+001 -9.993458e+001  0.000000e+000
    endloop
  endfacet
  facet normal -2.164481e-001 -9.762941e-001  0.000000e+000
    outer loop
      vertex -1.857693e+001 -9.993458e+001  0.000000e+000
      vertex -1.841340e+001 -9.997083e+001  1.000000e+002
      vertex -1.857693e+001 -9.993458e+001  1.000000e+002
    endloop
  endfacet
  facet normal -3.007139e-001 -9.537144e-001  -0.000000e+000
    outer loop
      vertex -1.857693e+001 -9.993458e+001  0.000000e+000
      vertex -1.857693e+001 -9.993458e+001  1.000000e+002
      vertex -1.873668e+001 -9.988421e+001  0.000000e+000
    endloop
  endfacet
  facet normal -3.007139e-001 -9.537144e-001  0.000000e+000
    outer loop
      vertex -1.873668e+001 -9.988421e+001  0.000000e+000
      vertex -1.857693e+001 -9.993458e+001  1.000000e+002
      vertex -1.873668e+001 -9.988421e+001  1.000000e+002
    endloop
  endfacet
  facet normal -3.826602e-001 -9.238892e-001  -0.000000e+000
    outer loop
      vertex -1.873668e+001 -9.988421e+001  0.000000e+000
      vertex -1.873668e+001 -9.988421e+001  1.000000e+002
      vertex -1.889143e+001 -9.982011e+001  0.000000e+000
    endloop
  endfacet
  facet normal -3.826602e-001 -9.238892e-001  0.000000e+000
    outer loop
      vertex -1.889143e+001 -9.982011e+001  0.000000e+000
      vertex -1.873668e+001 -9.988421e+001  1.000000e+002
      vertex -1.889143e+001 -9.982011e+001  1.000000e+002
    endloop
  endfacet
  facet normal -4.617704e-001 -8.869995e-001  -0.000000e+000
    outer loop
      vertex -1.889143e+001 -9.982011e+001  0.000000e+000
      vertex -1.889143e+001 -9.982011e+001  1.000000e+002
      vertex -1.904000e+001 -9.974277e+001  0.000000e+000
    endloop
  endfacet
  facet normal -4.617704e-001 -8.869995e-001  0.000000e+000
    outer loop
      vertex -1.904000e+001 -9.974277e+001  0.000000e+000
      vertex -1.889143e+001 -9.982011e+001  1.000000e+002
      vertex -1.904000e+001 -9.974277e+001  1.000000e+002
    endloop
  endfacet
  facet normal -5.372998e-001 -8.433913e-001  -0.000000e+000
    outer loop
      vertex -1.904000e+001 -9.974277e+001  0.000000e+000
      vertex -1.904000e+001 -9.974277e+001  1.000000e+002
      vertex -1.918127e+001 -9.965277e+001  0.000000e+000
    endloop
  endfacet
  facet normal -5.372998e-001 -8.433913e-001  0.000000e+000
    outer loop
      vertex -1.918127e+001 -9.965277e+001  0.000000e+000
      vertex -1.904000e+001 -9.974277e+001  1.000000e+002
      vertex -1.918127e+001 -9.965277e+001  1.000000e+002
    endloop
  endfacet
  facet normal -6.087638e-001 -7.933515e-001  -0.000000e+000
    outer loop
      vertex -1.918127e+001 -9.965277e+001  0.000000e+000
      vertex -1.918127e+001 -9.965277e+001  1.000000e+002
      vertex -1.931415e+001 -9.955080e+001  0.000000e+000
    endloop
  endfacet
  facet normal -6.087638e-001 -7.933515e-001  0.000000e+000
    outer loop
      vertex -1.931415e+001 -9.955080e+001  0.000000e+000
      vertex -1.918127e+001 -9.965277e+001  1.000000e+002
      vertex -1.931415e+001 -9.955080e+001  1.000000e+002
    endloop
  endfacet
  facet normal -6.755854e-001 -7.372818e-001  -0.000000e+000
    outer loop
      vertex -1.931415e+001 -9.955080e+001  0.000000e+000
      vertex -1.931415e+001 -9.955080e+001  1.000000e+002
      vertex -1.943764e+001 -9.943764e+001  0.000000e+000
    endloop
  endfacet
  facet normal -6.755854e-001 -7.372818e-001  0.000000e+000
    outer loop
      vertex -1.943764e+001 -9.943764e+001  0.000000e+000
      vertex -1.931415e+001 -9.955080e+001  1.000000e+002
      vertex -1.943764e+001 -9.943764e+001  1.000000e+002
    endloop
  endfacet
  facet normal -7.372656e-001 -6.756029e-001  -0.000000e+000
    outer loop
      vertex -1.943764e+001 -9.943764e+001  0.000000e+000
      vertex -1.943764e+001 -9.943764e+001  1.000000e+002
      vertex -1.955081e+001 -9.931416e+001  0.000000e+000
    endloop
  endfacet
  facet normal -7.372656e-001 -6.756029e-001  0.000000e+000
    outer loop
      vertex -1.955081e+001 -9.931416e+001  0.000000e+000
      vertex -1.943764e+001 -9.943764e+001  1.000000e+002
      vertex -1.955081e+001 -9.931416e+001  1.000000e+002
    endloop
  endfacet
  facet normal -7.933655e-001 -6.087456e-001  -0.000000e+000
    outer loop
      vertex -1.955081e+001 -9.931416e+001  0.000000e+000
      vertex -1.955081e+001 -9.931416e+001  1.000000e+002
      vertex -1.965277e+001 -9.918127e+001  0.000000e+000
    endloop
  endfacet
  facet normal -7.933655e-001 -6.087456e-001  0.000000e+000
    outer loop
      vertex -1.965277e+001 -9.918127e+001  0.000000e+000
      vertex -1.955081e+001 -9.931416e+001  1.000000e+002
      vertex -1.965277e+001 -9.918127e+001  1.000000e+002
    endloop
  endfacet
  facet normal -8.433861e-001 -5.373079e-001  -0.000000e+000
    outer loop
      vertex -1.965277e+001 -9.918127e+001  0.000000e+000
      vertex -1.965277e+001 -9.918127e+001  1.000000e+002
      vertex -1.974277e+001 -9.904000e+001  0.000000e+000
    endloop
  endfacet
  facet normal -8.433861e-001 -5.373079e-001  0.000000e+000
    outer loop
      vertex -1.974277e+001 -9.904000e+001  0.000000e+000
      vertex -1.965277e+001 -9.918127e+001  1.000000e+002
      vertex -1.974277e+001 -9.904000e+001  1.000000e+002
    endloop
  endfacet
  facet normal -8.870159e-001 -4.617389e-001  -0.000000e+000
    outer loop
      vertex -1.974277e+001 -9.904000e+001  0.000000e+000
      vertex -1.974277e+001 -9.904000e+001  1.000000e+002
      vertex -1.982011e+001 -9.889143e+001  0.000000e+000
    endloop
  endfacet
  facet normal -8.870159e-001 -4.617389e-001  0.000000e+000
    outer loop
      vertex -1.982011e+001 -9.889143e+001  0.000000e+000
      vertex -1.974277e+001 -9.904000e+001  1.000000e+002
      vertex -1.982011e+001 -9.889143e+001  1.000000e+002
    endloop
  endfacet
  facet normal -9.238753e-001 -3.826934e-001  -0.000000e+000
    outer loop
      vertex -1.982011e+001 -9.889143e+001  0.000000e+000
      vertex -1.982011e+001 -9.889143e+001  1.000000e+002
      vertex -1.988421e+001 -9.873668e+001  0.000000e+000
    endloop
  endfacet
  facet normal -9.238753e-001 -3.826934e-001  0.000000e+000
    outer loop
      vertex -1.988421e+001 -9.873668e+001  0.000000e+000
      vertex -1.982011e+001 -9.889143e+001  1.000000e+002
      vertex -1.988421e+001 -9.873668e+001  1.000000e+002
    endloop
  endfacet
  facet normal -9.537166e-001 -3.007068e-001  -0.000000e+000
    outer loop
      vertex -1.988421e+001 -9.873668e+001  0.000000e+000
      vertex -1.988421e+001 -9.873668e+001  1.000000e+002
      vertex -1.993458e+001 -9.857693e+001  0.000000e+000
    endloop
  endfacet
  facet normal -9.537166e-001 -3.007068e-001  0.000000e+000
    outer loop
      vertex -1.993458e+001 -9.857693e+001  0.000000e+000
      vertex -1.988421e+001 -9.873668e+001  1.000000e+002
      vertex -1.993458e+001 -9.857693e+001  1.000000e+002
    endloop
  endfacet
  facet normal -9.762965e-001 -2.164373e-001  -0.000000e+000
    outer loop
      vertex -1.993458e+001 -9.857693e+001  0.000000e+000
      vertex -1.993458e+001 -9.857693e+001  1.000000e+002
      vertex -1.997083e+001 -9.841341e+001  0.000000e+000
    endloop
  endfacet
  facet normal -9.762965e-001 -2.164373e-001  0.000000e+000
    outer loop
      vertex -1.997083e+001 -9.841341e+001  0.000000e+000
      vertex -1.993458e+001 -9.857693e+001  1.000000e+002
      vertex -1.997083e+001 -9.841341e+001  1.000000e+002
    endloop
  endfacet
  facet normal -9.914459e-001 -1.305181e-001  -0.000000e+000
    outer loop
      vertex -1.997083e+001 -9.841341e+001  0.000000e+000
      vertex -1.997083e+001 -9.841341e+001  1.000000e+002
      vertex -1.999269e+001 -9.824734e+001  0.000000e+000
    endloop
  endfacet
  facet normal -9.914459e-001 -1.305181e-001  0.000000e+000
    outer loop
      vertex -1.999269e+001 -9.824734e+001  0.000000e+000
      vertex -1.997083e+001 -9.841341e+001  1.000000e+002
      vertex -1.999269e+001 -9.824734e+001  1.000000e+002
    endloop
  endfacet
  facet normal -9.990480e-001 -4.362551e-002  -0.000000e+000
    outer loop
      vertex -1.999269e+001 -9.824734e+001  0.000000e+000
      vertex -1.999269e+001 -9.824734e+001  1.000000e+002
      vertex -2.000000e+001 -9.808000e+001  0.000000e+000
    endloop
  endfacet
  facet normal -9.990480e-001 -4.362551e-002  0.000000e+000
    outer loop
      vertex -2.000000e+001 -9.808000e+001  0.000000e+000
      vertex -1.999269e+001 -9.824734e+001  1.000000e+002
      vertex -2.000000e+001 -9.808000e+001  1.000000e+002
    endloop
  endfacet
  facet normal  1.000000e+000  -0.000000e+000  0.000000e+000
    outer loop
      vertex  2.000000e+001  9.808000e+001  1.000000e+002
      vertex  2.000000e+001 -9.808000e+001  1.000000e+002
      vertex  2.000000e+001  9.808000e+001  0.000000e+000
    endloop
  endfacet
  facet normal  1.000000e+000  0.000000e+000  0.000000e+000
    outer loop
      vertex  2.000000e+001  9.808000e+001  0.000000e+000
      vertex  2.000000e+001 -9.808000e+001  1.000000e+002
      vertex  2.000000e+001 -9.808000e+001  0.000000e+000
    endloop
  endfacet
  facet normal  9.990480e-001 -4.362551e-002  0.000000e+000
    outer loop
      vertex  2.000000e+001 -9.808000e+001  0.000000e+000
      vertex  2.000000e+001 -9.808000e+001  1.000000e+002
      vertex  1.999269e+001 -9.824734e+001  0.000000e+000
    endloop
  endfacet
  facet normal  9.990480e-001 -4.362551e-002  0.000000e+000
    outer loop
      vertex  1.999269e+001 -9.824734e+001  0.000000e+000
      vertex  2.000000e+001 -9.808000e+001  1.000000e+002
      vertex  1.999269e+001 -9.824734e+001  1.000000e+002
    endloop
  endfacet
  facet normal  9.914459e-001 -1.305181e-001  0.000000e+000
    outer loop
      vertex  1.999269e+001 -9.824734e+001  0.000000e+000
      vertex  1.999269e+001 -9.824734e+001  1.000000e+002
      vertex  1.997083e+001 -9.841341e+001  0.000000e+000
    endloop
  endfacet
  facet normal  9.914459e-001 -1.305181e-001  0.000000e+000
    outer loop
      vertex  1.997083e+001 -9.841341e+001  0.000000e+000
      vertex  1.999269e+001 -9.824734e+001  1.000000e+002
      vertex  1.997083e+001 -9.841341e+001  1.000000e+002
    endloop
  endfacet
  facet normal  9.762965e-001 -2.164373e-001  0.000000e+000
    outer loop
      vertex  1.997083e+001 -9.841341e+001  0.000000e+000
      vertex  1.997083e+001 -9.841341e+001  1.000000e+002
      vertex  1.993458e+001 -9.857693e+001  0.000000e+000
    endloop
  endfacet
  facet normal  9.762965e-001 -2.164373e-001  0.000000e+000
    outer loop
      vertex  1.993458e+001 -9.857693e+001  0.000000e+000
      vertex  1.997083e+001 -9.841341e+001  1.000000e+002
      vertex  1.993458e+001 -9.857693e+001  1.000000e+002
    endloop
  endfacet
  facet normal  9.537166e-001 -3.007068e-001  0.000000e+000
    outer loop
      vertex  1.993458e+001 -9.857693e+001  0.000000e+000
      vertex  1.993458e+001 -9.857693e+001  1.000000e+002
      vertex  1.988421e+001 -9.873668e+001  0.000000e+000
    endloop
  endfacet
  facet normal  9.537166e-001 -3.007068e-001  0.000000e+000
    outer loop
      vertex  1.988421e+001 -9.873668e+001  0.000000e+000
      vertex  1.993458e+001 -9.857693e+001  1.000000e+002
      vertex  1.988421e+001 -9.873668e+001  1.000000e+002
    endloop
  endfacet
  facet normal  9.238753e-001 -3.826934e-001  0.000000e+000
    outer loop
      vertex  1.988421e+001 -9.873668e+001  0.000000e+000
      vertex  1.988421e+001 -9.873668e+001  1.000000e+002
      vertex  1.982011e+001 -9.889143e+001  0.000000e+000
    endloop
  endfacet
  facet normal  9.238753e-001 -3.826934e-001  0.000000e+000
    outer loop
      vertex  1.982011e+001 -9.889143e+001  0.000000e+000
      vertex  1.988421e+001 -9.873668e+001  1.000000e+002
      vertex  1.982011e+001 -9.889143e+001  1.000000e+002
    endloop
  endfacet
  facet normal  8.870159e-001 -4.617389e-001  0.000000e+000
    outer loop
      vertex  1.982011e+001 -9.889143e+001  0.000000e+000
      vertex  1.982011e+001 -9.889143e+001  1.000000e+002
      vertex  1.974277e+001 -9.904000e+001  0.000000e+000
    endloop
  endfacet
  facet normal  8.870159e-001 -4.617389e-001  0.000000e+000
    outer loop
      vertex  1.974277e+001 -9.904000e+001  0.000000e+000
      vertex  1.982011e+001 -9.889143e+001  1.000000e+002
      vertex  1.974277e+001 -9.904000e+001  1.000000e+002
    endloop
  endfacet
  facet normal  8.433861e-001 -5.373079e-001  0.000000e+000
    outer loop
      vertex  1.974277e+001 -9.904000e+001  0.000000e+000
      vertex  1.974277e+001 -9.904000e+001  1.000000e+002
      vertex  1.965277e+001 -9.918127e+001  0.000000e+000
    endloop
  endfacet
  facet normal  8.433861e-001 -5.373079e-001  0.000000e+000
    outer loop
      vertex  1.965277e+001 -9.918127e+001  0.000000e+000
      vertex  1.974277e+001 -9.904000e+001  1.000000e+002
      vertex  1.965277e+001 -9.918127e+001  1.000000e+002
    endloop
  endfacet
  facet normal  7.933655e-001 -6.087456e-001  0.000000e+000
    outer loop
      vertex  1.965277e+001 -9.918127e+001  0.000000e+000
      vertex  1.965277e+001 -9.918127e+001  1.000000e+002
      vertex  1.955081e+001 -9.931416e+001  0.000000e+000
    endloop
  endfacet
  facet normal  7.933655e-001 -6.087456e-001  0.000000e+000
    outer loop
      vertex  1.955081e+001 -9.931416e+001  0.000000e+000
      vertex  1.965277e+001 -9.918127e+001  1.000000e+002
      vertex  1.955081e+001 -9.931416e+001  1.000000e+002
    endloop
  endfacet
  facet normal  7.372656e-001 -6.756029e-001  0.000000e+000
    outer loop
      vertex  1.955081e+001 -9.931416e+001  0.000000e+000
      vertex  1.955081e+001 -9.931416e+001  1.000000e+002
      vertex  1.943764e+001 -9.943764e+001  0.000000e+000
    endloop
  endfacet
  facet normal  7.372656e-001 -6.756029e-001  0.000000e+000
    outer loop
      vertex  1.943764e+001 -9.943764e+001  0.000000e+000
      vertex  1.955081e+001 -9.931416e+001  1.000000e+002
      vertex  1.943764e+001 -9.943764e+001  1.000000e+002
    endloop
  endfacet
  facet normal  6.755854e-001 -7.372818e-001  0.000000e+000
    outer loop
      vertex  1.943764e+001 -9.943764e+001  0.000000e+000
      vertex  1.943764e+001 -9.943764e+001  1.000000e+002
      vertex  1.931415e+001 -9.955080e+001  0.000000e+000
    endloop
  endfacet
  facet normal  6.755854e-001 -7.372818e-001  0.000000e+000
    outer loop
      vertex  1.931415e+001 -9.955080e+001  0.000000e+000
      vertex  1.943764e+001 -9.943764e+001  1.000000e+002
      vertex  1.931415e+001 -9.955080e+001  1.000000e+002
    endloop
  endfacet
  facet normal  6.087638e-001 -7.933515e-001  0.000000e+000
    outer loop
      vertex  1.931415e+001 -9.955080e+001  0.000000e+000
      vertex  1.931415e+001 -9.955080e+001  1.000000e+002
      vertex  1.918127e+001 -9.965277e+001  0.000000e+000
    endloop
  endfacet
  facet normal  6.087638e-001 -7.933515e-001  0.000000e+000
    outer loop
      vertex  1.918127e+001 -9.965277e+001  0.000000e+000
      vertex  1.931415e+001 -9.955080e+001  1.000000e+002
      vertex  1.918127e+001 -9.965277e+001  1.000000e+002
    endloop
  endfacet
  facet normal  5.372998e-001 -8.433913e-001  0.000000e+000
    outer loop
      vertex  1.918127e+001 -9.965277e+001  0.000000e+000
      vertex  1.918127e+001 -9.965277e+001  1.000000e+002
      vertex  1.904000e+001 -9.974277e+001  0.000000e+000
    endloop
  endfacet
  facet normal  5.372998e-001 -8.433913e-001  0.000000e+000
    outer loop
      vertex  1.904000e+001 -9.974277e+001  0.000000e+000
      vertex  1.918127e+001 -9.965277e+001  1.000000e+002
      vertex  1.904000e+001 -9.974277e+001  1.000000e+002
    endloop
  endfacet
  facet normal  4.617704e-001 -8.869995e-001  0.000000e+000
    outer loop
      vertex  1.904000e+001 -9.974277e+001  0.000000e+000
      vertex  1.904000e+001 -9.974277e+001  1.000000e+002
      vertex  1.889143e+001 -9.982011e+001  0.000000e+000
    endloop
  endfacet
  facet normal  4.617704e-001 -8.869995e-001  0.000000e+000
    outer loop
      vertex  1.889143e+001 -9.982011e+001  0.000000e+000
      vertex  1.904000e+001 -9.974277e+001  1.000000e+002
      vertex  1.889143e+001 -9.982011e+001  1.000000e+002
    endloop
  endfacet
  facet normal  3.826602e-001 -9.238892e-001  0.000000e+000
    outer loop
      vertex  1.889143e+001 -9.982011e+001  0.000000e+000
      vertex  1.889143e+001 -9.982011e+001  1.000000e+002
      vertex  1.873668e+001 -9.988421e+001  0.000000e+000
    endloop
  endfacet
  facet normal  3.826602e-001 -9.238892e-001  0.000000e+000
    outer loop
      vertex  1.873668e+001 -9.988421e+001  0.000000e+000
      vertex  1.889143e+001 -9.982011e+001  1.000000e+002
      vertex  1.873668e+001 -9.988421e+001  1.000000e+002
    endloop
  endfacet
  facet normal  3.007139e-001 -9.537144e-001  0.000000e+000
    outer loop
      vertex  1.873668e+001 -9.988421e+001  0.000000e+000
      vertex  1.873668e+001 -9.988421e+001  1.000000e+002
      vertex  1.857693e+001 -9.993458e+001  0.000000e+000
    endloop
  endfacet
  facet normal  3.007139e-001 -9.537144e-001  0.000000e+000
    outer loop
      vertex  1.857693e+001 -9.993458e+001  0.000000e+000
      vertex  1.873668e+001 -9.988421e+001  1.000000e+002
      vertex  1.857693e+001 -9.993458e+001  1.000000e+002
    endloop
  endfacet
  facet normal  2.164481e-001 -9.762941e-001  0.000000e+000
    outer loop
      vertex  1.857693e+001 -9.993458e+001  0.000000e+000
      vertex  1.857693e+001 -9.993458e+001  1.000000e+002
      vertex  1.841340e+001 -9.997083e+001  0.000000e+000
    endloop
  endfacet
  facet normal  2.164481e-001 -9.762941e-001  0.000000e+000
    outer loop
      vertex  1.841340e+001 -9.997083e+001  0.000000e+000
      vertex  1.857693e+001 -9.993458e+001  1.000000e+002
      vertex  1.841340e+001 -9.997083e+001  1.000000e+002
    endloop
  endfacet
  facet normal  1.304987e-001 -9.914485e-001  0.000000e+000
    outer loop
      vertex  1.841340e+001 -9.997083e+001  0.000000e+000
      vertex  1.841340e+001 -9.997083e+001  1.000000e+002
      vertex  1.824734e+001 -9.999269e+001  0.000000e+000
    endloop
  endfacet
  facet normal  1.304987e-001 -9.914485e-001  0.000000e+000
    outer loop
      vertex  1.824734e+001 -9.999269e+001  0.000000e+000
      vertex  1.841340e+001 -9.997083e+001  1.000000e+002
      vertex  1.824734e+001 -9.999269e+001  1.000000e+002
    endloop
  endfacet
  facet normal  4.363587e-002 -9.990475e-001  0.000000e+000
    outer loop
      vertex  1.824734e+001 -9.999269e+001  0.000000e+000
      vertex  1.824734e+001 -9.999269e+001  1.000000e+002
      vertex  1.808000e+001 -1.000000e+002  0.000000e+000
    endloop
  endfacet
  facet normal  4.363587e-002 -9.990475e-001  0.000000e+000
    outer loop
      vertex  1.808000e+001 -1.000000e+002  0.000000e+000
      vertex  1.824734e+001 -9.999269e+001  1.000000e+002
      vertex  1.808000e+001 -1.000000e+002  1.000000e+002
    endloop
  endfacet
  facet normal  0.000000e+000  1.000000e+000  0.000000e+000
    outer loop
      vertex -1.808000e+001  1.000000e+002  0.000000e+000
      vertex -1.808000e+001  1.000000e+002  1.000000e+002
      vertex  1.808000e+001  1.000000e+002  0.000000e+000
    endloop
  endfacet
  facet normal  0.000000e+000  1.000000e+000  -0.000000e+000
    outer loop
      vertex  1.808000e+001  1.000000e+002  0.000000e+000
      vertex -1.808000e+001  1.000000e+002  1.000000e+002
      vertex  1.808000e+001  1.000000e+002  1.000000e+002
    endloop
  endfacet
  facet normal -9.990480e-001  4.362551e-002  0.000000e+000
    outer loop
      vertex -2.000000e+001  9.808000e+001  0.000000e+000
      vertex -2.000000e+001  9.808000e+001  1.000000e+002
      vertex -1.999269e+001  9.824734e+001  0.000000e+000
    endloop
  endfacet
  facet normal -9.990480e-001  4.362551e-002  0.000000e+000
    outer loop
      vertex -1.999269e+001  9.824734e+001  0.000000e+000
      vertex -2.000000e+001  9.808000e+001  1.000000e+002
      vertex -1.999269e+001  9.824734e+001  1.000000e+002
    endloop
  endfacet
  facet normal -9.914459e-001  1.305181e-001  0.000000e+000
    outer loop
      vertex -1.999269e+001  9.824734e+001  0.000000e+000
      vertex -1.999269e+001  9.824734e+001  1.000000e+002
      vertex -1.997083e+001  9.841341e+001  0.000000e+000
    endloop
  endfacet
  facet normal -9.914459e-001  1.305181e-001  0.000000e+000
    outer loop
      vertex -1.997083e+001  9.841341e+001  0.000000e+000
      vertex -1.999269e+001  9.824734e+001  1.000000e+002
      vertex -1.997083e+001  9.841341e+001  1.000000e+002
    endloop
  endfacet
  facet normal -9.762965e-001  2.164373e-001  0.000000e+000
    outer loop
      vertex -1.997083e+001  9.841341e+001  0.000000e+000
      vertex -1.997083e+001  9.841341e+001  1.000000e+002
      vertex -1.993458e+001  9.857693e+001  0.000000e+000
    endloop
  endfacet
  facet normal -9.762965e-001  2.164373e-001  0.000000e+000
    outer loop
      vertex -1.993458e+001  9.857693e+001  0.000000e+000
      vertex -1.997083e+001  9.841341e+001  1.000000e+002
      vertex -1.993458e+001  9.857693e+001  1.000000e+002
    endloop
  endfacet
  facet normal -9.537166e-001  3.007068e-001  0.000000e+000
    outer loop
      vertex -1.993458e+001  9.857693e+001  0.000000e+000
      vertex -1.993458e+001  9.857693e+001  1.000000e+002
      vertex -1.988421e+001  9.873668e+001  0.000000e+000
    endloop
  endfacet
  facet normal -9.537166e-001  3.007068e-001  0.000000e+000
    outer loop
      vertex -1.988421e+001  9.873668e+001  0.000000e+000
      vertex -1.993458e+001  9.857693e+001  1.000000e+002
      vertex -1.988421e+001  9.873668e+001  1.000000e+002
    endloop
  endfacet
  facet normal -9.238753e-001  3.826934e-001  0.000000e+000
    outer loop
      vertex -1.988421e+001  9.873668e+001  0.000000e+000
      vertex -1.988421e+001  9.873668e+001  1.000000e+002
      vertex -1.982011e+001  9.889143e+001  0.000000e+000
    endloop
  endfacet
  facet normal -9.238753e-001  3.826934e-001  0.000000e+000
    outer loop
      vertex -1.982011e+001  9.889143e+001  0.000000e+000
      vertex -1.988421e+001  9.873668e+001  1.000000e+002
      vertex -1.982011e+001  9.889143e+001  1.000000e+002
    endloop
  endfacet
  facet normal -8.870159e-001  4.617389e-001  0.000000e+000
    outer loop
      vertex -1.982011e+001  9.889143e+001  0.000000e+000
      vertex -1.982011e+001  9.889143e+001  1.000000e+002
      vertex -1.974277e+001  9.904000e+001  0.000000e+000
    endloop
  endfacet
  facet normal -8.870159e-001  4.617389e-001  0.000000e+000
    outer loop
      vertex -1.974277e+001  9.904000e+001  0.000000e+000
      vertex -1.982011e+001  9.889143e+001  1.000000e+002
      vertex -1.974277e+001  9.904000e+001  1.000000e+002
    endloop
  endfacet
  facet normal -8.433861e-001  5.373079e-001  0.000000e+000
    outer loop
      vertex -1.974277e+001  9.904000e+001  0.000000e+000
      vertex -1.974277e+001  9.904000e+001  1.000000e+002
      vertex -1.965277e+001  9.918127e+001  0.000000e+000
    endloop
  endfacet
  facet normal -8.433861e-001  5.373079e-001  0.000000e+000
    outer loop
      vertex -1.965277e+001  9.918127e+001  0.000000e+000
      vertex -1.974277e+001  9.904000e+001  1.000000e+002
      vertex -1.965277e+001  9.918127e+001  1.000000e+002
    endloop
  endfacet
  facet normal -7.933655e-001  6.087456e-001  0.000000e+000
    outer loop
      vertex -1.965277e+001  9.918127e+001  0.000000e+000
      vertex -1.965277e+001  9.918127e+001  1.000000e+002
      vertex -1.955081e+001  9.931416e+001  0.000000e+000
    endloop
  endfacet
  facet normal -7.933655e-001  6.087456e-001  0.000000e+000
    outer loop
      vertex -1.955081e+001  9.931416e+001  0.000000e+000
      vertex -1.965277e+001  9.918127e+001  1.000000e+002
      vertex -1.955081e+001  9.931416e+001  1.000000e+002
    endloop
  endfacet
  facet normal -7.372656e-001  6.756029e-001  0.000000e+000
    outer loop
      vertex -1.955081e+001  9.931416e+001  0.000000e+000
      vertex -1.955081e+001  9.931416e+001  1.000000e+002
      vertex -1.943764e+001  9.943764e+001  0.000000e+000
    endloop
  endfacet
  facet normal -7.372656e-001  6.756029e-001  0.000000e+000
    outer loop
      vertex -1.943764e+001  9.943764e+001  0.000000e+000
      vertex -1.955081e+001  9.931416e+001  1.000000e+002
      vertex -1.943764e+001  9.943764e+001  1.000000e+002
    endloop
  endfacet
  facet normal -6.755854e-001  7.372818e-001  0.000000e+000
    outer loop
      vertex -1.943764e+001  9.943764e+001  0.000000e+000
      vertex -1.943764e+001  9.943764e+001  1.000000e+002
      vertex -1.931415e+001  9.955080e+001  0.000000e+000
    endloop
  endfacet
  facet normal -6.755854e-001  7.372818e-001  0.000000e+000
    outer loop
      vertex -1.931415e+001  9.955080e+001  0.000000e+000
      vertex -1.943764e+001  9.943764e+001  1.000000e+002
      vertex -1.931415e+001  9.955080e+001  1.000000e+002
    endloop
  endfacet
  facet normal -6.087638e-001  7.933515e-001  0.000000e+000
    outer loop
      vertex -1.931415e+001  9.955080e+001  0.000000e+000
      vertex -1.931415e+001  9.955080e+001  1.000000e+002
      vertex -1.918127e+001  9.965277e+001  0.000000e+000
    endloop
  endfacet
  facet normal -6.087638e-001  7.933515e-001  0.000000e+000
    outer loop
      vertex -1.918127e+001  9.965277e+001  0.000000e+000
      vertex -1.931415e+001  9.955080e+001  1.000000e+002
      vertex -1.918127e+001  9.965277e+001  1.000000e+002
    endloop
  endfacet
  facet normal -5.372998e-001  8.433913e-001  0.000000e+000
    outer loop
      vertex -1.918127e+001  9.965277e+001  0.000000e+000
      vertex -1.918127e+001  9.965277e+001  1.000000e+002
      vertex -1.904000e+001  9.974277e+001  0.000000e+000
    endloop
  endfacet
  facet normal -5.372998e-001  8.433913e-001  0.000000e+000
    outer loop
      vertex -1.904000e+001  9.974277e+001  0.000000e+000
      vertex -1.918127e+001  9.965277e+001  1.000000e+002
      vertex -1.904000e+001  9.974277e+001  1.000000e+002
    endloop
  endfacet
  facet normal -4.617704e-001  8.869995e-001  0.000000e+000
    outer loop
      vertex -1.904000e+001  9.974277e+001  0.000000e+000
      vertex -1.904000e+001  9.974277e+001  1.000000e+002
      vertex -1.889143e+001  9.982011e+001  0.000000e+000
    endloop
  endfacet
  facet normal -4.617704e-001  8.869995e-001  0.000000e+000
    outer loop
      vertex -1.889143e+001  9.982011e+001  0.000000e+000
      vertex -1.904000e+001  9.974277e+001  1.000000e+002
      vertex -1.889143e+001  9.982011e+001  1.000000e+002
    endloop
  endfacet
  facet normal -3.826602e-001  9.238892e-001  0.000000e+000
    outer loop
      vertex -1.889143e+001  9.982011e+001  0.000000e+000
      vertex -1.889143e+001  9.982011e+001  1.000000e+002
      vertex -1.873668e+001  9.988421e+001  0.000000e+000
    endloop
  endfacet
  facet normal -3.826602e-001  9.238892e-001  0.000000e+000
    outer loop
      vertex -1.873668e+001  9.988421e+001  0.000000e+000
      vertex -1.889143e+001  9.982011e+001  1.000000e+002
      vertex -1.873668e+001  9.988421e+001  1.000000e+002
    endloop
  endfacet
  facet normal -3.007139e-001  9.537144e-001  0.000000e+000
    outer loop
      vertex -1.873668e+001  9.988421e+001  0.000000e+000
      vertex -1.873668e+001  9.988421e+001  1.000000e+002
      vertex -1.857693e+001  9.993458e+001  0.000000e+000
    endloop
  endfacet
  facet normal -3.007139e-001  9.537144e-001  0.000000e+000
    outer loop
      vertex -1.857693e+001  9.993458e+001  0.000000e+000
      vertex -1.873668e+001  9.988421e+001  1.000000e+002
      vertex -1.857693e+001  9.993458e+001  1.000000e+002
    endloop
  endfacet
  facet normal -2.164481e-001  9.762941e-001  0.000000e+000
    outer loop
      vertex -1.857693e+001  9.993458e+001  0.000000e+000
      vertex -1.857693e+001  9.993458e+001  1.000000e+002
      vertex -1.841340e+001  9.997083e+001  0.000000e+000
    endloop
  endfacet
  facet normal -2.164481e-001  9.762941e-001  0.000000e+000
    outer loop
      vertex -1.841340e+001  9.997083e+001  0.000000e+000
      vertex -1.857693e+001  9.993458e+001  1.000000e+002
      vertex -1.841340e+001  9.997083e+001  1.000000e+002
    endloop
  endfacet
  facet normal -1.304987e-001  9.914485e-001  0.000000e+000
    outer loop
      vertex -1.841340e+001  9.997083e+001  0.000000e+000
      vertex -1.841340e+001  9.997083e+001  1.000000e+002
      vertex -1.824734e+001  9.999269e+001  0.000000e+000
    endloop
  endfacet
  facet normal -1.304987e-001  9.914485e-001  0.000000e+000
    outer loop
      vertex -1.824734e+001  9.999269e+001  0.000000e+000
      vertex -1.841340e+001  9.997083e+001  1.000000e+002
      vertex -1.824734e+001  9.999269e+001  1.000000e+002
    endloop
  endfacet
  facet normal -4.363587e-002  9.990475e-001  0.000000e+000
    outer loop
      vertex -1.824734e+001  9.999269e+001  0.000000e+000
      vertex -1.824734e+001  9.999269e+001  1.000000e+002
      vertex -1.808000e+001  1.000000e+002  0.000000e+000
    endloop
  endfacet
  facet normal -4.363587e-002  9.990475e-001  0.000000e+000
    outer loop
      vertex -1.808000e+001  1.000000e+002  0.000000e+000
      vertex -1.824734e+001  9.999269e+001  1.000000e+002
      vertex -1.808000e+001  1.000000e+002  1.000000e+002
    endloop
  endfacet
  facet normal  4.363587e-002  9.990475e-001  0.000000e+000
    outer loop
      vertex  1.808000e+001  1.000000e+002  0.000000e+000
      vertex  1.808000e+001  1.000000e+002  1.000000e+002
      vertex  1.824734e+001  9.999269e+001  0.000000e+000
    endloop
  endfacet
  facet normal  4.363587e-002  9.990475e-001  -0.000000e+000
    outer loop
      vertex  1.824734e+001  9.999269e+001  0.000000e+000
      vertex  1.808000e+001  1.000000e+002  1.000000e+002
      vertex  1.824734e+001  9.999269e+001  1.000000e+002
    endloop
  endfacet
  facet normal  1.304987e-001  9.914485e-001  0.000000e+000
    outer loop
      vertex  1.824734e+001  9.999269e+001  0.000000e+000
      vertex  1.824734e+001  9.999269e+001  1.000000e+002
      vertex  1.841340e+001  9.997083e+001  0.000000e+000
    endloop
  endfacet
  facet normal  1.304987e-001  9.914485e-001  -0.000000e+000
    outer loop
      vertex  1.841340e+001  9.997083e+001  0.000000e+000
      vertex  1.824734e+001  9.999269e+001  1.000000e+002
      vertex  1.841340e+001  9.997083e+001  1.000000e+002
    endloop
  endfacet
  facet normal  2.164481e-001  9.762941e-001  0.000000e+000
    outer loop
      vertex  1.841340e+001  9.997083e+001  0.000000e+000
      vertex  1.841340e+001  9.997083e+001  1.000000e+002
      vertex  1.857693e+001  9.993458e+001  0.000000e+000
    endloop
  endfacet
  facet normal  2.164481e-001  9.762941e-001  -0.000000e+000
    outer loop
      vertex  1.857693e+001  9.993458e+001  0.000000e+000
      vertex  1.841340e+001  9.997083e+001  1.000000e+002
      vertex  1.857693e+001  9.993458e+001  1.000000e+002
    endloop
  endfacet
  facet normal  3.007139e-001  9.537144e-001  0.000000e+000
    outer loop
      vertex  1.857693e+001  9.993458e+001  0.000000e+000
      vertex  1.857693e+001  9.993458e+001  1.000000e+002
      vertex  1.873668e+001  9.988421e+001  0.000000e+000
    endloop
  endfacet
  facet normal  3.007139e-001  9.537144e-001  -0.000000e+000
    outer loop
      vertex  1.873668e+001  9.988421e+001  0.000000e+000
      vertex  1.857693e+001  9.993458e+001  1.000000e+002
      vertex  1.873668e+001  9.988421e+001  1.000000e+002
    endloop
  endfacet
  facet normal  3.826602e-001  9.238892e-001  0.000000e+000
    outer loop
      vertex  1.873668e+001  9.988421e+001  0.000000e+000
      vertex  1.873668e+001  9.988421e+001  1.000000e+002
      vertex  1.889143e+001  9.982011e+001  0.000000e+000
    endloop
  endfacet
  facet normal  3.826602e-001  9.238892e-001  -0.000000e+000
    outer loop
      vertex  1.889143e+001  9.982011e+001  0.000000e+000
      vertex  1.873668e+001  9.988421e+001  1.000000e+002
      vertex  1.889143e+001  9.982011e+001  1.000000e+002
    endloop
  endfacet
  facet normal  4.617704e-001  8.869995e-001  0.000000e+000
    outer loop
      vertex  1.889143e+001  9.982011e+001  0.000000e+000
      vertex  1.889143e+001  9.982011e+001  1.000000e+002
      vertex  1.904000e+001  9.974277e+001  0.000000e+000
    endloop
  endfacet
  facet normal  4.617704e-001  8.869995e-001  -0.000000e+000
    outer loop
      vertex  1.904000e+001  9.974277e+001  0.000000e+000
      vertex  1.889143e+001  9.982011e+001  1.000000e+002
      vertex  1.904000e+001  9.974277e+001  1.000000e+002
    endloop
  endfacet
  facet normal  5.372998e-001  8.433913e-001  0.000000e+000
    outer loop
      vertex  1.904000e+001  9.974277e+001  0.000000e+000
      vertex  1.904000e+001  9.974277e+001  1.000000e+002
      vertex  1.918127e+001  9.965277e+001  0.000000e+000
    endloop
  endfacet
  facet normal  5.372998e-001  8.433913e-001  -0.000000e+000
    outer loop
      vertex  1.918127e+001  9.965277e+001  0.000000e+000
      vertex  1.904000e+001  9.974277e+001  1.000000e+002
      vertex  1.918127e+001  9.965277e+001  1.000000e+002
    endloop
  endfacet
  facet normal  6.087638e-001  7.933515e-001  0.000000e+000
    outer loop
      vertex  1.918127e+001  9.965277e+001  0.000000e+000
      vertex  1.918127e+001  9.965277e+001  1.000000e+002
      vertex  1.931415e+001  9.955080e+001  0.000000e+000
    endloop
  endfacet
  facet normal  6.087638e-001  7.933515e-001  -0.000000e+000
    outer loop
      vertex  1.931415e+001  9.955080e+001  0.000000e+000
      vertex  1.918127e+001  9.965277e+001  1.000000e+002
      vertex  1.931415e+001  9.955080e+001  1.000000e+002
    endloop
  endfacet
  facet normal  6.755854e-001  7.372818e-001  0.000000e+000
    outer loop
      vertex  1.931415e+001  9.955080e+001  0.000000e+000
      vertex  1.931415e+001  9.955080e+001  1.000000e+002
      vertex  1.943764e+001  9.943764e+001  0.000000e+000
    endloop
  endfacet
  facet normal  6.755854e-001  7.372818e-001  -0.000000e+000
    outer loop
      vertex  1.943764e+001  9.943764e+001  0.000000e+000
      vertex  1.931415e+001  9.955080e+001  1.000000e+002
      vertex  1.943764e+001  9.943764e+001  1.000000e+002
    endloop
  endfacet
  facet normal  7.372656e-001  6.756029e-001  0.000000e+000
    outer loop
      vertex  1.943764e+001  9.943764e+001  0.000000e+000
      vertex  1.943764e+001  9.943764e+001  1.000000e+002
      vertex  1.955081e+001  9.931416e+001  0.000000e+000
    endloop
  endfacet
  facet normal  7.372656e-001  6.756029e-001  -0.000000e+000
    outer loop
      vertex  1.955081e+001  9.931416e+001  0.000000e+000
      vertex  1.943764e+001  9.943764e+001  1.000000e+002
      vertex  1.955081e+001  9.931416e+001  1.000000e+002
    endloop
  endfacet
  facet normal  7.933655e-001  6.087456e-001  0.000000e+000
    outer loop
      vertex  1.955081e+001  9.931416e+001  0.000000e+000
      vertex  1.955081e+001  9.931416e+001  1.000000e+002
      vertex  1.965277e+001  9.918127e+001  0.000000e+000
    endloop
  endfacet
  facet normal  7.933655e-001  6.087456e-001  -0.000000e+000
    outer loop
      vertex  1.965277e+001  9.918127e+001  0.000000e+000
      vertex  1.955081e+001  9.931416e+001  1.000000e+002
      vertex  1.965277e+001  9.918127e+001  1.000000e+002
    endloop
  endfacet
  facet normal  8.433861e-001  5.373079e-001  0.000000e+000
    outer loop
      vertex  1.965277e+001  9.918127e+001  0.000000e+000
      vertex  1.965277e+001  9.918127e+001  1.000000e+002
      vertex  1.974277e+001  9.904000e+001  0.000000e+000
    endloop
  endfacet
  facet normal  8.433861e-001  5.373079e-001  -0.000000e+000
    outer loop
      vertex  1.974277e+001  9.904000e+001  0.000000e+000
      vertex  1.965277e+001  9.918127e+001  1.000000e+002
      vertex  1.974277e+001  9.904000e+001  1.000000e+002
    endloop
  endfacet
  facet normal  8.870159e-001  4.617389e-001  0.000000e+000
    outer loop
      vertex  1.974277e+001  9.904000e+001  0.000000e+000
      vertex  1.974277e+001  9.904000e+001  1.000000e+002
      vertex  1.982011e+001  9.889143e+001  0.000000e+000
    endloop
  endfacet
  facet normal  8.870159e-001  4.617389e-001  -0.000000e+000
    outer loop
      vertex  1.982011e+001  9.889143e+001  0.000000e+000
      vertex  1.974277e+001  9.904000e+001  1.000000e+002
      vertex  1.982011e+001  9.889143e+001  1.000000e+002
    endloop
  endfacet
  facet normal  9.238753e-001  3.826934e-001  0.000000e+000
    outer loop
      vertex  1.982011e+001  9.889143e+001  0.000000e+000
      vertex  1.982011e+001  9.889143e+001  1.000000e+002
      vertex  1.988421e+001  9.873668e+001  0.000000e+000
    endloop
  endfacet
  facet normal  9.238753e-001  3.826934e-001  -0.000000e+000
    outer loop
      vertex  1.988421e+001  9.873668e+001  0.000000e+000
      vertex  1.982011e+001  9.889143e+001  1.000000e+002
      vertex  1.988421e+001  9.873668e+001  1.000000e+002
    endloop
  endfacet
  facet normal  9.537166e-001  3.007068e-001  0.000000e+000
    outer loop
      vertex  1.988421e+001  9.873668e+001  0.000000e+000
      vertex  1.988421e+001  9.873668e+001  1.000000e+002
      vertex  1.993458e+001  9.857693e+001  0.000000e+000
    endloop
  endfacet
  facet normal  9.537166e-001  3.007068e-001  -0.000000e+000
    outer loop
      vertex  1.993458e+001  9.857693e+001  0.000000e+000
      vertex  1.988421e+001  9.873668e+001  1.000000e+002
      vertex  1.993458e+001  9.857693e+001  1.000000e+002
    endloop
  endfacet
  facet normal  9.762965e-001  2.164373e-001  0.000000e+000
    outer loop
      vertex  1.993458e+001  9.857693e+001  0.000000e+000
      vertex  1.993458e+001  9.857693e+001  1.000000e+002
      vertex  1.997083e+001  9.841341e+001  0.000000e+000
    endloop
  endfacet
  facet normal  9.762965e-001  2.164373e-001  -0.000000e+000
    outer loop
      vertex  1.997083e+001  9.841341e+001  0.000000e+000
      vertex  1.993458e+001  9.857693e+001  1.000000e+002
      vertex  1.997083e+001  9.841341e+001  1.000000e+002
    endloop
  endfacet
  facet normal  9.914459e-001  1.305181e-001  0.000000e+000
    outer loop
      vertex  1.997083e+001  9.841341e+001  0.000000e+000
      vertex  1.997083e+001  9.841341e+001  1.000000e+002
      vertex  1.999269e+001  9.824734e+001  0.000000e+000
    endloop
  endfacet
  facet normal  9.914459e-001  1.305181e-001  -0.000000e+000
    outer loop
      vertex  1.999269e+001  9.824734e+001  0.000000e+000
      vertex  1.997083e+001  9.841341e+001  1.000000e+002
      vertex  1.999269e+001  9.824734e+001  1.000000e+002
    endloop
  endfacet
  facet normal  9.990480e-001  4.362551e-002  0.000000e+000
    outer loop
      vertex  1.999269e+001  9.824734e+001  0.000000e+000
      vertex  1.999269e+001  9.824734e+001  1.000000e+002
      vertex  2.000000e+001  9.808000e+001  0.000000e+000
    endloop
  endfacet
  facet normal  9.990480e-001  4.362551e-002  -0.000000e+000
    outer loop
      vertex  2.000000e+001  9.808000e+001  0.000000e+000
      vertex  1.999269e+001  9.824734e+001  1.000000e+002
      vertex  2.000000e+001  9.808000e+001  1.000000e+002
    endloop
  endfacet
  facet normal  0.000000e+000 -1.000000e+000  0.000000e+000
    outer loop
      vertex -1.808000e+001  9.808000e+001  0.000000e+000
      vertex  1.808000e+001  9.808000e+001  0.000000e+000
      vertex -1.808000e+001  9.808000e+001  1.000000e+002
    endloop
  endfacet
  facet normal  0.000000e+000 -1.000000e+000  0.000000e+000
    outer loop
      vertex -1.808000e+001  9.808000e+001  1.000000e+002
      vertex  1.808000e+001  9.808000e+001  0.000000e+000
      vertex  1.808000e+001  9.808000e+001  1.000000e+002
    endloop
  endfacet
  facet normal  1.000000e+000  0.000000e+000  0.000000e+000
    outer loop
      vertex -1.808000e+001 -9.808000e+001  1.000000e+002
      vertex -1.808000e+001 -9.808000e+001  0.000000e+000
      vertex -1.808000e+001  9.808000e+001  1.000000e+002
    endloop
  endfacet
  facet normal  1.000000e+000  0.000000e+000  0.000000e+000
    outer loop
      vertex -1.808000e+001  9.808000e+001  1.000000e+002
      vertex -1.808000e+001 -9.808000e+001  0.000000e+000
      vertex -1.808000e+001  9.808000e+001  0.000000e+000
    endloop
  endfacet
  facet normal  0.000000e+000  1.000000e+000  0.000000e+000
    outer loop
      vertex  1.808000e+001 -9.808000e+001  0.000000e+000
      vertex -1.808000e+001 -9.808000e+001  0.000000e+000
      vertex  1.808000e+001 -9.808000e+001  1.000000e+002
    endloop
  endfacet
  facet normal  0.000000e+000  1.000000e+000  0.000000e+000
    outer loop
      vertex  1.808000e+001 -9.808000e+001  1.000000e+002
      vertex -1.808000e+001 -9.808000e+001  0.000000e+000
      vertex -1.808000e+001 -9.808000e+001  1.000000e+002
    endloop
  endfacet
  facet normal -1.000000e+000  0.000000e+000  0.000000e+000
    outer loop
      vertex  1.808000e+001  9.808000e+001  1.000000e+002
      vertex  1.808000e+001  9.808000e+001  0.000000e+000
      vertex  1.808000e+001 -9.808000e+001  1.000000e+002
    endloop
  endfacet
  facet normal -1.000000e+000  0.000000e+000  0.000000e+000
    outer loop
      vertex  1.808000e+001 -9.808000e+001  1.000000e+002
      vertex  1.808000e+001  9.808000e+001  0.000000e+000
      vertex  1.808000e+001 -9.808000e+001  0.000000e+000
    endloop
  endfacet
endsolid CATIA STL
