solid CATIA STL
  facet normal  0.000000e+000  0.000000e+000  1.000000e+000
    outer loop
      vertex -2.808000e+001  9.860000e+001  1.000000e+002
      vertex -2.947233e+001  9.874634e+001  1.000000e+002
      vertex -2.948000e+001  9.860000e+001  1.000000e+002
    endloop
  endfacet
  facet normal  0.000000e+000  0.000000e+000  1.000000e+000
    outer loop
      vertex  2.808000e+001  9.860000e+001  1.000000e+002
      vertex  2.808000e+001 -9.860000e+001  1.000000e+002
      vertex  2.948000e+001 -9.860000e+001  1.000000e+002
    endloop
  endfacet
  facet normal  0.000000e+000  -0.000000e+000  1.000000e+000
    outer loop
      vertex  2.808000e+001  9.860000e+001  1.000000e+002
      vertex  2.948000e+001 -9.860000e+001  1.000000e+002
      vertex  2.948000e+001  9.860000e+001  1.000000e+002
    endloop
  endfacet
  facet normal  0.000000e+000  0.000000e+000  1.000000e+000
    outer loop
      vertex  2.808000e+001  9.860000e+001  1.000000e+002
      vertex  2.948000e+001  9.860000e+001  1.000000e+002
      vertex  2.947233e+001  9.874634e+001  1.000000e+002
    endloop
  endfacet
  facet normal  0.000000e+000  0.000000e+000  1.000000e+000
    outer loop
      vertex  2.808000e+001  9.860000e+001  1.000000e+002
      vertex  2.947233e+001  9.874634e+001  1.000000e+002
      vertex  2.944941e+001  9.889108e+001  1.000000e+002
    endloop
  endfacet
  facet normal  0.000000e+000  0.000000e+000  1.000000e+000
    outer loop
      vertex  2.808000e+001  9.860000e+001  1.000000e+002
      vertex  2.944941e+001  9.889108e+001  1.000000e+002
      vertex  2.941148e+001  9.903262e+001  1.000000e+002
    endloop
  endfacet
  facet normal  0.000000e+000  0.000000e+000  1.000000e+000
    outer loop
      vertex  2.808000e+001  9.860000e+001  1.000000e+002
      vertex  2.941148e+001  9.903262e+001  1.000000e+002
      vertex  2.935896e+001  9.916943e+001  1.000000e+002
    endloop
  endfacet
  facet normal  0.000000e+000  0.000000e+000  1.000000e+000
    outer loop
      vertex  2.808000e+001  9.860000e+001  1.000000e+002
      vertex  2.935896e+001  9.916943e+001  1.000000e+002
      vertex  2.929243e+001  9.930000e+001  1.000000e+002
    endloop
  endfacet
  facet normal  0.000000e+000  0.000000e+000  9.999999e-001
    outer loop
      vertex  2.808000e+001  9.860000e+001  1.000000e+002
      vertex  2.929243e+001  9.930000e+001  1.000000e+002
      vertex  2.921262e+001  9.942290e+001  1.000000e+002
    endloop
  endfacet
  facet normal  0.000000e+000  0.000000e+000  1.000000e+000
    outer loop
      vertex  2.808000e+001  9.860000e+001  1.000000e+002
      vertex  2.921262e+001  9.942290e+001  1.000000e+002
      vertex  2.912040e+001  9.953678e+001  1.000000e+002
    endloop
  endfacet
  facet normal  0.000000e+000  0.000000e+000  1.000000e+000
    outer loop
      vertex  2.808000e+001  9.860000e+001  1.000000e+002
      vertex  2.912040e+001  9.953678e+001  1.000000e+002
      vertex  2.901678e+001  9.964040e+001  1.000000e+002
    endloop
  endfacet
  facet normal  0.000000e+000  0.000000e+000  1.000000e+000
    outer loop
      vertex  2.808000e+001  9.860000e+001  1.000000e+002
      vertex  2.901678e+001  9.964040e+001  1.000000e+002
      vertex  2.890290e+001  9.973262e+001  1.000000e+002
    endloop
  endfacet
  facet normal  0.000000e+000  0.000000e+000  1.000000e+000
    outer loop
      vertex  2.808000e+001  9.860000e+001  1.000000e+002
      vertex  2.890290e+001  9.973262e+001  1.000000e+002
      vertex  2.878000e+001  9.981244e+001  1.000000e+002
    endloop
  endfacet
  facet normal  0.000000e+000  0.000000e+000  1.000000e+000
    outer loop
      vertex  2.808000e+001  9.860000e+001  1.000000e+002
      vertex  2.878000e+001  9.981244e+001  1.000000e+002
      vertex  2.864943e+001  9.987897e+001  1.000000e+002
    endloop
  endfacet
  facet normal  0.000000e+000  0.000000e+000  1.000000e+000
    outer loop
      vertex  2.808000e+001  9.860000e+001  1.000000e+002
      vertex  2.864943e+001  9.987897e+001  1.000000e+002
      vertex  2.851262e+001  9.993148e+001  1.000000e+002
    endloop
  endfacet
  facet normal  0.000000e+000  0.000000e+000  1.000000e+000
    outer loop
      vertex  2.808000e+001  9.860000e+001  1.000000e+002
      vertex  2.851262e+001  9.993148e+001  1.000000e+002
      vertex  2.837108e+001  9.996941e+001  1.000000e+002
    endloop
  endfacet
  facet normal  0.000000e+000  0.000000e+000  1.000000e+000
    outer loop
      vertex  2.808000e+001  9.860000e+001  1.000000e+002
      vertex  2.837108e+001  9.996941e+001  1.000000e+002
      vertex  2.822634e+001  9.999233e+001  1.000000e+002
    endloop
  endfacet
  facet normal  0.000000e+000  0.000000e+000  1.000000e+000
    outer loop
      vertex  2.808000e+001  9.860000e+001  1.000000e+002
      vertex  2.822634e+001  9.999233e+001  1.000000e+002
      vertex  2.808000e+001  1.000000e+002  1.000000e+002
    endloop
  endfacet
  facet normal  0.000000e+000  0.000000e+000  1.000000e+000
    outer loop
      vertex -2.808000e+001 -9.860000e+001  1.000000e+002
      vertex -2.808000e+001  9.860000e+001  1.000000e+002
      vertex -2.948000e+001  9.860000e+001  1.000000e+002
    endloop
  endfacet
  facet normal  0.000000e+000  0.000000e+000  1.000000e+000
    outer loop
      vertex -2.808000e+001 -9.860000e+001  1.000000e+002
      vertex -2.948000e+001  9.860000e+001  1.000000e+002
      vertex -2.948000e+001 -9.860000e+001  1.000000e+002
    endloop
  endfacet
  facet normal  -0.000000e+000  0.000000e+000  1.000000e+000
    outer loop
      vertex -2.808000e+001 -9.860000e+001  1.000000e+002
      vertex -2.948000e+001 -9.860000e+001  1.000000e+002
      vertex -2.947233e+001 -9.874634e+001  1.000000e+002
    endloop
  endfacet
  facet normal  -0.000000e+000  0.000000e+000  1.000000e+000
    outer loop
      vertex -2.808000e+001 -9.860000e+001  1.000000e+002
      vertex -2.947233e+001 -9.874634e+001  1.000000e+002
      vertex -2.822634e+001 -9.999233e+001  1.000000e+002
    endloop
  endfacet
  facet normal  -0.000000e+000  0.000000e+000  1.000000e+000
    outer loop
      vertex -2.808000e+001 -9.860000e+001  1.000000e+002
      vertex -2.822634e+001 -9.999233e+001  1.000000e+002
      vertex -2.808000e+001 -1.000000e+002  1.000000e+002
    endloop
  endfacet
  facet normal  0.000000e+000  0.000000e+000  1.000000e+000
    outer loop
      vertex -2.808000e+001 -9.860000e+001  1.000000e+002
      vertex -2.808000e+001 -1.000000e+002  1.000000e+002
      vertex  2.808000e+001 -1.000000e+002  1.000000e+002
    endloop
  endfacet
  facet normal  0.000000e+000  -0.000000e+000  1.000000e+000
    outer loop
      vertex -2.808000e+001 -9.860000e+001  1.000000e+002
      vertex  2.808000e+001 -1.000000e+002  1.000000e+002
      vertex  2.808000e+001 -9.860000e+001  1.000000e+002
    endloop
  endfacet
  facet normal  -0.000000e+000  -0.000000e+000  1.000000e+000
    outer loop
      vertex -2.947233e+001 -9.874634e+001  1.000000e+002
      vertex -2.944941e+001 -9.889108e+001  1.000000e+002
      vertex -2.941148e+001 -9.903262e+001  1.000000e+002
    endloop
  endfacet
  facet normal  -0.000000e+000  -0.000000e+000  1.000000e+000
    outer loop
      vertex -2.947233e+001 -9.874634e+001  1.000000e+002
      vertex -2.941148e+001 -9.903262e+001  1.000000e+002
      vertex -2.935896e+001 -9.916943e+001  1.000000e+002
    endloop
  endfacet
  facet normal  -0.000000e+000  -0.000000e+000  1.000000e+000
    outer loop
      vertex -2.947233e+001 -9.874634e+001  1.000000e+002
      vertex -2.935896e+001 -9.916943e+001  1.000000e+002
      vertex -2.929243e+001 -9.930000e+001  1.000000e+002
    endloop
  endfacet
  facet normal  -0.000000e+000  -0.000000e+000  1.000000e+000
    outer loop
      vertex -2.947233e+001 -9.874634e+001  1.000000e+002
      vertex -2.929243e+001 -9.930000e+001  1.000000e+002
      vertex -2.921262e+001 -9.942290e+001  1.000000e+002
    endloop
  endfacet
  facet normal  -0.000000e+000  -0.000000e+000  1.000000e+000
    outer loop
      vertex -2.947233e+001 -9.874634e+001  1.000000e+002
      vertex -2.921262e+001 -9.942290e+001  1.000000e+002
      vertex -2.912040e+001 -9.953678e+001  1.000000e+002
    endloop
  endfacet
  facet normal  -0.000000e+000  -0.000000e+000  1.000000e+000
    outer loop
      vertex -2.947233e+001 -9.874634e+001  1.000000e+002
      vertex -2.912040e+001 -9.953678e+001  1.000000e+002
      vertex -2.901678e+001 -9.964040e+001  1.000000e+002
    endloop
  endfacet
  facet normal  -0.000000e+000  -0.000000e+000  9.999999e-001
    outer loop
      vertex -2.947233e+001 -9.874634e+001  1.000000e+002
      vertex -2.901678e+001 -9.964040e+001  1.000000e+002
      vertex -2.890290e+001 -9.973262e+001  1.000000e+002
    endloop
  endfacet
  facet normal  -0.000000e+000  -0.000000e+000  1.000000e+000
    outer loop
      vertex -2.947233e+001 -9.874634e+001  1.000000e+002
      vertex -2.890290e+001 -9.973262e+001  1.000000e+002
      vertex -2.878000e+001 -9.981244e+001  1.000000e+002
    endloop
  endfacet
  facet normal  -0.000000e+000  -0.000000e+000  1.000000e+000
    outer loop
      vertex -2.947233e+001 -9.874634e+001  1.000000e+002
      vertex -2.878000e+001 -9.981244e+001  1.000000e+002
      vertex -2.864943e+001 -9.987897e+001  1.000000e+002
    endloop
  endfacet
  facet normal  -0.000000e+000  -0.000000e+000  1.000000e+000
    outer loop
      vertex -2.947233e+001 -9.874634e+001  1.000000e+002
      vertex -2.864943e+001 -9.987897e+001  1.000000e+002
      vertex -2.851262e+001 -9.993148e+001  1.000000e+002
    endloop
  endfacet
  facet normal  -0.000000e+000  -0.000000e+000  1.000000e+000
    outer loop
      vertex -2.947233e+001 -9.874634e+001  1.000000e+002
      vertex -2.851262e+001 -9.993148e+001  1.000000e+002
      vertex -2.837108e+001 -9.996941e+001  1.000000e+002
    endloop
  endfacet
  facet normal  -0.000000e+000  -0.000000e+000  1.000000e+000
    outer loop
      vertex -2.947233e+001 -9.874634e+001  1.000000e+002
      vertex -2.837108e+001 -9.996941e+001  1.000000e+002
      vertex -2.822634e+001 -9.999233e+001  1.000000e+002
    endloop
  endfacet
  facet normal  0.000000e+000  0.000000e+000  1.000000e+000
    outer loop
      vertex  2.808000e+001 -9.860000e+001  1.000000e+002
      vertex  2.808000e+001 -1.000000e+002  1.000000e+002
      vertex  2.822634e+001 -9.999233e+001  1.000000e+002
    endloop
  endfacet
  facet normal  0.000000e+000  -0.000000e+000  1.000000e+000
    outer loop
      vertex  2.808000e+001 -9.860000e+001  1.000000e+002
      vertex  2.822634e+001 -9.999233e+001  1.000000e+002
      vertex  2.837108e+001 -9.996941e+001  1.000000e+002
    endloop
  endfacet
  facet normal  0.000000e+000  -0.000000e+000  1.000000e+000
    outer loop
      vertex  2.808000e+001 -9.860000e+001  1.000000e+002
      vertex  2.837108e+001 -9.996941e+001  1.000000e+002
      vertex  2.851262e+001 -9.993148e+001  1.000000e+002
    endloop
  endfacet
  facet normal  0.000000e+000  -0.000000e+000  1.000000e+000
    outer loop
      vertex  2.808000e+001 -9.860000e+001  1.000000e+002
      vertex  2.851262e+001 -9.993148e+001  1.000000e+002
      vertex  2.864943e+001 -9.987897e+001  1.000000e+002
    endloop
  endfacet
  facet normal  0.000000e+000  -0.000000e+000  1.000000e+000
    outer loop
      vertex  2.808000e+001 -9.860000e+001  1.000000e+002
      vertex  2.864943e+001 -9.987897e+001  1.000000e+002
      vertex  2.878000e+001 -9.981244e+001  1.000000e+002
    endloop
  endfacet
  facet normal  0.000000e+000  -0.000000e+000  1.000000e+000
    outer loop
      vertex  2.808000e+001 -9.860000e+001  1.000000e+002
      vertex  2.878000e+001 -9.981244e+001  1.000000e+002
      vertex  2.890290e+001 -9.973262e+001  1.000000e+002
    endloop
  endfacet
  facet normal  0.000000e+000  -0.000000e+000  1.000000e+000
    outer loop
      vertex  2.808000e+001 -9.860000e+001  1.000000e+002
      vertex  2.890290e+001 -9.973262e+001  1.000000e+002
      vertex  2.901678e+001 -9.964040e+001  1.000000e+002
    endloop
  endfacet
  facet normal  0.000000e+000  -0.000000e+000  1.000000e+000
    outer loop
      vertex  2.808000e+001 -9.860000e+001  1.000000e+002
      vertex  2.901678e+001 -9.964040e+001  1.000000e+002
      vertex  2.912040e+001 -9.953678e+001  1.000000e+002
    endloop
  endfacet
  facet normal  0.000000e+000  -0.000000e+000  1.000000e+000
    outer loop
      vertex  2.808000e+001 -9.860000e+001  1.000000e+002
      vertex  2.912040e+001 -9.953678e+001  1.000000e+002
      vertex  2.921262e+001 -9.942290e+001  1.000000e+002
    endloop
  endfacet
  facet normal  0.000000e+000  -0.000000e+000  9.999999e-001
    outer loop
      vertex  2.808000e+001 -9.860000e+001  1.000000e+002
      vertex  2.921262e+001 -9.942290e+001  1.000000e+002
      vertex  2.929243e+001 -9.930000e+001  1.000000e+002
    endloop
  endfacet
  facet normal  0.000000e+000  -0.000000e+000  1.000000e+000
    outer loop
      vertex  2.808000e+001 -9.860000e+001  1.000000e+002
      vertex  2.929243e+001 -9.930000e+001  1.000000e+002
      vertex  2.935896e+001 -9.916943e+001  1.000000e+002
    endloop
  endfacet
  facet normal  0.000000e+000  -0.000000e+000  1.000000e+000
    outer loop
      vertex  2.808000e+001 -9.860000e+001  1.000000e+002
      vertex  2.935896e+001 -9.916943e+001  1.000000e+002
      vertex  2.941148e+001 -9.903262e+001  1.000000e+002
    endloop
  endfacet
  facet normal  0.000000e+000  -0.000000e+000  1.000000e+000
    outer loop
      vertex  2.808000e+001 -9.860000e+001  1.000000e+002
      vertex  2.941148e+001 -9.903262e+001  1.000000e+002
      vertex  2.944941e+001 -9.889108e+001  1.000000e+002
    endloop
  endfacet
  facet normal  0.000000e+000  -0.000000e+000  1.000000e+000
    outer loop
      vertex  2.808000e+001 -9.860000e+001  1.000000e+002
      vertex  2.944941e+001 -9.889108e+001  1.000000e+002
      vertex  2.947233e+001 -9.874634e+001  1.000000e+002
    endloop
  endfacet
  facet normal  0.000000e+000  -0.000000e+000  1.000000e+000
    outer loop
      vertex  2.808000e+001 -9.860000e+001  1.000000e+002
      vertex  2.947233e+001 -9.874634e+001  1.000000e+002
      vertex  2.948000e+001 -9.860000e+001  1.000000e+002
    endloop
  endfacet
  facet normal  0.000000e+000  0.000000e+000  1.000000e+000
    outer loop
      vertex -2.947233e+001  9.874634e+001  1.000000e+002
      vertex -2.822634e+001  9.999233e+001  1.000000e+002
      vertex -2.837108e+001  9.996941e+001  1.000000e+002
    endloop
  endfacet
  facet normal  0.000000e+000  0.000000e+000  1.000000e+000
    outer loop
      vertex -2.947233e+001  9.874634e+001  1.000000e+002
      vertex -2.837108e+001  9.996941e+001  1.000000e+002
      vertex -2.851262e+001  9.993148e+001  1.000000e+002
    endloop
  endfacet
  facet normal  0.000000e+000  0.000000e+000  1.000000e+000
    outer loop
      vertex -2.947233e+001  9.874634e+001  1.000000e+002
      vertex -2.851262e+001  9.993148e+001  1.000000e+002
      vertex -2.864943e+001  9.987897e+001  1.000000e+002
    endloop
  endfacet
  facet normal  0.000000e+000  0.000000e+000  1.000000e+000
    outer loop
      vertex -2.947233e+001  9.874634e+001  1.000000e+002
      vertex -2.864943e+001  9.987897e+001  1.000000e+002
      vertex -2.878000e+001  9.981244e+001  1.000000e+002
    endloop
  endfacet
  facet normal  0.000000e+000  0.000000e+000  1.000000e+000
    outer loop
      vertex -2.947233e+001  9.874634e+001  1.000000e+002
      vertex -2.878000e+001  9.981244e+001  1.000000e+002
      vertex -2.890290e+001  9.973262e+001  1.000000e+002
    endloop
  endfacet
  facet normal  0.000000e+000  0.000000e+000  9.999999e-001
    outer loop
      vertex -2.947233e+001  9.874634e+001  1.000000e+002
      vertex -2.890290e+001  9.973262e+001  1.000000e+002
      vertex -2.901678e+001  9.964040e+001  1.000000e+002
    endloop
  endfacet
  facet normal  0.000000e+000  0.000000e+000  1.000000e+000
    outer loop
      vertex -2.947233e+001  9.874634e+001  1.000000e+002
      vertex -2.901678e+001  9.964040e+001  1.000000e+002
      vertex -2.912040e+001  9.953678e+001  1.000000e+002
    endloop
  endfacet
  facet normal  0.000000e+000  0.000000e+000  1.000000e+000
    outer loop
      vertex -2.947233e+001  9.874634e+001  1.000000e+002
      vertex -2.912040e+001  9.953678e+001  1.000000e+002
      vertex -2.921262e+001  9.942290e+001  1.000000e+002
    endloop
  endfacet
  facet normal  0.000000e+000  0.000000e+000  1.000000e+000
    outer loop
      vertex -2.947233e+001  9.874634e+001  1.000000e+002
      vertex -2.921262e+001  9.942290e+001  1.000000e+002
      vertex -2.929243e+001  9.930000e+001  1.000000e+002
    endloop
  endfacet
  facet normal  0.000000e+000  0.000000e+000  1.000000e+000
    outer loop
      vertex -2.947233e+001  9.874634e+001  1.000000e+002
      vertex -2.929243e+001  9.930000e+001  1.000000e+002
      vertex -2.935896e+001  9.916943e+001  1.000000e+002
    endloop
  endfacet
  facet normal  0.000000e+000  0.000000e+000  1.000000e+000
    outer loop
      vertex -2.947233e+001  9.874634e+001  1.000000e+002
      vertex -2.935896e+001  9.916943e+001  1.000000e+002
      vertex -2.941148e+001  9.903262e+001  1.000000e+002
    endloop
  endfacet
  facet normal  0.000000e+000  0.000000e+000  1.000000e+000
    outer loop
      vertex -2.947233e+001  9.874634e+001  1.000000e+002
      vertex -2.941148e+001  9.903262e+001  1.000000e+002
      vertex -2.944941e+001  9.889108e+001  1.000000e+002
    endloop
  endfacet
  facet normal  0.000000e+000  0.000000e+000  1.000000e+000
    outer loop
      vertex  2.808000e+001  9.860000e+001  1.000000e+002
      vertex  2.808000e+001  1.000000e+002  1.000000e+002
      vertex -2.808000e+001  9.860000e+001  1.000000e+002
    endloop
  endfacet
  facet normal  0.000000e+000  0.000000e+000  1.000000e+000
    outer loop
      vertex -2.808000e+001  9.860000e+001  1.000000e+002
      vertex  2.808000e+001  1.000000e+002  1.000000e+002
      vertex -2.808000e+001  1.000000e+002  1.000000e+002
    endloop
  endfacet
  facet normal  0.000000e+000  0.000000e+000  9.999999e-001
    outer loop
      vertex -2.808000e+001  9.860000e+001  1.000000e+002
      vertex -2.808000e+001  1.000000e+002  1.000000e+002
      vertex -2.947233e+001  9.874634e+001  1.000000e+002
    endloop
  endfacet
  facet normal  0.000000e+000  0.000000e+000  1.000000e+000
    outer loop
      vertex -2.947233e+001  9.874634e+001  1.000000e+002
      vertex -2.808000e+001  1.000000e+002  1.000000e+002
      vertex -2.822634e+001  9.999233e+001  1.000000e+002
    endloop
  endfacet
  facet normal  0.000000e+000  -0.000000e+000 -1.000000e+000
    outer loop
      vertex -2.948000e+001  9.860000e+001  0.000000e+000
      vertex -2.947233e+001  9.874634e+001  0.000000e+000
      vertex -2.808000e+001  9.860000e+001  0.000000e+000
    endloop
  endfacet
  facet normal  0.000000e+000  0.000000e+000 -1.000000e+000
    outer loop
      vertex  2.808000e+001  9.860000e+001  0.000000e+000
      vertex  2.808000e+001  1.000000e+002  0.000000e+000
      vertex  2.822634e+001  9.999233e+001  0.000000e+000
    endloop
  endfacet
  facet normal  0.000000e+000  -0.000000e+000 -1.000000e+000
    outer loop
      vertex  2.808000e+001  9.860000e+001  0.000000e+000
      vertex  2.822634e+001  9.999233e+001  0.000000e+000
      vertex  2.837108e+001  9.996941e+001  0.000000e+000
    endloop
  endfacet
  facet normal  0.000000e+000  -0.000000e+000 -1.000000e+000
    outer loop
      vertex  2.808000e+001  9.860000e+001  0.000000e+000
      vertex  2.837108e+001  9.996941e+001  0.000000e+000
      vertex  2.851262e+001  9.993148e+001  0.000000e+000
    endloop
  endfacet
  facet normal  0.000000e+000  -0.000000e+000 -1.000000e+000
    outer loop
      vertex  2.808000e+001  9.860000e+001  0.000000e+000
      vertex  2.851262e+001  9.993148e+001  0.000000e+000
      vertex  2.864943e+001  9.987897e+001  0.000000e+000
    endloop
  endfacet
  facet normal  0.000000e+000  -0.000000e+000 -1.000000e+000
    outer loop
      vertex  2.808000e+001  9.860000e+001  0.000000e+000
      vertex  2.864943e+001  9.987897e+001  0.000000e+000
      vertex  2.878000e+001  9.981244e+001  0.000000e+000
    endloop
  endfacet
  facet normal  0.000000e+000  -0.000000e+000 -1.000000e+000
    outer loop
      vertex  2.808000e+001  9.860000e+001  0.000000e+000
      vertex  2.878000e+001  9.981244e+001  0.000000e+000
      vertex  2.890290e+001  9.973262e+001  0.000000e+000
    endloop
  endfacet
  facet normal  0.000000e+000  -0.000000e+000 -1.000000e+000
    outer loop
      vertex  2.808000e+001  9.860000e+001  0.000000e+000
      vertex  2.890290e+001  9.973262e+001  0.000000e+000
      vertex  2.901678e+001  9.964040e+001  0.000000e+000
    endloop
  endfacet
  facet normal  0.000000e+000  -0.000000e+000 -1.000000e+000
    outer loop
      vertex  2.808000e+001  9.860000e+001  0.000000e+000
      vertex  2.901678e+001  9.964040e+001  0.000000e+000
      vertex  2.912040e+001  9.953678e+001  0.000000e+000
    endloop
  endfacet
  facet normal  0.000000e+000  -0.000000e+000 -1.000000e+000
    outer loop
      vertex  2.808000e+001  9.860000e+001  0.000000e+000
      vertex  2.912040e+001  9.953678e+001  0.000000e+000
      vertex  2.921262e+001  9.942290e+001  0.000000e+000
    endloop
  endfacet
  facet normal  0.000000e+000  -0.000000e+000 -9.999999e-001
    outer loop
      vertex  2.808000e+001  9.860000e+001  0.000000e+000
      vertex  2.921262e+001  9.942290e+001  0.000000e+000
      vertex  2.929243e+001  9.930000e+001  0.000000e+000
    endloop
  endfacet
  facet normal  0.000000e+000  -0.000000e+000 -1.000000e+000
    outer loop
      vertex  2.808000e+001  9.860000e+001  0.000000e+000
      vertex  2.929243e+001  9.930000e+001  0.000000e+000
      vertex  2.935896e+001  9.916943e+001  0.000000e+000
    endloop
  endfacet
  facet normal  0.000000e+000  -0.000000e+000 -1.000000e+000
    outer loop
      vertex  2.808000e+001  9.860000e+001  0.000000e+000
      vertex  2.935896e+001  9.916943e+001  0.000000e+000
      vertex  2.941148e+001  9.903262e+001  0.000000e+000
    endloop
  endfacet
  facet normal  0.000000e+000  -0.000000e+000 -1.000000e+000
    outer loop
      vertex  2.808000e+001  9.860000e+001  0.000000e+000
      vertex  2.941148e+001  9.903262e+001  0.000000e+000
      vertex  2.944941e+001  9.889108e+001  0.000000e+000
    endloop
  endfacet
  facet normal  0.000000e+000  -0.000000e+000 -1.000000e+000
    outer loop
      vertex  2.808000e+001  9.860000e+001  0.000000e+000
      vertex  2.944941e+001  9.889108e+001  0.000000e+000
      vertex  2.947233e+001  9.874634e+001  0.000000e+000
    endloop
  endfacet
  facet normal  0.000000e+000  -0.000000e+000 -1.000000e+000
    outer loop
      vertex  2.808000e+001  9.860000e+001  0.000000e+000
      vertex  2.947233e+001  9.874634e+001  0.000000e+000
      vertex  2.948000e+001  9.860000e+001  0.000000e+000
    endloop
  endfacet
  facet normal  -0.000000e+000  -0.000000e+000 -1.000000e+000
    outer loop
      vertex  2.808000e+001  9.860000e+001  0.000000e+000
      vertex  2.948000e+001  9.860000e+001  0.000000e+000
      vertex  2.948000e+001 -9.860000e+001  0.000000e+000
    endloop
  endfacet
  facet normal  0.000000e+000  0.000000e+000 -1.000000e+000
    outer loop
      vertex  2.808000e+001  9.860000e+001  0.000000e+000
      vertex  2.948000e+001 -9.860000e+001  0.000000e+000
      vertex  2.808000e+001 -9.860000e+001  0.000000e+000
    endloop
  endfacet
  facet normal  -0.000000e+000  -0.000000e+000 -1.000000e+000
    outer loop
      vertex -2.808000e+001 -9.860000e+001  0.000000e+000
      vertex  2.808000e+001 -9.860000e+001  0.000000e+000
      vertex  2.808000e+001 -1.000000e+002  0.000000e+000
    endloop
  endfacet
  facet normal  0.000000e+000  0.000000e+000 -1.000000e+000
    outer loop
      vertex -2.808000e+001 -9.860000e+001  0.000000e+000
      vertex  2.808000e+001 -1.000000e+002  0.000000e+000
      vertex -2.808000e+001 -1.000000e+002  0.000000e+000
    endloop
  endfacet
  facet normal  0.000000e+000  0.000000e+000 -1.000000e+000
    outer loop
      vertex -2.808000e+001 -9.860000e+001  0.000000e+000
      vertex -2.808000e+001 -1.000000e+002  0.000000e+000
      vertex -2.822634e+001 -9.999233e+001  0.000000e+000
    endloop
  endfacet
  facet normal  0.000000e+000  0.000000e+000 -1.000000e+000
    outer loop
      vertex -2.808000e+001 -9.860000e+001  0.000000e+000
      vertex -2.822634e+001 -9.999233e+001  0.000000e+000
      vertex -2.947233e+001 -9.874634e+001  0.000000e+000
    endloop
  endfacet
  facet normal  0.000000e+000  0.000000e+000 -1.000000e+000
    outer loop
      vertex -2.808000e+001 -9.860000e+001  0.000000e+000
      vertex -2.947233e+001 -9.874634e+001  0.000000e+000
      vertex -2.948000e+001 -9.860000e+001  0.000000e+000
    endloop
  endfacet
  facet normal  0.000000e+000  0.000000e+000 -1.000000e+000
    outer loop
      vertex -2.808000e+001 -9.860000e+001  0.000000e+000
      vertex -2.948000e+001 -9.860000e+001  0.000000e+000
      vertex -2.948000e+001  9.860000e+001  0.000000e+000
    endloop
  endfacet
  facet normal  0.000000e+000  0.000000e+000 -1.000000e+000
    outer loop
      vertex -2.808000e+001 -9.860000e+001  0.000000e+000
      vertex -2.948000e+001  9.860000e+001  0.000000e+000
      vertex -2.808000e+001  9.860000e+001  0.000000e+000
    endloop
  endfacet
  facet normal  0.000000e+000  0.000000e+000 -1.000000e+000
    outer loop
      vertex -2.947233e+001 -9.874634e+001  0.000000e+000
      vertex -2.822634e+001 -9.999233e+001  0.000000e+000
      vertex -2.837108e+001 -9.996941e+001  0.000000e+000
    endloop
  endfacet
  facet normal  0.000000e+000  0.000000e+000 -1.000000e+000
    outer loop
      vertex -2.947233e+001 -9.874634e+001  0.000000e+000
      vertex -2.837108e+001 -9.996941e+001  0.000000e+000
      vertex -2.851262e+001 -9.993148e+001  0.000000e+000
    endloop
  endfacet
  facet normal  0.000000e+000  0.000000e+000 -1.000000e+000
    outer loop
      vertex -2.947233e+001 -9.874634e+001  0.000000e+000
      vertex -2.851262e+001 -9.993148e+001  0.000000e+000
      vertex -2.864943e+001 -9.987897e+001  0.000000e+000
    endloop
  endfacet
  facet normal  0.000000e+000  0.000000e+000 -1.000000e+000
    outer loop
      vertex -2.947233e+001 -9.874634e+001  0.000000e+000
      vertex -2.864943e+001 -9.987897e+001  0.000000e+000
      vertex -2.878000e+001 -9.981244e+001  0.000000e+000
    endloop
  endfacet
  facet normal  0.000000e+000  0.000000e+000 -1.000000e+000
    outer loop
      vertex -2.947233e+001 -9.874634e+001  0.000000e+000
      vertex -2.878000e+001 -9.981244e+001  0.000000e+000
      vertex -2.890290e+001 -9.973262e+001  0.000000e+000
    endloop
  endfacet
  facet normal  0.000000e+000  0.000000e+000 -9.999999e-001
    outer loop
      vertex -2.947233e+001 -9.874634e+001  0.000000e+000
      vertex -2.890290e+001 -9.973262e+001  0.000000e+000
      vertex -2.901678e+001 -9.964040e+001  0.000000e+000
    endloop
  endfacet
  facet normal  0.000000e+000  0.000000e+000 -1.000000e+000
    outer loop
      vertex -2.947233e+001 -9.874634e+001  0.000000e+000
      vertex -2.901678e+001 -9.964040e+001  0.000000e+000
      vertex -2.912040e+001 -9.953678e+001  0.000000e+000
    endloop
  endfacet
  facet normal  0.000000e+000  0.000000e+000 -1.000000e+000
    outer loop
      vertex -2.947233e+001 -9.874634e+001  0.000000e+000
      vertex -2.912040e+001 -9.953678e+001  0.000000e+000
      vertex -2.921262e+001 -9.942290e+001  0.000000e+000
    endloop
  endfacet
  facet normal  0.000000e+000  0.000000e+000 -1.000000e+000
    outer loop
      vertex -2.947233e+001 -9.874634e+001  0.000000e+000
      vertex -2.921262e+001 -9.942290e+001  0.000000e+000
      vertex -2.929243e+001 -9.930000e+001  0.000000e+000
    endloop
  endfacet
  facet normal  0.000000e+000  0.000000e+000 -1.000000e+000
    outer loop
      vertex -2.947233e+001 -9.874634e+001  0.000000e+000
      vertex -2.929243e+001 -9.930000e+001  0.000000e+000
      vertex -2.935896e+001 -9.916943e+001  0.000000e+000
    endloop
  endfacet
  facet normal  0.000000e+000  0.000000e+000 -1.000000e+000
    outer loop
      vertex -2.947233e+001 -9.874634e+001  0.000000e+000
      vertex -2.935896e+001 -9.916943e+001  0.000000e+000
      vertex -2.941148e+001 -9.903262e+001  0.000000e+000
    endloop
  endfacet
  facet normal  0.000000e+000  0.000000e+000 -1.000000e+000
    outer loop
      vertex -2.947233e+001 -9.874634e+001  0.000000e+000
      vertex -2.941148e+001 -9.903262e+001  0.000000e+000
      vertex -2.944941e+001 -9.889108e+001  0.000000e+000
    endloop
  endfacet
  facet normal  -0.000000e+000  0.000000e+000 -1.000000e+000
    outer loop
      vertex  2.808000e+001 -9.860000e+001  0.000000e+000
      vertex  2.948000e+001 -9.860000e+001  0.000000e+000
      vertex  2.947233e+001 -9.874634e+001  0.000000e+000
    endloop
  endfacet
  facet normal  -0.000000e+000  0.000000e+000 -1.000000e+000
    outer loop
      vertex  2.808000e+001 -9.860000e+001  0.000000e+000
      vertex  2.947233e+001 -9.874634e+001  0.000000e+000
      vertex  2.944941e+001 -9.889108e+001  0.000000e+000
    endloop
  endfacet
  facet normal  -0.000000e+000  0.000000e+000 -1.000000e+000
    outer loop
      vertex  2.808000e+001 -9.860000e+001  0.000000e+000
      vertex  2.944941e+001 -9.889108e+001  0.000000e+000
      vertex  2.941148e+001 -9.903262e+001  0.000000e+000
    endloop
  endfacet
  facet normal  -0.000000e+000  0.000000e+000 -1.000000e+000
    outer loop
      vertex  2.808000e+001 -9.860000e+001  0.000000e+000
      vertex  2.941148e+001 -9.903262e+001  0.000000e+000
      vertex  2.935896e+001 -9.916943e+001  0.000000e+000
    endloop
  endfacet
  facet normal  -0.000000e+000  0.000000e+000 -1.000000e+000
    outer loop
      vertex  2.808000e+001 -9.860000e+001  0.000000e+000
      vertex  2.935896e+001 -9.916943e+001  0.000000e+000
      vertex  2.929243e+001 -9.930000e+001  0.000000e+000
    endloop
  endfacet
  facet normal  -0.000000e+000  0.000000e+000 -9.999999e-001
    outer loop
      vertex  2.808000e+001 -9.860000e+001  0.000000e+000
      vertex  2.929243e+001 -9.930000e+001  0.000000e+000
      vertex  2.921262e+001 -9.942290e+001  0.000000e+000
    endloop
  endfacet
  facet normal  -0.000000e+000  0.000000e+000 -1.000000e+000
    outer loop
      vertex  2.808000e+001 -9.860000e+001  0.000000e+000
      vertex  2.921262e+001 -9.942290e+001  0.000000e+000
      vertex  2.912040e+001 -9.953678e+001  0.000000e+000
    endloop
  endfacet
  facet normal  -0.000000e+000  0.000000e+000 -1.000000e+000
    outer loop
      vertex  2.808000e+001 -9.860000e+001  0.000000e+000
      vertex  2.912040e+001 -9.953678e+001  0.000000e+000
      vertex  2.901678e+001 -9.964040e+001  0.000000e+000
    endloop
  endfacet
  facet normal  -0.000000e+000  0.000000e+000 -1.000000e+000
    outer loop
      vertex  2.808000e+001 -9.860000e+001  0.000000e+000
      vertex  2.901678e+001 -9.964040e+001  0.000000e+000
      vertex  2.890290e+001 -9.973262e+001  0.000000e+000
    endloop
  endfacet
  facet normal  -0.000000e+000  0.000000e+000 -1.000000e+000
    outer loop
      vertex  2.808000e+001 -9.860000e+001  0.000000e+000
      vertex  2.890290e+001 -9.973262e+001  0.000000e+000
      vertex  2.878000e+001 -9.981244e+001  0.000000e+000
    endloop
  endfacet
  facet normal  -0.000000e+000  0.000000e+000 -1.000000e+000
    outer loop
      vertex  2.808000e+001 -9.860000e+001  0.000000e+000
      vertex  2.878000e+001 -9.981244e+001  0.000000e+000
      vertex  2.864943e+001 -9.987897e+001  0.000000e+000
    endloop
  endfacet
  facet normal  -0.000000e+000  0.000000e+000 -1.000000e+000
    outer loop
      vertex  2.808000e+001 -9.860000e+001  0.000000e+000
      vertex  2.864943e+001 -9.987897e+001  0.000000e+000
      vertex  2.851262e+001 -9.993148e+001  0.000000e+000
    endloop
  endfacet
  facet normal  -0.000000e+000  0.000000e+000 -1.000000e+000
    outer loop
      vertex  2.808000e+001 -9.860000e+001  0.000000e+000
      vertex  2.851262e+001 -9.993148e+001  0.000000e+000
      vertex  2.837108e+001 -9.996941e+001  0.000000e+000
    endloop
  endfacet
  facet normal  -0.000000e+000  0.000000e+000 -1.000000e+000
    outer loop
      vertex  2.808000e+001 -9.860000e+001  0.000000e+000
      vertex  2.837108e+001 -9.996941e+001  0.000000e+000
      vertex  2.822634e+001 -9.999233e+001  0.000000e+000
    endloop
  endfacet
  facet normal  -0.000000e+000  0.000000e+000 -1.000000e+000
    outer loop
      vertex  2.808000e+001 -9.860000e+001  0.000000e+000
      vertex  2.822634e+001 -9.999233e+001  0.000000e+000
      vertex  2.808000e+001 -1.000000e+002  0.000000e+000
    endloop
  endfacet
  facet normal  0.000000e+000  -0.000000e+000 -1.000000e+000
    outer loop
      vertex -2.947233e+001  9.874634e+001  0.000000e+000
      vertex -2.944941e+001  9.889108e+001  0.000000e+000
      vertex -2.941148e+001  9.903262e+001  0.000000e+000
    endloop
  endfacet
  facet normal  0.000000e+000  -0.000000e+000 -1.000000e+000
    outer loop
      vertex -2.947233e+001  9.874634e+001  0.000000e+000
      vertex -2.941148e+001  9.903262e+001  0.000000e+000
      vertex -2.935896e+001  9.916943e+001  0.000000e+000
    endloop
  endfacet
  facet normal  0.000000e+000  -0.000000e+000 -1.000000e+000
    outer loop
      vertex -2.947233e+001  9.874634e+001  0.000000e+000
      vertex -2.935896e+001  9.916943e+001  0.000000e+000
      vertex -2.929243e+001  9.930000e+001  0.000000e+000
    endloop
  endfacet
  facet normal  0.000000e+000  -0.000000e+000 -1.000000e+000
    outer loop
      vertex -2.947233e+001  9.874634e+001  0.000000e+000
      vertex -2.929243e+001  9.930000e+001  0.000000e+000
      vertex -2.921262e+001  9.942290e+001  0.000000e+000
    endloop
  endfacet
  facet normal  0.000000e+000  -0.000000e+000 -1.000000e+000
    outer loop
      vertex -2.947233e+001  9.874634e+001  0.000000e+000
      vertex -2.921262e+001  9.942290e+001  0.000000e+000
      vertex -2.912040e+001  9.953678e+001  0.000000e+000
    endloop
  endfacet
  facet normal  0.000000e+000  -0.000000e+000 -1.000000e+000
    outer loop
      vertex -2.947233e+001  9.874634e+001  0.000000e+000
      vertex -2.912040e+001  9.953678e+001  0.000000e+000
      vertex -2.901678e+001  9.964040e+001  0.000000e+000
    endloop
  endfacet
  facet normal  0.000000e+000  -0.000000e+000 -9.999999e-001
    outer loop
      vertex -2.947233e+001  9.874634e+001  0.000000e+000
      vertex -2.901678e+001  9.964040e+001  0.000000e+000
      vertex -2.890290e+001  9.973262e+001  0.000000e+000
    endloop
  endfacet
  facet normal  0.000000e+000  -0.000000e+000 -1.000000e+000
    outer loop
      vertex -2.947233e+001  9.874634e+001  0.000000e+000
      vertex -2.890290e+001  9.973262e+001  0.000000e+000
      vertex -2.878000e+001  9.981244e+001  0.000000e+000
    endloop
  endfacet
  facet normal  0.000000e+000  -0.000000e+000 -1.000000e+000
    outer loop
      vertex -2.947233e+001  9.874634e+001  0.000000e+000
      vertex -2.878000e+001  9.981244e+001  0.000000e+000
      vertex -2.864943e+001  9.987897e+001  0.000000e+000
    endloop
  endfacet
  facet normal  0.000000e+000  -0.000000e+000 -1.000000e+000
    outer loop
      vertex -2.947233e+001  9.874634e+001  0.000000e+000
      vertex -2.864943e+001  9.987897e+001  0.000000e+000
      vertex -2.851262e+001  9.993148e+001  0.000000e+000
    endloop
  endfacet
  facet normal  0.000000e+000  -0.000000e+000 -1.000000e+000
    outer loop
      vertex -2.947233e+001  9.874634e+001  0.000000e+000
      vertex -2.851262e+001  9.993148e+001  0.000000e+000
      vertex -2.837108e+001  9.996941e+001  0.000000e+000
    endloop
  endfacet
  facet normal  0.000000e+000  -0.000000e+000 -1.000000e+000
    outer loop
      vertex -2.947233e+001  9.874634e+001  0.000000e+000
      vertex -2.837108e+001  9.996941e+001  0.000000e+000
      vertex -2.822634e+001  9.999233e+001  0.000000e+000
    endloop
  endfacet
  facet normal  0.000000e+000  0.000000e+000 -1.000000e+000
    outer loop
      vertex  2.808000e+001  9.860000e+001  0.000000e+000
      vertex -2.808000e+001  9.860000e+001  0.000000e+000
      vertex  2.808000e+001  1.000000e+002  0.000000e+000
    endloop
  endfacet
  facet normal  -0.000000e+000  0.000000e+000 -1.000000e+000
    outer loop
      vertex  2.808000e+001  1.000000e+002  0.000000e+000
      vertex -2.808000e+001  9.860000e+001  0.000000e+000
      vertex -2.808000e+001  1.000000e+002  0.000000e+000
    endloop
  endfacet
  facet normal  0.000000e+000  0.000000e+000 -9.999999e-001
    outer loop
      vertex -2.808000e+001  9.860000e+001  0.000000e+000
      vertex -2.947233e+001  9.874634e+001  0.000000e+000
      vertex -2.808000e+001  1.000000e+002  0.000000e+000
    endloop
  endfacet
  facet normal  0.000000e+000  0.000000e+000 -1.000000e+000
    outer loop
      vertex -2.808000e+001  1.000000e+002  0.000000e+000
      vertex -2.947233e+001  9.874634e+001  0.000000e+000
      vertex -2.822634e+001  9.999233e+001  0.000000e+000
    endloop
  endfacet
  facet normal  0.000000e+000 -1.000000e+000  -0.000000e+000
    outer loop
      vertex  2.808000e+001 -1.000000e+002  0.000000e+000
      vertex  2.808000e+001 -1.000000e+002  1.000000e+002
      vertex -2.808000e+001 -1.000000e+002  0.000000e+000
    endloop
  endfacet
  facet normal  0.000000e+000 -1.000000e+000  0.000000e+000
    outer loop
      vertex -2.808000e+001 -1.000000e+002  0.000000e+000
      vertex  2.808000e+001 -1.000000e+002  1.000000e+002
      vertex -2.808000e+001 -1.000000e+002  1.000000e+002
    endloop
  endfacet
  facet normal -1.000000e+000  -0.000000e+000  0.000000e+000
    outer loop
      vertex -2.948000e+001 -9.860000e+001  1.000000e+002
      vertex -2.948000e+001  9.860000e+001  1.000000e+002
      vertex -2.948000e+001 -9.860000e+001  0.000000e+000
    endloop
  endfacet
  facet normal -1.000000e+000  0.000000e+000  0.000000e+000
    outer loop
      vertex -2.948000e+001 -9.860000e+001  0.000000e+000
      vertex -2.948000e+001  9.860000e+001  1.000000e+002
      vertex -2.948000e+001  9.860000e+001  0.000000e+000
    endloop
  endfacet
  facet normal -5.232383e-002 -9.986301e-001  -0.000000e+000
    outer loop
      vertex -2.808000e+001 -1.000000e+002  0.000000e+000
      vertex -2.808000e+001 -1.000000e+002  1.000000e+002
      vertex -2.822634e+001 -9.999233e+001  0.000000e+000
    endloop
  endfacet
  facet normal -5.232383e-002 -9.986301e-001  0.000000e+000
    outer loop
      vertex -2.822634e+001 -9.999233e+001  0.000000e+000
      vertex -2.808000e+001 -1.000000e+002  1.000000e+002
      vertex -2.822634e+001 -9.999233e+001  1.000000e+002
    endloop
  endfacet
  facet normal -1.564491e-001 -9.876860e-001  -0.000000e+000
    outer loop
      vertex -2.822634e+001 -9.999233e+001  0.000000e+000
      vertex -2.822634e+001 -9.999233e+001  1.000000e+002
      vertex -2.837108e+001 -9.996941e+001  0.000000e+000
    endloop
  endfacet
  facet normal -1.564491e-001 -9.876860e-001  0.000000e+000
    outer loop
      vertex -2.837108e+001 -9.996941e+001  0.000000e+000
      vertex -2.822634e+001 -9.999233e+001  1.000000e+002
      vertex -2.837108e+001 -9.996941e+001  1.000000e+002
    endloop
  endfacet
  facet normal -2.588063e-001 -9.659292e-001  -0.000000e+000
    outer loop
      vertex -2.837108e+001 -9.996941e+001  0.000000e+000
      vertex -2.837108e+001 -9.996941e+001  1.000000e+002
      vertex -2.851262e+001 -9.993148e+001  0.000000e+000
    endloop
  endfacet
  facet normal -2.588063e-001 -9.659292e-001  0.000000e+000
    outer loop
      vertex -2.851262e+001 -9.993148e+001  0.000000e+000
      vertex -2.837108e+001 -9.996941e+001  1.000000e+002
      vertex -2.851262e+001 -9.993148e+001  1.000000e+002
    endloop
  endfacet
  facet normal -3.583562e-001 -9.335849e-001  -0.000000e+000
    outer loop
      vertex -2.851262e+001 -9.993148e+001  0.000000e+000
      vertex -2.851262e+001 -9.993148e+001  1.000000e+002
      vertex -2.864943e+001 -9.987897e+001  0.000000e+000
    endloop
  endfacet
  facet normal -3.583562e-001 -9.335849e-001  0.000000e+000
    outer loop
      vertex -2.864943e+001 -9.987897e+001  0.000000e+000
      vertex -2.851262e+001 -9.993148e+001  1.000000e+002
      vertex -2.864943e+001 -9.987897e+001  1.000000e+002
    endloop
  endfacet
  facet normal -4.539898e-001 -8.910070e-001  -0.000000e+000
    outer loop
      vertex -2.864943e+001 -9.987897e+001  0.000000e+000
      vertex -2.864943e+001 -9.987897e+001  1.000000e+002
      vertex -2.878000e+001 -9.981244e+001  0.000000e+000
    endloop
  endfacet
  facet normal -4.539898e-001 -8.910070e-001  0.000000e+000
    outer loop
      vertex -2.878000e+001 -9.981244e+001  0.000000e+000
      vertex -2.864943e+001 -9.987897e+001  1.000000e+002
      vertex -2.878000e+001 -9.981244e+001  1.000000e+002
    endloop
  endfacet
  facet normal -5.446763e-001 -8.386463e-001  -0.000000e+000
    outer loop
      vertex -2.878000e+001 -9.981244e+001  0.000000e+000
      vertex -2.878000e+001 -9.981244e+001  1.000000e+002
      vertex -2.890290e+001 -9.973262e+001  0.000000e+000
    endloop
  endfacet
  facet normal -5.446763e-001 -8.386463e-001  0.000000e+000
    outer loop
      vertex -2.890290e+001 -9.973262e+001  0.000000e+000
      vertex -2.878000e+001 -9.981244e+001  1.000000e+002
      vertex -2.890290e+001 -9.973262e+001  1.000000e+002
    endloop
  endfacet
  facet normal -6.293001e-001 -7.771624e-001  -0.000000e+000
    outer loop
      vertex -2.890290e+001 -9.973262e+001  0.000000e+000
      vertex -2.890290e+001 -9.973262e+001  1.000000e+002
      vertex -2.901678e+001 -9.964040e+001  0.000000e+000
    endloop
  endfacet
  facet normal -6.293001e-001 -7.771624e-001  0.000000e+000
    outer loop
      vertex -2.901678e+001 -9.964040e+001  0.000000e+000
      vertex -2.890290e+001 -9.973262e+001  1.000000e+002
      vertex -2.901678e+001 -9.964040e+001  1.000000e+002
    endloop
  endfacet
  facet normal -7.071133e-001 -7.071003e-001  -0.000000e+000
    outer loop
      vertex -2.901678e+001 -9.964040e+001  0.000000e+000
      vertex -2.901678e+001 -9.964040e+001  1.000000e+002
      vertex -2.912040e+001 -9.953678e+001  0.000000e+000
    endloop
  endfacet
  facet normal -7.071133e-001 -7.071003e-001  0.000000e+000
    outer loop
      vertex -2.912040e+001 -9.953678e+001  0.000000e+000
      vertex -2.901678e+001 -9.964040e+001  1.000000e+002
      vertex -2.912040e+001 -9.953678e+001  1.000000e+002
    endloop
  endfacet
  facet normal -7.771497e-001 -6.293158e-001  -0.000000e+000
    outer loop
      vertex -2.912040e+001 -9.953678e+001  0.000000e+000
      vertex -2.912040e+001 -9.953678e+001  1.000000e+002
      vertex -2.921262e+001 -9.942290e+001  0.000000e+000
    endloop
  endfacet
  facet normal -7.771497e-001 -6.293158e-001  0.000000e+000
    outer loop
      vertex -2.921262e+001 -9.942290e+001  0.000000e+000
      vertex -2.912040e+001 -9.953678e+001  1.000000e+002
      vertex -2.921262e+001 -9.942290e+001  1.000000e+002
    endloop
  endfacet
  facet normal -8.386624e-001 -5.446516e-001  -0.000000e+000
    outer loop
      vertex -2.921262e+001 -9.942290e+001  0.000000e+000
      vertex -2.921262e+001 -9.942290e+001  1.000000e+002
      vertex -2.929243e+001 -9.930000e+001  0.000000e+000
    endloop
  endfacet
  facet normal -8.386624e-001 -5.446516e-001  0.000000e+000
    outer loop
      vertex -2.929243e+001 -9.930000e+001  0.000000e+000
      vertex -2.921262e+001 -9.942290e+001  1.000000e+002
      vertex -2.929243e+001 -9.930000e+001  1.000000e+002
    endloop
  endfacet
  facet normal -8.910070e-001 -4.539898e-001  -0.000000e+000
    outer loop
      vertex -2.929243e+001 -9.930000e+001  0.000000e+000
      vertex -2.929243e+001 -9.930000e+001  1.000000e+002
      vertex -2.935896e+001 -9.916943e+001  0.000000e+000
    endloop
  endfacet
  facet normal -8.910070e-001 -4.539898e-001  0.000000e+000
    outer loop
      vertex -2.935896e+001 -9.916943e+001  0.000000e+000
      vertex -2.929243e+001 -9.930000e+001  1.000000e+002
      vertex -2.935896e+001 -9.916943e+001  1.000000e+002
    endloop
  endfacet
  facet normal -9.335796e-001 -3.583702e-001  -0.000000e+000
    outer loop
      vertex -2.935896e+001 -9.916943e+001  0.000000e+000
      vertex -2.935896e+001 -9.916943e+001  1.000000e+002
      vertex -2.941148e+001 -9.903262e+001  0.000000e+000
    endloop
  endfacet
  facet normal -9.335796e-001 -3.583702e-001  0.000000e+000
    outer loop
      vertex -2.941148e+001 -9.903262e+001  0.000000e+000
      vertex -2.935896e+001 -9.916943e+001  1.000000e+002
      vertex -2.941148e+001 -9.903262e+001  1.000000e+002
    endloop
  endfacet
  facet normal -9.659259e-001 -2.588185e-001  -0.000000e+000
    outer loop
      vertex -2.941148e+001 -9.903262e+001  0.000000e+000
      vertex -2.941148e+001 -9.903262e+001  1.000000e+002
      vertex -2.944941e+001 -9.889108e+001  0.000000e+000
    endloop
  endfacet
  facet normal -9.659259e-001 -2.588185e-001  0.000000e+000
    outer loop
      vertex -2.944941e+001 -9.889108e+001  0.000000e+000
      vertex -2.941148e+001 -9.903262e+001  1.000000e+002
      vertex -2.944941e+001 -9.889108e+001  1.000000e+002
    endloop
  endfacet
  facet normal -9.876901e-001 -1.564237e-001  -0.000000e+000
    outer loop
      vertex -2.944941e+001 -9.889108e+001  0.000000e+000
      vertex -2.944941e+001 -9.889108e+001  1.000000e+002
      vertex -2.947233e+001 -9.874634e+001  0.000000e+000
    endloop
  endfacet
  facet normal -9.876901e-001 -1.564237e-001  0.000000e+000
    outer loop
      vertex -2.947233e+001 -9.874634e+001  0.000000e+000
      vertex -2.944941e+001 -9.889108e+001  1.000000e+002
      vertex -2.947233e+001 -9.874634e+001  1.000000e+002
    endloop
  endfacet
  facet normal -9.986295e-001 -5.233680e-002  -0.000000e+000
    outer loop
      vertex -2.947233e+001 -9.874634e+001  0.000000e+000
      vertex -2.947233e+001 -9.874634e+001  1.000000e+002
      vertex -2.948000e+001 -9.860000e+001  0.000000e+000
    endloop
  endfacet
  facet normal -9.986295e-001 -5.233680e-002  0.000000e+000
    outer loop
      vertex -2.948000e+001 -9.860000e+001  0.000000e+000
      vertex -2.947233e+001 -9.874634e+001  1.000000e+002
      vertex -2.948000e+001 -9.860000e+001  1.000000e+002
    endloop
  endfacet
  facet normal  1.000000e+000  -0.000000e+000  0.000000e+000
    outer loop
      vertex  2.948000e+001  9.860000e+001  1.000000e+002
      vertex  2.948000e+001 -9.860000e+001  1.000000e+002
      vertex  2.948000e+001  9.860000e+001  0.000000e+000
    endloop
  endfacet
  facet normal  1.000000e+000  0.000000e+000  0.000000e+000
    outer loop
      vertex  2.948000e+001  9.860000e+001  0.000000e+000
      vertex  2.948000e+001 -9.860000e+001  1.000000e+002
      vertex  2.948000e+001 -9.860000e+001  0.000000e+000
    endloop
  endfacet
  facet normal  9.986295e-001 -5.233680e-002  0.000000e+000
    outer loop
      vertex  2.948000e+001 -9.860000e+001  0.000000e+000
      vertex  2.948000e+001 -9.860000e+001  1.000000e+002
      vertex  2.947233e+001 -9.874634e+001  0.000000e+000
    endloop
  endfacet
  facet normal  9.986295e-001 -5.233680e-002  0.000000e+000
    outer loop
      vertex  2.947233e+001 -9.874634e+001  0.000000e+000
      vertex  2.948000e+001 -9.860000e+001  1.000000e+002
      vertex  2.947233e+001 -9.874634e+001  1.000000e+002
    endloop
  endfacet
  facet normal  9.876901e-001 -1.564237e-001  0.000000e+000
    outer loop
      vertex  2.947233e+001 -9.874634e+001  0.000000e+000
      vertex  2.947233e+001 -9.874634e+001  1.000000e+002
      vertex  2.944941e+001 -9.889108e+001  0.000000e+000
    endloop
  endfacet
  facet normal  9.876901e-001 -1.564237e-001  0.000000e+000
    outer loop
      vertex  2.944941e+001 -9.889108e+001  0.000000e+000
      vertex  2.947233e+001 -9.874634e+001  1.000000e+002
      vertex  2.944941e+001 -9.889108e+001  1.000000e+002
    endloop
  endfacet
  facet normal  9.659259e-001 -2.588185e-001  0.000000e+000
    outer loop
      vertex  2.944941e+001 -9.889108e+001  0.000000e+000
      vertex  2.944941e+001 -9.889108e+001  1.000000e+002
      vertex  2.941148e+001 -9.903262e+001  0.000000e+000
    endloop
  endfacet
  facet normal  9.659259e-001 -2.588185e-001  0.000000e+000
    outer loop
      vertex  2.941148e+001 -9.903262e+001  0.000000e+000
      vertex  2.944941e+001 -9.889108e+001  1.000000e+002
      vertex  2.941148e+001 -9.903262e+001  1.000000e+002
    endloop
  endfacet
  facet normal  9.335796e-001 -3.583702e-001  0.000000e+000
    outer loop
      vertex  2.941148e+001 -9.903262e+001  0.000000e+000
      vertex  2.941148e+001 -9.903262e+001  1.000000e+002
      vertex  2.935896e+001 -9.916943e+001  0.000000e+000
    endloop
  endfacet
  facet normal  9.335796e-001 -3.583702e-001  0.000000e+000
    outer loop
      vertex  2.935896e+001 -9.916943e+001  0.000000e+000
      vertex  2.941148e+001 -9.903262e+001  1.000000e+002
      vertex  2.935896e+001 -9.916943e+001  1.000000e+002
    endloop
  endfacet
  facet normal  8.910070e-001 -4.539898e-001  0.000000e+000
    outer loop
      vertex  2.935896e+001 -9.916943e+001  0.000000e+000
      vertex  2.935896e+001 -9.916943e+001  1.000000e+002
      vertex  2.929243e+001 -9.930000e+001  0.000000e+000
    endloop
  endfacet
  facet normal  8.910070e-001 -4.539898e-001  0.000000e+000
    outer loop
      vertex  2.929243e+001 -9.930000e+001  0.000000e+000
      vertex  2.935896e+001 -9.916943e+001  1.000000e+002
      vertex  2.929243e+001 -9.930000e+001  1.000000e+002
    endloop
  endfacet
  facet normal  8.386624e-001 -5.446516e-001  0.000000e+000
    outer loop
      vertex  2.929243e+001 -9.930000e+001  0.000000e+000
      vertex  2.929243e+001 -9.930000e+001  1.000000e+002
      vertex  2.921262e+001 -9.942290e+001  0.000000e+000
    endloop
  endfacet
  facet normal  8.386624e-001 -5.446516e-001  0.000000e+000
    outer loop
      vertex  2.921262e+001 -9.942290e+001  0.000000e+000
      vertex  2.929243e+001 -9.930000e+001  1.000000e+002
      vertex  2.921262e+001 -9.942290e+001  1.000000e+002
    endloop
  endfacet
  facet normal  7.771497e-001 -6.293158e-001  0.000000e+000
    outer loop
      vertex  2.921262e+001 -9.942290e+001  0.000000e+000
      vertex  2.921262e+001 -9.942290e+001  1.000000e+002
      vertex  2.912040e+001 -9.953678e+001  0.000000e+000
    endloop
  endfacet
  facet normal  7.771497e-001 -6.293158e-001  0.000000e+000
    outer loop
      vertex  2.912040e+001 -9.953678e+001  0.000000e+000
      vertex  2.921262e+001 -9.942290e+001  1.000000e+002
      vertex  2.912040e+001 -9.953678e+001  1.000000e+002
    endloop
  endfacet
  facet normal  7.071133e-001 -7.071003e-001  0.000000e+000
    outer loop
      vertex  2.912040e+001 -9.953678e+001  0.000000e+000
      vertex  2.912040e+001 -9.953678e+001  1.000000e+002
      vertex  2.901678e+001 -9.964040e+001  0.000000e+000
    endloop
  endfacet
  facet normal  7.071133e-001 -7.071003e-001  0.000000e+000
    outer loop
      vertex  2.901678e+001 -9.964040e+001  0.000000e+000
      vertex  2.912040e+001 -9.953678e+001  1.000000e+002
      vertex  2.901678e+001 -9.964040e+001  1.000000e+002
    endloop
  endfacet
  facet normal  6.293001e-001 -7.771624e-001  0.000000e+000
    outer loop
      vertex  2.901678e+001 -9.964040e+001  0.000000e+000
      vertex  2.901678e+001 -9.964040e+001  1.000000e+002
      vertex  2.890290e+001 -9.973262e+001  0.000000e+000
    endloop
  endfacet
  facet normal  6.293001e-001 -7.771624e-001  0.000000e+000
    outer loop
      vertex  2.890290e+001 -9.973262e+001  0.000000e+000
      vertex  2.901678e+001 -9.964040e+001  1.000000e+002
      vertex  2.890290e+001 -9.973262e+001  1.000000e+002
    endloop
  endfacet
  facet normal  5.446763e-001 -8.386463e-001  0.000000e+000
    outer loop
      vertex  2.890290e+001 -9.973262e+001  0.000000e+000
      vertex  2.890290e+001 -9.973262e+001  1.000000e+002
      vertex  2.878000e+001 -9.981244e+001  0.000000e+000
    endloop
  endfacet
  facet normal  5.446763e-001 -8.386463e-001  0.000000e+000
    outer loop
      vertex  2.878000e+001 -9.981244e+001  0.000000e+000
      vertex  2.890290e+001 -9.973262e+001  1.000000e+002
      vertex  2.878000e+001 -9.981244e+001  1.000000e+002
    endloop
  endfacet
  facet normal  4.539898e-001 -8.910070e-001  0.000000e+000
    outer loop
      vertex  2.878000e+001 -9.981244e+001  0.000000e+000
      vertex  2.878000e+001 -9.981244e+001  1.000000e+002
      vertex  2.864943e+001 -9.987897e+001  0.000000e+000
    endloop
  endfacet
  facet normal  4.539898e-001 -8.910070e-001  0.000000e+000
    outer loop
      vertex  2.864943e+001 -9.987897e+001  0.000000e+000
      vertex  2.878000e+001 -9.981244e+001  1.000000e+002
      vertex  2.864943e+001 -9.987897e+001  1.000000e+002
    endloop
  endfacet
  facet normal  3.583562e-001 -9.335849e-001  0.000000e+000
    outer loop
      vertex  2.864943e+001 -9.987897e+001  0.000000e+000
      vertex  2.864943e+001 -9.987897e+001  1.000000e+002
      vertex  2.851262e+001 -9.993148e+001  0.000000e+000
    endloop
  endfacet
  facet normal  3.583562e-001 -9.335849e-001  0.000000e+000
    outer loop
      vertex  2.851262e+001 -9.993148e+001  0.000000e+000
      vertex  2.864943e+001 -9.987897e+001  1.000000e+002
      vertex  2.851262e+001 -9.993148e+001  1.000000e+002
    endloop
  endfacet
  facet normal  2.588063e-001 -9.659292e-001  0.000000e+000
    outer loop
      vertex  2.851262e+001 -9.993148e+001  0.000000e+000
      vertex  2.851262e+001 -9.993148e+001  1.000000e+002
      vertex  2.837108e+001 -9.996941e+001  0.000000e+000
    endloop
  endfacet
  facet normal  2.588063e-001 -9.659292e-001  0.000000e+000
    outer loop
      vertex  2.837108e+001 -9.996941e+001  0.000000e+000
      vertex  2.851262e+001 -9.993148e+001  1.000000e+002
      vertex  2.837108e+001 -9.996941e+001  1.000000e+002
    endloop
  endfacet
  facet normal  1.564491e-001 -9.876860e-001  0.000000e+000
    outer loop
      vertex  2.837108e+001 -9.996941e+001  0.000000e+000
      vertex  2.837108e+001 -9.996941e+001  1.000000e+002
      vertex  2.822634e+001 -9.999233e+001  0.000000e+000
    endloop
  endfacet
  facet normal  1.564491e-001 -9.876860e-001  0.000000e+000
    outer loop
      vertex  2.822634e+001 -9.999233e+001  0.000000e+000
      vertex  2.837108e+001 -9.996941e+001  1.000000e+002
      vertex  2.822634e+001 -9.999233e+001  1.000000e+002
    endloop
  endfacet
  facet normal  5.232383e-002 -9.986301e-001  0.000000e+000
    outer loop
      vertex  2.822634e+001 -9.999233e+001  0.000000e+000
      vertex  2.822634e+001 -9.999233e+001  1.000000e+002
      vertex  2.808000e+001 -1.000000e+002  0.000000e+000
    endloop
  endfacet
  facet normal  5.232383e-002 -9.986301e-001  0.000000e+000
    outer loop
      vertex  2.808000e+001 -1.000000e+002  0.000000e+000
      vertex  2.822634e+001 -9.999233e+001  1.000000e+002
      vertex  2.808000e+001 -1.000000e+002  1.000000e+002
    endloop
  endfacet
  facet normal  0.000000e+000  1.000000e+000  0.000000e+000
    outer loop
      vertex -2.808000e+001  1.000000e+002  0.000000e+000
      vertex -2.808000e+001  1.000000e+002  1.000000e+002
      vertex  2.808000e+001  1.000000e+002  0.000000e+000
    endloop
  endfacet
  facet normal  0.000000e+000  1.000000e+000  -0.000000e+000
    outer loop
      vertex  2.808000e+001  1.000000e+002  0.000000e+000
      vertex -2.808000e+001  1.000000e+002  1.000000e+002
      vertex  2.808000e+001  1.000000e+002  1.000000e+002
    endloop
  endfacet
  facet normal -9.986295e-001  5.233680e-002  0.000000e+000
    outer loop
      vertex -2.948000e+001  9.860000e+001  0.000000e+000
      vertex -2.948000e+001  9.860000e+001  1.000000e+002
      vertex -2.947233e+001  9.874634e+001  0.000000e+000
    endloop
  endfacet
  facet normal -9.986295e-001  5.233680e-002  0.000000e+000
    outer loop
      vertex -2.947233e+001  9.874634e+001  0.000000e+000
      vertex -2.948000e+001  9.860000e+001  1.000000e+002
      vertex -2.947233e+001  9.874634e+001  1.000000e+002
    endloop
  endfacet
  facet normal -9.876901e-001  1.564237e-001  0.000000e+000
    outer loop
      vertex -2.947233e+001  9.874634e+001  0.000000e+000
      vertex -2.947233e+001  9.874634e+001  1.000000e+002
      vertex -2.944941e+001  9.889108e+001  0.000000e+000
    endloop
  endfacet
  facet normal -9.876901e-001  1.564237e-001  0.000000e+000
    outer loop
      vertex -2.944941e+001  9.889108e+001  0.000000e+000
      vertex -2.947233e+001  9.874634e+001  1.000000e+002
      vertex -2.944941e+001  9.889108e+001  1.000000e+002
    endloop
  endfacet
  facet normal -9.659259e-001  2.588185e-001  0.000000e+000
    outer loop
      vertex -2.944941e+001  9.889108e+001  0.000000e+000
      vertex -2.944941e+001  9.889108e+001  1.000000e+002
      vertex -2.941148e+001  9.903262e+001  0.000000e+000
    endloop
  endfacet
  facet normal -9.659259e-001  2.588185e-001  0.000000e+000
    outer loop
      vertex -2.941148e+001  9.903262e+001  0.000000e+000
      vertex -2.944941e+001  9.889108e+001  1.000000e+002
      vertex -2.941148e+001  9.903262e+001  1.000000e+002
    endloop
  endfacet
  facet normal -9.335796e-001  3.583702e-001  0.000000e+000
    outer loop
      vertex -2.941148e+001  9.903262e+001  0.000000e+000
      vertex -2.941148e+001  9.903262e+001  1.000000e+002
      vertex -2.935896e+001  9.916943e+001  0.000000e+000
    endloop
  endfacet
  facet normal -9.335796e-001  3.583702e-001  0.000000e+000
    outer loop
      vertex -2.935896e+001  9.916943e+001  0.000000e+000
      vertex -2.941148e+001  9.903262e+001  1.000000e+002
      vertex -2.935896e+001  9.916943e+001  1.000000e+002
    endloop
  endfacet
  facet normal -8.910070e-001  4.539898e-001  0.000000e+000
    outer loop
      vertex -2.935896e+001  9.916943e+001  0.000000e+000
      vertex -2.935896e+001  9.916943e+001  1.000000e+002
      vertex -2.929243e+001  9.930000e+001  0.000000e+000
    endloop
  endfacet
  facet normal -8.910070e-001  4.539898e-001  0.000000e+000
    outer loop
      vertex -2.929243e+001  9.930000e+001  0.000000e+000
      vertex -2.935896e+001  9.916943e+001  1.000000e+002
      vertex -2.929243e+001  9.930000e+001  1.000000e+002
    endloop
  endfacet
  facet normal -8.386624e-001  5.446516e-001  0.000000e+000
    outer loop
      vertex -2.929243e+001  9.930000e+001  0.000000e+000
      vertex -2.929243e+001  9.930000e+001  1.000000e+002
      vertex -2.921262e+001  9.942290e+001  0.000000e+000
    endloop
  endfacet
  facet normal -8.386624e-001  5.446516e-001  0.000000e+000
    outer loop
      vertex -2.921262e+001  9.942290e+001  0.000000e+000
      vertex -2.929243e+001  9.930000e+001  1.000000e+002
      vertex -2.921262e+001  9.942290e+001  1.000000e+002
    endloop
  endfacet
  facet normal -7.771497e-001  6.293158e-001  0.000000e+000
    outer loop
      vertex -2.921262e+001  9.942290e+001  0.000000e+000
      vertex -2.921262e+001  9.942290e+001  1.000000e+002
      vertex -2.912040e+001  9.953678e+001  0.000000e+000
    endloop
  endfacet
  facet normal -7.771497e-001  6.293158e-001  0.000000e+000
    outer loop
      vertex -2.912040e+001  9.953678e+001  0.000000e+000
      vertex -2.921262e+001  9.942290e+001  1.000000e+002
      vertex -2.912040e+001  9.953678e+001  1.000000e+002
    endloop
  endfacet
  facet normal -7.071133e-001  7.071003e-001  0.000000e+000
    outer loop
      vertex -2.912040e+001  9.953678e+001  0.000000e+000
      vertex -2.912040e+001  9.953678e+001  1.000000e+002
      vertex -2.901678e+001  9.964040e+001  0.000000e+000
    endloop
  endfacet
  facet normal -7.071133e-001  7.071003e-001  0.000000e+000
    outer loop
      vertex -2.901678e+001  9.964040e+001  0.000000e+000
      vertex -2.912040e+001  9.953678e+001  1.000000e+002
      vertex -2.901678e+001  9.964040e+001  1.000000e+002
    endloop
  endfacet
  facet normal -6.293001e-001  7.771624e-001  0.000000e+000
    outer loop
      vertex -2.901678e+001  9.964040e+001  0.000000e+000
      vertex -2.901678e+001  9.964040e+001  1.000000e+002
      vertex -2.890290e+001  9.973262e+001  0.000000e+000
    endloop
  endfacet
  facet normal -6.293001e-001  7.771624e-001  0.000000e+000
    outer loop
      vertex -2.890290e+001  9.973262e+001  0.000000e+000
      vertex -2.901678e+001  9.964040e+001  1.000000e+002
      vertex -2.890290e+001  9.973262e+001  1.000000e+002
    endloop
  endfacet
  facet normal -5.446763e-001  8.386463e-001  0.000000e+000
    outer loop
      vertex -2.890290e+001  9.973262e+001  0.000000e+000
      vertex -2.890290e+001  9.973262e+001  1.000000e+002
      vertex -2.878000e+001  9.981244e+001  0.000000e+000
    endloop
  endfacet
  facet normal -5.446763e-001  8.386463e-001  0.000000e+000
    outer loop
      vertex -2.878000e+001  9.981244e+001  0.000000e+000
      vertex -2.890290e+001  9.973262e+001  1.000000e+002
      vertex -2.878000e+001  9.981244e+001  1.000000e+002
    endloop
  endfacet
  facet normal -4.539898e-001  8.910070e-001  0.000000e+000
    outer loop
      vertex -2.878000e+001  9.981244e+001  0.000000e+000
      vertex -2.878000e+001  9.981244e+001  1.000000e+002
      vertex -2.864943e+001  9.987897e+001  0.000000e+000
    endloop
  endfacet
  facet normal -4.539898e-001  8.910070e-001  0.000000e+000
    outer loop
      vertex -2.864943e+001  9.987897e+001  0.000000e+000
      vertex -2.878000e+001  9.981244e+001  1.000000e+002
      vertex -2.864943e+001  9.987897e+001  1.000000e+002
    endloop
  endfacet
  facet normal -3.583562e-001  9.335849e-001  0.000000e+000
    outer loop
      vertex -2.864943e+001  9.987897e+001  0.000000e+000
      vertex -2.864943e+001  9.987897e+001  1.000000e+002
      vertex -2.851262e+001  9.993148e+001  0.000000e+000
    endloop
  endfacet
  facet normal -3.583562e-001  9.335849e-001  0.000000e+000
    outer loop
      vertex -2.851262e+001  9.993148e+001  0.000000e+000
      vertex -2.864943e+001  9.987897e+001  1.000000e+002
      vertex -2.851262e+001  9.993148e+001  1.000000e+002
    endloop
  endfacet
  facet normal -2.588063e-001  9.659292e-001  0.000000e+000
    outer loop
      vertex -2.851262e+001  9.993148e+001  0.000000e+000
      vertex -2.851262e+001  9.993148e+001  1.000000e+002
      vertex -2.837108e+001  9.996941e+001  0.000000e+000
    endloop
  endfacet
  facet normal -2.588063e-001  9.659292e-001  0.000000e+000
    outer loop
      vertex -2.837108e+001  9.996941e+001  0.000000e+000
      vertex -2.851262e+001  9.993148e+001  1.000000e+002
      vertex -2.837108e+001  9.996941e+001  1.000000e+002
    endloop
  endfacet
  facet normal -1.564491e-001  9.876860e-001  0.000000e+000
    outer loop
      vertex -2.837108e+001  9.996941e+001  0.000000e+000
      vertex -2.837108e+001  9.996941e+001  1.000000e+002
      vertex -2.822634e+001  9.999233e+001  0.000000e+000
    endloop
  endfacet
  facet normal -1.564491e-001  9.876860e-001  0.000000e+000
    outer loop
      vertex -2.822634e+001  9.999233e+001  0.000000e+000
      vertex -2.837108e+001  9.996941e+001  1.000000e+002
      vertex -2.822634e+001  9.999233e+001  1.000000e+002
    endloop
  endfacet
  facet normal -5.232383e-002  9.986301e-001  0.000000e+000
    outer loop
      vertex -2.822634e+001  9.999233e+001  0.000000e+000
      vertex -2.822634e+001  9.999233e+001  1.000000e+002
      vertex -2.808000e+001  1.000000e+002  0.000000e+000
    endloop
  endfacet
  facet normal -5.232383e-002  9.986301e-001  0.000000e+000
    outer loop
      vertex -2.808000e+001  1.000000e+002  0.000000e+000
      vertex -2.822634e+001  9.999233e+001  1.000000e+002
      vertex -2.808000e+001  1.000000e+002  1.000000e+002
    endloop
  endfacet
  facet normal  5.232383e-002  9.986301e-001  0.000000e+000
    outer loop
      vertex  2.808000e+001  1.000000e+002  0.000000e+000
      vertex  2.808000e+001  1.000000e+002  1.000000e+002
      vertex  2.822634e+001  9.999233e+001  0.000000e+000
    endloop
  endfacet
  facet normal  5.232383e-002  9.986301e-001  -0.000000e+000
    outer loop
      vertex  2.822634e+001  9.999233e+001  0.000000e+000
      vertex  2.808000e+001  1.000000e+002  1.000000e+002
      vertex  2.822634e+001  9.999233e+001  1.000000e+002
    endloop
  endfacet
  facet normal  1.564491e-001  9.876860e-001  0.000000e+000
    outer loop
      vertex  2.822634e+001  9.999233e+001  0.000000e+000
      vertex  2.822634e+001  9.999233e+001  1.000000e+002
      vertex  2.837108e+001  9.996941e+001  0.000000e+000
    endloop
  endfacet
  facet normal  1.564491e-001  9.876860e-001  -0.000000e+000
    outer loop
      vertex  2.837108e+001  9.996941e+001  0.000000e+000
      vertex  2.822634e+001  9.999233e+001  1.000000e+002
      vertex  2.837108e+001  9.996941e+001  1.000000e+002
    endloop
  endfacet
  facet normal  2.588063e-001  9.659292e-001  0.000000e+000
    outer loop
      vertex  2.837108e+001  9.996941e+001  0.000000e+000
      vertex  2.837108e+001  9.996941e+001  1.000000e+002
      vertex  2.851262e+001  9.993148e+001  0.000000e+000
    endloop
  endfacet
  facet normal  2.588063e-001  9.659292e-001  -0.000000e+000
    outer loop
      vertex  2.851262e+001  9.993148e+001  0.000000e+000
      vertex  2.837108e+001  9.996941e+001  1.000000e+002
      vertex  2.851262e+001  9.993148e+001  1.000000e+002
    endloop
  endfacet
  facet normal  3.583562e-001  9.335849e-001  0.000000e+000
    outer loop
      vertex  2.851262e+001  9.993148e+001  0.000000e+000
      vertex  2.851262e+001  9.993148e+001  1.000000e+002
      vertex  2.864943e+001  9.987897e+001  0.000000e+000
    endloop
  endfacet
  facet normal  3.583562e-001  9.335849e-001  -0.000000e+000
    outer loop
      vertex  2.864943e+001  9.987897e+001  0.000000e+000
      vertex  2.851262e+001  9.993148e+001  1.000000e+002
      vertex  2.864943e+001  9.987897e+001  1.000000e+002
    endloop
  endfacet
  facet normal  4.539898e-001  8.910070e-001  0.000000e+000
    outer loop
      vertex  2.864943e+001  9.987897e+001  0.000000e+000
      vertex  2.864943e+001  9.987897e+001  1.000000e+002
      vertex  2.878000e+001  9.981244e+001  0.000000e+000
    endloop
  endfacet
  facet normal  4.539898e-001  8.910070e-001  -0.000000e+000
    outer loop
      vertex  2.878000e+001  9.981244e+001  0.000000e+000
      vertex  2.864943e+001  9.987897e+001  1.000000e+002
      vertex  2.878000e+001  9.981244e+001  1.000000e+002
    endloop
  endfacet
  facet normal  5.446763e-001  8.386463e-001  0.000000e+000
    outer loop
      vertex  2.878000e+001  9.981244e+001  0.000000e+000
      vertex  2.878000e+001  9.981244e+001  1.000000e+002
      vertex  2.890290e+001  9.973262e+001  0.000000e+000
    endloop
  endfacet
  facet normal  5.446763e-001  8.386463e-001  -0.000000e+000
    outer loop
      vertex  2.890290e+001  9.973262e+001  0.000000e+000
      vertex  2.878000e+001  9.981244e+001  1.000000e+002
      vertex  2.890290e+001  9.973262e+001  1.000000e+002
    endloop
  endfacet
  facet normal  6.293001e-001  7.771624e-001  0.000000e+000
    outer loop
      vertex  2.890290e+001  9.973262e+001  0.000000e+000
      vertex  2.890290e+001  9.973262e+001  1.000000e+002
      vertex  2.901678e+001  9.964040e+001  0.000000e+000
    endloop
  endfacet
  facet normal  6.293001e-001  7.771624e-001  -0.000000e+000
    outer loop
      vertex  2.901678e+001  9.964040e+001  0.000000e+000
      vertex  2.890290e+001  9.973262e+001  1.000000e+002
      vertex  2.901678e+001  9.964040e+001  1.000000e+002
    endloop
  endfacet
  facet normal  7.071133e-001  7.071003e-001  0.000000e+000
    outer loop
      vertex  2.901678e+001  9.964040e+001  0.000000e+000
      vertex  2.901678e+001  9.964040e+001  1.000000e+002
      vertex  2.912040e+001  9.953678e+001  0.000000e+000
    endloop
  endfacet
  facet normal  7.071133e-001  7.071003e-001  -0.000000e+000
    outer loop
      vertex  2.912040e+001  9.953678e+001  0.000000e+000
      vertex  2.901678e+001  9.964040e+001  1.000000e+002
      vertex  2.912040e+001  9.953678e+001  1.000000e+002
    endloop
  endfacet
  facet normal  7.771497e-001  6.293158e-001  0.000000e+000
    outer loop
      vertex  2.912040e+001  9.953678e+001  0.000000e+000
      vertex  2.912040e+001  9.953678e+001  1.000000e+002
      vertex  2.921262e+001  9.942290e+001  0.000000e+000
    endloop
  endfacet
  facet normal  7.771497e-001  6.293158e-001  -0.000000e+000
    outer loop
      vertex  2.921262e+001  9.942290e+001  0.000000e+000
      vertex  2.912040e+001  9.953678e+001  1.000000e+002
      vertex  2.921262e+001  9.942290e+001  1.000000e+002
    endloop
  endfacet
  facet normal  8.386624e-001  5.446516e-001  0.000000e+000
    outer loop
      vertex  2.921262e+001  9.942290e+001  0.000000e+000
      vertex  2.921262e+001  9.942290e+001  1.000000e+002
      vertex  2.929243e+001  9.930000e+001  0.000000e+000
    endloop
  endfacet
  facet normal  8.386624e-001  5.446516e-001  -0.000000e+000
    outer loop
      vertex  2.929243e+001  9.930000e+001  0.000000e+000
      vertex  2.921262e+001  9.942290e+001  1.000000e+002
      vertex  2.929243e+001  9.930000e+001  1.000000e+002
    endloop
  endfacet
  facet normal  8.910070e-001  4.539898e-001  0.000000e+000
    outer loop
      vertex  2.929243e+001  9.930000e+001  0.000000e+000
      vertex  2.929243e+001  9.930000e+001  1.000000e+002
      vertex  2.935896e+001  9.916943e+001  0.000000e+000
    endloop
  endfacet
  facet normal  8.910070e-001  4.539898e-001  -0.000000e+000
    outer loop
      vertex  2.935896e+001  9.916943e+001  0.000000e+000
      vertex  2.929243e+001  9.930000e+001  1.000000e+002
      vertex  2.935896e+001  9.916943e+001  1.000000e+002
    endloop
  endfacet
  facet normal  9.335796e-001  3.583702e-001  0.000000e+000
    outer loop
      vertex  2.935896e+001  9.916943e+001  0.000000e+000
      vertex  2.935896e+001  9.916943e+001  1.000000e+002
      vertex  2.941148e+001  9.903262e+001  0.000000e+000
    endloop
  endfacet
  facet normal  9.335796e-001  3.583702e-001  -0.000000e+000
    outer loop
      vertex  2.941148e+001  9.903262e+001  0.000000e+000
      vertex  2.935896e+001  9.916943e+001  1.000000e+002
      vertex  2.941148e+001  9.903262e+001  1.000000e+002
    endloop
  endfacet
  facet normal  9.659259e-001  2.588185e-001  0.000000e+000
    outer loop
      vertex  2.941148e+001  9.903262e+001  0.000000e+000
      vertex  2.941148e+001  9.903262e+001  1.000000e+002
      vertex  2.944941e+001  9.889108e+001  0.000000e+000
    endloop
  endfacet
  facet normal  9.659259e-001  2.588185e-001  -0.000000e+000
    outer loop
      vertex  2.944941e+001  9.889108e+001  0.000000e+000
      vertex  2.941148e+001  9.903262e+001  1.000000e+002
      vertex  2.944941e+001  9.889108e+001  1.000000e+002
    endloop
  endfacet
  facet normal  9.876901e-001  1.564237e-001  0.000000e+000
    outer loop
      vertex  2.944941e+001  9.889108e+001  0.000000e+000
      vertex  2.944941e+001  9.889108e+001  1.000000e+002
      vertex  2.947233e+001  9.874634e+001  0.000000e+000
    endloop
  endfacet
  facet normal  9.876901e-001  1.564237e-001  -0.000000e+000
    outer loop
      vertex  2.947233e+001  9.874634e+001  0.000000e+000
      vertex  2.944941e+001  9.889108e+001  1.000000e+002
      vertex  2.947233e+001  9.874634e+001  1.000000e+002
    endloop
  endfacet
  facet normal  9.986295e-001  5.233680e-002  0.000000e+000
    outer loop
      vertex  2.947233e+001  9.874634e+001  0.000000e+000
      vertex  2.947233e+001  9.874634e+001  1.000000e+002
      vertex  2.948000e+001  9.860000e+001  0.000000e+000
    endloop
  endfacet
  facet normal  9.986295e-001  5.233680e-002  -0.000000e+000
    outer loop
      vertex  2.948000e+001  9.860000e+001  0.000000e+000
      vertex  2.947233e+001  9.874634e+001  1.000000e+002
      vertex  2.948000e+001  9.860000e+001  1.000000e+002
    endloop
  endfacet
  facet normal  0.000000e+000 -1.000000e+000  0.000000e+000
    outer loop
      vertex -2.808000e+001  9.860000e+001  0.000000e+000
      vertex  2.808000e+001  9.860000e+001  0.000000e+000
      vertex -2.808000e+001  9.860000e+001  1.000000e+002
    endloop
  endfacet
  facet normal  0.000000e+000 -1.000000e+000  0.000000e+000
    outer loop
      vertex -2.808000e+001  9.860000e+001  1.000000e+002
      vertex  2.808000e+001  9.860000e+001  0.000000e+000
      vertex  2.808000e+001  9.860000e+001  1.000000e+002
    endloop
  endfacet
  facet normal  1.000000e+000  0.000000e+000  0.000000e+000
    outer loop
      vertex -2.808000e+001 -9.860000e+001  1.000000e+002
      vertex -2.808000e+001 -9.860000e+001  0.000000e+000
      vertex -2.808000e+001  9.860000e+001  1.000000e+002
    endloop
  endfacet
  facet normal  1.000000e+000  0.000000e+000  0.000000e+000
    outer loop
      vertex -2.808000e+001  9.860000e+001  1.000000e+002
      vertex -2.808000e+001 -9.860000e+001  0.000000e+000
      vertex -2.808000e+001  9.860000e+001  0.000000e+000
    endloop
  endfacet
  facet normal  0.000000e+000  1.000000e+000  0.000000e+000
    outer loop
      vertex  2.808000e+001 -9.860000e+001  0.000000e+000
      vertex -2.808000e+001 -9.860000e+001  0.000000e+000
      vertex  2.808000e+001 -9.860000e+001  1.000000e+002
    endloop
  endfacet
  facet normal  0.000000e+000  1.000000e+000  0.000000e+000
    outer loop
      vertex  2.808000e+001 -9.860000e+001  1.000000e+002
      vertex -2.808000e+001 -9.860000e+001  0.000000e+000
      vertex -2.808000e+001 -9.860000e+001  1.000000e+002
    endloop
  endfacet
  facet normal -1.000000e+000  0.000000e+000  0.000000e+000
    outer loop
      vertex  2.808000e+001  9.860000e+001  1.000000e+002
      vertex  2.808000e+001  9.860000e+001  0.000000e+000
      vertex  2.808000e+001 -9.860000e+001  1.000000e+002
    endloop
  endfacet
  facet normal -1.000000e+000  0.000000e+000  0.000000e+000
    outer loop
      vertex  2.808000e+001 -9.860000e+001  1.000000e+002
      vertex  2.808000e+001  9.860000e+001  0.000000e+000
      vertex  2.808000e+001 -9.860000e+001  0.000000e+000
    endloop
  endfacet
endsolid CATIA STL
