solid CATIA STL
  facet normal  0.000000e+000  0.000000e+000  1.000000e+000
    outer loop
      vertex  2.000000e+001 -1.000000e+002  1.000000e+002
      vertex  1.808000e+001 -9.808000e+001  1.000000e+002
      vertex -2.000000e+001 -1.000000e+002  1.000000e+002
    endloop
  endfacet
  facet normal  0.000000e+000  0.000000e+000  1.000000e+000
    outer loop
      vertex -2.000000e+001 -1.000000e+002  1.000000e+002
      vertex  1.808000e+001 -9.808000e+001  1.000000e+002
      vertex -1.808000e+001 -9.808000e+001  1.000000e+002
    endloop
  endfacet
  facet normal  0.000000e+000  0.000000e+000  1.000000e+000
    outer loop
      vertex -2.000000e+001 -1.000000e+002  1.000000e+002
      vertex -1.808000e+001 -9.808000e+001  1.000000e+002
      vertex -2.000000e+001  1.000000e+002  1.000000e+002
    endloop
  endfacet
  facet normal  0.000000e+000  0.000000e+000  1.000000e+000
    outer loop
      vertex -2.000000e+001  1.000000e+002  1.000000e+002
      vertex -1.808000e+001 -9.808000e+001  1.000000e+002
      vertex -1.808000e+001  9.808000e+001  1.000000e+002
    endloop
  endfacet
  facet normal  0.000000e+000  -0.000000e+000  1.000000e+000
    outer loop
      vertex -2.000000e+001  1.000000e+002  1.000000e+002
      vertex -1.808000e+001  9.808000e+001  1.000000e+002
      vertex  2.000000e+001  1.000000e+002  1.000000e+002
    endloop
  endfacet
  facet normal  0.000000e+000  0.000000e+000  1.000000e+000
    outer loop
      vertex  2.000000e+001  1.000000e+002  1.000000e+002
      vertex -1.808000e+001  9.808000e+001  1.000000e+002
      vertex  1.808000e+001  9.808000e+001  1.000000e+002
    endloop
  endfacet
  facet normal  -0.000000e+000  0.000000e+000  1.000000e+000
    outer loop
      vertex  2.000000e+001  1.000000e+002  1.000000e+002
      vertex  1.808000e+001  9.808000e+001  1.000000e+002
      vertex  2.000000e+001 -1.000000e+002  1.000000e+002
    endloop
  endfacet
  facet normal  0.000000e+000  0.000000e+000  1.000000e+000
    outer loop
      vertex  2.000000e+001 -1.000000e+002  1.000000e+002
      vertex  1.808000e+001  9.808000e+001  1.000000e+002
      vertex  1.808000e+001 -9.808000e+001  1.000000e+002
    endloop
  endfacet
  facet normal  -0.000000e+000  0.000000e+000 -1.000000e+000
    outer loop
      vertex -2.000000e+001  1.000000e+002  0.000000e+000
      vertex -1.808000e+001 -9.808000e+001  0.000000e+000
      vertex -2.000000e+001 -1.000000e+002  0.000000e+000
    endloop
  endfacet
  facet normal  0.000000e+000  0.000000e+000 -1.000000e+000
    outer loop
      vertex -2.000000e+001 -1.000000e+002  0.000000e+000
      vertex -1.808000e+001 -9.808000e+001  0.000000e+000
      vertex  1.808000e+001 -9.808000e+001  0.000000e+000
    endloop
  endfacet
  facet normal  0.000000e+000  -0.000000e+000 -1.000000e+000
    outer loop
      vertex -2.000000e+001 -1.000000e+002  0.000000e+000
      vertex  1.808000e+001 -9.808000e+001  0.000000e+000
      vertex  2.000000e+001 -1.000000e+002  0.000000e+000
    endloop
  endfacet
  facet normal  0.000000e+000  0.000000e+000 -1.000000e+000
    outer loop
      vertex -1.808000e+001 -9.808000e+001  0.000000e+000
      vertex -2.000000e+001  1.000000e+002  0.000000e+000
      vertex -1.808000e+001  9.808000e+001  0.000000e+000
    endloop
  endfacet
  facet normal  0.000000e+000  0.000000e+000 -1.000000e+000
    outer loop
      vertex -1.808000e+001  9.808000e+001  0.000000e+000
      vertex -2.000000e+001  1.000000e+002  0.000000e+000
      vertex  2.000000e+001  1.000000e+002  0.000000e+000
    endloop
  endfacet
  facet normal  0.000000e+000  0.000000e+000 -1.000000e+000
    outer loop
      vertex -1.808000e+001  9.808000e+001  0.000000e+000
      vertex  2.000000e+001  1.000000e+002  0.000000e+000
      vertex  1.808000e+001  9.808000e+001  0.000000e+000
    endloop
  endfacet
  facet normal  0.000000e+000  0.000000e+000 -1.000000e+000
    outer loop
      vertex  1.808000e+001  9.808000e+001  0.000000e+000
      vertex  2.000000e+001  1.000000e+002  0.000000e+000
      vertex  2.000000e+001 -1.000000e+002  0.000000e+000
    endloop
  endfacet
  facet normal  0.000000e+000  0.000000e+000 -1.000000e+000
    outer loop
      vertex  1.808000e+001  9.808000e+001  0.000000e+000
      vertex  2.000000e+001 -1.000000e+002  0.000000e+000
      vertex  1.808000e+001 -9.808000e+001  0.000000e+000
    endloop
  endfacet
  facet normal  0.000000e+000 -1.000000e+000  0.000000e+000
    outer loop
      vertex -1.808000e+001  9.808000e+001  0.000000e+000
      vertex  1.808000e+001  9.808000e+001  0.000000e+000
      vertex -1.808000e+001  9.808000e+001  1.000000e+002
    endloop
  endfacet
  facet normal  0.000000e+000 -1.000000e+000  0.000000e+000
    outer loop
      vertex -1.808000e+001  9.808000e+001  1.000000e+002
      vertex  1.808000e+001  9.808000e+001  0.000000e+000
      vertex  1.808000e+001  9.808000e+001  1.000000e+002
    endloop
  endfacet
  facet normal  1.000000e+000  0.000000e+000  0.000000e+000
    outer loop
      vertex -1.808000e+001 -9.808000e+001  1.000000e+002
      vertex -1.808000e+001 -9.808000e+001  0.000000e+000
      vertex -1.808000e+001  9.808000e+001  1.000000e+002
    endloop
  endfacet
  facet normal  1.000000e+000  0.000000e+000  0.000000e+000
    outer loop
      vertex -1.808000e+001  9.808000e+001  1.000000e+002
      vertex -1.808000e+001 -9.808000e+001  0.000000e+000
      vertex -1.808000e+001  9.808000e+001  0.000000e+000
    endloop
  endfacet
  facet normal  0.000000e+000  1.000000e+000  0.000000e+000
    outer loop
      vertex  1.808000e+001 -9.808000e+001  0.000000e+000
      vertex -1.808000e+001 -9.808000e+001  0.000000e+000
      vertex  1.808000e+001 -9.808000e+001  1.000000e+002
    endloop
  endfacet
  facet normal  0.000000e+000  1.000000e+000  0.000000e+000
    outer loop
      vertex  1.808000e+001 -9.808000e+001  1.000000e+002
      vertex -1.808000e+001 -9.808000e+001  0.000000e+000
      vertex -1.808000e+001 -9.808000e+001  1.000000e+002
    endloop
  endfacet
  facet normal -1.000000e+000  0.000000e+000  0.000000e+000
    outer loop
      vertex  1.808000e+001  9.808000e+001  1.000000e+002
      vertex  1.808000e+001  9.808000e+001  0.000000e+000
      vertex  1.808000e+001 -9.808000e+001  1.000000e+002
    endloop
  endfacet
  facet normal -1.000000e+000  0.000000e+000  0.000000e+000
    outer loop
      vertex  1.808000e+001 -9.808000e+001  1.000000e+002
      vertex  1.808000e+001  9.808000e+001  0.000000e+000
      vertex  1.808000e+001 -9.808000e+001  0.000000e+000
    endloop
  endfacet
  facet normal  1.000000e+000  -0.000000e+000  0.000000e+000
    outer loop
      vertex  2.000000e+001  1.000000e+002  1.000000e+002
      vertex  2.000000e+001 -1.000000e+002  1.000000e+002
      vertex  2.000000e+001  1.000000e+002  0.000000e+000
    endloop
  endfacet
  facet normal  1.000000e+000  0.000000e+000  0.000000e+000
    outer loop
      vertex  2.000000e+001  1.000000e+002  0.000000e+000
      vertex  2.000000e+001 -1.000000e+002  1.000000e+002
      vertex  2.000000e+001 -1.000000e+002  0.000000e+000
    endloop
  endfacet
  facet normal  0.000000e+000 -1.000000e+000  -0.000000e+000
    outer loop
      vertex  2.000000e+001 -1.000000e+002  0.000000e+000
      vertex  2.000000e+001 -1.000000e+002  1.000000e+002
      vertex -2.000000e+001 -1.000000e+002  0.000000e+000
    endloop
  endfacet
  facet normal  0.000000e+000 -1.000000e+000  0.000000e+000
    outer loop
      vertex -2.000000e+001 -1.000000e+002  0.000000e+000
      vertex  2.000000e+001 -1.000000e+002  1.000000e+002
      vertex -2.000000e+001 -1.000000e+002  1.000000e+002
    endloop
  endfacet
  facet normal -1.000000e+000  -0.000000e+000  0.000000e+000
    outer loop
      vertex -2.000000e+001 -1.000000e+002  1.000000e+002
      vertex -2.000000e+001  1.000000e+002  1.000000e+002
      vertex -2.000000e+001 -1.000000e+002  0.000000e+000
    endloop
  endfacet
  facet normal -1.000000e+000  0.000000e+000  0.000000e+000
    outer loop
      vertex -2.000000e+001 -1.000000e+002  0.000000e+000
      vertex -2.000000e+001  1.000000e+002  1.000000e+002
      vertex -2.000000e+001  1.000000e+002  0.000000e+000
    endloop
  endfacet
  facet normal  0.000000e+000  1.000000e+000  0.000000e+000
    outer loop
      vertex -2.000000e+001  1.000000e+002  0.000000e+000
      vertex -2.000000e+001  1.000000e+002  1.000000e+002
      vertex  2.000000e+001  1.000000e+002  0.000000e+000
    endloop
  endfacet
  facet normal  0.000000e+000  1.000000e+000  -0.000000e+000
    outer loop
      vertex  2.000000e+001  1.000000e+002  0.000000e+000
      vertex -2.000000e+001  1.000000e+002  1.000000e+002
      vertex  2.000000e+001  1.000000e+002  1.000000e+002
    endloop
  endfacet
endsolid CATIA STL
