solid CATIA STL
  facet normal  0.000000e+000  -0.000000e+000 -9.999999e-001
    outer loop
      vertex -1.100000e+001 -6.000000e+000  0.000000e+000
      vertex -3.000000e+000 -3.175426e+000  0.000000e+000
      vertex  1.100000e+001 -6.000000e+000  0.000000e+000
    endloop
  endfacet
  facet normal  0.000000e+000  -0.000000e+000 -1.000000e+000
    outer loop
      vertex -1.100000e+001 -6.000000e+000  0.000000e+000
      vertex -5.750000e+000 -1.587713e+000  0.000000e+000
      vertex -3.000000e+000 -3.175426e+000  0.000000e+000
    endloop
  endfacet
  facet normal  0.000000e+000  0.000000e+000 -1.000000e+000
    outer loop
      vertex -2.500000e-001 -1.587713e+000  0.000000e+000
      vertex  1.100000e+001 -6.000000e+000  0.000000e+000
      vertex -3.000000e+000 -3.175426e+000  0.000000e+000
    endloop
  endfacet
  facet normal  -0.000000e+000  0.000000e+000 -1.000000e+000
    outer loop
      vertex -1.100000e+001  5.000000e+000  0.000000e+000
      vertex  1.100000e+001  5.000000e+000  0.000000e+000
      vertex -3.000000e+000  3.175426e+000  0.000000e+000
    endloop
  endfacet
  facet normal  -0.000000e+000  0.000000e+000 -1.000000e+000
    outer loop
      vertex -1.100000e+001  5.000000e+000  0.000000e+000
      vertex -3.000000e+000  3.175426e+000  0.000000e+000
      vertex -5.750000e+000  1.587713e+000  0.000000e+000
    endloop
  endfacet
  facet normal  -0.000000e+000  -0.000000e+000 -1.000000e+000
    outer loop
      vertex -1.100000e+001  5.000000e+000  0.000000e+000
      vertex -5.750000e+000  1.587713e+000  0.000000e+000
      vertex -5.750000e+000 -1.587713e+000  0.000000e+000
    endloop
  endfacet
  facet normal  -0.000000e+000  0.000000e+000 -1.000000e+000
    outer loop
      vertex -1.100000e+001  5.000000e+000  0.000000e+000
      vertex -5.750000e+000 -1.587713e+000  0.000000e+000
      vertex -1.100000e+001 -6.000000e+000  0.000000e+000
    endloop
  endfacet
  facet normal  0.000000e+000  0.000000e+000 -1.000000e+000
    outer loop
      vertex  1.100000e+001 -6.000000e+000  0.000000e+000
      vertex -2.500000e-001 -1.587713e+000  0.000000e+000
      vertex  1.100000e+001  5.000000e+000  0.000000e+000
    endloop
  endfacet
  facet normal  0.000000e+000  0.000000e+000 -1.000000e+000
    outer loop
      vertex  1.100000e+001  5.000000e+000  0.000000e+000
      vertex -2.500000e-001 -1.587713e+000  0.000000e+000
      vertex -2.500000e-001  1.587713e+000  0.000000e+000
    endloop
  endfacet
  facet normal  0.000000e+000  0.000000e+000 -9.999999e-001
    outer loop
      vertex  1.100000e+001  5.000000e+000  0.000000e+000
      vertex -2.500000e-001  1.587713e+000  0.000000e+000
      vertex -3.000000e+000  3.175426e+000  0.000000e+000
    endloop
  endfacet
  facet normal  0.000000e+000  0.000000e+000  9.999999e-001
    outer loop
      vertex -5.750000e+000 -1.587713e+000  3.500000e+000
      vertex -1.100000e+001 -2.500000e+000  3.500000e+000
      vertex -4.169873e+000 -2.500000e+000  3.500000e+000
    endloop
  endfacet
  facet normal  0.000000e+000  0.000000e+000  1.000000e+000
    outer loop
      vertex -1.100000e+001  5.000000e+000  3.500000e+000
      vertex -1.100000e+001 -2.500000e+000  3.500000e+000
      vertex -5.750000e+000 -1.587713e+000  3.500000e+000
    endloop
  endfacet
  facet normal  0.000000e+000  -0.000000e+000  1.000000e+000
    outer loop
      vertex -1.100000e+001  5.000000e+000  3.500000e+000
      vertex -5.750000e+000 -1.587713e+000  3.500000e+000
      vertex -5.750000e+000  1.587713e+000  3.500000e+000
    endloop
  endfacet
  facet normal  0.000000e+000  -0.000000e+000  1.000000e+000
    outer loop
      vertex -1.100000e+001  5.000000e+000  3.500000e+000
      vertex -5.750000e+000  1.587713e+000  3.500000e+000
      vertex -3.000000e+000  3.175426e+000  3.500000e+000
    endloop
  endfacet
  facet normal  0.000000e+000  -0.000000e+000  1.000000e+000
    outer loop
      vertex -1.100000e+001  5.000000e+000  3.500000e+000
      vertex -3.000000e+000  3.175426e+000  3.500000e+000
      vertex  1.100000e+001  5.000000e+000  3.500000e+000
    endloop
  endfacet
  facet normal  0.000000e+000  0.000000e+000  1.000000e+000
    outer loop
      vertex  1.100000e+001 -2.500000e+000  3.500000e+000
      vertex  1.100000e+001  5.000000e+000  3.500000e+000
      vertex -3.000000e+000  3.175426e+000  3.500000e+000
    endloop
  endfacet
  facet normal  0.000000e+000  0.000000e+000  1.000000e+000
    outer loop
      vertex  1.100000e+001 -2.500000e+000  3.500000e+000
      vertex -3.000000e+000  3.175426e+000  3.500000e+000
      vertex -2.500000e-001  1.587713e+000  3.500000e+000
    endloop
  endfacet
  facet normal  0.000000e+000  0.000000e+000  1.000000e+000
    outer loop
      vertex  1.100000e+001 -2.500000e+000  3.500000e+000
      vertex -2.500000e-001  1.587713e+000  3.500000e+000
      vertex -2.500000e-001 -1.587713e+000  3.500000e+000
    endloop
  endfacet
  facet normal  0.000000e+000  0.000000e+000  1.000000e+000
    outer loop
      vertex  1.100000e+001 -2.500000e+000  3.500000e+000
      vertex -2.500000e-001 -1.587713e+000  3.500000e+000
      vertex -1.830127e+000 -2.500000e+000  3.500000e+000
    endloop
  endfacet
  facet normal  0.000000e+000 -9.994646e-001  3.271997e-002
    outer loop
      vertex -1.100000e+001 -6.000000e+000  0.000000e+000
      vertex  1.100000e+001 -6.000000e+000  0.000000e+000
      vertex -1.100000e+001 -5.992506e+000  2.289110e-001
    endloop
  endfacet
  facet normal  0.000000e+000 -9.994646e-001  3.271997e-002
    outer loop
      vertex -1.100000e+001 -5.992506e+000  2.289110e-001
      vertex  1.100000e+001 -6.000000e+000  0.000000e+000
      vertex  1.100000e+001 -5.992506e+000  2.289110e-001
    endloop
  endfacet
  facet normal  0.000000e+000 -9.951848e-001  9.801628e-002
    outer loop
      vertex -1.100000e+001 -5.992506e+000  2.289110e-001
      vertex  1.100000e+001 -5.992506e+000  2.289110e-001
      vertex -1.100000e+001 -5.970057e+000  4.568417e-001
    endloop
  endfacet
  facet normal  0.000000e+000 -9.951848e-001  9.801628e-002
    outer loop
      vertex -1.100000e+001 -5.970057e+000  4.568417e-001
      vertex  1.100000e+001 -5.992506e+000  2.289110e-001
      vertex  1.100000e+001 -5.970057e+000  4.568417e-001
    endloop
  endfacet
  facet normal  0.000000e+000 -9.866432e-001  1.628961e-001
    outer loop
      vertex -1.100000e+001 -5.970057e+000  4.568417e-001
      vertex  1.100000e+001 -5.970057e+000  4.568417e-001
      vertex -1.100000e+001 -5.932748e+000  6.828161e-001
    endloop
  endfacet
  facet normal  0.000000e+000 -9.866432e-001  1.628961e-001
    outer loop
      vertex -1.100000e+001 -5.932748e+000  6.828161e-001
      vertex  1.100000e+001 -5.970057e+000  4.568417e-001
      vertex  1.100000e+001 -5.932748e+000  6.828161e-001
    endloop
  endfacet
  facet normal  0.000000e+000 -9.738769e-001  2.270765e-001
    outer loop
      vertex -1.100000e+001 -5.932748e+000  6.828161e-001
      vertex  1.100000e+001 -5.932748e+000  6.828161e-001
      vertex -1.100000e+001 -5.880740e+000  9.058667e-001
    endloop
  endfacet
  facet normal  0.000000e+000 -9.738769e-001  2.270765e-001
    outer loop
      vertex -1.100000e+001 -5.880740e+000  9.058667e-001
      vertex  1.100000e+001 -5.932748e+000  6.828161e-001
      vertex  1.100000e+001 -5.880740e+000  9.058667e-001
    endloop
  endfacet
  facet normal  0.000000e+000 -9.569404e-001  2.902847e-001
    outer loop
      vertex -1.100000e+001 -5.880740e+000  9.058667e-001
      vertex  1.100000e+001 -5.880740e+000  9.058667e-001
      vertex -1.100000e+001 -5.814255e+000  1.125038e+000
    endloop
  endfacet
  facet normal  0.000000e+000 -9.569404e-001  2.902847e-001
    outer loop
      vertex -1.100000e+001 -5.814255e+000  1.125038e+000
      vertex  1.100000e+001 -5.880740e+000  9.058667e-001
      vertex  1.100000e+001 -5.814255e+000  1.125038e+000
    endloop
  endfacet
  facet normal  0.000000e+000 -9.359061e-001  3.522498e-001
    outer loop
      vertex -1.100000e+001 -5.814255e+000  1.125038e+000
      vertex  1.100000e+001 -5.814255e+000  1.125038e+000
      vertex -1.100000e+001 -5.733578e+000  1.339392e+000
    endloop
  endfacet
  facet normal  0.000000e+000 -9.359061e-001  3.522498e-001
    outer loop
      vertex -1.100000e+001 -5.733578e+000  1.339392e+000
      vertex  1.100000e+001 -5.814255e+000  1.125038e+000
      vertex  1.100000e+001 -5.733578e+000  1.339392e+000
    endloop
  endfacet
  facet normal  0.000000e+000 -9.108643e-001  4.127058e-001
    outer loop
      vertex -1.100000e+001 -5.733578e+000  1.339392e+000
      vertex  1.100000e+001 -5.733578e+000  1.339392e+000
      vertex -1.100000e+001 -5.639055e+000  1.548010e+000
    endloop
  endfacet
  facet normal  0.000000e+000 -9.108643e-001  4.127058e-001
    outer loop
      vertex -1.100000e+001 -5.639055e+000  1.548010e+000
      vertex  1.100000e+001 -5.733578e+000  1.339392e+000
      vertex  1.100000e+001 -5.639055e+000  1.548010e+000
    endloop
  endfacet
  facet normal  0.000000e+000 -8.819208e-001  4.713978e-001
    outer loop
      vertex -1.100000e+001 -5.639055e+000  1.548010e+000
      vertex  1.100000e+001 -5.639055e+000  1.548010e+000
      vertex -1.100000e+001 -5.531089e+000  1.750000e+000
    endloop
  endfacet
  facet normal  0.000000e+000 -8.819208e-001  4.713978e-001
    outer loop
      vertex -1.100000e+001 -5.531089e+000  1.750000e+000
      vertex  1.100000e+001 -5.639055e+000  1.548010e+000
      vertex  1.100000e+001 -5.531089e+000  1.750000e+000
    endloop
  endfacet
  facet normal  0.000000e+000 -8.492028e-001  5.280669e-001
    outer loop
      vertex -1.100000e+001 -5.531089e+000  1.750000e+000
      vertex  1.100000e+001 -5.531089e+000  1.750000e+000
      vertex -1.100000e+001 -5.410144e+000  1.944496e+000
    endloop
  endfacet
  facet normal  0.000000e+000 -8.492028e-001  5.280669e-001
    outer loop
      vertex -1.100000e+001 -5.410144e+000  1.944496e+000
      vertex  1.100000e+001 -5.531089e+000  1.750000e+000
      vertex  1.100000e+001 -5.410144e+000  1.944496e+000
    endloop
  endfacet
  facet normal  0.000000e+000 -8.128465e-001  5.824780e-001
    outer loop
      vertex -1.100000e+001 -5.410144e+000  1.944496e+000
      vertex  1.100000e+001 -5.410144e+000  1.944496e+000
      vertex -1.100000e+001 -5.276737e+000  2.130665e+000
    endloop
  endfacet
  facet normal  0.000000e+000 -8.128465e-001  5.824780e-001
    outer loop
      vertex -1.100000e+001 -5.276737e+000  2.130665e+000
      vertex  1.100000e+001 -5.410144e+000  1.944496e+000
      vertex  1.100000e+001 -5.276737e+000  2.130665e+000
    endloop
  endfacet
  facet normal  0.000000e+000 -7.730101e-001  6.343937e-001
    outer loop
      vertex -1.100000e+001 -5.276737e+000  2.130665e+000
      vertex  1.100000e+001 -5.276737e+000  2.130665e+000
      vertex -1.100000e+001 -5.131439e+000  2.307710e+000
    endloop
  endfacet
  facet normal  0.000000e+000 -7.730101e-001  6.343937e-001
    outer loop
      vertex -1.100000e+001 -5.131439e+000  2.307710e+000
      vertex  1.100000e+001 -5.276737e+000  2.130665e+000
      vertex  1.100000e+001 -5.131439e+000  2.307710e+000
    endloop
  endfacet
  facet normal  0.000000e+000 -7.298639e-001  6.835925e-001
    outer loop
      vertex -1.100000e+001 -5.131439e+000  2.307710e+000
      vertex  1.100000e+001 -5.131439e+000  2.307710e+000
      vertex -1.100000e+001 -4.974874e+000  2.474874e+000
    endloop
  endfacet
  facet normal  0.000000e+000 -7.298639e-001  6.835925e-001
    outer loop
      vertex -1.100000e+001 -4.974874e+000  2.474874e+000
      vertex  1.100000e+001 -5.131439e+000  2.307710e+000
      vertex  1.100000e+001 -4.974874e+000  2.474874e+000
    endloop
  endfacet
  facet normal  0.000000e+000 -6.835919e-001  7.298644e-001
    outer loop
      vertex -1.100000e+001 -4.974874e+000  2.474874e+000
      vertex  1.100000e+001 -4.974874e+000  2.474874e+000
      vertex -1.100000e+001 -4.807710e+000  2.631439e+000
    endloop
  endfacet
  facet normal  0.000000e+000 -6.835919e-001  7.298644e-001
    outer loop
      vertex -1.100000e+001 -4.807710e+000  2.631439e+000
      vertex  1.100000e+001 -4.974874e+000  2.474874e+000
      vertex  1.100000e+001 -4.807710e+000  2.631439e+000
    endloop
  endfacet
  facet normal  0.000000e+000 -6.343937e-001  7.730101e-001
    outer loop
      vertex -1.100000e+001 -4.807710e+000  2.631439e+000
      vertex  1.100000e+001 -4.807710e+000  2.631439e+000
      vertex -1.100000e+001 -4.630665e+000  2.776737e+000
    endloop
  endfacet
  facet normal  0.000000e+000 -6.343937e-001  7.730101e-001
    outer loop
      vertex -1.100000e+001 -4.630665e+000  2.776737e+000
      vertex  1.100000e+001 -4.807710e+000  2.631439e+000
      vertex  1.100000e+001 -4.630665e+000  2.776737e+000
    endloop
  endfacet
  facet normal  0.000000e+000 -5.824776e-001  8.128468e-001
    outer loop
      vertex -1.100000e+001 -4.630665e+000  2.776737e+000
      vertex  1.100000e+001 -4.630665e+000  2.776737e+000
      vertex -1.100000e+001 -4.444496e+000  2.910144e+000
    endloop
  endfacet
  facet normal  0.000000e+000 -5.824776e-001  8.128468e-001
    outer loop
      vertex -1.100000e+001 -4.444496e+000  2.910144e+000
      vertex  1.100000e+001 -4.630665e+000  2.776737e+000
      vertex  1.100000e+001 -4.444496e+000  2.910144e+000
    endloop
  endfacet
  facet normal  0.000000e+000 -5.280680e-001  8.492022e-001
    outer loop
      vertex -1.100000e+001 -4.444496e+000  2.910144e+000
      vertex  1.100000e+001 -4.444496e+000  2.910144e+000
      vertex -1.100000e+001 -4.250000e+000  3.031089e+000
    endloop
  endfacet
  facet normal  0.000000e+000 -5.280680e-001  8.492022e-001
    outer loop
      vertex -1.100000e+001 -4.250000e+000  3.031089e+000
      vertex  1.100000e+001 -4.444496e+000  2.910144e+000
      vertex  1.100000e+001 -4.250000e+000  3.031089e+000
    endloop
  endfacet
  facet normal  0.000000e+000 -4.713967e-001  8.819213e-001
    outer loop
      vertex -1.100000e+001 -4.250000e+000  3.031089e+000
      vertex  1.100000e+001 -4.250000e+000  3.031089e+000
      vertex -1.100000e+001 -4.048010e+000  3.139055e+000
    endloop
  endfacet
  facet normal  0.000000e+000 -4.713967e-001  8.819213e-001
    outer loop
      vertex -1.100000e+001 -4.048010e+000  3.139055e+000
      vertex  1.100000e+001 -4.250000e+000  3.031089e+000
      vertex  1.100000e+001 -4.048010e+000  3.139055e+000
    endloop
  endfacet
  facet normal  0.000000e+000 -4.127075e-001  9.108636e-001
    outer loop
      vertex -1.100000e+001 -4.048010e+000  3.139055e+000
      vertex  1.100000e+001 -4.048010e+000  3.139055e+000
      vertex -1.100000e+001 -3.839392e+000  3.233578e+000
    endloop
  endfacet
  facet normal  0.000000e+000 -4.127075e-001  9.108636e-001
    outer loop
      vertex -1.100000e+001 -3.839392e+000  3.233578e+000
      vertex  1.100000e+001 -4.048010e+000  3.139055e+000
      vertex  1.100000e+001 -3.839392e+000  3.233578e+000
    endloop
  endfacet
  facet normal  0.000000e+000 -3.522500e-001  9.359059e-001
    outer loop
      vertex -1.100000e+001 -3.839392e+000  3.233578e+000
      vertex  1.100000e+001 -3.839392e+000  3.233578e+000
      vertex -1.100000e+001 -3.625038e+000  3.314255e+000
    endloop
  endfacet
  facet normal  0.000000e+000 -3.522500e-001  9.359059e-001
    outer loop
      vertex -1.100000e+001 -3.625038e+000  3.314255e+000
      vertex  1.100000e+001 -3.839392e+000  3.233578e+000
      vertex  1.100000e+001 -3.625038e+000  3.314255e+000
    endloop
  endfacet
  facet normal  0.000000e+000 -2.902846e-001  9.569404e-001
    outer loop
      vertex -1.100000e+001 -3.625038e+000  3.314255e+000
      vertex  1.100000e+001 -3.625038e+000  3.314255e+000
      vertex -1.100000e+001 -3.405867e+000  3.380740e+000
    endloop
  endfacet
  facet normal  0.000000e+000 -2.902846e-001  9.569404e-001
    outer loop
      vertex -1.100000e+001 -3.405867e+000  3.380740e+000
      vertex  1.100000e+001 -3.625038e+000  3.314255e+000
      vertex  1.100000e+001 -3.405867e+000  3.380740e+000
    endloop
  endfacet
  facet normal  0.000000e+000 -2.270765e-001  9.738770e-001
    outer loop
      vertex -1.100000e+001 -3.405867e+000  3.380740e+000
      vertex  1.100000e+001 -3.405867e+000  3.380740e+000
      vertex -1.100000e+001 -3.182816e+000  3.432749e+000
    endloop
  endfacet
  facet normal  0.000000e+000 -2.270765e-001  9.738770e-001
    outer loop
      vertex -1.100000e+001 -3.182816e+000  3.432749e+000
      vertex  1.100000e+001 -3.405867e+000  3.380740e+000
      vertex  1.100000e+001 -3.182816e+000  3.432749e+000
    endloop
  endfacet
  facet normal  0.000000e+000 -1.940218e-001  9.809972e-001
    outer loop
      vertex -1.100000e+001 -3.182816e+000  3.432749e+000
      vertex  1.100000e+001 -3.182816e+000  3.432749e+000
      vertex -3.000000e+000 -3.175426e+000  3.434210e+000
    endloop
  endfacet
  facet normal  0.000000e+000 -3.271894e-002  9.994646e-001
    outer loop
      vertex  1.100000e+001 -2.500000e+000  3.500000e+000
      vertex -1.830127e+000 -2.500000e+000  3.500000e+000
      vertex  1.100000e+001 -2.728911e+000  3.492506e+000
    endloop
  endfacet
  facet normal  8.448786e-006 -3.224590e-002  9.994800e-001
    outer loop
      vertex  1.100000e+001 -2.728911e+000  3.492506e+000
      vertex -1.830127e+000 -2.500000e+000  3.500000e+000
      vertex -2.220606e+000 -2.725443e+000  3.492730e+000
    endloop
  endfacet
  facet normal -8.875871e-006 -9.801727e-002  9.951847e-001
    outer loop
      vertex  1.100000e+001 -2.728911e+000  3.492506e+000
      vertex -2.220606e+000 -2.725443e+000  3.492730e+000
      vertex  1.100000e+001 -2.956842e+000  3.470057e+000
    endloop
  endfacet
  facet normal  1.496446e-005 -9.666812e-002  9.953166e-001
    outer loop
      vertex  1.100000e+001 -2.956842e+000  3.470057e+000
      vertex -2.220606e+000 -2.725443e+000  3.492730e+000
      vertex -2.610763e+000 -2.950701e+000  3.470858e+000
    endloop
  endfacet
  facet normal -1.542773e-005 -1.628952e-001  9.866433e-001
    outer loop
      vertex  1.100000e+001 -2.956842e+000  3.470057e+000
      vertex -2.610763e+000 -2.950701e+000  3.470858e+000
      vertex  1.100000e+001 -3.182816e+000  3.432749e+000
    endloop
  endfacet
  facet normal  1.806087e-005 -1.609830e-001  9.869571e-001
    outer loop
      vertex  1.100000e+001 -3.182816e+000  3.432749e+000
      vertex -2.610763e+000 -2.950701e+000  3.470858e+000
      vertex -3.000000e+000 -3.175426e+000  3.434210e+000
    endloop
  endfacet
  facet normal -2.978292e-005 -1.628952e-001  9.866434e-001
    outer loop
      vertex -1.100000e+001 -3.182816e+000  3.432749e+000
      vertex -3.000000e+000 -3.175426e+000  3.434210e+000
      vertex -1.100000e+001 -2.956842e+000  3.470057e+000
    endloop
  endfacet
  facet normal  2.595312e-005 -1.609088e-001  9.869693e-001
    outer loop
      vertex -1.100000e+001 -2.956842e+000  3.470057e+000
      vertex -3.000000e+000 -3.175426e+000  3.434210e+000
      vertex -3.389237e+000 -2.950701e+000  3.470858e+000
    endloop
  endfacet
  facet normal -2.565927e-005 -9.801728e-002  9.951848e-001
    outer loop
      vertex -1.100000e+001 -2.956842e+000  3.470057e+000
      vertex -3.389237e+000 -2.950701e+000  3.470858e+000
      vertex -1.100000e+001 -2.728911e+000  3.492506e+000
    endloop
  endfacet
  facet normal  1.557396e-005 -9.661572e-002  9.953218e-001
    outer loop
      vertex -1.100000e+001 -2.728911e+000  3.492506e+000
      vertex -3.389237e+000 -2.950701e+000  3.470858e+000
      vertex -3.779394e+000 -2.725443e+000  3.492730e+000
    endloop
  endfacet
  facet normal -1.524169e-005 -3.271894e-002  9.994646e-001
    outer loop
      vertex -1.100000e+001 -2.728911e+000  3.492506e+000
      vertex -3.779394e+000 -2.725443e+000  3.492730e+000
      vertex -1.100000e+001 -2.500000e+000  3.500000e+000
    endloop
  endfacet
  facet normal  0.000000e+000 -3.223128e-002  9.994804e-001
    outer loop
      vertex -1.100000e+001 -2.500000e+000  3.500000e+000
      vertex -3.779394e+000 -2.725443e+000  3.492730e+000
      vertex -4.169873e+000 -2.500000e+000  3.500000e+000
    endloop
  endfacet
  facet normal  5.000000e-001 -8.660254e-001  0.000000e+000
    outer loop
      vertex -3.000000e+000  3.175426e+000  3.500000e+000
      vertex -5.750000e+000  1.587713e+000  3.500000e+000
      vertex -3.000000e+000  3.175426e+000  0.000000e+000
    endloop
  endfacet
  facet normal  5.000000e-001 -8.660254e-001  0.000000e+000
    outer loop
      vertex -3.000000e+000  3.175426e+000  0.000000e+000
      vertex -5.750000e+000  1.587713e+000  3.500000e+000
      vertex -5.750000e+000  1.587713e+000  0.000000e+000
    endloop
  endfacet
  facet normal  1.000000e+000  -0.000000e+000  0.000000e+000
    outer loop
      vertex -5.750000e+000  1.587713e+000  3.500000e+000
      vertex -5.750000e+000 -1.587713e+000  3.500000e+000
      vertex -5.750000e+000  1.587713e+000  0.000000e+000
    endloop
  endfacet
  facet normal  1.000000e+000  0.000000e+000  0.000000e+000
    outer loop
      vertex -5.750000e+000  1.587713e+000  0.000000e+000
      vertex -5.750000e+000 -1.587713e+000  3.500000e+000
      vertex -5.750000e+000 -1.587713e+000  0.000000e+000
    endloop
  endfacet
  facet normal  4.999999e-001  8.660254e-001 -2.684479e-005
    outer loop
      vertex -4.169873e+000 -2.500000e+000  3.500000e+000
      vertex -3.779394e+000 -2.725443e+000  3.492730e+000
      vertex -5.750000e+000 -1.587713e+000  3.500000e+000
    endloop
  endfacet
  facet normal  5.000000e-001  8.660254e-001  0.000000e+000
    outer loop
      vertex -3.000000e+000 -3.175426e+000  0.000000e+000
      vertex -5.750000e+000 -1.587713e+000  0.000000e+000
      vertex -3.000000e+000 -3.175426e+000  3.434210e+000
    endloop
  endfacet
  facet normal  5.000000e-001  8.660254e-001  0.000000e+000
    outer loop
      vertex -3.000000e+000 -3.175426e+000  3.434210e+000
      vertex -5.750000e+000 -1.587713e+000  0.000000e+000
      vertex -5.750000e+000 -1.587713e+000  3.500000e+000
    endloop
  endfacet
  facet normal  5.000001e-001  8.660253e-001  2.632675e-006
    outer loop
      vertex -3.000000e+000 -3.175426e+000  3.434210e+000
      vertex -5.750000e+000 -1.587713e+000  3.500000e+000
      vertex -3.389237e+000 -2.950701e+000  3.470858e+000
    endloop
  endfacet
  facet normal  5.000001e-001  8.660254e-001 -2.640003e-007
    outer loop
      vertex -3.389237e+000 -2.950701e+000  3.470858e+000
      vertex -5.750000e+000 -1.587713e+000  3.500000e+000
      vertex -3.779394e+000 -2.725443e+000  3.492730e+000
    endloop
  endfacet
  facet normal -5.000000e-001  8.660254e-001 -6.395536e-006
    outer loop
      vertex -2.500000e-001 -1.587713e+000  3.500000e+000
      vertex -2.220606e+000 -2.725443e+000  3.492730e+000
      vertex -1.830127e+000 -2.500000e+000  3.500000e+000
    endloop
  endfacet
  facet normal -5.000000e-001  8.660254e-001  0.000000e+000
    outer loop
      vertex -2.500000e-001 -1.587713e+000  0.000000e+000
      vertex -3.000000e+000 -3.175426e+000  0.000000e+000
      vertex -2.500000e-001 -1.587713e+000  3.500000e+000
    endloop
  endfacet
  facet normal -5.000000e-001  8.660254e-001  0.000000e+000
    outer loop
      vertex -2.500000e-001 -1.587713e+000  3.500000e+000
      vertex -3.000000e+000 -3.175426e+000  0.000000e+000
      vertex -3.000000e+000 -3.175426e+000  3.434210e+000
    endloop
  endfacet
  facet normal -5.000001e-001  8.660254e-001  1.393656e-006
    outer loop
      vertex -2.500000e-001 -1.587713e+000  3.500000e+000
      vertex -3.000000e+000 -3.175426e+000  3.434210e+000
      vertex -2.220606e+000 -2.725443e+000  3.492730e+000
    endloop
  endfacet
  facet normal -5.000003e-001  8.660253e-001  5.956696e-006
    outer loop
      vertex -2.220606e+000 -2.725443e+000  3.492730e+000
      vertex -3.000000e+000 -3.175426e+000  3.434210e+000
      vertex -2.610763e+000 -2.950701e+000  3.470858e+000
    endloop
  endfacet
  facet normal -1.000000e+000  -0.000000e+000  0.000000e+000
    outer loop
      vertex -2.500000e-001 -1.587713e+000  3.500000e+000
      vertex -2.500000e-001  1.587713e+000  3.500000e+000
      vertex -2.500000e-001 -1.587713e+000  0.000000e+000
    endloop
  endfacet
  facet normal -1.000000e+000  0.000000e+000  0.000000e+000
    outer loop
      vertex -2.500000e-001 -1.587713e+000  0.000000e+000
      vertex -2.500000e-001  1.587713e+000  3.500000e+000
      vertex -2.500000e-001  1.587713e+000  0.000000e+000
    endloop
  endfacet
  facet normal -5.000000e-001 -8.660254e-001  0.000000e+000
    outer loop
      vertex -2.500000e-001  1.587713e+000  3.500000e+000
      vertex -3.000000e+000  3.175426e+000  3.500000e+000
      vertex -2.500000e-001  1.587713e+000  0.000000e+000
    endloop
  endfacet
  facet normal -5.000000e-001 -8.660254e-001  0.000000e+000
    outer loop
      vertex -2.500000e-001  1.587713e+000  0.000000e+000
      vertex -3.000000e+000  3.175426e+000  3.500000e+000
      vertex -3.000000e+000  3.175426e+000  0.000000e+000
    endloop
  endfacet
  facet normal  1.000000e+000  0.000000e+000  0.000000e+000
    outer loop
      vertex  1.100000e+001  5.000000e+000  0.000000e+000
      vertex  1.100000e+001  5.000000e+000  3.500000e+000
      vertex  1.100000e+001 -2.500000e+000  3.500000e+000
    endloop
  endfacet
  facet normal  1.000000e+000  0.000000e+000  0.000000e+000
    outer loop
      vertex  1.100000e+001  5.000000e+000  0.000000e+000
      vertex  1.100000e+001 -2.500000e+000  3.500000e+000
      vertex  1.100000e+001 -2.728911e+000  3.492506e+000
    endloop
  endfacet
  facet normal  1.000000e+000  0.000000e+000  0.000000e+000
    outer loop
      vertex  1.100000e+001  5.000000e+000  0.000000e+000
      vertex  1.100000e+001 -2.728911e+000  3.492506e+000
      vertex  1.100000e+001 -2.956842e+000  3.470057e+000
    endloop
  endfacet
  facet normal  1.000000e+000  0.000000e+000  0.000000e+000
    outer loop
      vertex  1.100000e+001  5.000000e+000  0.000000e+000
      vertex  1.100000e+001 -2.956842e+000  3.470057e+000
      vertex  1.100000e+001 -3.182816e+000  3.432749e+000
    endloop
  endfacet
  facet normal  1.000000e+000  0.000000e+000  0.000000e+000
    outer loop
      vertex  1.100000e+001  5.000000e+000  0.000000e+000
      vertex  1.100000e+001 -3.182816e+000  3.432749e+000
      vertex  1.100000e+001 -3.405867e+000  3.380740e+000
    endloop
  endfacet
  facet normal  1.000000e+000  0.000000e+000  0.000000e+000
    outer loop
      vertex  1.100000e+001  5.000000e+000  0.000000e+000
      vertex  1.100000e+001 -3.405867e+000  3.380740e+000
      vertex  1.100000e+001 -3.625038e+000  3.314255e+000
    endloop
  endfacet
  facet normal  1.000000e+000  0.000000e+000  0.000000e+000
    outer loop
      vertex  1.100000e+001  5.000000e+000  0.000000e+000
      vertex  1.100000e+001 -3.625038e+000  3.314255e+000
      vertex  1.100000e+001 -3.839392e+000  3.233578e+000
    endloop
  endfacet
  facet normal  1.000000e+000  0.000000e+000  0.000000e+000
    outer loop
      vertex  1.100000e+001  5.000000e+000  0.000000e+000
      vertex  1.100000e+001 -3.839392e+000  3.233578e+000
      vertex  1.100000e+001 -4.048010e+000  3.139055e+000
    endloop
  endfacet
  facet normal  1.000000e+000  0.000000e+000  0.000000e+000
    outer loop
      vertex  1.100000e+001  5.000000e+000  0.000000e+000
      vertex  1.100000e+001 -4.048010e+000  3.139055e+000
      vertex  1.100000e+001 -4.250000e+000  3.031089e+000
    endloop
  endfacet
  facet normal  1.000000e+000  0.000000e+000  0.000000e+000
    outer loop
      vertex  1.100000e+001  5.000000e+000  0.000000e+000
      vertex  1.100000e+001 -4.250000e+000  3.031089e+000
      vertex  1.100000e+001 -4.444496e+000  2.910144e+000
    endloop
  endfacet
  facet normal  1.000000e+000  0.000000e+000  0.000000e+000
    outer loop
      vertex  1.100000e+001  5.000000e+000  0.000000e+000
      vertex  1.100000e+001 -4.444496e+000  2.910144e+000
      vertex  1.100000e+001 -4.630665e+000  2.776737e+000
    endloop
  endfacet
  facet normal  1.000000e+000  0.000000e+000  0.000000e+000
    outer loop
      vertex  1.100000e+001  5.000000e+000  0.000000e+000
      vertex  1.100000e+001 -4.630665e+000  2.776737e+000
      vertex  1.100000e+001 -4.807710e+000  2.631439e+000
    endloop
  endfacet
  facet normal  9.999999e-001  0.000000e+000  0.000000e+000
    outer loop
      vertex  1.100000e+001  5.000000e+000  0.000000e+000
      vertex  1.100000e+001 -4.807710e+000  2.631439e+000
      vertex  1.100000e+001 -4.974874e+000  2.474874e+000
    endloop
  endfacet
  facet normal  1.000000e+000  0.000000e+000  0.000000e+000
    outer loop
      vertex  1.100000e+001  5.000000e+000  0.000000e+000
      vertex  1.100000e+001 -4.974874e+000  2.474874e+000
      vertex  1.100000e+001 -5.131439e+000  2.307710e+000
    endloop
  endfacet
  facet normal  1.000000e+000  0.000000e+000  0.000000e+000
    outer loop
      vertex  1.100000e+001  5.000000e+000  0.000000e+000
      vertex  1.100000e+001 -5.131439e+000  2.307710e+000
      vertex  1.100000e+001 -5.276737e+000  2.130665e+000
    endloop
  endfacet
  facet normal  1.000000e+000  0.000000e+000  0.000000e+000
    outer loop
      vertex  1.100000e+001  5.000000e+000  0.000000e+000
      vertex  1.100000e+001 -5.276737e+000  2.130665e+000
      vertex  1.100000e+001 -5.410144e+000  1.944496e+000
    endloop
  endfacet
  facet normal  9.999999e-001  0.000000e+000  0.000000e+000
    outer loop
      vertex  1.100000e+001  5.000000e+000  0.000000e+000
      vertex  1.100000e+001 -5.410144e+000  1.944496e+000
      vertex  1.100000e+001 -5.531089e+000  1.750000e+000
    endloop
  endfacet
  facet normal  1.000000e+000  0.000000e+000  0.000000e+000
    outer loop
      vertex  1.100000e+001  5.000000e+000  0.000000e+000
      vertex  1.100000e+001 -5.531089e+000  1.750000e+000
      vertex  1.100000e+001 -5.639055e+000  1.548010e+000
    endloop
  endfacet
  facet normal  1.000000e+000  0.000000e+000  0.000000e+000
    outer loop
      vertex  1.100000e+001  5.000000e+000  0.000000e+000
      vertex  1.100000e+001 -5.639055e+000  1.548010e+000
      vertex  1.100000e+001 -5.733578e+000  1.339392e+000
    endloop
  endfacet
  facet normal  1.000000e+000  0.000000e+000  0.000000e+000
    outer loop
      vertex  1.100000e+001  5.000000e+000  0.000000e+000
      vertex  1.100000e+001 -5.733578e+000  1.339392e+000
      vertex  1.100000e+001 -5.814255e+000  1.125038e+000
    endloop
  endfacet
  facet normal  1.000000e+000  0.000000e+000  0.000000e+000
    outer loop
      vertex  1.100000e+001  5.000000e+000  0.000000e+000
      vertex  1.100000e+001 -5.814255e+000  1.125038e+000
      vertex  1.100000e+001 -5.880740e+000  9.058667e-001
    endloop
  endfacet
  facet normal  9.999999e-001  0.000000e+000  0.000000e+000
    outer loop
      vertex  1.100000e+001  5.000000e+000  0.000000e+000
      vertex  1.100000e+001 -5.880740e+000  9.058667e-001
      vertex  1.100000e+001 -5.932748e+000  6.828161e-001
    endloop
  endfacet
  facet normal  1.000000e+000  0.000000e+000  0.000000e+000
    outer loop
      vertex  1.100000e+001  5.000000e+000  0.000000e+000
      vertex  1.100000e+001 -5.932748e+000  6.828161e-001
      vertex  1.100000e+001 -5.970057e+000  4.568417e-001
    endloop
  endfacet
  facet normal  1.000000e+000  0.000000e+000  0.000000e+000
    outer loop
      vertex  1.100000e+001  5.000000e+000  0.000000e+000
      vertex  1.100000e+001 -5.970057e+000  4.568417e-001
      vertex  1.100000e+001 -5.992506e+000  2.289110e-001
    endloop
  endfacet
  facet normal  1.000000e+000  0.000000e+000  0.000000e+000
    outer loop
      vertex  1.100000e+001  5.000000e+000  0.000000e+000
      vertex  1.100000e+001 -5.992506e+000  2.289110e-001
      vertex  1.100000e+001 -6.000000e+000  0.000000e+000
    endloop
  endfacet
  facet normal -1.000000e+000  0.000000e+000  0.000000e+000
    outer loop
      vertex -1.100000e+001  5.000000e+000  0.000000e+000
      vertex -1.100000e+001 -6.000000e+000  0.000000e+000
      vertex -1.100000e+001 -5.992506e+000  2.289110e-001
    endloop
  endfacet
  facet normal -1.000000e+000  0.000000e+000  0.000000e+000
    outer loop
      vertex -1.100000e+001  5.000000e+000  0.000000e+000
      vertex -1.100000e+001 -5.992506e+000  2.289110e-001
      vertex -1.100000e+001 -5.970057e+000  4.568417e-001
    endloop
  endfacet
  facet normal -9.999999e-001  0.000000e+000  0.000000e+000
    outer loop
      vertex -1.100000e+001  5.000000e+000  0.000000e+000
      vertex -1.100000e+001 -5.970057e+000  4.568417e-001
      vertex -1.100000e+001 -5.932748e+000  6.828161e-001
    endloop
  endfacet
  facet normal -9.999999e-001  0.000000e+000  0.000000e+000
    outer loop
      vertex -1.100000e+001  5.000000e+000  0.000000e+000
      vertex -1.100000e+001 -5.932748e+000  6.828161e-001
      vertex -1.100000e+001 -5.880740e+000  9.058667e-001
    endloop
  endfacet
  facet normal -1.000000e+000  0.000000e+000  0.000000e+000
    outer loop
      vertex -1.100000e+001  5.000000e+000  0.000000e+000
      vertex -1.100000e+001 -5.880740e+000  9.058667e-001
      vertex -1.100000e+001 -5.814255e+000  1.125038e+000
    endloop
  endfacet
  facet normal -1.000000e+000  0.000000e+000  0.000000e+000
    outer loop
      vertex -1.100000e+001  5.000000e+000  0.000000e+000
      vertex -1.100000e+001 -5.814255e+000  1.125038e+000
      vertex -1.100000e+001 -5.733578e+000  1.339392e+000
    endloop
  endfacet
  facet normal -1.000000e+000  0.000000e+000  0.000000e+000
    outer loop
      vertex -1.100000e+001  5.000000e+000  0.000000e+000
      vertex -1.100000e+001 -5.733578e+000  1.339392e+000
      vertex -1.100000e+001 -5.639055e+000  1.548010e+000
    endloop
  endfacet
  facet normal -1.000000e+000  0.000000e+000  0.000000e+000
    outer loop
      vertex -1.100000e+001  5.000000e+000  0.000000e+000
      vertex -1.100000e+001 -5.639055e+000  1.548010e+000
      vertex -1.100000e+001 -5.531089e+000  1.750000e+000
    endloop
  endfacet
  facet normal -9.999999e-001  0.000000e+000  0.000000e+000
    outer loop
      vertex -1.100000e+001  5.000000e+000  0.000000e+000
      vertex -1.100000e+001 -5.531089e+000  1.750000e+000
      vertex -1.100000e+001 -5.410144e+000  1.944496e+000
    endloop
  endfacet
  facet normal -1.000000e+000  0.000000e+000  0.000000e+000
    outer loop
      vertex -1.100000e+001  5.000000e+000  0.000000e+000
      vertex -1.100000e+001 -5.410144e+000  1.944496e+000
      vertex -1.100000e+001 -5.276737e+000  2.130665e+000
    endloop
  endfacet
  facet normal -1.000000e+000  0.000000e+000  0.000000e+000
    outer loop
      vertex -1.100000e+001  5.000000e+000  0.000000e+000
      vertex -1.100000e+001 -5.276737e+000  2.130665e+000
      vertex -1.100000e+001 -5.131439e+000  2.307710e+000
    endloop
  endfacet
  facet normal -1.000000e+000  0.000000e+000  0.000000e+000
    outer loop
      vertex -1.100000e+001  5.000000e+000  0.000000e+000
      vertex -1.100000e+001 -5.131439e+000  2.307710e+000
      vertex -1.100000e+001 -4.974874e+000  2.474874e+000
    endloop
  endfacet
  facet normal -1.000000e+000  0.000000e+000  0.000000e+000
    outer loop
      vertex -1.100000e+001  5.000000e+000  0.000000e+000
      vertex -1.100000e+001 -4.974874e+000  2.474874e+000
      vertex -1.100000e+001 -4.807710e+000  2.631439e+000
    endloop
  endfacet
  facet normal -1.000000e+000  0.000000e+000  0.000000e+000
    outer loop
      vertex -1.100000e+001  5.000000e+000  0.000000e+000
      vertex -1.100000e+001 -4.807710e+000  2.631439e+000
      vertex -1.100000e+001 -4.630665e+000  2.776737e+000
    endloop
  endfacet
  facet normal -1.000000e+000  0.000000e+000  0.000000e+000
    outer loop
      vertex -1.100000e+001  5.000000e+000  0.000000e+000
      vertex -1.100000e+001 -4.630665e+000  2.776737e+000
      vertex -1.100000e+001 -4.444496e+000  2.910144e+000
    endloop
  endfacet
  facet normal -9.999999e-001  0.000000e+000  0.000000e+000
    outer loop
      vertex -1.100000e+001  5.000000e+000  0.000000e+000
      vertex -1.100000e+001 -4.444496e+000  2.910144e+000
      vertex -1.100000e+001 -4.250000e+000  3.031089e+000
    endloop
  endfacet
  facet normal -1.000000e+000  0.000000e+000  0.000000e+000
    outer loop
      vertex -1.100000e+001  5.000000e+000  0.000000e+000
      vertex -1.100000e+001 -4.250000e+000  3.031089e+000
      vertex -1.100000e+001 -4.048010e+000  3.139055e+000
    endloop
  endfacet
  facet normal -1.000000e+000  0.000000e+000  0.000000e+000
    outer loop
      vertex -1.100000e+001  5.000000e+000  0.000000e+000
      vertex -1.100000e+001 -4.048010e+000  3.139055e+000
      vertex -1.100000e+001 -3.839392e+000  3.233578e+000
    endloop
  endfacet
  facet normal -1.000000e+000  0.000000e+000  0.000000e+000
    outer loop
      vertex -1.100000e+001  5.000000e+000  0.000000e+000
      vertex -1.100000e+001 -3.839392e+000  3.233578e+000
      vertex -1.100000e+001 -3.625038e+000  3.314255e+000
    endloop
  endfacet
  facet normal -1.000000e+000  0.000000e+000  0.000000e+000
    outer loop
      vertex -1.100000e+001  5.000000e+000  0.000000e+000
      vertex -1.100000e+001 -3.625038e+000  3.314255e+000
      vertex -1.100000e+001 -3.405867e+000  3.380740e+000
    endloop
  endfacet
  facet normal -1.000000e+000  0.000000e+000  0.000000e+000
    outer loop
      vertex -1.100000e+001  5.000000e+000  0.000000e+000
      vertex -1.100000e+001 -3.405867e+000  3.380740e+000
      vertex -1.100000e+001 -3.182816e+000  3.432749e+000
    endloop
  endfacet
  facet normal -1.000000e+000  0.000000e+000  0.000000e+000
    outer loop
      vertex -1.100000e+001  5.000000e+000  0.000000e+000
      vertex -1.100000e+001 -3.182816e+000  3.432749e+000
      vertex -1.100000e+001 -2.956842e+000  3.470057e+000
    endloop
  endfacet
  facet normal -1.000000e+000  0.000000e+000  0.000000e+000
    outer loop
      vertex -1.100000e+001  5.000000e+000  0.000000e+000
      vertex -1.100000e+001 -2.956842e+000  3.470057e+000
      vertex -1.100000e+001 -2.728911e+000  3.492506e+000
    endloop
  endfacet
  facet normal -1.000000e+000  0.000000e+000  0.000000e+000
    outer loop
      vertex -1.100000e+001  5.000000e+000  0.000000e+000
      vertex -1.100000e+001 -2.728911e+000  3.492506e+000
      vertex -1.100000e+001 -2.500000e+000  3.500000e+000
    endloop
  endfacet
  facet normal -1.000000e+000  0.000000e+000  0.000000e+000
    outer loop
      vertex -1.100000e+001  5.000000e+000  0.000000e+000
      vertex -1.100000e+001 -2.500000e+000  3.500000e+000
      vertex -1.100000e+001  5.000000e+000  3.500000e+000
    endloop
  endfacet
  facet normal  0.000000e+000  1.000000e+000  0.000000e+000
    outer loop
      vertex -1.100000e+001  5.000000e+000  0.000000e+000
      vertex -1.100000e+001  5.000000e+000  3.500000e+000
      vertex  1.100000e+001  5.000000e+000  0.000000e+000
    endloop
  endfacet
  facet normal  0.000000e+000  1.000000e+000  -0.000000e+000
    outer loop
      vertex  1.100000e+001  5.000000e+000  0.000000e+000
      vertex -1.100000e+001  5.000000e+000  3.500000e+000
      vertex  1.100000e+001  5.000000e+000  3.500000e+000
    endloop
  endfacet
endsolid CATIA STL
