solid CATIA STL
  facet normal  0.000000e+000 -1.000000e+000  -0.000000e+000
    outer loop
      vertex  4.466229e+001 -2.750000e+000  0.000000e+000
      vertex  4.466229e+001 -2.750000e+000  4.000000e+000
      vertex  4.304571e+001 -2.750000e+000  0.000000e+000
    endloop
  endfacet
  facet normal  0.000000e+000 -1.000000e+000  0.000000e+000
    outer loop
      vertex  4.304571e+001 -2.750000e+000  0.000000e+000
      vertex  4.466229e+001 -2.750000e+000  4.000000e+000
      vertex  4.304571e+001 -2.750000e+000  4.000000e+000
    endloop
  endfacet
  facet normal  0.000000e+000 -1.000000e+000  -0.000000e+000
    outer loop
      vertex  4.304571e+001 -2.750000e+000  0.000000e+000
      vertex  4.304571e+001 -2.750000e+000  4.000000e+000
      vertex  3.204294e+000 -2.750000e+000  0.000000e+000
    endloop
  endfacet
  facet normal  0.000000e+000 -1.000000e+000  0.000000e+000
    outer loop
      vertex  3.204294e+000 -2.750000e+000  0.000000e+000
      vertex  4.304571e+001 -2.750000e+000  4.000000e+000
      vertex  3.204294e+000 -2.750000e+000  4.000000e+000
    endloop
  endfacet
  facet normal  0.000000e+000 -1.000000e+000  -0.000000e+000
    outer loop
      vertex  3.204294e+000 -2.750000e+000  0.000000e+000
      vertex  3.204294e+000 -2.750000e+000  4.000000e+000
      vertex  1.587713e+000 -2.750000e+000  0.000000e+000
    endloop
  endfacet
  facet normal  0.000000e+000 -1.000000e+000  0.000000e+000
    outer loop
      vertex  1.587713e+000 -2.750000e+000  0.000000e+000
      vertex  3.204294e+000 -2.750000e+000  4.000000e+000
      vertex  1.587713e+000 -2.750000e+000  4.000000e+000
    endloop
  endfacet
  facet normal -8.660254e-001 -5.000001e-001  0.000000e+000
    outer loop
      vertex -4.792007e+000  2.842171e-014  4.000000e+000
      vertex -4.792007e+000  2.842171e-014  0.000000e+000
      vertex -3.204294e+000 -2.750000e+000  4.000000e+000
    endloop
  endfacet
  facet normal -8.660254e-001 -5.000001e-001  -0.000000e+000
    outer loop
      vertex -3.204294e+000 -2.750000e+000  4.000000e+000
      vertex -4.792007e+000  2.842171e-014  0.000000e+000
      vertex -3.204294e+000 -2.750000e+000  0.000000e+000
    endloop
  endfacet
  facet normal  8.660251e-001 -5.000004e-001  0.000000e+000
    outer loop
      vertex  4.945429e+001 -2.750000e+000  4.000000e+000
      vertex  4.945429e+001 -2.750000e+000  0.000000e+000
      vertex  5.104201e+001  7.105427e-015  4.000000e+000
    endloop
  endfacet
  facet normal  8.660251e-001 -5.000004e-001  0.000000e+000
    outer loop
      vertex  5.104201e+001  7.105427e-015  4.000000e+000
      vertex  4.945429e+001 -2.750000e+000  0.000000e+000
      vertex  5.104201e+001  7.105427e-015  0.000000e+000
    endloop
  endfacet
  facet normal  0.000000e+000  0.000000e+000 -1.000000e+000
    outer loop
      vertex  4.466229e+001  2.750000e+000  0.000000e+000
      vertex  4.307457e+001 -9.103829e-015  0.000000e+000
      vertex  4.145799e+001  2.842171e-014  0.000000e+000
    endloop
  endfacet
  facet normal  0.000000e+000  0.000000e+000 -1.000000e+000
    outer loop
      vertex  4.466229e+001  2.750000e+000  0.000000e+000
      vertex  4.145799e+001  2.842171e-014  0.000000e+000
      vertex  4.304571e+001  2.750000e+000  0.000000e+000
    endloop
  endfacet
  facet normal  0.000000e+000  0.000000e+000 -1.000000e+000
    outer loop
      vertex  4.466229e+001  2.750000e+000  0.000000e+000
      vertex  4.304571e+001  2.750000e+000  0.000000e+000
      vertex  4.864600e+001  4.150000e+000  0.000000e+000
    endloop
  endfacet
  facet normal  0.000000e+000  0.000000e+000 -1.000000e+000
    outer loop
      vertex  4.466229e+001  2.750000e+000  0.000000e+000
      vertex  4.864600e+001  4.150000e+000  0.000000e+000
      vertex  4.783771e+001  2.750000e+000  0.000000e+000
    endloop
  endfacet
  facet normal  -0.000000e+000  0.000000e+000 -1.000000e+000
    outer loop
      vertex -2.396004e+000  4.150000e+000  0.000000e+000
      vertex  4.864600e+001  4.150000e+000  0.000000e+000
      vertex  4.304571e+001  2.750000e+000  0.000000e+000
    endloop
  endfacet
  facet normal  0.000000e+000  0.000000e+000 -1.000000e+000
    outer loop
      vertex -2.396004e+000  4.150000e+000  0.000000e+000
      vertex  4.304571e+001  2.750000e+000  0.000000e+000
      vertex  3.204294e+000  2.750000e+000  0.000000e+000
    endloop
  endfacet
  facet normal  0.000000e+000  0.000000e+000 -1.000000e+000
    outer loop
      vertex -2.396004e+000  4.150000e+000  0.000000e+000
      vertex  3.204294e+000  2.750000e+000  0.000000e+000
      vertex  1.587713e+000  2.750000e+000  0.000000e+000
    endloop
  endfacet
  facet normal  0.000000e+000  0.000000e+000 -1.000000e+000
    outer loop
      vertex -2.396004e+000  4.150000e+000  0.000000e+000
      vertex  1.587713e+000  2.750000e+000  0.000000e+000
      vertex -1.587713e+000  2.750000e+000  0.000000e+000
    endloop
  endfacet
  facet normal  -0.000000e+000  0.000000e+000 -1.000000e+000
    outer loop
      vertex -2.396004e+000  4.150000e+000  0.000000e+000
      vertex -1.587713e+000  2.750000e+000  0.000000e+000
      vertex -4.792007e+000  2.842171e-014  0.000000e+000
    endloop
  endfacet
  facet normal  0.000000e+000  0.000000e+000 -9.999999e-001
    outer loop
      vertex  1.587713e+000 -2.750000e+000  0.000000e+000
      vertex  4.012584e+000 -1.350000e+000  0.000000e+000
      vertex  3.204294e+000 -2.750000e+000  0.000000e+000
    endloop
  endfacet
  facet normal  0.000000e+000  0.000000e+000 -9.999999e-001
    outer loop
      vertex  3.204294e+000 -2.750000e+000  0.000000e+000
      vertex  4.012584e+000 -1.350000e+000  0.000000e+000
      vertex  4.223742e+001 -1.350000e+000  0.000000e+000
    endloop
  endfacet
  facet normal  0.000000e+000  -0.000000e+000 -1.000000e+000
    outer loop
      vertex  3.204294e+000 -2.750000e+000  0.000000e+000
      vertex  4.223742e+001 -1.350000e+000  0.000000e+000
      vertex  4.304571e+001 -2.750000e+000  0.000000e+000
    endloop
  endfacet
  facet normal  0.000000e+000  0.000000e+000 -1.000000e+000
    outer loop
      vertex -1.587713e+000  2.750000e+000  0.000000e+000
      vertex -3.175426e+000 -9.103829e-015  0.000000e+000
      vertex -4.792007e+000  2.842171e-014  0.000000e+000
    endloop
  endfacet
  facet normal  0.000000e+000  0.000000e+000 -1.000000e+000
    outer loop
      vertex -4.792007e+000  2.842171e-014  0.000000e+000
      vertex -3.175426e+000 -9.103829e-015  0.000000e+000
      vertex -1.587713e+000 -2.750000e+000  0.000000e+000
    endloop
  endfacet
  facet normal  0.000000e+000  0.000000e+000 -1.000000e+000
    outer loop
      vertex -4.792007e+000  2.842171e-014  0.000000e+000
      vertex -1.587713e+000 -2.750000e+000  0.000000e+000
      vertex -3.204294e+000 -2.750000e+000  0.000000e+000
    endloop
  endfacet
  facet normal  0.000000e+000  0.000000e+000 -1.000000e+000
    outer loop
      vertex  3.204294e+000  2.750000e+000  0.000000e+000
      vertex  4.792007e+000  7.105427e-015  0.000000e+000
      vertex  1.587713e+000  2.750000e+000  0.000000e+000
    endloop
  endfacet
  facet normal  0.000000e+000  0.000000e+000 -1.000000e+000
    outer loop
      vertex  1.587713e+000  2.750000e+000  0.000000e+000
      vertex  4.792007e+000  7.105427e-015  0.000000e+000
      vertex  3.175426e+000 -1.776357e-015  0.000000e+000
    endloop
  endfacet
  facet normal  0.000000e+000  0.000000e+000 -1.000000e+000
    outer loop
      vertex  4.792007e+000  7.105427e-015  0.000000e+000
      vertex  4.012584e+000 -1.350000e+000  0.000000e+000
      vertex  3.175426e+000 -1.776357e-015  0.000000e+000
    endloop
  endfacet
  facet normal  0.000000e+000  -0.000000e+000 -1.000000e+000
    outer loop
      vertex  3.175426e+000 -1.776357e-015  0.000000e+000
      vertex  4.012584e+000 -1.350000e+000  0.000000e+000
      vertex  1.587713e+000 -2.750000e+000  0.000000e+000
    endloop
  endfacet
  facet normal  0.000000e+000  0.000000e+000 -1.000000e+000
    outer loop
      vertex  4.304571e+001 -2.750000e+000  0.000000e+000
      vertex  4.223742e+001 -1.350000e+000  0.000000e+000
      vertex  4.466229e+001 -2.750000e+000  0.000000e+000
    endloop
  endfacet
  facet normal  0.000000e+000  0.000000e+000 -1.000000e+000
    outer loop
      vertex  4.466229e+001 -2.750000e+000  0.000000e+000
      vertex  4.223742e+001 -1.350000e+000  0.000000e+000
      vertex  4.145799e+001  2.842171e-014  0.000000e+000
    endloop
  endfacet
  facet normal  0.000000e+000  0.000000e+000 -1.000000e+000
    outer loop
      vertex  4.466229e+001 -2.750000e+000  0.000000e+000
      vertex  4.145799e+001  2.842171e-014  0.000000e+000
      vertex  4.307457e+001 -9.103829e-015  0.000000e+000
    endloop
  endfacet
  facet normal  0.000000e+000  0.000000e+000 -1.000000e+000
    outer loop
      vertex  4.864600e+001  4.150000e+000  0.000000e+000
      vertex  5.104201e+001  7.105427e-015  0.000000e+000
      vertex  4.783771e+001  2.750000e+000  0.000000e+000
    endloop
  endfacet
  facet normal  0.000000e+000  0.000000e+000 -1.000000e+000
    outer loop
      vertex  4.783771e+001  2.750000e+000  0.000000e+000
      vertex  5.104201e+001  7.105427e-015  0.000000e+000
      vertex  4.942543e+001 -1.776357e-015  0.000000e+000
    endloop
  endfacet
  facet normal  0.000000e+000  0.000000e+000 -1.000000e+000
    outer loop
      vertex  5.104201e+001  7.105427e-015  0.000000e+000
      vertex  4.945429e+001 -2.750000e+000  0.000000e+000
      vertex  4.942543e+001 -1.776357e-015  0.000000e+000
    endloop
  endfacet
  facet normal  0.000000e+000  -0.000000e+000 -1.000000e+000
    outer loop
      vertex  4.942543e+001 -1.776357e-015  0.000000e+000
      vertex  4.945429e+001 -2.750000e+000  0.000000e+000
      vertex  4.783771e+001 -2.750000e+000  0.000000e+000
    endloop
  endfacet
  facet normal  0.000000e+000  -0.000000e+000  1.000000e+000
    outer loop
      vertex  4.466229e+001  2.750000e+000  4.000000e+000
      vertex  4.783771e+001  2.750000e+000  4.000000e+000
      vertex  4.864600e+001  4.150000e+000  4.000000e+000
    endloop
  endfacet
  facet normal  0.000000e+000  0.000000e+000  1.000000e+000
    outer loop
      vertex  4.466229e+001  2.750000e+000  4.000000e+000
      vertex  4.864600e+001  4.150000e+000  4.000000e+000
      vertex  4.304571e+001  2.750000e+000  4.000000e+000
    endloop
  endfacet
  facet normal  -0.000000e+000  0.000000e+000  1.000000e+000
    outer loop
      vertex  4.466229e+001  2.750000e+000  4.000000e+000
      vertex  4.304571e+001  2.750000e+000  4.000000e+000
      vertex  4.145799e+001  2.842171e-014  4.000000e+000
    endloop
  endfacet
  facet normal  -0.000000e+000  0.000000e+000  1.000000e+000
    outer loop
      vertex  4.466229e+001  2.750000e+000  4.000000e+000
      vertex  4.145799e+001  2.842171e-014  4.000000e+000
      vertex  4.307457e+001 -9.103829e-015  4.000000e+000
    endloop
  endfacet
  facet normal  0.000000e+000  0.000000e+000  1.000000e+000
    outer loop
      vertex -2.396004e+000  4.150000e+000  4.000000e+000
      vertex -4.792007e+000  2.842171e-014  4.000000e+000
      vertex -1.587713e+000  2.750000e+000  4.000000e+000
    endloop
  endfacet
  facet normal  0.000000e+000  -0.000000e+000  1.000000e+000
    outer loop
      vertex -2.396004e+000  4.150000e+000  4.000000e+000
      vertex -1.587713e+000  2.750000e+000  4.000000e+000
      vertex  1.587713e+000  2.750000e+000  4.000000e+000
    endloop
  endfacet
  facet normal  0.000000e+000  -0.000000e+000  1.000000e+000
    outer loop
      vertex -2.396004e+000  4.150000e+000  4.000000e+000
      vertex  1.587713e+000  2.750000e+000  4.000000e+000
      vertex  3.204294e+000  2.750000e+000  4.000000e+000
    endloop
  endfacet
  facet normal  0.000000e+000  -0.000000e+000  1.000000e+000
    outer loop
      vertex -2.396004e+000  4.150000e+000  4.000000e+000
      vertex  3.204294e+000  2.750000e+000  4.000000e+000
      vertex  4.304571e+001  2.750000e+000  4.000000e+000
    endloop
  endfacet
  facet normal  0.000000e+000  -0.000000e+000  1.000000e+000
    outer loop
      vertex -2.396004e+000  4.150000e+000  4.000000e+000
      vertex  4.304571e+001  2.750000e+000  4.000000e+000
      vertex  4.864600e+001  4.150000e+000  4.000000e+000
    endloop
  endfacet
  facet normal  0.000000e+000  0.000000e+000  1.000000e+000
    outer loop
      vertex  4.304571e+001 -2.750000e+000  4.000000e+000
      vertex  4.223742e+001 -1.350000e+000  4.000000e+000
      vertex  3.204294e+000 -2.750000e+000  4.000000e+000
    endloop
  endfacet
  facet normal  0.000000e+000  0.000000e+000  9.999999e-001
    outer loop
      vertex  3.204294e+000 -2.750000e+000  4.000000e+000
      vertex  4.223742e+001 -1.350000e+000  4.000000e+000
      vertex  4.012584e+000 -1.350000e+000  4.000000e+000
    endloop
  endfacet
  facet normal  0.000000e+000  0.000000e+000  9.999999e-001
    outer loop
      vertex  3.204294e+000 -2.750000e+000  4.000000e+000
      vertex  4.012584e+000 -1.350000e+000  4.000000e+000
      vertex  1.587713e+000 -2.750000e+000  4.000000e+000
    endloop
  endfacet
  facet normal  0.000000e+000  0.000000e+000  1.000000e+000
    outer loop
      vertex -3.204294e+000 -2.750000e+000  4.000000e+000
      vertex -1.587713e+000 -2.750000e+000  4.000000e+000
      vertex -4.792007e+000  2.842171e-014  4.000000e+000
    endloop
  endfacet
  facet normal  0.000000e+000  0.000000e+000  1.000000e+000
    outer loop
      vertex -4.792007e+000  2.842171e-014  4.000000e+000
      vertex -1.587713e+000 -2.750000e+000  4.000000e+000
      vertex -3.175426e+000 -9.103829e-015  4.000000e+000
    endloop
  endfacet
  facet normal  0.000000e+000  -0.000000e+000  1.000000e+000
    outer loop
      vertex -4.792007e+000  2.842171e-014  4.000000e+000
      vertex -3.175426e+000 -9.103829e-015  4.000000e+000
      vertex -1.587713e+000  2.750000e+000  4.000000e+000
    endloop
  endfacet
  facet normal  -0.000000e+000  0.000000e+000  1.000000e+000
    outer loop
      vertex  3.204294e+000  2.750000e+000  4.000000e+000
      vertex  1.587713e+000  2.750000e+000  4.000000e+000
      vertex  4.792007e+000  7.105427e-015  4.000000e+000
    endloop
  endfacet
  facet normal  0.000000e+000  0.000000e+000  1.000000e+000
    outer loop
      vertex  4.792007e+000  7.105427e-015  4.000000e+000
      vertex  1.587713e+000  2.750000e+000  4.000000e+000
      vertex  3.175426e+000 -1.776357e-015  4.000000e+000
    endloop
  endfacet
  facet normal  -0.000000e+000  0.000000e+000  1.000000e+000
    outer loop
      vertex  4.792007e+000  7.105427e-015  4.000000e+000
      vertex  3.175426e+000 -1.776357e-015  4.000000e+000
      vertex  4.012584e+000 -1.350000e+000  4.000000e+000
    endloop
  endfacet
  facet normal  0.000000e+000  0.000000e+000  1.000000e+000
    outer loop
      vertex  4.012584e+000 -1.350000e+000  4.000000e+000
      vertex  3.175426e+000 -1.776357e-015  4.000000e+000
      vertex  1.587713e+000 -2.750000e+000  4.000000e+000
    endloop
  endfacet
  facet normal  0.000000e+000  0.000000e+000  1.000000e+000
    outer loop
      vertex  4.307457e+001 -9.103829e-015  4.000000e+000
      vertex  4.145799e+001  2.842171e-014  4.000000e+000
      vertex  4.466229e+001 -2.750000e+000  4.000000e+000
    endloop
  endfacet
  facet normal  0.000000e+000  0.000000e+000  1.000000e+000
    outer loop
      vertex  4.466229e+001 -2.750000e+000  4.000000e+000
      vertex  4.145799e+001  2.842171e-014  4.000000e+000
      vertex  4.223742e+001 -1.350000e+000  4.000000e+000
    endloop
  endfacet
  facet normal  0.000000e+000  0.000000e+000  1.000000e+000
    outer loop
      vertex  4.466229e+001 -2.750000e+000  4.000000e+000
      vertex  4.223742e+001 -1.350000e+000  4.000000e+000
      vertex  4.304571e+001 -2.750000e+000  4.000000e+000
    endloop
  endfacet
  facet normal  -0.000000e+000  0.000000e+000  1.000000e+000
    outer loop
      vertex  4.864600e+001  4.150000e+000  4.000000e+000
      vertex  4.783771e+001  2.750000e+000  4.000000e+000
      vertex  5.104201e+001  7.105427e-015  4.000000e+000
    endloop
  endfacet
  facet normal  0.000000e+000  0.000000e+000  1.000000e+000
    outer loop
      vertex  5.104201e+001  7.105427e-015  4.000000e+000
      vertex  4.783771e+001  2.750000e+000  4.000000e+000
      vertex  4.942543e+001 -1.776357e-015  4.000000e+000
    endloop
  endfacet
  facet normal  -0.000000e+000  0.000000e+000  1.000000e+000
    outer loop
      vertex  5.104201e+001  7.105427e-015  4.000000e+000
      vertex  4.942543e+001 -1.776357e-015  4.000000e+000
      vertex  4.945429e+001 -2.750000e+000  4.000000e+000
    endloop
  endfacet
  facet normal  0.000000e+000  0.000000e+000  1.000000e+000
    outer loop
      vertex  4.945429e+001 -2.750000e+000  4.000000e+000
      vertex  4.942543e+001 -1.776357e-015  4.000000e+000
      vertex  4.783771e+001 -2.750000e+000  4.000000e+000
    endloop
  endfacet
  facet normal  0.000000e+000 -1.000000e+000  0.000000e+000
    outer loop
      vertex -3.204294e+000 -2.750000e+000  4.000000e+000
      vertex -3.204294e+000 -2.750000e+000  0.000000e+000
      vertex -1.587713e+000 -2.750000e+000  4.000000e+000
    endloop
  endfacet
  facet normal  0.000000e+000 -1.000000e+000  -0.000000e+000
    outer loop
      vertex -1.587713e+000 -2.750000e+000  4.000000e+000
      vertex -3.204294e+000 -2.750000e+000  0.000000e+000
      vertex -1.587713e+000 -2.750000e+000  0.000000e+000
    endloop
  endfacet
  facet normal  0.000000e+000 -1.000000e+000  0.000000e+000
    outer loop
      vertex  4.783771e+001 -2.750000e+000  4.000000e+000
      vertex  4.783771e+001 -2.750000e+000  0.000000e+000
      vertex  4.945429e+001 -2.750000e+000  4.000000e+000
    endloop
  endfacet
  facet normal  0.000000e+000 -1.000000e+000  -0.000000e+000
    outer loop
      vertex  4.945429e+001 -2.750000e+000  4.000000e+000
      vertex  4.783771e+001 -2.750000e+000  0.000000e+000
      vertex  4.945429e+001 -2.750000e+000  0.000000e+000
    endloop
  endfacet
  facet normal -8.660254e-001  5.000000e-001  0.000000e+000
    outer loop
      vertex  1.587713e+000 -2.750000e+000  0.000000e+000
      vertex  1.587713e+000 -2.750000e+000  4.000000e+000
      vertex  3.175426e+000 -1.776357e-015  0.000000e+000
    endloop
  endfacet
  facet normal -8.660254e-001  5.000000e-001  0.000000e+000
    outer loop
      vertex  3.175426e+000 -1.776357e-015  0.000000e+000
      vertex  1.587713e+000 -2.750000e+000  4.000000e+000
      vertex  3.175426e+000 -1.776357e-015  4.000000e+000
    endloop
  endfacet
  facet normal  8.660251e-001  5.000004e-001  0.000000e+000
    outer loop
      vertex  4.307457e+001 -9.103829e-015  0.000000e+000
      vertex  4.307457e+001 -9.103829e-015  4.000000e+000
      vertex  4.466229e+001 -2.750000e+000  0.000000e+000
    endloop
  endfacet
  facet normal  8.660251e-001  5.000004e-001  -0.000000e+000
    outer loop
      vertex  4.466229e+001 -2.750000e+000  0.000000e+000
      vertex  4.307457e+001 -9.103829e-015  4.000000e+000
      vertex  4.466229e+001 -2.750000e+000  4.000000e+000
    endloop
  endfacet
  facet normal -8.660251e-001  5.000004e-001  0.000000e+000
    outer loop
      vertex  4.783771e+001 -2.750000e+000  0.000000e+000
      vertex  4.783771e+001 -2.750000e+000  4.000000e+000
      vertex  4.942543e+001 -1.776357e-015  0.000000e+000
    endloop
  endfacet
  facet normal -8.660251e-001  5.000004e-001  0.000000e+000
    outer loop
      vertex  4.942543e+001 -1.776357e-015  0.000000e+000
      vertex  4.783771e+001 -2.750000e+000  4.000000e+000
      vertex  4.942543e+001 -1.776357e-015  4.000000e+000
    endloop
  endfacet
  facet normal  8.660254e-001  5.000000e-001  0.000000e+000
    outer loop
      vertex -3.175426e+000 -9.103829e-015  0.000000e+000
      vertex -3.175426e+000 -9.103829e-015  4.000000e+000
      vertex -1.587713e+000 -2.750000e+000  0.000000e+000
    endloop
  endfacet
  facet normal  8.660254e-001  5.000000e-001  -0.000000e+000
    outer loop
      vertex -1.587713e+000 -2.750000e+000  0.000000e+000
      vertex -3.175426e+000 -9.103829e-015  4.000000e+000
      vertex -1.587713e+000 -2.750000e+000  4.000000e+000
    endloop
  endfacet
  facet normal  8.660254e-001  5.000000e-001  -0.000000e+000
    outer loop
      vertex  5.104201e+001  7.105427e-015  4.000000e+000
      vertex  5.104201e+001  7.105427e-015  0.000000e+000
      vertex  4.864600e+001  4.150000e+000  4.000000e+000
    endloop
  endfacet
  facet normal  8.660254e-001  5.000000e-001  0.000000e+000
    outer loop
      vertex  4.864600e+001  4.150000e+000  4.000000e+000
      vertex  5.104201e+001  7.105427e-015  0.000000e+000
      vertex  4.864600e+001  4.150000e+000  0.000000e+000
    endloop
  endfacet
  facet normal -8.660254e-001  5.000000e-001  0.000000e+000
    outer loop
      vertex -2.396004e+000  4.150000e+000  4.000000e+000
      vertex -2.396004e+000  4.150000e+000  0.000000e+000
      vertex -4.792007e+000  2.842171e-014  4.000000e+000
    endloop
  endfacet
  facet normal -8.660254e-001  5.000000e-001  0.000000e+000
    outer loop
      vertex -4.792007e+000  2.842171e-014  4.000000e+000
      vertex -2.396004e+000  4.150000e+000  0.000000e+000
      vertex -4.792007e+000  2.842171e-014  0.000000e+000
    endloop
  endfacet
  facet normal  0.000000e+000  1.000000e+000  -0.000000e+000
    outer loop
      vertex  4.864600e+001  4.150000e+000  4.000000e+000
      vertex  4.864600e+001  4.150000e+000  0.000000e+000
      vertex -2.396004e+000  4.150000e+000  4.000000e+000
    endloop
  endfacet
  facet normal  0.000000e+000  1.000000e+000  0.000000e+000
    outer loop
      vertex -2.396004e+000  4.150000e+000  4.000000e+000
      vertex  4.864600e+001  4.150000e+000  0.000000e+000
      vertex -2.396004e+000  4.150000e+000  0.000000e+000
    endloop
  endfacet
  facet normal  0.000000e+000 -1.000000e+000  0.000000e+000
    outer loop
      vertex  4.304571e+001  2.750000e+000  4.000000e+000
      vertex  3.204294e+000  2.750000e+000  4.000000e+000
      vertex  4.304571e+001  2.750000e+000  0.000000e+000
    endloop
  endfacet
  facet normal  0.000000e+000 -1.000000e+000  0.000000e+000
    outer loop
      vertex  4.304571e+001  2.750000e+000  0.000000e+000
      vertex  3.204294e+000  2.750000e+000  4.000000e+000
      vertex  3.204294e+000  2.750000e+000  0.000000e+000
    endloop
  endfacet
  facet normal  0.000000e+000  1.000000e+000  -0.000000e+000
    outer loop
      vertex  4.223742e+001 -1.350000e+000  4.000000e+000
      vertex  4.223742e+001 -1.350000e+000  0.000000e+000
      vertex  4.012584e+000 -1.350000e+000  4.000000e+000
    endloop
  endfacet
  facet normal  0.000000e+000  1.000000e+000  0.000000e+000
    outer loop
      vertex  4.012584e+000 -1.350000e+000  4.000000e+000
      vertex  4.223742e+001 -1.350000e+000  0.000000e+000
      vertex  4.012584e+000 -1.350000e+000  0.000000e+000
    endloop
  endfacet
  facet normal -8.660251e-001  5.000004e-001  0.000000e+000
    outer loop
      vertex  4.304571e+001  2.750000e+000  4.000000e+000
      vertex  4.304571e+001  2.750000e+000  0.000000e+000
      vertex  4.145799e+001  2.842171e-014  4.000000e+000
    endloop
  endfacet
  facet normal -8.660251e-001  5.000004e-001  0.000000e+000
    outer loop
      vertex  4.145799e+001  2.842171e-014  4.000000e+000
      vertex  4.304571e+001  2.750000e+000  0.000000e+000
      vertex  4.145799e+001  2.842171e-014  0.000000e+000
    endloop
  endfacet
  facet normal -8.660255e-001 -5.000000e-001  0.000000e+000
    outer loop
      vertex  4.145799e+001  2.842171e-014  4.000000e+000
      vertex  4.145799e+001  2.842171e-014  0.000000e+000
      vertex  4.223742e+001 -1.350000e+000  4.000000e+000
    endloop
  endfacet
  facet normal -8.660255e-001 -5.000000e-001  -0.000000e+000
    outer loop
      vertex  4.223742e+001 -1.350000e+000  4.000000e+000
      vertex  4.145799e+001  2.842171e-014  0.000000e+000
      vertex  4.223742e+001 -1.350000e+000  0.000000e+000
    endloop
  endfacet
  facet normal  8.660253e-001 -5.000002e-001  0.000000e+000
    outer loop
      vertex  4.012584e+000 -1.350000e+000  4.000000e+000
      vertex  4.012584e+000 -1.350000e+000  0.000000e+000
      vertex  4.792007e+000  7.105427e-015  4.000000e+000
    endloop
  endfacet
  facet normal  8.660253e-001 -5.000002e-001  0.000000e+000
    outer loop
      vertex  4.792007e+000  7.105427e-015  4.000000e+000
      vertex  4.012584e+000 -1.350000e+000  0.000000e+000
      vertex  4.792007e+000  7.105427e-015  0.000000e+000
    endloop
  endfacet
  facet normal  8.660254e-001  5.000001e-001  -0.000000e+000
    outer loop
      vertex  4.792007e+000  7.105427e-015  4.000000e+000
      vertex  4.792007e+000  7.105427e-015  0.000000e+000
      vertex  3.204294e+000  2.750000e+000  4.000000e+000
    endloop
  endfacet
  facet normal  8.660254e-001  5.000001e-001  0.000000e+000
    outer loop
      vertex  3.204294e+000  2.750000e+000  4.000000e+000
      vertex  4.792007e+000  7.105427e-015  0.000000e+000
      vertex  3.204294e+000  2.750000e+000  0.000000e+000
    endloop
  endfacet
  facet normal -8.660251e-001 -5.000004e-001  -0.000000e+000
    outer loop
      vertex  4.942543e+001 -1.776357e-015  0.000000e+000
      vertex  4.942543e+001 -1.776357e-015  4.000000e+000
      vertex  4.783771e+001  2.750000e+000  0.000000e+000
    endloop
  endfacet
  facet normal -8.660251e-001 -5.000004e-001  0.000000e+000
    outer loop
      vertex  4.783771e+001  2.750000e+000  0.000000e+000
      vertex  4.942543e+001 -1.776357e-015  4.000000e+000
      vertex  4.783771e+001  2.750000e+000  4.000000e+000
    endloop
  endfacet
  facet normal  0.000000e+000 -9.999999e-001  -0.000000e+000
    outer loop
      vertex  4.783771e+001  2.750000e+000  0.000000e+000
      vertex  4.783771e+001  2.750000e+000  4.000000e+000
      vertex  4.466229e+001  2.750000e+000  0.000000e+000
    endloop
  endfacet
  facet normal  0.000000e+000 -9.999999e-001  0.000000e+000
    outer loop
      vertex  4.466229e+001  2.750000e+000  0.000000e+000
      vertex  4.783771e+001  2.750000e+000  4.000000e+000
      vertex  4.466229e+001  2.750000e+000  4.000000e+000
    endloop
  endfacet
  facet normal  8.660251e-001 -5.000004e-001  0.000000e+000
    outer loop
      vertex  4.466229e+001  2.750000e+000  0.000000e+000
      vertex  4.466229e+001  2.750000e+000  4.000000e+000
      vertex  4.307457e+001 -9.103829e-015  0.000000e+000
    endloop
  endfacet
  facet normal  8.660251e-001 -5.000004e-001  0.000000e+000
    outer loop
      vertex  4.307457e+001 -9.103829e-015  0.000000e+000
      vertex  4.466229e+001  2.750000e+000  4.000000e+000
      vertex  4.307457e+001 -9.103829e-015  4.000000e+000
    endloop
  endfacet
  facet normal -8.660254e-001 -5.000000e-001  -0.000000e+000
    outer loop
      vertex  3.175426e+000 -1.776357e-015  0.000000e+000
      vertex  3.175426e+000 -1.776357e-015  4.000000e+000
      vertex  1.587713e+000  2.750000e+000  0.000000e+000
    endloop
  endfacet
  facet normal -8.660254e-001 -5.000000e-001  0.000000e+000
    outer loop
      vertex  1.587713e+000  2.750000e+000  0.000000e+000
      vertex  3.175426e+000 -1.776357e-015  4.000000e+000
      vertex  1.587713e+000  2.750000e+000  4.000000e+000
    endloop
  endfacet
  facet normal  0.000000e+000 -1.000000e+000  -0.000000e+000
    outer loop
      vertex  1.587713e+000  2.750000e+000  0.000000e+000
      vertex  1.587713e+000  2.750000e+000  4.000000e+000
      vertex -1.587713e+000  2.750000e+000  0.000000e+000
    endloop
  endfacet
  facet normal  0.000000e+000 -1.000000e+000  0.000000e+000
    outer loop
      vertex -1.587713e+000  2.750000e+000  0.000000e+000
      vertex  1.587713e+000  2.750000e+000  4.000000e+000
      vertex -1.587713e+000  2.750000e+000  4.000000e+000
    endloop
  endfacet
  facet normal  8.660254e-001 -5.000000e-001  0.000000e+000
    outer loop
      vertex -1.587713e+000  2.750000e+000  0.000000e+000
      vertex -1.587713e+000  2.750000e+000  4.000000e+000
      vertex -3.175426e+000 -9.103829e-015  0.000000e+000
    endloop
  endfacet
  facet normal  8.660254e-001 -5.000000e-001  0.000000e+000
    outer loop
      vertex -3.175426e+000 -9.103829e-015  0.000000e+000
      vertex -1.587713e+000  2.750000e+000  4.000000e+000
      vertex -3.175426e+000 -9.103829e-015  4.000000e+000
    endloop
  endfacet
endsolid CATIA STL
