solid CATIA STL
  facet normal  0.000000e+000 -4.906697e-002  9.987955e-001
    outer loop
      vertex  0.000000e+000 -5.000000e+001 -4.100000e+000
      vertex  3.000000e+000 -4.984317e+001 -4.092296e+000
      vertex  0.000000e+000 -4.984317e+001 -4.092296e+000
    endloop
  endfacet
  facet normal  0.000000e+000 -1.467299e-001  9.891766e-001
    outer loop
      vertex  0.000000e+000 -4.984317e+001 -4.092296e+000
      vertex  3.000000e+000 -4.984317e+001 -4.092296e+000
      vertex  3.000000e+000 -4.968785e+001 -4.069256e+000
    endloop
  endfacet
  facet normal  0.000000e+000 -1.467299e-001  9.891766e-001
    outer loop
      vertex  0.000000e+000 -4.984317e+001 -4.092296e+000
      vertex  3.000000e+000 -4.968785e+001 -4.069256e+000
      vertex  0.000000e+000 -4.968785e+001 -4.069256e+000
    endloop
  endfacet
  facet normal  0.000000e+000 -2.429815e-001  9.700308e-001
    outer loop
      vertex  0.000000e+000 -4.968785e+001 -4.069256e+000
      vertex  3.000000e+000 -4.968785e+001 -4.069256e+000
      vertex  3.000000e+000 -4.953555e+001 -4.031105e+000
    endloop
  endfacet
  facet normal  0.000000e+000 -2.429815e-001  9.700308e-001
    outer loop
      vertex  0.000000e+000 -4.968785e+001 -4.069256e+000
      vertex  3.000000e+000 -4.953555e+001 -4.031105e+000
      vertex  0.000000e+000 -4.953555e+001 -4.031105e+000
    endloop
  endfacet
  facet normal  0.000000e+000 -3.368883e-001  9.415446e-001
    outer loop
      vertex  0.000000e+000 -4.953555e+001 -4.031105e+000
      vertex  3.000000e+000 -4.953555e+001 -4.031105e+000
      vertex  3.000000e+000 -4.938771e+001 -3.978207e+000
    endloop
  endfacet
  facet normal  0.000000e+000 -3.368883e-001  9.415446e-001
    outer loop
      vertex  0.000000e+000 -4.953555e+001 -4.031105e+000
      vertex  3.000000e+000 -4.938771e+001 -3.978207e+000
      vertex  0.000000e+000 -4.938771e+001 -3.978207e+000
    endloop
  endfacet
  facet normal  0.000000e+000 -4.275566e-001  9.039885e-001
    outer loop
      vertex  0.000000e+000 -4.938771e+001 -3.978207e+000
      vertex  3.000000e+000 -4.938771e+001 -3.978207e+000
      vertex  3.000000e+000 -4.924577e+001 -3.911074e+000
    endloop
  endfacet
  facet normal  0.000000e+000 -4.275566e-001  9.039885e-001
    outer loop
      vertex  0.000000e+000 -4.938771e+001 -3.978207e+000
      vertex  3.000000e+000 -4.924577e+001 -3.911074e+000
      vertex  0.000000e+000 -4.924577e+001 -3.911074e+000
    endloop
  endfacet
  facet normal  0.000000e+000 -5.141016e-001  8.577293e-001
    outer loop
      vertex  0.000000e+000 -4.924577e+001 -3.911074e+000
      vertex  3.000000e+000 -4.924577e+001 -3.911074e+000
      vertex  3.000000e+000 -4.911109e+001 -3.830351e+000
    endloop
  endfacet
  facet normal  0.000000e+000 -5.141016e-001  8.577293e-001
    outer loop
      vertex  0.000000e+000 -4.924577e+001 -3.911074e+000
      vertex  3.000000e+000 -4.911109e+001 -3.830351e+000
      vertex  0.000000e+000 -4.911109e+001 -3.830351e+000
    endloop
  endfacet
  facet normal  0.000000e+000 -5.956970e-001  8.032092e-001
    outer loop
      vertex  0.000000e+000 -4.911109e+001 -3.830351e+000
      vertex  3.000000e+000 -4.911109e+001 -3.830351e+000
      vertex  3.000000e+000 -4.898497e+001 -3.736817e+000
    endloop
  endfacet
  facet normal  0.000000e+000 -5.956970e-001  8.032092e-001
    outer loop
      vertex  0.000000e+000 -4.911109e+001 -3.830351e+000
      vertex  3.000000e+000 -4.898497e+001 -3.736817e+000
      vertex  0.000000e+000 -4.898497e+001 -3.736817e+000
    endloop
  endfacet
  facet normal  0.000000e+000 -6.715620e-001  7.409484e-001
    outer loop
      vertex  0.000000e+000 -4.898497e+001 -3.736817e+000
      vertex  3.000000e+000 -4.898497e+001 -3.736817e+000
      vertex  3.000000e+000 -4.886863e+001 -3.631371e+000
    endloop
  endfacet
  facet normal  0.000000e+000 -6.715620e-001  7.409484e-001
    outer loop
      vertex  0.000000e+000 -4.898497e+001 -3.736817e+000
      vertex  3.000000e+000 -4.886863e+001 -3.631371e+000
      vertex  0.000000e+000 -4.886863e+001 -3.631371e+000
    endloop
  endfacet
  facet normal  0.000000e+000 -7.409512e-001  6.715589e-001
    outer loop
      vertex  0.000000e+000 -4.886863e+001 -3.631371e+000
      vertex  3.000000e+000 -4.886863e+001 -3.631371e+000
      vertex  3.000000e+000 -4.876318e+001 -3.515029e+000
    endloop
  endfacet
  facet normal  0.000000e+000 -7.409512e-001  6.715589e-001
    outer loop
      vertex  0.000000e+000 -4.886863e+001 -3.631371e+000
      vertex  3.000000e+000 -4.876318e+001 -3.515029e+000
      vertex  0.000000e+000 -4.876318e+001 -3.515029e+000
    endloop
  endfacet
  facet normal  0.000000e+000 -8.032020e-001  5.957068e-001
    outer loop
      vertex  0.000000e+000 -4.876318e+001 -3.515029e+000
      vertex  3.000000e+000 -4.876318e+001 -3.515029e+000
      vertex  3.000000e+000 -4.866965e+001 -3.388912e+000
    endloop
  endfacet
  facet normal  0.000000e+000 -8.032020e-001  5.957068e-001
    outer loop
      vertex  0.000000e+000 -4.876318e+001 -3.515029e+000
      vertex  3.000000e+000 -4.866965e+001 -3.388912e+000
      vertex  0.000000e+000 -4.866965e+001 -3.388912e+000
    endloop
  endfacet
  facet normal  0.000000e+000 -8.577282e-001  5.141034e-001
    outer loop
      vertex  0.000000e+000 -4.866965e+001 -3.388912e+000
      vertex  3.000000e+000 -4.866965e+001 -3.388912e+000
      vertex  3.000000e+000 -4.858892e+001 -3.254235e+000
    endloop
  endfacet
  facet normal  0.000000e+000 -8.577282e-001  5.141034e-001
    outer loop
      vertex  0.000000e+000 -4.866965e+001 -3.388912e+000
      vertex  3.000000e+000 -4.858892e+001 -3.254235e+000
      vertex  0.000000e+000 -4.858892e+001 -3.254235e+000
    endloop
  endfacet
  facet normal  0.000000e+000 -9.039947e-001  4.275437e-001
    outer loop
      vertex  0.000000e+000 -4.858892e+001 -3.254235e+000
      vertex  3.000000e+000 -4.858892e+001 -3.254235e+000
      vertex  3.000000e+000 -4.852179e+001 -3.112293e+000
    endloop
  endfacet
  facet normal  0.000000e+000 -9.039947e-001  4.275437e-001
    outer loop
      vertex  0.000000e+000 -4.858892e+001 -3.254235e+000
      vertex  3.000000e+000 -4.852179e+001 -3.112293e+000
      vertex  0.000000e+000 -4.852179e+001 -3.112293e+000
    endloop
  endfacet
  facet normal  0.000000e+000 -9.415418e-001  3.368959e-001
    outer loop
      vertex  0.000000e+000 -4.852179e+001 -3.112293e+000
      vertex  3.000000e+000 -4.852179e+001 -3.112293e+000
      vertex  3.000000e+000 -4.846889e+001 -2.964455e+000
    endloop
  endfacet
  facet normal  0.000000e+000 -9.415418e-001  3.368959e-001
    outer loop
      vertex  0.000000e+000 -4.852179e+001 -3.112293e+000
      vertex  3.000000e+000 -4.846889e+001 -2.964455e+000
      vertex  0.000000e+000 -4.846889e+001 -2.964455e+000
    endloop
  endfacet
  facet normal  0.000000e+000 -9.700329e-001  2.429736e-001
    outer loop
      vertex  0.000000e+000 -4.846889e+001 -2.964455e+000
      vertex  3.000000e+000 -4.846889e+001 -2.964455e+000
      vertex  3.000000e+000 -4.843074e+001 -2.812145e+000
    endloop
  endfacet
  facet normal  0.000000e+000 -9.700329e-001  2.429736e-001
    outer loop
      vertex  0.000000e+000 -4.846889e+001 -2.964455e+000
      vertex  3.000000e+000 -4.843074e+001 -2.812145e+000
      vertex  0.000000e+000 -4.843074e+001 -2.812145e+000
    endloop
  endfacet
  facet normal  0.000000e+000 -9.891749e-001  1.467408e-001
    outer loop
      vertex  0.000000e+000 -4.843074e+001 -2.812145e+000
      vertex  3.000000e+000 -4.843074e+001 -2.812145e+000
      vertex  3.000000e+000 -4.840770e+001 -2.656827e+000
    endloop
  endfacet
  facet normal  0.000000e+000 -9.891749e-001  1.467408e-001
    outer loop
      vertex  0.000000e+000 -4.843074e+001 -2.812145e+000
      vertex  3.000000e+000 -4.840770e+001 -2.656827e+000
      vertex  0.000000e+000 -4.840770e+001 -2.656827e+000
    endloop
  endfacet
  facet normal  0.000000e+000 -9.987963e-001  4.905138e-002
    outer loop
      vertex  0.000000e+000 -4.840770e+001 -2.656827e+000
      vertex  3.000000e+000 -4.840770e+001 -2.656827e+000
      vertex  3.000000e+000 -4.840000e+001 -2.500000e+000
    endloop
  endfacet
  facet normal  0.000000e+000 -9.987963e-001  4.905138e-002
    outer loop
      vertex  0.000000e+000 -4.840770e+001 -2.656827e+000
      vertex  3.000000e+000 -4.840000e+001 -2.500000e+000
      vertex  0.000000e+000 -4.840000e+001 -2.500000e+000
    endloop
  endfacet
  facet normal  0.000000e+000 -4.906697e-002  9.987955e-001
    outer loop
      vertex  3.000000e+000 -4.984317e+001 -4.092296e+000
      vertex  0.000000e+000 -5.000000e+001 -4.100000e+000
      vertex  3.000000e+000 -5.000000e+001 -4.100000e+000
    endloop
  endfacet
  facet normal  0.000000e+000  4.906697e-002  9.987955e-001
    outer loop
      vertex  3.000000e+000 -5.000000e+001 -4.100000e+000
      vertex  0.000000e+000 -5.000000e+001 -4.100000e+000
      vertex  0.000000e+000 -5.015683e+001 -4.092296e+000
    endloop
  endfacet
  facet normal  -0.000000e+000  4.906697e-002  9.987955e-001
    outer loop
      vertex  3.000000e+000 -5.000000e+001 -4.100000e+000
      vertex  0.000000e+000 -5.015683e+001 -4.092296e+000
      vertex  3.000000e+000 -5.015683e+001 -4.092296e+000
    endloop
  endfacet
  facet normal  0.000000e+000  1.467299e-001  9.891766e-001
    outer loop
      vertex  3.000000e+000 -5.015683e+001 -4.092296e+000
      vertex  0.000000e+000 -5.015683e+001 -4.092296e+000
      vertex  0.000000e+000 -5.031215e+001 -4.069256e+000
    endloop
  endfacet
  facet normal  -0.000000e+000  1.467299e-001  9.891766e-001
    outer loop
      vertex  3.000000e+000 -5.015683e+001 -4.092296e+000
      vertex  0.000000e+000 -5.031215e+001 -4.069256e+000
      vertex  3.000000e+000 -5.031215e+001 -4.069256e+000
    endloop
  endfacet
  facet normal  0.000000e+000  2.429815e-001  9.700308e-001
    outer loop
      vertex  3.000000e+000 -5.031215e+001 -4.069256e+000
      vertex  0.000000e+000 -5.031215e+001 -4.069256e+000
      vertex  0.000000e+000 -5.046445e+001 -4.031105e+000
    endloop
  endfacet
  facet normal  -0.000000e+000  2.429815e-001  9.700308e-001
    outer loop
      vertex  3.000000e+000 -5.031215e+001 -4.069256e+000
      vertex  0.000000e+000 -5.046445e+001 -4.031105e+000
      vertex  3.000000e+000 -5.046445e+001 -4.031105e+000
    endloop
  endfacet
  facet normal  0.000000e+000  3.368883e-001  9.415446e-001
    outer loop
      vertex  3.000000e+000 -5.046445e+001 -4.031105e+000
      vertex  0.000000e+000 -5.046445e+001 -4.031105e+000
      vertex  0.000000e+000 -5.061229e+001 -3.978207e+000
    endloop
  endfacet
  facet normal  -0.000000e+000  3.368883e-001  9.415446e-001
    outer loop
      vertex  3.000000e+000 -5.046445e+001 -4.031105e+000
      vertex  0.000000e+000 -5.061229e+001 -3.978207e+000
      vertex  3.000000e+000 -5.061229e+001 -3.978207e+000
    endloop
  endfacet
  facet normal  0.000000e+000  4.275566e-001  9.039885e-001
    outer loop
      vertex  3.000000e+000 -5.061229e+001 -3.978207e+000
      vertex  0.000000e+000 -5.061229e+001 -3.978207e+000
      vertex  0.000000e+000 -5.075423e+001 -3.911074e+000
    endloop
  endfacet
  facet normal  -0.000000e+000  4.275566e-001  9.039885e-001
    outer loop
      vertex  3.000000e+000 -5.061229e+001 -3.978207e+000
      vertex  0.000000e+000 -5.075423e+001 -3.911074e+000
      vertex  3.000000e+000 -5.075423e+001 -3.911074e+000
    endloop
  endfacet
  facet normal  0.000000e+000  5.141016e-001  8.577293e-001
    outer loop
      vertex  3.000000e+000 -5.075423e+001 -3.911074e+000
      vertex  0.000000e+000 -5.075423e+001 -3.911074e+000
      vertex  0.000000e+000 -5.088891e+001 -3.830351e+000
    endloop
  endfacet
  facet normal  -0.000000e+000  5.141016e-001  8.577293e-001
    outer loop
      vertex  3.000000e+000 -5.075423e+001 -3.911074e+000
      vertex  0.000000e+000 -5.088891e+001 -3.830351e+000
      vertex  3.000000e+000 -5.088891e+001 -3.830351e+000
    endloop
  endfacet
  facet normal  0.000000e+000  5.956970e-001  8.032092e-001
    outer loop
      vertex  3.000000e+000 -5.088891e+001 -3.830351e+000
      vertex  0.000000e+000 -5.088891e+001 -3.830351e+000
      vertex  0.000000e+000 -5.101503e+001 -3.736817e+000
    endloop
  endfacet
  facet normal  -0.000000e+000  5.956970e-001  8.032092e-001
    outer loop
      vertex  3.000000e+000 -5.088891e+001 -3.830351e+000
      vertex  0.000000e+000 -5.101503e+001 -3.736817e+000
      vertex  3.000000e+000 -5.101503e+001 -3.736817e+000
    endloop
  endfacet
  facet normal  0.000000e+000  6.715620e-001  7.409484e-001
    outer loop
      vertex  3.000000e+000 -5.101503e+001 -3.736817e+000
      vertex  0.000000e+000 -5.101503e+001 -3.736817e+000
      vertex  0.000000e+000 -5.113137e+001 -3.631371e+000
    endloop
  endfacet
  facet normal  -0.000000e+000  6.715620e-001  7.409484e-001
    outer loop
      vertex  3.000000e+000 -5.101503e+001 -3.736817e+000
      vertex  0.000000e+000 -5.113137e+001 -3.631371e+000
      vertex  3.000000e+000 -5.113137e+001 -3.631371e+000
    endloop
  endfacet
  facet normal  0.000000e+000  7.409512e-001  6.715589e-001
    outer loop
      vertex  3.000000e+000 -5.113137e+001 -3.631371e+000
      vertex  0.000000e+000 -5.113137e+001 -3.631371e+000
      vertex  0.000000e+000 -5.123682e+001 -3.515029e+000
    endloop
  endfacet
  facet normal  -0.000000e+000  7.409512e-001  6.715589e-001
    outer loop
      vertex  3.000000e+000 -5.113137e+001 -3.631371e+000
      vertex  0.000000e+000 -5.123682e+001 -3.515029e+000
      vertex  3.000000e+000 -5.123682e+001 -3.515029e+000
    endloop
  endfacet
  facet normal  0.000000e+000  8.032020e-001  5.957068e-001
    outer loop
      vertex  3.000000e+000 -5.123682e+001 -3.515029e+000
      vertex  0.000000e+000 -5.123682e+001 -3.515029e+000
      vertex  0.000000e+000 -5.133035e+001 -3.388912e+000
    endloop
  endfacet
  facet normal  -0.000000e+000  8.032020e-001  5.957068e-001
    outer loop
      vertex  3.000000e+000 -5.123682e+001 -3.515029e+000
      vertex  0.000000e+000 -5.133035e+001 -3.388912e+000
      vertex  3.000000e+000 -5.133035e+001 -3.388912e+000
    endloop
  endfacet
  facet normal  0.000000e+000  8.577282e-001  5.141034e-001
    outer loop
      vertex  3.000000e+000 -5.133035e+001 -3.388912e+000
      vertex  0.000000e+000 -5.133035e+001 -3.388912e+000
      vertex  0.000000e+000 -5.141108e+001 -3.254235e+000
    endloop
  endfacet
  facet normal  -0.000000e+000  8.577282e-001  5.141034e-001
    outer loop
      vertex  3.000000e+000 -5.133035e+001 -3.388912e+000
      vertex  0.000000e+000 -5.141108e+001 -3.254235e+000
      vertex  3.000000e+000 -5.141108e+001 -3.254235e+000
    endloop
  endfacet
  facet normal  0.000000e+000  9.039947e-001  4.275437e-001
    outer loop
      vertex  3.000000e+000 -5.141108e+001 -3.254235e+000
      vertex  0.000000e+000 -5.141108e+001 -3.254235e+000
      vertex  0.000000e+000 -5.147821e+001 -3.112293e+000
    endloop
  endfacet
  facet normal  -0.000000e+000  9.039947e-001  4.275437e-001
    outer loop
      vertex  3.000000e+000 -5.141108e+001 -3.254235e+000
      vertex  0.000000e+000 -5.147821e+001 -3.112293e+000
      vertex  3.000000e+000 -5.147821e+001 -3.112293e+000
    endloop
  endfacet
  facet normal  0.000000e+000  9.415418e-001  3.368959e-001
    outer loop
      vertex  3.000000e+000 -5.147821e+001 -3.112293e+000
      vertex  0.000000e+000 -5.147821e+001 -3.112293e+000
      vertex  0.000000e+000 -5.153111e+001 -2.964455e+000
    endloop
  endfacet
  facet normal  -0.000000e+000  9.415418e-001  3.368959e-001
    outer loop
      vertex  3.000000e+000 -5.147821e+001 -3.112293e+000
      vertex  0.000000e+000 -5.153111e+001 -2.964455e+000
      vertex  3.000000e+000 -5.153111e+001 -2.964455e+000
    endloop
  endfacet
  facet normal  0.000000e+000  9.700329e-001  2.429736e-001
    outer loop
      vertex  3.000000e+000 -5.153111e+001 -2.964455e+000
      vertex  0.000000e+000 -5.153111e+001 -2.964455e+000
      vertex  0.000000e+000 -5.156926e+001 -2.812145e+000
    endloop
  endfacet
  facet normal  -0.000000e+000  9.700329e-001  2.429736e-001
    outer loop
      vertex  3.000000e+000 -5.153111e+001 -2.964455e+000
      vertex  0.000000e+000 -5.156926e+001 -2.812145e+000
      vertex  3.000000e+000 -5.156926e+001 -2.812145e+000
    endloop
  endfacet
  facet normal  0.000000e+000  9.891749e-001  1.467408e-001
    outer loop
      vertex  3.000000e+000 -5.156926e+001 -2.812145e+000
      vertex  0.000000e+000 -5.156926e+001 -2.812145e+000
      vertex  0.000000e+000 -5.159230e+001 -2.656827e+000
    endloop
  endfacet
  facet normal  -0.000000e+000  9.891749e-001  1.467408e-001
    outer loop
      vertex  3.000000e+000 -5.156926e+001 -2.812145e+000
      vertex  0.000000e+000 -5.159230e+001 -2.656827e+000
      vertex  3.000000e+000 -5.159230e+001 -2.656827e+000
    endloop
  endfacet
  facet normal  0.000000e+000  9.987963e-001  4.905138e-002
    outer loop
      vertex  3.000000e+000 -5.159230e+001 -2.656827e+000
      vertex  0.000000e+000 -5.159230e+001 -2.656827e+000
      vertex  0.000000e+000 -5.160000e+001 -2.500000e+000
    endloop
  endfacet
  facet normal  -0.000000e+000  9.987963e-001  4.905138e-002
    outer loop
      vertex  3.000000e+000 -5.159230e+001 -2.656827e+000
      vertex  0.000000e+000 -5.160000e+001 -2.500000e+000
      vertex  3.000000e+000 -5.160000e+001 -2.500000e+000
    endloop
  endfacet
  facet normal  0.000000e+000  4.906811e-002 -9.987955e-001
    outer loop
      vertex  0.000000e+000 -5.000000e+001 -9.000000e-001
      vertex  3.000000e+000 -5.015683e+001 -9.077044e-001
      vertex  0.000000e+000 -5.015683e+001 -9.077044e-001
    endloop
  endfacet
  facet normal  0.000000e+000  1.467288e-001 -9.891767e-001
    outer loop
      vertex  0.000000e+000 -5.015683e+001 -9.077044e-001
      vertex  3.000000e+000 -5.015683e+001 -9.077044e-001
      vertex  3.000000e+000 -5.031215e+001 -9.307436e-001
    endloop
  endfacet
  facet normal  0.000000e+000  1.467288e-001 -9.891767e-001
    outer loop
      vertex  0.000000e+000 -5.015683e+001 -9.077044e-001
      vertex  3.000000e+000 -5.031215e+001 -9.307436e-001
      vertex  0.000000e+000 -5.031215e+001 -9.307436e-001
    endloop
  endfacet
  facet normal  0.000000e+000  2.429822e-001 -9.700307e-001
    outer loop
      vertex  0.000000e+000 -5.031215e+001 -9.307436e-001
      vertex  3.000000e+000 -5.031215e+001 -9.307436e-001
      vertex  3.000000e+000 -5.046445e+001 -9.688954e-001
    endloop
  endfacet
  facet normal  0.000000e+000  2.429822e-001 -9.700307e-001
    outer loop
      vertex  0.000000e+000 -5.031215e+001 -9.307436e-001
      vertex  3.000000e+000 -5.046445e+001 -9.688954e-001
      vertex  0.000000e+000 -5.046445e+001 -9.688954e-001
    endloop
  endfacet
  facet normal  0.000000e+000  3.368890e-001 -9.415444e-001
    outer loop
      vertex  0.000000e+000 -5.046445e+001 -9.688954e-001
      vertex  3.000000e+000 -5.046445e+001 -9.688954e-001
      vertex  3.000000e+000 -5.061229e+001 -1.021793e+000
    endloop
  endfacet
  facet normal  0.000000e+000  3.368890e-001 -9.415444e-001
    outer loop
      vertex  0.000000e+000 -5.046445e+001 -9.688954e-001
      vertex  3.000000e+000 -5.061229e+001 -1.021793e+000
      vertex  0.000000e+000 -5.061229e+001 -1.021793e+000
    endloop
  endfacet
  facet normal  0.000000e+000  4.275554e-001 -9.039891e-001
    outer loop
      vertex  0.000000e+000 -5.061229e+001 -1.021793e+000
      vertex  3.000000e+000 -5.061229e+001 -1.021793e+000
      vertex  3.000000e+000 -5.075423e+001 -1.088926e+000
    endloop
  endfacet
  facet normal  0.000000e+000  4.275554e-001 -9.039891e-001
    outer loop
      vertex  0.000000e+000 -5.061229e+001 -1.021793e+000
      vertex  3.000000e+000 -5.075423e+001 -1.088926e+000
      vertex  0.000000e+000 -5.075423e+001 -1.088926e+000
    endloop
  endfacet
  facet normal  0.000000e+000  5.141021e-001 -8.577290e-001
    outer loop
      vertex  0.000000e+000 -5.075423e+001 -1.088926e+000
      vertex  3.000000e+000 -5.075423e+001 -1.088926e+000
      vertex  3.000000e+000 -5.088891e+001 -1.169649e+000
    endloop
  endfacet
  facet normal  0.000000e+000  5.141021e-001 -8.577290e-001
    outer loop
      vertex  0.000000e+000 -5.075423e+001 -1.088926e+000
      vertex  3.000000e+000 -5.088891e+001 -1.169649e+000
      vertex  0.000000e+000 -5.088891e+001 -1.169649e+000
    endloop
  endfacet
  facet normal  0.000000e+000  5.956966e-001 -8.032096e-001
    outer loop
      vertex  0.000000e+000 -5.088891e+001 -1.169649e+000
      vertex  3.000000e+000 -5.088891e+001 -1.169649e+000
      vertex  3.000000e+000 -5.101503e+001 -1.263183e+000
    endloop
  endfacet
  facet normal  0.000000e+000  5.956966e-001 -8.032096e-001
    outer loop
      vertex  0.000000e+000 -5.088891e+001 -1.169649e+000
      vertex  3.000000e+000 -5.101503e+001 -1.263183e+000
      vertex  0.000000e+000 -5.101503e+001 -1.263183e+000
    endloop
  endfacet
  facet normal  0.000000e+000  6.715620e-001 -7.409484e-001
    outer loop
      vertex  0.000000e+000 -5.101503e+001 -1.263183e+000
      vertex  3.000000e+000 -5.101503e+001 -1.263183e+000
      vertex  3.000000e+000 -5.113137e+001 -1.368629e+000
    endloop
  endfacet
  facet normal  0.000000e+000  6.715620e-001 -7.409484e-001
    outer loop
      vertex  0.000000e+000 -5.101503e+001 -1.263183e+000
      vertex  3.000000e+000 -5.113137e+001 -1.368629e+000
      vertex  0.000000e+000 -5.113137e+001 -1.368629e+000
    endloop
  endfacet
  facet normal  0.000000e+000  7.409512e-001 -6.715589e-001
    outer loop
      vertex  0.000000e+000 -5.113137e+001 -1.368629e+000
      vertex  3.000000e+000 -5.113137e+001 -1.368629e+000
      vertex  3.000000e+000 -5.123682e+001 -1.484971e+000
    endloop
  endfacet
  facet normal  0.000000e+000  7.409512e-001 -6.715589e-001
    outer loop
      vertex  0.000000e+000 -5.113137e+001 -1.368629e+000
      vertex  3.000000e+000 -5.123682e+001 -1.484971e+000
      vertex  0.000000e+000 -5.123682e+001 -1.484971e+000
    endloop
  endfacet
  facet normal  0.000000e+000  8.032026e-001 -5.957060e-001
    outer loop
      vertex  0.000000e+000 -5.123682e+001 -1.484971e+000
      vertex  3.000000e+000 -5.123682e+001 -1.484971e+000
      vertex  3.000000e+000 -5.133035e+001 -1.611088e+000
    endloop
  endfacet
  facet normal  0.000000e+000  8.032026e-001 -5.957060e-001
    outer loop
      vertex  0.000000e+000 -5.123682e+001 -1.484971e+000
      vertex  3.000000e+000 -5.133035e+001 -1.611088e+000
      vertex  0.000000e+000 -5.133035e+001 -1.611088e+000
    endloop
  endfacet
  facet normal  0.000000e+000  8.577280e-001 -5.141037e-001
    outer loop
      vertex  0.000000e+000 -5.133035e+001 -1.611088e+000
      vertex  3.000000e+000 -5.133035e+001 -1.611088e+000
      vertex  3.000000e+000 -5.141108e+001 -1.745765e+000
    endloop
  endfacet
  facet normal  0.000000e+000  8.577280e-001 -5.141037e-001
    outer loop
      vertex  0.000000e+000 -5.133035e+001 -1.611088e+000
      vertex  3.000000e+000 -5.141108e+001 -1.745765e+000
      vertex  0.000000e+000 -5.141108e+001 -1.745765e+000
    endloop
  endfacet
  facet normal  0.000000e+000  9.039947e-001 -4.275437e-001
    outer loop
      vertex  0.000000e+000 -5.141108e+001 -1.745765e+000
      vertex  3.000000e+000 -5.141108e+001 -1.745765e+000
      vertex  3.000000e+000 -5.147821e+001 -1.887707e+000
    endloop
  endfacet
  facet normal  0.000000e+000  9.039947e-001 -4.275437e-001
    outer loop
      vertex  0.000000e+000 -5.141108e+001 -1.745765e+000
      vertex  3.000000e+000 -5.147821e+001 -1.887707e+000
      vertex  0.000000e+000 -5.147821e+001 -1.887707e+000
    endloop
  endfacet
  facet normal  0.000000e+000  9.415418e-001 -3.368959e-001
    outer loop
      vertex  0.000000e+000 -5.147821e+001 -1.887707e+000
      vertex  3.000000e+000 -5.147821e+001 -1.887707e+000
      vertex  3.000000e+000 -5.153111e+001 -2.035545e+000
    endloop
  endfacet
  facet normal  0.000000e+000  9.415418e-001 -3.368959e-001
    outer loop
      vertex  0.000000e+000 -5.147821e+001 -1.887707e+000
      vertex  3.000000e+000 -5.153111e+001 -2.035545e+000
      vertex  0.000000e+000 -5.153111e+001 -2.035545e+000
    endloop
  endfacet
  facet normal  0.000000e+000  9.700329e-001 -2.429736e-001
    outer loop
      vertex  0.000000e+000 -5.153111e+001 -2.035545e+000
      vertex  3.000000e+000 -5.153111e+001 -2.035545e+000
      vertex  3.000000e+000 -5.156926e+001 -2.187855e+000
    endloop
  endfacet
  facet normal  0.000000e+000  9.700329e-001 -2.429736e-001
    outer loop
      vertex  0.000000e+000 -5.153111e+001 -2.035545e+000
      vertex  3.000000e+000 -5.156926e+001 -2.187855e+000
      vertex  0.000000e+000 -5.156926e+001 -2.187855e+000
    endloop
  endfacet
  facet normal  0.000000e+000  9.891749e-001 -1.467408e-001
    outer loop
      vertex  0.000000e+000 -5.156926e+001 -2.187855e+000
      vertex  3.000000e+000 -5.156926e+001 -2.187855e+000
      vertex  3.000000e+000 -5.159230e+001 -2.343173e+000
    endloop
  endfacet
  facet normal  0.000000e+000  9.891749e-001 -1.467408e-001
    outer loop
      vertex  0.000000e+000 -5.156926e+001 -2.187855e+000
      vertex  3.000000e+000 -5.159230e+001 -2.343173e+000
      vertex  0.000000e+000 -5.159230e+001 -2.343173e+000
    endloop
  endfacet
  facet normal  0.000000e+000  9.987963e-001 -4.905138e-002
    outer loop
      vertex  0.000000e+000 -5.159230e+001 -2.343173e+000
      vertex  3.000000e+000 -5.159230e+001 -2.343173e+000
      vertex  3.000000e+000 -5.160000e+001 -2.500000e+000
    endloop
  endfacet
  facet normal  0.000000e+000  9.987963e-001 -4.905138e-002
    outer loop
      vertex  0.000000e+000 -5.159230e+001 -2.343173e+000
      vertex  3.000000e+000 -5.160000e+001 -2.500000e+000
      vertex  0.000000e+000 -5.160000e+001 -2.500000e+000
    endloop
  endfacet
  facet normal  0.000000e+000  4.906811e-002 -9.987955e-001
    outer loop
      vertex  3.000000e+000 -5.015683e+001 -9.077044e-001
      vertex  0.000000e+000 -5.000000e+001 -9.000000e-001
      vertex  3.000000e+000 -5.000000e+001 -9.000000e-001
    endloop
  endfacet
  facet normal  -0.000000e+000 -4.906811e-002 -9.987955e-001
    outer loop
      vertex  3.000000e+000 -5.000000e+001 -9.000000e-001
      vertex  0.000000e+000 -5.000000e+001 -9.000000e-001
      vertex  0.000000e+000 -4.984317e+001 -9.077044e-001
    endloop
  endfacet
  facet normal  0.000000e+000 -4.906811e-002 -9.987955e-001
    outer loop
      vertex  3.000000e+000 -5.000000e+001 -9.000000e-001
      vertex  0.000000e+000 -4.984317e+001 -9.077044e-001
      vertex  3.000000e+000 -4.984317e+001 -9.077044e-001
    endloop
  endfacet
  facet normal  -0.000000e+000 -1.467288e-001 -9.891767e-001
    outer loop
      vertex  3.000000e+000 -4.984317e+001 -9.077044e-001
      vertex  0.000000e+000 -4.984317e+001 -9.077044e-001
      vertex  0.000000e+000 -4.968785e+001 -9.307436e-001
    endloop
  endfacet
  facet normal  0.000000e+000 -1.467288e-001 -9.891767e-001
    outer loop
      vertex  3.000000e+000 -4.984317e+001 -9.077044e-001
      vertex  0.000000e+000 -4.968785e+001 -9.307436e-001
      vertex  3.000000e+000 -4.968785e+001 -9.307436e-001
    endloop
  endfacet
  facet normal  -0.000000e+000 -2.429822e-001 -9.700307e-001
    outer loop
      vertex  3.000000e+000 -4.968785e+001 -9.307436e-001
      vertex  0.000000e+000 -4.968785e+001 -9.307436e-001
      vertex  0.000000e+000 -4.953555e+001 -9.688954e-001
    endloop
  endfacet
  facet normal  0.000000e+000 -2.429822e-001 -9.700307e-001
    outer loop
      vertex  3.000000e+000 -4.968785e+001 -9.307436e-001
      vertex  0.000000e+000 -4.953555e+001 -9.688954e-001
      vertex  3.000000e+000 -4.953555e+001 -9.688954e-001
    endloop
  endfacet
  facet normal  -0.000000e+000 -3.368890e-001 -9.415444e-001
    outer loop
      vertex  3.000000e+000 -4.953555e+001 -9.688954e-001
      vertex  0.000000e+000 -4.953555e+001 -9.688954e-001
      vertex  0.000000e+000 -4.938771e+001 -1.021793e+000
    endloop
  endfacet
  facet normal  0.000000e+000 -3.368890e-001 -9.415444e-001
    outer loop
      vertex  3.000000e+000 -4.953555e+001 -9.688954e-001
      vertex  0.000000e+000 -4.938771e+001 -1.021793e+000
      vertex  3.000000e+000 -4.938771e+001 -1.021793e+000
    endloop
  endfacet
  facet normal  -0.000000e+000 -4.275554e-001 -9.039891e-001
    outer loop
      vertex  3.000000e+000 -4.938771e+001 -1.021793e+000
      vertex  0.000000e+000 -4.938771e+001 -1.021793e+000
      vertex  0.000000e+000 -4.924577e+001 -1.088926e+000
    endloop
  endfacet
  facet normal  0.000000e+000 -4.275554e-001 -9.039891e-001
    outer loop
      vertex  3.000000e+000 -4.938771e+001 -1.021793e+000
      vertex  0.000000e+000 -4.924577e+001 -1.088926e+000
      vertex  3.000000e+000 -4.924577e+001 -1.088926e+000
    endloop
  endfacet
  facet normal  -0.000000e+000 -5.141021e-001 -8.577290e-001
    outer loop
      vertex  3.000000e+000 -4.924577e+001 -1.088926e+000
      vertex  0.000000e+000 -4.924577e+001 -1.088926e+000
      vertex  0.000000e+000 -4.911109e+001 -1.169649e+000
    endloop
  endfacet
  facet normal  0.000000e+000 -5.141021e-001 -8.577290e-001
    outer loop
      vertex  3.000000e+000 -4.924577e+001 -1.088926e+000
      vertex  0.000000e+000 -4.911109e+001 -1.169649e+000
      vertex  3.000000e+000 -4.911109e+001 -1.169649e+000
    endloop
  endfacet
  facet normal  -0.000000e+000 -5.956966e-001 -8.032096e-001
    outer loop
      vertex  3.000000e+000 -4.911109e+001 -1.169649e+000
      vertex  0.000000e+000 -4.911109e+001 -1.169649e+000
      vertex  0.000000e+000 -4.898497e+001 -1.263183e+000
    endloop
  endfacet
  facet normal  0.000000e+000 -5.956966e-001 -8.032096e-001
    outer loop
      vertex  3.000000e+000 -4.911109e+001 -1.169649e+000
      vertex  0.000000e+000 -4.898497e+001 -1.263183e+000
      vertex  3.000000e+000 -4.898497e+001 -1.263183e+000
    endloop
  endfacet
  facet normal  -0.000000e+000 -6.715620e-001 -7.409484e-001
    outer loop
      vertex  3.000000e+000 -4.898497e+001 -1.263183e+000
      vertex  0.000000e+000 -4.898497e+001 -1.263183e+000
      vertex  0.000000e+000 -4.886863e+001 -1.368629e+000
    endloop
  endfacet
  facet normal  0.000000e+000 -6.715620e-001 -7.409484e-001
    outer loop
      vertex  3.000000e+000 -4.898497e+001 -1.263183e+000
      vertex  0.000000e+000 -4.886863e+001 -1.368629e+000
      vertex  3.000000e+000 -4.886863e+001 -1.368629e+000
    endloop
  endfacet
  facet normal  -0.000000e+000 -7.409512e-001 -6.715589e-001
    outer loop
      vertex  3.000000e+000 -4.886863e+001 -1.368629e+000
      vertex  0.000000e+000 -4.886863e+001 -1.368629e+000
      vertex  0.000000e+000 -4.876318e+001 -1.484971e+000
    endloop
  endfacet
  facet normal  0.000000e+000 -7.409512e-001 -6.715589e-001
    outer loop
      vertex  3.000000e+000 -4.886863e+001 -1.368629e+000
      vertex  0.000000e+000 -4.876318e+001 -1.484971e+000
      vertex  3.000000e+000 -4.876318e+001 -1.484971e+000
    endloop
  endfacet
  facet normal  -0.000000e+000 -8.032026e-001 -5.957060e-001
    outer loop
      vertex  3.000000e+000 -4.876318e+001 -1.484971e+000
      vertex  0.000000e+000 -4.876318e+001 -1.484971e+000
      vertex  0.000000e+000 -4.866965e+001 -1.611088e+000
    endloop
  endfacet
  facet normal  0.000000e+000 -8.032026e-001 -5.957060e-001
    outer loop
      vertex  3.000000e+000 -4.876318e+001 -1.484971e+000
      vertex  0.000000e+000 -4.866965e+001 -1.611088e+000
      vertex  3.000000e+000 -4.866965e+001 -1.611088e+000
    endloop
  endfacet
  facet normal  -0.000000e+000 -8.577280e-001 -5.141037e-001
    outer loop
      vertex  3.000000e+000 -4.866965e+001 -1.611088e+000
      vertex  0.000000e+000 -4.866965e+001 -1.611088e+000
      vertex  0.000000e+000 -4.858892e+001 -1.745765e+000
    endloop
  endfacet
  facet normal  0.000000e+000 -8.577280e-001 -5.141037e-001
    outer loop
      vertex  3.000000e+000 -4.866965e+001 -1.611088e+000
      vertex  0.000000e+000 -4.858892e+001 -1.745765e+000
      vertex  3.000000e+000 -4.858892e+001 -1.745765e+000
    endloop
  endfacet
  facet normal  -0.000000e+000 -9.039947e-001 -4.275437e-001
    outer loop
      vertex  3.000000e+000 -4.858892e+001 -1.745765e+000
      vertex  0.000000e+000 -4.858892e+001 -1.745765e+000
      vertex  0.000000e+000 -4.852179e+001 -1.887707e+000
    endloop
  endfacet
  facet normal  0.000000e+000 -9.039947e-001 -4.275437e-001
    outer loop
      vertex  3.000000e+000 -4.858892e+001 -1.745765e+000
      vertex  0.000000e+000 -4.852179e+001 -1.887707e+000
      vertex  3.000000e+000 -4.852179e+001 -1.887707e+000
    endloop
  endfacet
  facet normal  -0.000000e+000 -9.415418e-001 -3.368959e-001
    outer loop
      vertex  3.000000e+000 -4.852179e+001 -1.887707e+000
      vertex  0.000000e+000 -4.852179e+001 -1.887707e+000
      vertex  0.000000e+000 -4.846889e+001 -2.035545e+000
    endloop
  endfacet
  facet normal  0.000000e+000 -9.415418e-001 -3.368959e-001
    outer loop
      vertex  3.000000e+000 -4.852179e+001 -1.887707e+000
      vertex  0.000000e+000 -4.846889e+001 -2.035545e+000
      vertex  3.000000e+000 -4.846889e+001 -2.035545e+000
    endloop
  endfacet
  facet normal  -0.000000e+000 -9.700329e-001 -2.429736e-001
    outer loop
      vertex  3.000000e+000 -4.846889e+001 -2.035545e+000
      vertex  0.000000e+000 -4.846889e+001 -2.035545e+000
      vertex  0.000000e+000 -4.843074e+001 -2.187855e+000
    endloop
  endfacet
  facet normal  0.000000e+000 -9.700329e-001 -2.429736e-001
    outer loop
      vertex  3.000000e+000 -4.846889e+001 -2.035545e+000
      vertex  0.000000e+000 -4.843074e+001 -2.187855e+000
      vertex  3.000000e+000 -4.843074e+001 -2.187855e+000
    endloop
  endfacet
  facet normal  -0.000000e+000 -9.891749e-001 -1.467408e-001
    outer loop
      vertex  3.000000e+000 -4.843074e+001 -2.187855e+000
      vertex  0.000000e+000 -4.843074e+001 -2.187855e+000
      vertex  0.000000e+000 -4.840770e+001 -2.343173e+000
    endloop
  endfacet
  facet normal  0.000000e+000 -9.891749e-001 -1.467408e-001
    outer loop
      vertex  3.000000e+000 -4.843074e+001 -2.187855e+000
      vertex  0.000000e+000 -4.840770e+001 -2.343173e+000
      vertex  3.000000e+000 -4.840770e+001 -2.343173e+000
    endloop
  endfacet
  facet normal  -0.000000e+000 -9.987963e-001 -4.905138e-002
    outer loop
      vertex  3.000000e+000 -4.840770e+001 -2.343173e+000
      vertex  0.000000e+000 -4.840770e+001 -2.343173e+000
      vertex  0.000000e+000 -4.840000e+001 -2.500000e+000
    endloop
  endfacet
  facet normal  0.000000e+000 -9.987963e-001 -4.905138e-002
    outer loop
      vertex  3.000000e+000 -4.840770e+001 -2.343173e+000
      vertex  0.000000e+000 -4.840000e+001 -2.500000e+000
      vertex  3.000000e+000 -4.840000e+001 -2.500000e+000
    endloop
  endfacet
  facet normal  1.000000e+000  -0.000000e+000  0.000000e+000
    outer loop
      vertex  5.000000e+000 -4.647816e+001 -2.500000e+000
      vertex  5.000000e+000 -4.823908e+001 -5.550000e+000
      vertex  5.000000e+000 -1.255000e+001 -1.255000e+001
    endloop
  endfacet
  facet normal  1.000000e+000  0.000000e+000  0.000000e+000
    outer loop
      vertex  5.000000e+000 -5.500000e+001 -1.255000e+001
      vertex  5.000000e+000 -1.255000e+001 -1.255000e+001
      vertex  5.000000e+000 -4.823908e+001 -5.550000e+000
    endloop
  endfacet
  facet normal  1.000000e+000  0.000000e+000  0.000000e+000
    outer loop
      vertex  5.000000e+000 -5.500000e+001 -1.255000e+001
      vertex  5.000000e+000 -4.823908e+001 -5.550000e+000
      vertex  5.000000e+000 -5.176092e+001 -5.550000e+000
    endloop
  endfacet
  facet normal  1.000000e+000  0.000000e+000  0.000000e+000
    outer loop
      vertex  5.000000e+000 -5.500000e+001 -1.255000e+001
      vertex  5.000000e+000 -5.176092e+001 -5.550000e+000
      vertex  5.000000e+000 -5.352184e+001 -2.500000e+000
    endloop
  endfacet
  facet normal  1.000000e+000  0.000000e+000  0.000000e+000
    outer loop
      vertex  5.000000e+000 -5.500000e+001 -1.255000e+001
      vertex  5.000000e+000 -5.352184e+001 -2.500000e+000
      vertex  5.000000e+000 -5.500000e+001  2.550000e+000
    endloop
  endfacet
  facet normal  1.000000e+000  0.000000e+000  0.000000e+000
    outer loop
      vertex  5.000000e+000 -4.647816e+001 -2.500000e+000
      vertex  5.000000e+000 -1.255000e+001 -1.255000e+001
      vertex  5.000000e+000 -4.823908e+001  5.500000e-001
    endloop
  endfacet
  facet normal  1.000000e+000  -0.000000e+000  0.000000e+000
    outer loop
      vertex  5.000000e+000 -4.823908e+001  5.500000e-001
      vertex  5.000000e+000 -1.255000e+001 -1.255000e+001
      vertex  5.000000e+000 -1.255000e+001  2.550000e+000
    endloop
  endfacet
  facet normal  9.999999e-001  0.000000e+000  0.000000e+000
    outer loop
      vertex  5.000000e+000 -4.823908e+001  5.500000e-001
      vertex  5.000000e+000 -1.255000e+001  2.550000e+000
      vertex  5.000000e+000 -5.176092e+001  5.500000e-001
    endloop
  endfacet
  facet normal  1.000000e+000  0.000000e+000  -0.000000e+000
    outer loop
      vertex  5.000000e+000 -5.176092e+001  5.500000e-001
      vertex  5.000000e+000 -1.255000e+001  2.550000e+000
      vertex  5.000000e+000 -5.500000e+001  2.550000e+000
    endloop
  endfacet
  facet normal  1.000000e+000  0.000000e+000  0.000000e+000
    outer loop
      vertex  5.000000e+000 -5.176092e+001  5.500000e-001
      vertex  5.000000e+000 -5.500000e+001  2.550000e+000
      vertex  5.000000e+000 -5.352184e+001 -2.500000e+000
    endloop
  endfacet
  facet normal  1.000000e+000  0.000000e+000  0.000000e+000
    outer loop
      vertex  3.000000e+000 -5.176092e+001  5.500000e-001
      vertex  3.000000e+000 -5.352184e+001 -2.500000e+000
      vertex  3.000000e+000 -5.075423e+001 -1.088926e+000
    endloop
  endfacet
  facet normal  1.000000e+000  0.000000e+000  -0.000000e+000
    outer loop
      vertex  3.000000e+000 -5.176092e+001  5.500000e-001
      vertex  3.000000e+000 -5.075423e+001 -1.088926e+000
      vertex  3.000000e+000 -5.061229e+001 -1.021793e+000
    endloop
  endfacet
  facet normal  1.000000e+000  0.000000e+000  -0.000000e+000
    outer loop
      vertex  3.000000e+000 -5.176092e+001  5.500000e-001
      vertex  3.000000e+000 -5.061229e+001 -1.021793e+000
      vertex  3.000000e+000 -5.046445e+001 -9.688954e-001
    endloop
  endfacet
  facet normal  1.000000e+000  0.000000e+000  -0.000000e+000
    outer loop
      vertex  3.000000e+000 -5.176092e+001  5.500000e-001
      vertex  3.000000e+000 -5.046445e+001 -9.688954e-001
      vertex  3.000000e+000 -5.031215e+001 -9.307436e-001
    endloop
  endfacet
  facet normal  1.000000e+000  0.000000e+000  -0.000000e+000
    outer loop
      vertex  3.000000e+000 -5.176092e+001  5.500000e-001
      vertex  3.000000e+000 -5.031215e+001 -9.307436e-001
      vertex  3.000000e+000 -5.015683e+001 -9.077044e-001
    endloop
  endfacet
  facet normal  1.000000e+000  0.000000e+000  -0.000000e+000
    outer loop
      vertex  3.000000e+000 -5.176092e+001  5.500000e-001
      vertex  3.000000e+000 -5.015683e+001 -9.077044e-001
      vertex  3.000000e+000 -5.000000e+001 -9.000000e-001
    endloop
  endfacet
  facet normal  1.000000e+000  0.000000e+000  -0.000000e+000
    outer loop
      vertex  3.000000e+000 -5.176092e+001  5.500000e-001
      vertex  3.000000e+000 -5.000000e+001 -9.000000e-001
      vertex  3.000000e+000 -4.823908e+001  5.500000e-001
    endloop
  endfacet
  facet normal  1.000000e+000  0.000000e+000  -0.000000e+000
    outer loop
      vertex  3.000000e+000 -5.352184e+001 -2.500000e+000
      vertex  3.000000e+000 -5.176092e+001 -5.550000e+000
      vertex  3.000000e+000 -5.159230e+001 -2.656827e+000
    endloop
  endfacet
  facet normal  1.000000e+000  0.000000e+000  0.000000e+000
    outer loop
      vertex  3.000000e+000 -5.352184e+001 -2.500000e+000
      vertex  3.000000e+000 -5.159230e+001 -2.656827e+000
      vertex  3.000000e+000 -5.160000e+001 -2.500000e+000
    endloop
  endfacet
  facet normal  1.000000e+000  0.000000e+000  -0.000000e+000
    outer loop
      vertex  3.000000e+000 -5.352184e+001 -2.500000e+000
      vertex  3.000000e+000 -5.160000e+001 -2.500000e+000
      vertex  3.000000e+000 -5.159230e+001 -2.343173e+000
    endloop
  endfacet
  facet normal  1.000000e+000  0.000000e+000  -0.000000e+000
    outer loop
      vertex  3.000000e+000 -5.352184e+001 -2.500000e+000
      vertex  3.000000e+000 -5.159230e+001 -2.343173e+000
      vertex  3.000000e+000 -5.156926e+001 -2.187855e+000
    endloop
  endfacet
  facet normal  1.000000e+000  0.000000e+000  -0.000000e+000
    outer loop
      vertex  3.000000e+000 -5.352184e+001 -2.500000e+000
      vertex  3.000000e+000 -5.156926e+001 -2.187855e+000
      vertex  3.000000e+000 -5.153111e+001 -2.035545e+000
    endloop
  endfacet
  facet normal  1.000000e+000  0.000000e+000  -0.000000e+000
    outer loop
      vertex  3.000000e+000 -5.352184e+001 -2.500000e+000
      vertex  3.000000e+000 -5.153111e+001 -2.035545e+000
      vertex  3.000000e+000 -5.147821e+001 -1.887707e+000
    endloop
  endfacet
  facet normal  1.000000e+000  0.000000e+000  -0.000000e+000
    outer loop
      vertex  3.000000e+000 -5.352184e+001 -2.500000e+000
      vertex  3.000000e+000 -5.147821e+001 -1.887707e+000
      vertex  3.000000e+000 -5.141108e+001 -1.745765e+000
    endloop
  endfacet
  facet normal  1.000000e+000  0.000000e+000  -0.000000e+000
    outer loop
      vertex  3.000000e+000 -5.352184e+001 -2.500000e+000
      vertex  3.000000e+000 -5.141108e+001 -1.745765e+000
      vertex  3.000000e+000 -5.133035e+001 -1.611088e+000
    endloop
  endfacet
  facet normal  1.000000e+000  0.000000e+000  -0.000000e+000
    outer loop
      vertex  3.000000e+000 -5.352184e+001 -2.500000e+000
      vertex  3.000000e+000 -5.133035e+001 -1.611088e+000
      vertex  3.000000e+000 -5.123682e+001 -1.484971e+000
    endloop
  endfacet
  facet normal  9.999999e-001  0.000000e+000  -0.000000e+000
    outer loop
      vertex  3.000000e+000 -5.352184e+001 -2.500000e+000
      vertex  3.000000e+000 -5.123682e+001 -1.484971e+000
      vertex  3.000000e+000 -5.113137e+001 -1.368629e+000
    endloop
  endfacet
  facet normal  1.000000e+000  0.000000e+000  -0.000000e+000
    outer loop
      vertex  3.000000e+000 -5.352184e+001 -2.500000e+000
      vertex  3.000000e+000 -5.113137e+001 -1.368629e+000
      vertex  3.000000e+000 -5.101503e+001 -1.263183e+000
    endloop
  endfacet
  facet normal  1.000000e+000  0.000000e+000  -0.000000e+000
    outer loop
      vertex  3.000000e+000 -5.352184e+001 -2.500000e+000
      vertex  3.000000e+000 -5.101503e+001 -1.263183e+000
      vertex  3.000000e+000 -5.088891e+001 -1.169649e+000
    endloop
  endfacet
  facet normal  1.000000e+000  0.000000e+000  -0.000000e+000
    outer loop
      vertex  3.000000e+000 -5.352184e+001 -2.500000e+000
      vertex  3.000000e+000 -5.088891e+001 -1.169649e+000
      vertex  3.000000e+000 -5.075423e+001 -1.088926e+000
    endloop
  endfacet
  facet normal  1.000000e+000  0.000000e+000  0.000000e+000
    outer loop
      vertex  3.000000e+000 -5.176092e+001 -5.550000e+000
      vertex  3.000000e+000 -4.823908e+001 -5.550000e+000
      vertex  3.000000e+000 -5.000000e+001 -4.100000e+000
    endloop
  endfacet
  facet normal  9.999999e-001  0.000000e+000  0.000000e+000
    outer loop
      vertex  3.000000e+000 -5.176092e+001 -5.550000e+000
      vertex  3.000000e+000 -5.000000e+001 -4.100000e+000
      vertex  3.000000e+000 -5.015683e+001 -4.092296e+000
    endloop
  endfacet
  facet normal  1.000000e+000  0.000000e+000  0.000000e+000
    outer loop
      vertex  3.000000e+000 -5.176092e+001 -5.550000e+000
      vertex  3.000000e+000 -5.015683e+001 -4.092296e+000
      vertex  3.000000e+000 -5.031215e+001 -4.069256e+000
    endloop
  endfacet
  facet normal  1.000000e+000  0.000000e+000  0.000000e+000
    outer loop
      vertex  3.000000e+000 -5.176092e+001 -5.550000e+000
      vertex  3.000000e+000 -5.031215e+001 -4.069256e+000
      vertex  3.000000e+000 -5.046445e+001 -4.031105e+000
    endloop
  endfacet
  facet normal  1.000000e+000  0.000000e+000  0.000000e+000
    outer loop
      vertex  3.000000e+000 -5.176092e+001 -5.550000e+000
      vertex  3.000000e+000 -5.046445e+001 -4.031105e+000
      vertex  3.000000e+000 -5.061229e+001 -3.978207e+000
    endloop
  endfacet
  facet normal  1.000000e+000  0.000000e+000  0.000000e+000
    outer loop
      vertex  3.000000e+000 -5.176092e+001 -5.550000e+000
      vertex  3.000000e+000 -5.061229e+001 -3.978207e+000
      vertex  3.000000e+000 -5.075423e+001 -3.911074e+000
    endloop
  endfacet
  facet normal  1.000000e+000  0.000000e+000  0.000000e+000
    outer loop
      vertex  3.000000e+000 -5.176092e+001 -5.550000e+000
      vertex  3.000000e+000 -5.075423e+001 -3.911074e+000
      vertex  3.000000e+000 -5.088891e+001 -3.830351e+000
    endloop
  endfacet
  facet normal  1.000000e+000  0.000000e+000  0.000000e+000
    outer loop
      vertex  3.000000e+000 -5.176092e+001 -5.550000e+000
      vertex  3.000000e+000 -5.088891e+001 -3.830351e+000
      vertex  3.000000e+000 -5.101503e+001 -3.736817e+000
    endloop
  endfacet
  facet normal  1.000000e+000  0.000000e+000  0.000000e+000
    outer loop
      vertex  3.000000e+000 -5.176092e+001 -5.550000e+000
      vertex  3.000000e+000 -5.101503e+001 -3.736817e+000
      vertex  3.000000e+000 -5.113137e+001 -3.631371e+000
    endloop
  endfacet
  facet normal  1.000000e+000  0.000000e+000  0.000000e+000
    outer loop
      vertex  3.000000e+000 -5.176092e+001 -5.550000e+000
      vertex  3.000000e+000 -5.113137e+001 -3.631371e+000
      vertex  3.000000e+000 -5.123682e+001 -3.515029e+000
    endloop
  endfacet
  facet normal  1.000000e+000  0.000000e+000  0.000000e+000
    outer loop
      vertex  3.000000e+000 -5.176092e+001 -5.550000e+000
      vertex  3.000000e+000 -5.123682e+001 -3.515029e+000
      vertex  3.000000e+000 -5.133035e+001 -3.388912e+000
    endloop
  endfacet
  facet normal  9.999999e-001  0.000000e+000  0.000000e+000
    outer loop
      vertex  3.000000e+000 -5.176092e+001 -5.550000e+000
      vertex  3.000000e+000 -5.133035e+001 -3.388912e+000
      vertex  3.000000e+000 -5.141108e+001 -3.254235e+000
    endloop
  endfacet
  facet normal  1.000000e+000  0.000000e+000  0.000000e+000
    outer loop
      vertex  3.000000e+000 -5.176092e+001 -5.550000e+000
      vertex  3.000000e+000 -5.141108e+001 -3.254235e+000
      vertex  3.000000e+000 -5.147821e+001 -3.112293e+000
    endloop
  endfacet
  facet normal  9.999999e-001  0.000000e+000  0.000000e+000
    outer loop
      vertex  3.000000e+000 -5.176092e+001 -5.550000e+000
      vertex  3.000000e+000 -5.147821e+001 -3.112293e+000
      vertex  3.000000e+000 -5.153111e+001 -2.964455e+000
    endloop
  endfacet
  facet normal  9.999999e-001  0.000000e+000  0.000000e+000
    outer loop
      vertex  3.000000e+000 -5.176092e+001 -5.550000e+000
      vertex  3.000000e+000 -5.153111e+001 -2.964455e+000
      vertex  3.000000e+000 -5.156926e+001 -2.812145e+000
    endloop
  endfacet
  facet normal  1.000000e+000  0.000000e+000  0.000000e+000
    outer loop
      vertex  3.000000e+000 -5.176092e+001 -5.550000e+000
      vertex  3.000000e+000 -5.156926e+001 -2.812145e+000
      vertex  3.000000e+000 -5.159230e+001 -2.656827e+000
    endloop
  endfacet
  facet normal  1.000000e+000  0.000000e+000  0.000000e+000
    outer loop
      vertex  3.000000e+000 -4.647816e+001 -2.500000e+000
      vertex  3.000000e+000 -4.924577e+001 -1.088926e+000
      vertex  3.000000e+000 -4.911109e+001 -1.169649e+000
    endloop
  endfacet
  facet normal  1.000000e+000  0.000000e+000  0.000000e+000
    outer loop
      vertex  3.000000e+000 -4.647816e+001 -2.500000e+000
      vertex  3.000000e+000 -4.911109e+001 -1.169649e+000
      vertex  3.000000e+000 -4.898497e+001 -1.263183e+000
    endloop
  endfacet
  facet normal  1.000000e+000  0.000000e+000  0.000000e+000
    outer loop
      vertex  3.000000e+000 -4.647816e+001 -2.500000e+000
      vertex  3.000000e+000 -4.898497e+001 -1.263183e+000
      vertex  3.000000e+000 -4.886863e+001 -1.368629e+000
    endloop
  endfacet
  facet normal  9.999999e-001  0.000000e+000  0.000000e+000
    outer loop
      vertex  3.000000e+000 -4.647816e+001 -2.500000e+000
      vertex  3.000000e+000 -4.886863e+001 -1.368629e+000
      vertex  3.000000e+000 -4.876318e+001 -1.484971e+000
    endloop
  endfacet
  facet normal  1.000000e+000  0.000000e+000  0.000000e+000
    outer loop
      vertex  3.000000e+000 -4.647816e+001 -2.500000e+000
      vertex  3.000000e+000 -4.876318e+001 -1.484971e+000
      vertex  3.000000e+000 -4.866965e+001 -1.611088e+000
    endloop
  endfacet
  facet normal  1.000000e+000  0.000000e+000  0.000000e+000
    outer loop
      vertex  3.000000e+000 -4.647816e+001 -2.500000e+000
      vertex  3.000000e+000 -4.866965e+001 -1.611088e+000
      vertex  3.000000e+000 -4.858892e+001 -1.745765e+000
    endloop
  endfacet
  facet normal  1.000000e+000  0.000000e+000  0.000000e+000
    outer loop
      vertex  3.000000e+000 -4.647816e+001 -2.500000e+000
      vertex  3.000000e+000 -4.858892e+001 -1.745765e+000
      vertex  3.000000e+000 -4.852179e+001 -1.887707e+000
    endloop
  endfacet
  facet normal  1.000000e+000  0.000000e+000  0.000000e+000
    outer loop
      vertex  3.000000e+000 -4.647816e+001 -2.500000e+000
      vertex  3.000000e+000 -4.852179e+001 -1.887707e+000
      vertex  3.000000e+000 -4.846889e+001 -2.035545e+000
    endloop
  endfacet
  facet normal  1.000000e+000  0.000000e+000  0.000000e+000
    outer loop
      vertex  3.000000e+000 -4.647816e+001 -2.500000e+000
      vertex  3.000000e+000 -4.846889e+001 -2.035545e+000
      vertex  3.000000e+000 -4.843074e+001 -2.187855e+000
    endloop
  endfacet
  facet normal  1.000000e+000  0.000000e+000  0.000000e+000
    outer loop
      vertex  3.000000e+000 -4.647816e+001 -2.500000e+000
      vertex  3.000000e+000 -4.843074e+001 -2.187855e+000
      vertex  3.000000e+000 -4.840770e+001 -2.343173e+000
    endloop
  endfacet
  facet normal  1.000000e+000  0.000000e+000  0.000000e+000
    outer loop
      vertex  3.000000e+000 -4.647816e+001 -2.500000e+000
      vertex  3.000000e+000 -4.840770e+001 -2.343173e+000
      vertex  3.000000e+000 -4.840000e+001 -2.500000e+000
    endloop
  endfacet
  facet normal  1.000000e+000  -0.000000e+000  0.000000e+000
    outer loop
      vertex  3.000000e+000 -4.647816e+001 -2.500000e+000
      vertex  3.000000e+000 -4.840000e+001 -2.500000e+000
      vertex  3.000000e+000 -4.840770e+001 -2.656827e+000
    endloop
  endfacet
  facet normal  1.000000e+000  -0.000000e+000  0.000000e+000
    outer loop
      vertex  3.000000e+000 -4.647816e+001 -2.500000e+000
      vertex  3.000000e+000 -4.840770e+001 -2.656827e+000
      vertex  3.000000e+000 -4.823908e+001 -5.550000e+000
    endloop
  endfacet
  facet normal  1.000000e+000  -0.000000e+000  0.000000e+000
    outer loop
      vertex  3.000000e+000 -4.823908e+001  5.500000e-001
      vertex  3.000000e+000 -5.000000e+001 -9.000000e-001
      vertex  3.000000e+000 -4.984317e+001 -9.077044e-001
    endloop
  endfacet
  facet normal  1.000000e+000  -0.000000e+000  0.000000e+000
    outer loop
      vertex  3.000000e+000 -4.823908e+001  5.500000e-001
      vertex  3.000000e+000 -4.984317e+001 -9.077044e-001
      vertex  3.000000e+000 -4.968785e+001 -9.307436e-001
    endloop
  endfacet
  facet normal  1.000000e+000  -0.000000e+000  0.000000e+000
    outer loop
      vertex  3.000000e+000 -4.823908e+001  5.500000e-001
      vertex  3.000000e+000 -4.968785e+001 -9.307436e-001
      vertex  3.000000e+000 -4.953555e+001 -9.688954e-001
    endloop
  endfacet
  facet normal  1.000000e+000  -0.000000e+000  0.000000e+000
    outer loop
      vertex  3.000000e+000 -4.823908e+001  5.500000e-001
      vertex  3.000000e+000 -4.953555e+001 -9.688954e-001
      vertex  3.000000e+000 -4.938771e+001 -1.021793e+000
    endloop
  endfacet
  facet normal  1.000000e+000  -0.000000e+000  0.000000e+000
    outer loop
      vertex  3.000000e+000 -4.823908e+001  5.500000e-001
      vertex  3.000000e+000 -4.938771e+001 -1.021793e+000
      vertex  3.000000e+000 -4.924577e+001 -1.088926e+000
    endloop
  endfacet
  facet normal  1.000000e+000  -0.000000e+000  0.000000e+000
    outer loop
      vertex  3.000000e+000 -4.823908e+001  5.500000e-001
      vertex  3.000000e+000 -4.924577e+001 -1.088926e+000
      vertex  3.000000e+000 -4.647816e+001 -2.500000e+000
    endloop
  endfacet
  facet normal  1.000000e+000  0.000000e+000  0.000000e+000
    outer loop
      vertex  3.000000e+000 -4.823908e+001 -5.550000e+000
      vertex  3.000000e+000 -4.840770e+001 -2.656827e+000
      vertex  3.000000e+000 -4.843074e+001 -2.812145e+000
    endloop
  endfacet
  facet normal  9.999999e-001  0.000000e+000  0.000000e+000
    outer loop
      vertex  3.000000e+000 -4.823908e+001 -5.550000e+000
      vertex  3.000000e+000 -4.843074e+001 -2.812145e+000
      vertex  3.000000e+000 -4.846889e+001 -2.964455e+000
    endloop
  endfacet
  facet normal  9.999999e-001  0.000000e+000  0.000000e+000
    outer loop
      vertex  3.000000e+000 -4.823908e+001 -5.550000e+000
      vertex  3.000000e+000 -4.846889e+001 -2.964455e+000
      vertex  3.000000e+000 -4.852179e+001 -3.112293e+000
    endloop
  endfacet
  facet normal  1.000000e+000  0.000000e+000  0.000000e+000
    outer loop
      vertex  3.000000e+000 -4.823908e+001 -5.550000e+000
      vertex  3.000000e+000 -4.852179e+001 -3.112293e+000
      vertex  3.000000e+000 -4.858892e+001 -3.254235e+000
    endloop
  endfacet
  facet normal  9.999999e-001  0.000000e+000  0.000000e+000
    outer loop
      vertex  3.000000e+000 -4.823908e+001 -5.550000e+000
      vertex  3.000000e+000 -4.858892e+001 -3.254235e+000
      vertex  3.000000e+000 -4.866965e+001 -3.388912e+000
    endloop
  endfacet
  facet normal  1.000000e+000  0.000000e+000  0.000000e+000
    outer loop
      vertex  3.000000e+000 -4.823908e+001 -5.550000e+000
      vertex  3.000000e+000 -4.866965e+001 -3.388912e+000
      vertex  3.000000e+000 -4.876318e+001 -3.515029e+000
    endloop
  endfacet
  facet normal  1.000000e+000  0.000000e+000  0.000000e+000
    outer loop
      vertex  3.000000e+000 -4.823908e+001 -5.550000e+000
      vertex  3.000000e+000 -4.876318e+001 -3.515029e+000
      vertex  3.000000e+000 -4.886863e+001 -3.631371e+000
    endloop
  endfacet
  facet normal  1.000000e+000  0.000000e+000  0.000000e+000
    outer loop
      vertex  3.000000e+000 -4.823908e+001 -5.550000e+000
      vertex  3.000000e+000 -4.886863e+001 -3.631371e+000
      vertex  3.000000e+000 -4.898497e+001 -3.736817e+000
    endloop
  endfacet
  facet normal  1.000000e+000  0.000000e+000  0.000000e+000
    outer loop
      vertex  3.000000e+000 -4.823908e+001 -5.550000e+000
      vertex  3.000000e+000 -4.898497e+001 -3.736817e+000
      vertex  3.000000e+000 -4.911109e+001 -3.830351e+000
    endloop
  endfacet
  facet normal  1.000000e+000  0.000000e+000  0.000000e+000
    outer loop
      vertex  3.000000e+000 -4.823908e+001 -5.550000e+000
      vertex  3.000000e+000 -4.911109e+001 -3.830351e+000
      vertex  3.000000e+000 -4.924577e+001 -3.911074e+000
    endloop
  endfacet
  facet normal  1.000000e+000  0.000000e+000  0.000000e+000
    outer loop
      vertex  3.000000e+000 -4.823908e+001 -5.550000e+000
      vertex  3.000000e+000 -4.924577e+001 -3.911074e+000
      vertex  3.000000e+000 -4.938771e+001 -3.978207e+000
    endloop
  endfacet
  facet normal  1.000000e+000  0.000000e+000  0.000000e+000
    outer loop
      vertex  3.000000e+000 -4.823908e+001 -5.550000e+000
      vertex  3.000000e+000 -4.938771e+001 -3.978207e+000
      vertex  3.000000e+000 -4.953555e+001 -4.031105e+000
    endloop
  endfacet
  facet normal  1.000000e+000  0.000000e+000  0.000000e+000
    outer loop
      vertex  3.000000e+000 -4.823908e+001 -5.550000e+000
      vertex  3.000000e+000 -4.953555e+001 -4.031105e+000
      vertex  3.000000e+000 -4.968785e+001 -4.069256e+000
    endloop
  endfacet
  facet normal  1.000000e+000  0.000000e+000  0.000000e+000
    outer loop
      vertex  3.000000e+000 -4.823908e+001 -5.550000e+000
      vertex  3.000000e+000 -4.968785e+001 -4.069256e+000
      vertex  3.000000e+000 -4.984317e+001 -4.092296e+000
    endloop
  endfacet
  facet normal  9.999999e-001  0.000000e+000  0.000000e+000
    outer loop
      vertex  3.000000e+000 -4.823908e+001 -5.550000e+000
      vertex  3.000000e+000 -4.984317e+001 -4.092296e+000
      vertex  3.000000e+000 -5.000000e+001 -4.100000e+000
    endloop
  endfacet
  facet normal  -0.000000e+000 -8.660255e-001 -4.999999e-001
    outer loop
      vertex  3.000000e+000 -4.647816e+001 -2.500000e+000
      vertex  5.000000e+000 -4.647816e+001 -2.500000e+000
      vertex  3.000000e+000 -4.823908e+001  5.500000e-001
    endloop
  endfacet
  facet normal  0.000000e+000 -8.660255e-001 -4.999999e-001
    outer loop
      vertex  3.000000e+000 -4.823908e+001  5.500000e-001
      vertex  5.000000e+000 -4.647816e+001 -2.500000e+000
      vertex  5.000000e+000 -4.823908e+001  5.500000e-001
    endloop
  endfacet
  facet normal  0.000000e+000 -8.660254e-001  4.999998e-001
    outer loop
      vertex  3.000000e+000 -4.823908e+001 -5.550000e+000
      vertex  5.000000e+000 -4.823908e+001 -5.550000e+000
      vertex  3.000000e+000 -4.647816e+001 -2.500000e+000
    endloop
  endfacet
  facet normal  0.000000e+000 -8.660254e-001  4.999998e-001
    outer loop
      vertex  3.000000e+000 -4.647816e+001 -2.500000e+000
      vertex  5.000000e+000 -4.823908e+001 -5.550000e+000
      vertex  5.000000e+000 -4.647816e+001 -2.500000e+000
    endloop
  endfacet
  facet normal  0.000000e+000  0.000000e+000  9.999999e-001
    outer loop
      vertex  3.000000e+000 -5.176092e+001 -5.550000e+000
      vertex  5.000000e+000 -5.176092e+001 -5.550000e+000
      vertex  3.000000e+000 -4.823908e+001 -5.550000e+000
    endloop
  endfacet
  facet normal  -0.000000e+000  0.000000e+000  9.999999e-001
    outer loop
      vertex  3.000000e+000 -4.823908e+001 -5.550000e+000
      vertex  5.000000e+000 -5.176092e+001 -5.550000e+000
      vertex  5.000000e+000 -4.823908e+001 -5.550000e+000
    endloop
  endfacet
  facet normal  0.000000e+000  8.660254e-001  4.999998e-001
    outer loop
      vertex  3.000000e+000 -5.352184e+001 -2.500000e+000
      vertex  5.000000e+000 -5.352184e+001 -2.500000e+000
      vertex  3.000000e+000 -5.176092e+001 -5.550000e+000
    endloop
  endfacet
  facet normal  -0.000000e+000  8.660254e-001  4.999998e-001
    outer loop
      vertex  3.000000e+000 -5.176092e+001 -5.550000e+000
      vertex  5.000000e+000 -5.352184e+001 -2.500000e+000
      vertex  5.000000e+000 -5.176092e+001 -5.550000e+000
    endloop
  endfacet
  facet normal  0.000000e+000  8.660255e-001 -4.999999e-001
    outer loop
      vertex  3.000000e+000 -5.176092e+001  5.500000e-001
      vertex  5.000000e+000 -5.176092e+001  5.500000e-001
      vertex  3.000000e+000 -5.352184e+001 -2.500000e+000
    endloop
  endfacet
  facet normal  0.000000e+000  8.660255e-001 -4.999999e-001
    outer loop
      vertex  3.000000e+000 -5.352184e+001 -2.500000e+000
      vertex  5.000000e+000 -5.176092e+001  5.500000e-001
      vertex  5.000000e+000 -5.352184e+001 -2.500000e+000
    endloop
  endfacet
  facet normal  -0.000000e+000  0.000000e+000 -9.999999e-001
    outer loop
      vertex  3.000000e+000 -4.823908e+001  5.500000e-001
      vertex  5.000000e+000 -4.823908e+001  5.500000e-001
      vertex  3.000000e+000 -5.176092e+001  5.500000e-001
    endloop
  endfacet
  facet normal  0.000000e+000  0.000000e+000 -9.999999e-001
    outer loop
      vertex  3.000000e+000 -5.176092e+001  5.500000e-001
      vertex  5.000000e+000 -4.823908e+001  5.500000e-001
      vertex  5.000000e+000 -5.176092e+001  5.500000e-001
    endloop
  endfacet
  facet normal  0.000000e+000  0.000000e+000  1.000000e+000
    outer loop
      vertex  5.000000e+000 -5.500000e+001  7.550000e+000
      vertex  1.500000e+001 -1.500000e+001  7.550000e+000
      vertex  0.000000e+000 -5.500000e+001  7.550000e+000
    endloop
  endfacet
  facet normal  0.000000e+000  0.000000e+000  1.000000e+000
    outer loop
      vertex  0.000000e+000 -5.500000e+001  7.550000e+000
      vertex  1.500000e+001 -1.500000e+001  7.550000e+000
      vertex  1.500000e+001 -7.550000e+000  7.550000e+000
    endloop
  endfacet
  facet normal  0.000000e+000  0.000000e+000  1.000000e+000
    outer loop
      vertex  0.000000e+000 -5.500000e+001  7.550000e+000
      vertex  1.500000e+001 -7.550000e+000  7.550000e+000
      vertex  0.000000e+000 -7.550000e+000  7.550000e+000
    endloop
  endfacet
  facet normal  0.000000e+000 -1.000000e+000  -0.000000e+000
    outer loop
      vertex  5.000000e+000 -5.500000e+001 -1.255000e+001
      vertex  5.000000e+000 -5.500000e+001  2.550000e+000
      vertex  0.000000e+000 -5.500000e+001 -1.255000e+001
    endloop
  endfacet
  facet normal  0.000000e+000 -1.000000e+000  0.000000e+000
    outer loop
      vertex  0.000000e+000 -5.500000e+001 -1.255000e+001
      vertex  5.000000e+000 -5.500000e+001  2.550000e+000
      vertex  5.000000e+000 -5.500000e+001  7.550000e+000
    endloop
  endfacet
  facet normal  -0.000000e+000 -1.000000e+000  0.000000e+000
    outer loop
      vertex  0.000000e+000 -5.500000e+001 -1.255000e+001
      vertex  5.000000e+000 -5.500000e+001  7.550000e+000
      vertex  0.000000e+000 -5.500000e+001  7.550000e+000
    endloop
  endfacet
  facet normal  0.000000e+000  0.000000e+000 -1.000000e+000
    outer loop
      vertex  1.500000e+001 -1.255000e+001  2.550000e+000
      vertex  1.500000e+001 -1.500000e+001  2.550000e+000
      vertex  5.000000e+000 -1.255000e+001  2.550000e+000
    endloop
  endfacet
  facet normal  0.000000e+000  0.000000e+000 -1.000000e+000
    outer loop
      vertex  5.000000e+000 -1.255000e+001  2.550000e+000
      vertex  1.500000e+001 -1.500000e+001  2.550000e+000
      vertex  5.000000e+000 -5.500000e+001  2.550000e+000
    endloop
  endfacet
  facet normal  1.000000e+000  0.000000e+000  0.000000e+000
    outer loop
      vertex  1.500000e+001 -7.550000e+000 -7.550000e+000
      vertex  1.500000e+001  1.255000e+001 -1.255000e+001
      vertex  1.500000e+001  7.550000e+000 -7.550000e+000
    endloop
  endfacet
  facet normal  1.000000e+000  -0.000000e+000  0.000000e+000
    outer loop
      vertex  1.500000e+001  7.550000e+000 -7.550000e+000
      vertex  1.500000e+001  1.255000e+001 -1.255000e+001
      vertex  1.500000e+001  1.255000e+001  7.550000e+000
    endloop
  endfacet
  facet normal  1.000000e+000  0.000000e+000  0.000000e+000
    outer loop
      vertex  1.500000e+001  7.550000e+000 -7.550000e+000
      vertex  1.500000e+001  1.255000e+001  7.550000e+000
      vertex  1.500000e+001  7.550000e+000  7.550000e+000
    endloop
  endfacet
  facet normal  1.000000e+000  0.000000e+000  0.000000e+000
    outer loop
      vertex  1.500000e+001  1.255000e+001 -1.255000e+001
      vertex  1.500000e+001 -7.550000e+000 -7.550000e+000
      vertex  1.500000e+001 -1.255000e+001 -1.255000e+001
    endloop
  endfacet
  facet normal  1.000000e+000  0.000000e+000  0.000000e+000
    outer loop
      vertex  1.500000e+001 -1.255000e+001 -1.255000e+001
      vertex  1.500000e+001 -7.550000e+000 -7.550000e+000
      vertex  1.500000e+001 -7.550000e+000  7.550000e+000
    endloop
  endfacet
  facet normal  1.000000e+000  0.000000e+000  0.000000e+000
    outer loop
      vertex  1.500000e+001 -1.255000e+001 -1.255000e+001
      vertex  1.500000e+001 -7.550000e+000  7.550000e+000
      vertex  1.500000e+001 -1.255000e+001  2.550000e+000
    endloop
  endfacet
  facet normal  1.000000e+000  0.000000e+000  -0.000000e+000
    outer loop
      vertex  1.500000e+001 -1.255000e+001  2.550000e+000
      vertex  1.500000e+001 -7.550000e+000  7.550000e+000
      vertex  1.500000e+001 -1.500000e+001  7.550000e+000
    endloop
  endfacet
  facet normal  1.000000e+000  0.000000e+000  0.000000e+000
    outer loop
      vertex  1.500000e+001 -1.255000e+001  2.550000e+000
      vertex  1.500000e+001 -1.500000e+001  7.550000e+000
      vertex  1.500000e+001 -1.500000e+001  2.550000e+000
    endloop
  endfacet
  facet normal  0.000000e+000  0.000000e+000 -9.999999e-001
    outer loop
      vertex  0.000000e+000 -5.500000e+001 -1.255000e+001
      vertex  0.000000e+000  1.255000e+001 -1.255000e+001
      vertex  5.000000e+000 -5.500000e+001 -1.255000e+001
    endloop
  endfacet
  facet normal  0.000000e+000  0.000000e+000 -1.000000e+000
    outer loop
      vertex  5.000000e+000 -5.500000e+001 -1.255000e+001
      vertex  0.000000e+000  1.255000e+001 -1.255000e+001
      vertex  5.000000e+000 -1.255000e+001 -1.255000e+001
    endloop
  endfacet
  facet normal  -0.000000e+000  0.000000e+000 -1.000000e+000
    outer loop
      vertex  0.000000e+000  1.255000e+001 -1.255000e+001
      vertex  1.500000e+001  1.255000e+001 -1.255000e+001
      vertex  5.000000e+000 -1.255000e+001 -1.255000e+001
    endloop
  endfacet
  facet normal  0.000000e+000  0.000000e+000 -1.000000e+000
    outer loop
      vertex  5.000000e+000 -1.255000e+001 -1.255000e+001
      vertex  1.500000e+001  1.255000e+001 -1.255000e+001
      vertex  1.500000e+001 -1.255000e+001 -1.255000e+001
    endloop
  endfacet
  facet normal  9.701424e-001 -2.425356e-001  0.000000e+000
    outer loop
      vertex  5.000000e+000 -5.500000e+001  2.550000e+000
      vertex  1.500000e+001 -1.500000e+001  2.550000e+000
      vertex  5.000000e+000 -5.500000e+001  7.550000e+000
    endloop
  endfacet
  facet normal  9.701424e-001 -2.425356e-001  0.000000e+000
    outer loop
      vertex  5.000000e+000 -5.500000e+001  7.550000e+000
      vertex  1.500000e+001 -1.500000e+001  2.550000e+000
      vertex  1.500000e+001 -1.500000e+001  7.550000e+000
    endloop
  endfacet
  facet normal  0.000000e+000  1.000000e+000  0.000000e+000
    outer loop
      vertex  0.000000e+000  1.255000e+001  7.550000e+000
      vertex  1.500000e+001  1.255000e+001  7.550000e+000
      vertex  0.000000e+000  1.255000e+001 -1.255000e+001
    endloop
  endfacet
  facet normal  0.000000e+000  1.000000e+000  0.000000e+000
    outer loop
      vertex  0.000000e+000  1.255000e+001 -1.255000e+001
      vertex  1.500000e+001  1.255000e+001  7.550000e+000
      vertex  1.500000e+001  1.255000e+001 -1.255000e+001
    endloop
  endfacet
  facet normal  0.000000e+000  0.000000e+000  1.000000e+000
    outer loop
      vertex  1.500000e+001  7.550000e+000  7.550000e+000
      vertex  1.500000e+001  1.255000e+001  7.550000e+000
      vertex  0.000000e+000  7.550000e+000  7.550000e+000
    endloop
  endfacet
  facet normal  0.000000e+000  0.000000e+000  1.000000e+000
    outer loop
      vertex  0.000000e+000  7.550000e+000  7.550000e+000
      vertex  1.500000e+001  1.255000e+001  7.550000e+000
      vertex  0.000000e+000  1.255000e+001  7.550000e+000
    endloop
  endfacet
  facet normal  0.000000e+000 -1.000000e+000  0.000000e+000
    outer loop
      vertex  0.000000e+000  7.550000e+000 -7.550000e+000
      vertex  1.500000e+001  7.550000e+000 -7.550000e+000
      vertex  0.000000e+000  7.550000e+000  7.550000e+000
    endloop
  endfacet
  facet normal  0.000000e+000 -1.000000e+000  0.000000e+000
    outer loop
      vertex  0.000000e+000  7.550000e+000  7.550000e+000
      vertex  1.500000e+001  7.550000e+000 -7.550000e+000
      vertex  1.500000e+001  7.550000e+000  7.550000e+000
    endloop
  endfacet
  facet normal  0.000000e+000  0.000000e+000  1.000000e+000
    outer loop
      vertex  0.000000e+000 -7.550000e+000 -7.550000e+000
      vertex  1.500000e+001 -7.550000e+000 -7.550000e+000
      vertex  0.000000e+000  7.550000e+000 -7.550000e+000
    endloop
  endfacet
  facet normal  -0.000000e+000  0.000000e+000  1.000000e+000
    outer loop
      vertex  0.000000e+000  7.550000e+000 -7.550000e+000
      vertex  1.500000e+001 -7.550000e+000 -7.550000e+000
      vertex  1.500000e+001  7.550000e+000 -7.550000e+000
    endloop
  endfacet
  facet normal  0.000000e+000  1.000000e+000  0.000000e+000
    outer loop
      vertex  0.000000e+000 -7.550000e+000  7.550000e+000
      vertex  1.500000e+001 -7.550000e+000  7.550000e+000
      vertex  0.000000e+000 -7.550000e+000 -7.550000e+000
    endloop
  endfacet
  facet normal  0.000000e+000  1.000000e+000  0.000000e+000
    outer loop
      vertex  0.000000e+000 -7.550000e+000 -7.550000e+000
      vertex  1.500000e+001 -7.550000e+000  7.550000e+000
      vertex  1.500000e+001 -7.550000e+000 -7.550000e+000
    endloop
  endfacet
  facet normal -1.000000e+000  -0.000000e+000  0.000000e+000
    outer loop
      vertex  0.000000e+000 -5.500000e+001  7.550000e+000
      vertex  0.000000e+000 -7.550000e+000  7.550000e+000
      vertex  0.000000e+000 -5.000000e+001 -9.000000e-001
    endloop
  endfacet
  facet normal -1.000000e+000  -0.000000e+000  0.000000e+000
    outer loop
      vertex  0.000000e+000 -5.500000e+001  7.550000e+000
      vertex  0.000000e+000 -5.000000e+001 -9.000000e-001
      vertex  0.000000e+000 -5.015683e+001 -9.077044e-001
    endloop
  endfacet
  facet normal -1.000000e+000  -0.000000e+000  0.000000e+000
    outer loop
      vertex  0.000000e+000 -5.500000e+001  7.550000e+000
      vertex  0.000000e+000 -5.015683e+001 -9.077044e-001
      vertex  0.000000e+000 -5.031215e+001 -9.307436e-001
    endloop
  endfacet
  facet normal -9.999999e-001  -0.000000e+000  0.000000e+000
    outer loop
      vertex  0.000000e+000 -5.500000e+001  7.550000e+000
      vertex  0.000000e+000 -5.031215e+001 -9.307436e-001
      vertex  0.000000e+000 -5.046445e+001 -9.688954e-001
    endloop
  endfacet
  facet normal -1.000000e+000  -0.000000e+000  0.000000e+000
    outer loop
      vertex  0.000000e+000 -5.500000e+001  7.550000e+000
      vertex  0.000000e+000 -5.046445e+001 -9.688954e-001
      vertex  0.000000e+000 -5.061229e+001 -1.021793e+000
    endloop
  endfacet
  facet normal -1.000000e+000  -0.000000e+000  0.000000e+000
    outer loop
      vertex  0.000000e+000 -5.500000e+001  7.550000e+000
      vertex  0.000000e+000 -5.061229e+001 -1.021793e+000
      vertex  0.000000e+000 -5.075423e+001 -1.088926e+000
    endloop
  endfacet
  facet normal -1.000000e+000  -0.000000e+000  0.000000e+000
    outer loop
      vertex  0.000000e+000 -5.500000e+001  7.550000e+000
      vertex  0.000000e+000 -5.075423e+001 -1.088926e+000
      vertex  0.000000e+000 -5.088891e+001 -1.169649e+000
    endloop
  endfacet
  facet normal -1.000000e+000  -0.000000e+000  0.000000e+000
    outer loop
      vertex  0.000000e+000 -5.500000e+001  7.550000e+000
      vertex  0.000000e+000 -5.088891e+001 -1.169649e+000
      vertex  0.000000e+000 -5.101503e+001 -1.263183e+000
    endloop
  endfacet
  facet normal -1.000000e+000  -0.000000e+000  0.000000e+000
    outer loop
      vertex  0.000000e+000 -5.500000e+001  7.550000e+000
      vertex  0.000000e+000 -5.101503e+001 -1.263183e+000
      vertex  0.000000e+000 -5.113137e+001 -1.368629e+000
    endloop
  endfacet
  facet normal -9.999999e-001  -0.000000e+000  0.000000e+000
    outer loop
      vertex  0.000000e+000 -5.500000e+001  7.550000e+000
      vertex  0.000000e+000 -5.113137e+001 -1.368629e+000
      vertex  0.000000e+000 -5.123682e+001 -1.484971e+000
    endloop
  endfacet
  facet normal -1.000000e+000  -0.000000e+000  0.000000e+000
    outer loop
      vertex  0.000000e+000 -5.500000e+001  7.550000e+000
      vertex  0.000000e+000 -5.123682e+001 -1.484971e+000
      vertex  0.000000e+000 -5.133035e+001 -1.611088e+000
    endloop
  endfacet
  facet normal -1.000000e+000  -0.000000e+000  0.000000e+000
    outer loop
      vertex  0.000000e+000 -5.500000e+001  7.550000e+000
      vertex  0.000000e+000 -5.133035e+001 -1.611088e+000
      vertex  0.000000e+000 -5.141108e+001 -1.745765e+000
    endloop
  endfacet
  facet normal -1.000000e+000  -0.000000e+000  0.000000e+000
    outer loop
      vertex  0.000000e+000 -5.500000e+001  7.550000e+000
      vertex  0.000000e+000 -5.141108e+001 -1.745765e+000
      vertex  0.000000e+000 -5.147821e+001 -1.887707e+000
    endloop
  endfacet
  facet normal -1.000000e+000  -0.000000e+000  0.000000e+000
    outer loop
      vertex  0.000000e+000 -5.500000e+001  7.550000e+000
      vertex  0.000000e+000 -5.147821e+001 -1.887707e+000
      vertex  0.000000e+000 -5.153111e+001 -2.035545e+000
    endloop
  endfacet
  facet normal -1.000000e+000  -0.000000e+000  0.000000e+000
    outer loop
      vertex  0.000000e+000 -5.500000e+001  7.550000e+000
      vertex  0.000000e+000 -5.153111e+001 -2.035545e+000
      vertex  0.000000e+000 -5.500000e+001 -1.255000e+001
    endloop
  endfacet
  facet normal -1.000000e+000  0.000000e+000  0.000000e+000
    outer loop
      vertex  0.000000e+000 -5.500000e+001 -1.255000e+001
      vertex  0.000000e+000 -5.153111e+001 -2.035545e+000
      vertex  0.000000e+000 -5.156926e+001 -2.187855e+000
    endloop
  endfacet
  facet normal -1.000000e+000  0.000000e+000  0.000000e+000
    outer loop
      vertex  0.000000e+000 -5.500000e+001 -1.255000e+001
      vertex  0.000000e+000 -5.156926e+001 -2.187855e+000
      vertex  0.000000e+000 -5.159230e+001 -2.343173e+000
    endloop
  endfacet
  facet normal -9.999999e-001  0.000000e+000  0.000000e+000
    outer loop
      vertex  0.000000e+000 -5.500000e+001 -1.255000e+001
      vertex  0.000000e+000 -5.159230e+001 -2.343173e+000
      vertex  0.000000e+000 -5.160000e+001 -2.500000e+000
    endloop
  endfacet
  facet normal -1.000000e+000  0.000000e+000  -0.000000e+000
    outer loop
      vertex  0.000000e+000 -5.500000e+001 -1.255000e+001
      vertex  0.000000e+000 -5.160000e+001 -2.500000e+000
      vertex  0.000000e+000 -5.159230e+001 -2.656827e+000
    endloop
  endfacet
  facet normal -1.000000e+000  0.000000e+000  -0.000000e+000
    outer loop
      vertex  0.000000e+000 -5.500000e+001 -1.255000e+001
      vertex  0.000000e+000 -5.159230e+001 -2.656827e+000
      vertex  0.000000e+000 -5.156926e+001 -2.812145e+000
    endloop
  endfacet
  facet normal -1.000000e+000  0.000000e+000  -0.000000e+000
    outer loop
      vertex  0.000000e+000 -5.500000e+001 -1.255000e+001
      vertex  0.000000e+000 -5.156926e+001 -2.812145e+000
      vertex  0.000000e+000 -5.153111e+001 -2.964455e+000
    endloop
  endfacet
  facet normal -1.000000e+000  0.000000e+000  -0.000000e+000
    outer loop
      vertex  0.000000e+000 -5.500000e+001 -1.255000e+001
      vertex  0.000000e+000 -5.153111e+001 -2.964455e+000
      vertex  0.000000e+000 -5.147821e+001 -3.112293e+000
    endloop
  endfacet
  facet normal -1.000000e+000  0.000000e+000  -0.000000e+000
    outer loop
      vertex  0.000000e+000 -5.500000e+001 -1.255000e+001
      vertex  0.000000e+000 -5.147821e+001 -3.112293e+000
      vertex  0.000000e+000 -5.141108e+001 -3.254235e+000
    endloop
  endfacet
  facet normal -1.000000e+000  0.000000e+000  -0.000000e+000
    outer loop
      vertex  0.000000e+000 -5.500000e+001 -1.255000e+001
      vertex  0.000000e+000 -5.141108e+001 -3.254235e+000
      vertex  0.000000e+000 -5.133035e+001 -3.388912e+000
    endloop
  endfacet
  facet normal -1.000000e+000  0.000000e+000  -0.000000e+000
    outer loop
      vertex  0.000000e+000 -5.500000e+001 -1.255000e+001
      vertex  0.000000e+000 -5.133035e+001 -3.388912e+000
      vertex  0.000000e+000 -5.123682e+001 -3.515029e+000
    endloop
  endfacet
  facet normal -9.999999e-001  0.000000e+000  -0.000000e+000
    outer loop
      vertex  0.000000e+000 -5.500000e+001 -1.255000e+001
      vertex  0.000000e+000 -5.123682e+001 -3.515029e+000
      vertex  0.000000e+000 -5.113137e+001 -3.631371e+000
    endloop
  endfacet
  facet normal -1.000000e+000  0.000000e+000  -0.000000e+000
    outer loop
      vertex  0.000000e+000 -5.500000e+001 -1.255000e+001
      vertex  0.000000e+000 -5.113137e+001 -3.631371e+000
      vertex  0.000000e+000 -5.101503e+001 -3.736817e+000
    endloop
  endfacet
  facet normal -1.000000e+000  0.000000e+000  -0.000000e+000
    outer loop
      vertex  0.000000e+000 -5.500000e+001 -1.255000e+001
      vertex  0.000000e+000 -5.101503e+001 -3.736817e+000
      vertex  0.000000e+000 -5.088891e+001 -3.830351e+000
    endloop
  endfacet
  facet normal -1.000000e+000  0.000000e+000  -0.000000e+000
    outer loop
      vertex  0.000000e+000 -5.500000e+001 -1.255000e+001
      vertex  0.000000e+000 -5.088891e+001 -3.830351e+000
      vertex  0.000000e+000 -5.075423e+001 -3.911074e+000
    endloop
  endfacet
  facet normal -1.000000e+000  0.000000e+000  -0.000000e+000
    outer loop
      vertex  0.000000e+000 -5.500000e+001 -1.255000e+001
      vertex  0.000000e+000 -5.075423e+001 -3.911074e+000
      vertex  0.000000e+000 -5.061229e+001 -3.978207e+000
    endloop
  endfacet
  facet normal -1.000000e+000  0.000000e+000  -0.000000e+000
    outer loop
      vertex  0.000000e+000 -5.500000e+001 -1.255000e+001
      vertex  0.000000e+000 -5.061229e+001 -3.978207e+000
      vertex  0.000000e+000 -5.046445e+001 -4.031105e+000
    endloop
  endfacet
  facet normal -1.000000e+000  0.000000e+000  -0.000000e+000
    outer loop
      vertex  0.000000e+000 -5.500000e+001 -1.255000e+001
      vertex  0.000000e+000 -5.046445e+001 -4.031105e+000
      vertex  0.000000e+000 -5.031215e+001 -4.069256e+000
    endloop
  endfacet
  facet normal -9.999999e-001  0.000000e+000  -0.000000e+000
    outer loop
      vertex  0.000000e+000 -5.500000e+001 -1.255000e+001
      vertex  0.000000e+000 -5.031215e+001 -4.069256e+000
      vertex  0.000000e+000 -5.015683e+001 -4.092296e+000
    endloop
  endfacet
  facet normal -1.000000e+000  0.000000e+000  -0.000000e+000
    outer loop
      vertex  0.000000e+000 -5.500000e+001 -1.255000e+001
      vertex  0.000000e+000 -5.015683e+001 -4.092296e+000
      vertex  0.000000e+000 -5.000000e+001 -4.100000e+000
    endloop
  endfacet
  facet normal -1.000000e+000  0.000000e+000  -0.000000e+000
    outer loop
      vertex  0.000000e+000 -5.500000e+001 -1.255000e+001
      vertex  0.000000e+000 -5.000000e+001 -4.100000e+000
      vertex  0.000000e+000 -7.550000e+000 -7.550000e+000
    endloop
  endfacet
  facet normal -9.999999e-001  0.000000e+000  -0.000000e+000
    outer loop
      vertex  0.000000e+000 -5.500000e+001 -1.255000e+001
      vertex  0.000000e+000 -7.550000e+000 -7.550000e+000
      vertex  0.000000e+000  1.255000e+001 -1.255000e+001
    endloop
  endfacet
  facet normal -1.000000e+000  0.000000e+000  0.000000e+000
    outer loop
      vertex  0.000000e+000 -7.550000e+000 -7.550000e+000
      vertex  0.000000e+000 -5.000000e+001 -4.100000e+000
      vertex  0.000000e+000 -4.984317e+001 -4.092296e+000
    endloop
  endfacet
  facet normal -1.000000e+000  0.000000e+000  0.000000e+000
    outer loop
      vertex  0.000000e+000 -7.550000e+000 -7.550000e+000
      vertex  0.000000e+000 -4.984317e+001 -4.092296e+000
      vertex  0.000000e+000 -4.968785e+001 -4.069256e+000
    endloop
  endfacet
  facet normal -1.000000e+000  0.000000e+000  0.000000e+000
    outer loop
      vertex  0.000000e+000 -7.550000e+000 -7.550000e+000
      vertex  0.000000e+000 -4.968785e+001 -4.069256e+000
      vertex  0.000000e+000 -4.953555e+001 -4.031105e+000
    endloop
  endfacet
  facet normal -1.000000e+000  0.000000e+000  0.000000e+000
    outer loop
      vertex  0.000000e+000 -7.550000e+000 -7.550000e+000
      vertex  0.000000e+000 -4.953555e+001 -4.031105e+000
      vertex  0.000000e+000 -4.938771e+001 -3.978207e+000
    endloop
  endfacet
  facet normal -1.000000e+000  0.000000e+000  0.000000e+000
    outer loop
      vertex  0.000000e+000 -7.550000e+000 -7.550000e+000
      vertex  0.000000e+000 -4.938771e+001 -3.978207e+000
      vertex  0.000000e+000 -4.924577e+001 -3.911074e+000
    endloop
  endfacet
  facet normal -1.000000e+000  0.000000e+000  0.000000e+000
    outer loop
      vertex  0.000000e+000 -7.550000e+000 -7.550000e+000
      vertex  0.000000e+000 -4.924577e+001 -3.911074e+000
      vertex  0.000000e+000 -4.911109e+001 -3.830351e+000
    endloop
  endfacet
  facet normal -1.000000e+000  0.000000e+000  0.000000e+000
    outer loop
      vertex  0.000000e+000 -7.550000e+000 -7.550000e+000
      vertex  0.000000e+000 -4.911109e+001 -3.830351e+000
      vertex  0.000000e+000 -4.898497e+001 -3.736817e+000
    endloop
  endfacet
  facet normal -1.000000e+000  0.000000e+000  0.000000e+000
    outer loop
      vertex  0.000000e+000 -7.550000e+000 -7.550000e+000
      vertex  0.000000e+000 -4.898497e+001 -3.736817e+000
      vertex  0.000000e+000 -4.886863e+001 -3.631371e+000
    endloop
  endfacet
  facet normal -1.000000e+000  0.000000e+000  0.000000e+000
    outer loop
      vertex  0.000000e+000 -7.550000e+000 -7.550000e+000
      vertex  0.000000e+000 -4.886863e+001 -3.631371e+000
      vertex  0.000000e+000 -4.876318e+001 -3.515029e+000
    endloop
  endfacet
  facet normal -1.000000e+000  0.000000e+000  0.000000e+000
    outer loop
      vertex  0.000000e+000 -7.550000e+000 -7.550000e+000
      vertex  0.000000e+000 -4.876318e+001 -3.515029e+000
      vertex  0.000000e+000 -4.866965e+001 -3.388912e+000
    endloop
  endfacet
  facet normal -1.000000e+000  0.000000e+000  0.000000e+000
    outer loop
      vertex  0.000000e+000 -7.550000e+000 -7.550000e+000
      vertex  0.000000e+000 -4.866965e+001 -3.388912e+000
      vertex  0.000000e+000 -4.858892e+001 -3.254235e+000
    endloop
  endfacet
  facet normal -9.999999e-001  0.000000e+000  0.000000e+000
    outer loop
      vertex  0.000000e+000 -7.550000e+000 -7.550000e+000
      vertex  0.000000e+000 -4.858892e+001 -3.254235e+000
      vertex  0.000000e+000 -4.852179e+001 -3.112293e+000
    endloop
  endfacet
  facet normal -1.000000e+000  0.000000e+000  0.000000e+000
    outer loop
      vertex  0.000000e+000 -7.550000e+000 -7.550000e+000
      vertex  0.000000e+000 -4.852179e+001 -3.112293e+000
      vertex  0.000000e+000 -4.846889e+001 -2.964455e+000
    endloop
  endfacet
  facet normal -1.000000e+000  0.000000e+000  0.000000e+000
    outer loop
      vertex  0.000000e+000 -7.550000e+000 -7.550000e+000
      vertex  0.000000e+000 -4.846889e+001 -2.964455e+000
      vertex  0.000000e+000 -4.843074e+001 -2.812145e+000
    endloop
  endfacet
  facet normal -1.000000e+000  0.000000e+000  0.000000e+000
    outer loop
      vertex  0.000000e+000 -7.550000e+000 -7.550000e+000
      vertex  0.000000e+000 -4.843074e+001 -2.812145e+000
      vertex  0.000000e+000 -4.840770e+001 -2.656827e+000
    endloop
  endfacet
  facet normal -1.000000e+000  0.000000e+000  0.000000e+000
    outer loop
      vertex  0.000000e+000 -7.550000e+000 -7.550000e+000
      vertex  0.000000e+000 -4.840770e+001 -2.656827e+000
      vertex  0.000000e+000 -4.840000e+001 -2.500000e+000
    endloop
  endfacet
  facet normal -1.000000e+000  0.000000e+000  0.000000e+000
    outer loop
      vertex  0.000000e+000 -7.550000e+000 -7.550000e+000
      vertex  0.000000e+000 -4.840000e+001 -2.500000e+000
      vertex  0.000000e+000 -4.840770e+001 -2.343173e+000
    endloop
  endfacet
  facet normal -9.999999e-001  0.000000e+000  0.000000e+000
    outer loop
      vertex  0.000000e+000 -7.550000e+000 -7.550000e+000
      vertex  0.000000e+000 -4.840770e+001 -2.343173e+000
      vertex  0.000000e+000 -4.843074e+001 -2.187855e+000
    endloop
  endfacet
  facet normal -1.000000e+000  0.000000e+000  0.000000e+000
    outer loop
      vertex  0.000000e+000 -7.550000e+000 -7.550000e+000
      vertex  0.000000e+000 -4.843074e+001 -2.187855e+000
      vertex  0.000000e+000 -4.846889e+001 -2.035545e+000
    endloop
  endfacet
  facet normal -1.000000e+000  0.000000e+000  0.000000e+000
    outer loop
      vertex  0.000000e+000 -7.550000e+000 -7.550000e+000
      vertex  0.000000e+000 -4.846889e+001 -2.035545e+000
      vertex  0.000000e+000 -4.852179e+001 -1.887707e+000
    endloop
  endfacet
  facet normal -9.999999e-001  0.000000e+000  0.000000e+000
    outer loop
      vertex  0.000000e+000 -7.550000e+000 -7.550000e+000
      vertex  0.000000e+000 -4.852179e+001 -1.887707e+000
      vertex  0.000000e+000 -4.858892e+001 -1.745765e+000
    endloop
  endfacet
  facet normal -1.000000e+000  0.000000e+000  0.000000e+000
    outer loop
      vertex  0.000000e+000 -7.550000e+000 -7.550000e+000
      vertex  0.000000e+000 -4.858892e+001 -1.745765e+000
      vertex  0.000000e+000 -4.866965e+001 -1.611088e+000
    endloop
  endfacet
  facet normal -1.000000e+000  0.000000e+000  0.000000e+000
    outer loop
      vertex  0.000000e+000 -7.550000e+000 -7.550000e+000
      vertex  0.000000e+000 -4.866965e+001 -1.611088e+000
      vertex  0.000000e+000 -4.876318e+001 -1.484971e+000
    endloop
  endfacet
  facet normal -1.000000e+000  0.000000e+000  0.000000e+000
    outer loop
      vertex  0.000000e+000 -7.550000e+000 -7.550000e+000
      vertex  0.000000e+000 -4.876318e+001 -1.484971e+000
      vertex  0.000000e+000 -4.886863e+001 -1.368629e+000
    endloop
  endfacet
  facet normal -1.000000e+000  0.000000e+000  0.000000e+000
    outer loop
      vertex  0.000000e+000 -7.550000e+000 -7.550000e+000
      vertex  0.000000e+000 -4.886863e+001 -1.368629e+000
      vertex  0.000000e+000 -4.898497e+001 -1.263183e+000
    endloop
  endfacet
  facet normal -1.000000e+000  0.000000e+000  0.000000e+000
    outer loop
      vertex  0.000000e+000 -7.550000e+000 -7.550000e+000
      vertex  0.000000e+000 -4.898497e+001 -1.263183e+000
      vertex  0.000000e+000 -4.911109e+001 -1.169649e+000
    endloop
  endfacet
  facet normal -9.999999e-001  0.000000e+000  0.000000e+000
    outer loop
      vertex  0.000000e+000 -7.550000e+000 -7.550000e+000
      vertex  0.000000e+000 -4.911109e+001 -1.169649e+000
      vertex  0.000000e+000 -4.924577e+001 -1.088926e+000
    endloop
  endfacet
  facet normal -9.999999e-001  0.000000e+000  0.000000e+000
    outer loop
      vertex  0.000000e+000 -7.550000e+000 -7.550000e+000
      vertex  0.000000e+000 -4.924577e+001 -1.088926e+000
      vertex  0.000000e+000 -4.938771e+001 -1.021793e+000
    endloop
  endfacet
  facet normal -1.000000e+000  0.000000e+000  0.000000e+000
    outer loop
      vertex  0.000000e+000 -7.550000e+000 -7.550000e+000
      vertex  0.000000e+000 -4.938771e+001 -1.021793e+000
      vertex  0.000000e+000 -4.953555e+001 -9.688954e-001
    endloop
  endfacet
  facet normal -1.000000e+000  0.000000e+000  0.000000e+000
    outer loop
      vertex  0.000000e+000 -7.550000e+000 -7.550000e+000
      vertex  0.000000e+000 -4.953555e+001 -9.688954e-001
      vertex  0.000000e+000 -4.968785e+001 -9.307436e-001
    endloop
  endfacet
  facet normal -1.000000e+000  0.000000e+000  0.000000e+000
    outer loop
      vertex  0.000000e+000 -7.550000e+000  7.550000e+000
      vertex  0.000000e+000 -7.550000e+000 -7.550000e+000
      vertex  0.000000e+000 -4.968785e+001 -9.307436e-001
    endloop
  endfacet
  facet normal -1.000000e+000  0.000000e+000  0.000000e+000
    outer loop
      vertex  0.000000e+000 -7.550000e+000  7.550000e+000
      vertex  0.000000e+000 -4.968785e+001 -9.307436e-001
      vertex  0.000000e+000 -4.984317e+001 -9.077044e-001
    endloop
  endfacet
  facet normal -1.000000e+000  0.000000e+000  0.000000e+000
    outer loop
      vertex  0.000000e+000 -7.550000e+000  7.550000e+000
      vertex  0.000000e+000 -4.984317e+001 -9.077044e-001
      vertex  0.000000e+000 -5.000000e+001 -9.000000e-001
    endloop
  endfacet
  facet normal -1.000000e+000  -0.000000e+000  -0.000000e+000
    outer loop
      vertex  0.000000e+000 -7.550000e+000 -7.550000e+000
      vertex  0.000000e+000  7.550000e+000 -7.550000e+000
      vertex  0.000000e+000  1.255000e+001 -1.255000e+001
    endloop
  endfacet
  facet normal -1.000000e+000  0.000000e+000  0.000000e+000
    outer loop
      vertex  0.000000e+000  1.255000e+001 -1.255000e+001
      vertex  0.000000e+000  7.550000e+000 -7.550000e+000
      vertex  0.000000e+000  7.550000e+000  7.550000e+000
    endloop
  endfacet
  facet normal -1.000000e+000  0.000000e+000  0.000000e+000
    outer loop
      vertex  0.000000e+000  1.255000e+001 -1.255000e+001
      vertex  0.000000e+000  7.550000e+000  7.550000e+000
      vertex  0.000000e+000  1.255000e+001  7.550000e+000
    endloop
  endfacet
  facet normal  0.000000e+000 -1.000000e+000  -0.000000e+000
    outer loop
      vertex  1.500000e+001 -1.255000e+001 -1.255000e+001
      vertex  1.500000e+001 -1.255000e+001  2.550000e+000
      vertex  5.000000e+000 -1.255000e+001 -1.255000e+001
    endloop
  endfacet
  facet normal  0.000000e+000 -1.000000e+000  0.000000e+000
    outer loop
      vertex  5.000000e+000 -1.255000e+001 -1.255000e+001
      vertex  1.500000e+001 -1.255000e+001  2.550000e+000
      vertex  5.000000e+000 -1.255000e+001  2.550000e+000
    endloop
  endfacet
endsolid CATIA STL
